<?xml version="1.0" encoding="utf-8" standalone="no"?>
<!DOCTYPE svg PUBLIC "-//W3C//DTD SVG 1.1//EN"
  "http://www.w3.org/Graphics/SVG/1.1/DTD/svg11.dtd">
<!-- Created with matplotlib (http://matplotlib.org/) -->
<svg height="720pt" version="1.1" viewBox="0 0 576 720" width="576pt" xmlns="http://www.w3.org/2000/svg" xmlns:xlink="http://www.w3.org/1999/xlink">
 <defs>
  <style type="text/css">
*{stroke-linecap:butt;stroke-linejoin:round;}
  </style>
 </defs>
 <g id="figure_1">
  <g id="patch_1">
   <path d="M 0 720 
L 576 720 
L 576 0 
L 0 0 
z
" style="fill:#ffffff;"/>
  </g>
  <g id="axes_1">
   <g id="patch_2">
    <path d="M 72 640.8 
L 518.4 640.8 
L 518.4 86.4 
L 72 86.4 
z
" style="fill:#e5e5e5;"/>
   </g>
   <g id="matplotlib.axis_1">
    <g id="xtick_1">
     <g id="line2d_1">
      <path clip-path="url(#pd8a5ce5524)" d="M 369.23895 640.8 
L 369.23895 86.4 
" style="fill:none;stroke:#ffffff;stroke-linecap:square;stroke-width:0.8;"/>
     </g>
     <g id="line2d_2">
      <defs>
       <path d="M 0 0 
L 0 3.5 
" id="me62bcd8525" style="stroke:#555555;stroke-width:0.8;"/>
      </defs>
      <g>
       <use style="fill:#555555;stroke:#555555;stroke-width:0.8;" x="369.23895" xlink:href="#me62bcd8525" y="640.8"/>
      </g>
     </g>
     <g id="text_1">
      <!-- ${10^{1}}$ -->
      <defs>
       <path d="M 12.40625 8.296875 
L 28.515625 8.296875 
L 28.515625 63.921875 
L 10.984375 60.40625 
L 10.984375 69.390625 
L 28.421875 72.90625 
L 38.28125 72.90625 
L 38.28125 8.296875 
L 54.390625 8.296875 
L 54.390625 0 
L 12.40625 0 
z
" id="DejaVuSans-31"/>
       <path d="M 31.78125 66.40625 
Q 24.171875 66.40625 20.328125 58.90625 
Q 16.5 51.421875 16.5 36.375 
Q 16.5 21.390625 20.328125 13.890625 
Q 24.171875 6.390625 31.78125 6.390625 
Q 39.453125 6.390625 43.28125 13.890625 
Q 47.125 21.390625 47.125 36.375 
Q 47.125 51.421875 43.28125 58.90625 
Q 39.453125 66.40625 31.78125 66.40625 
M 31.78125 74.21875 
Q 44.046875 74.21875 50.515625 64.515625 
Q 56.984375 54.828125 56.984375 36.375 
Q 56.984375 17.96875 50.515625 8.265625 
Q 44.046875 -1.421875 31.78125 -1.421875 
Q 19.53125 -1.421875 13.0625 8.265625 
Q 6.59375 17.96875 6.59375 36.375 
Q 6.59375 54.828125 13.0625 64.515625 
Q 19.53125 74.21875 31.78125 74.21875 
" id="DejaVuSans-30"/>
      </defs>
      <g style="fill:#555555;" transform="translate(360.43895 655.398438)scale(0.1 -0.1)">
       <use transform="translate(0 0.684375)" xlink:href="#DejaVuSans-31"/>
       <use transform="translate(63.623047 0.684375)" xlink:href="#DejaVuSans-30"/>
       <use transform="translate(128.203125 38.965625)scale(0.7)" xlink:href="#DejaVuSans-31"/>
      </g>
     </g>
    </g>
    <g id="xtick_2">
     <g id="line2d_3">
      <defs>
       <path d="M 0 0 
L 0 2 
" id="m0e513c5755" style="stroke:#555555;stroke-width:0.6;"/>
      </defs>
      <g>
       <use style="fill:#555555;stroke:#555555;stroke-width:0.6;" x="128.83331" xlink:href="#m0e513c5755" y="640.8"/>
      </g>
     </g>
    </g>
    <g id="xtick_3">
     <g id="line2d_4">
      <g>
       <use style="fill:#555555;stroke:#555555;stroke-width:0.6;" x="192.068265" xlink:href="#m0e513c5755" y="640.8"/>
      </g>
     </g>
     <g id="text_2">
      <!-- ${6\times10^{0}}$ -->
      <defs>
       <path d="M 33.015625 40.375 
Q 26.375 40.375 22.484375 35.828125 
Q 18.609375 31.296875 18.609375 23.390625 
Q 18.609375 15.53125 22.484375 10.953125 
Q 26.375 6.390625 33.015625 6.390625 
Q 39.65625 6.390625 43.53125 10.953125 
Q 47.40625 15.53125 47.40625 23.390625 
Q 47.40625 31.296875 43.53125 35.828125 
Q 39.65625 40.375 33.015625 40.375 
M 52.59375 71.296875 
L 52.59375 62.3125 
Q 48.875 64.0625 45.09375 64.984375 
Q 41.3125 65.921875 37.59375 65.921875 
Q 27.828125 65.921875 22.671875 59.328125 
Q 17.53125 52.734375 16.796875 39.40625 
Q 19.671875 43.65625 24.015625 45.921875 
Q 28.375 48.1875 33.59375 48.1875 
Q 44.578125 48.1875 50.953125 41.515625 
Q 57.328125 34.859375 57.328125 23.390625 
Q 57.328125 12.15625 50.6875 5.359375 
Q 44.046875 -1.421875 33.015625 -1.421875 
Q 20.359375 -1.421875 13.671875 8.265625 
Q 6.984375 17.96875 6.984375 36.375 
Q 6.984375 53.65625 15.1875 63.9375 
Q 23.390625 74.21875 37.203125 74.21875 
Q 40.921875 74.21875 44.703125 73.484375 
Q 48.484375 72.75 52.59375 71.296875 
" id="DejaVuSans-36"/>
       <path d="M 70.125 53.71875 
L 47.796875 31.296875 
L 70.125 8.984375 
L 64.3125 3.078125 
L 41.890625 25.484375 
L 19.484375 3.078125 
L 13.71875 8.984375 
L 35.984375 31.296875 
L 13.71875 53.71875 
L 19.484375 59.625 
L 41.890625 37.203125 
L 64.3125 59.625 
z
" id="DejaVuSans-d7"/>
      </defs>
      <g style="fill:#555555;" transform="translate(173.968265 653.798437)scale(0.1 -0.1)">
       <use transform="translate(0 0.765625)" xlink:href="#DejaVuSans-36"/>
       <use transform="translate(83.105469 0.765625)" xlink:href="#DejaVuSans-d7"/>
       <use transform="translate(186.376953 0.765625)" xlink:href="#DejaVuSans-31"/>
       <use transform="translate(250 0.765625)" xlink:href="#DejaVuSans-30"/>
       <use transform="translate(314.580078 39.046875)scale(0.7)" xlink:href="#DejaVuSans-30"/>
      </g>
     </g>
    </g>
    <g id="xtick_4">
     <g id="line2d_5">
      <g>
       <use style="fill:#555555;stroke:#555555;stroke-width:0.6;" x="245.532657" xlink:href="#m0e513c5755" y="640.8"/>
      </g>
     </g>
    </g>
    <g id="xtick_5">
     <g id="line2d_6">
      <g>
       <use style="fill:#555555;stroke:#555555;stroke-width:0.6;" x="291.845621" xlink:href="#m0e513c5755" y="640.8"/>
      </g>
     </g>
    </g>
    <g id="xtick_6">
     <g id="line2d_7">
      <g>
       <use style="fill:#555555;stroke:#555555;stroke-width:0.6;" x="332.696549" xlink:href="#m0e513c5755" y="640.8"/>
      </g>
     </g>
    </g>
    <g id="text_3">
     <!-- K (number of shells) -->
     <defs>
      <path d="M 9.8125 72.90625 
L 19.671875 72.90625 
L 19.671875 42.09375 
L 52.390625 72.90625 
L 65.09375 72.90625 
L 28.90625 38.921875 
L 67.671875 0 
L 54.6875 0 
L 19.671875 35.109375 
L 19.671875 0 
L 9.8125 0 
z
" id="DejaVuSans-4b"/>
      <path id="DejaVuSans-20"/>
      <path d="M 31 75.875 
Q 24.46875 64.65625 21.28125 53.65625 
Q 18.109375 42.671875 18.109375 31.390625 
Q 18.109375 20.125 21.3125 9.0625 
Q 24.515625 -2 31 -13.1875 
L 23.1875 -13.1875 
Q 15.875 -1.703125 12.234375 9.375 
Q 8.59375 20.453125 8.59375 31.390625 
Q 8.59375 42.28125 12.203125 53.3125 
Q 15.828125 64.359375 23.1875 75.875 
z
" id="DejaVuSans-28"/>
      <path d="M 54.890625 33.015625 
L 54.890625 0 
L 45.90625 0 
L 45.90625 32.71875 
Q 45.90625 40.484375 42.875 44.328125 
Q 39.84375 48.1875 33.796875 48.1875 
Q 26.515625 48.1875 22.3125 43.546875 
Q 18.109375 38.921875 18.109375 30.90625 
L 18.109375 0 
L 9.078125 0 
L 9.078125 54.6875 
L 18.109375 54.6875 
L 18.109375 46.1875 
Q 21.34375 51.125 25.703125 53.5625 
Q 30.078125 56 35.796875 56 
Q 45.21875 56 50.046875 50.171875 
Q 54.890625 44.34375 54.890625 33.015625 
" id="DejaVuSans-6e"/>
      <path d="M 8.5 21.578125 
L 8.5 54.6875 
L 17.484375 54.6875 
L 17.484375 21.921875 
Q 17.484375 14.15625 20.5 10.265625 
Q 23.53125 6.390625 29.59375 6.390625 
Q 36.859375 6.390625 41.078125 11.03125 
Q 45.3125 15.671875 45.3125 23.6875 
L 45.3125 54.6875 
L 54.296875 54.6875 
L 54.296875 0 
L 45.3125 0 
L 45.3125 8.40625 
Q 42.046875 3.421875 37.71875 1 
Q 33.40625 -1.421875 27.6875 -1.421875 
Q 18.265625 -1.421875 13.375 4.4375 
Q 8.5 10.296875 8.5 21.578125 
M 31.109375 56 
z
" id="DejaVuSans-75"/>
      <path d="M 52 44.1875 
Q 55.375 50.25 60.0625 53.125 
Q 64.75 56 71.09375 56 
Q 79.640625 56 84.28125 50.015625 
Q 88.921875 44.046875 88.921875 33.015625 
L 88.921875 0 
L 79.890625 0 
L 79.890625 32.71875 
Q 79.890625 40.578125 77.09375 44.375 
Q 74.3125 48.1875 68.609375 48.1875 
Q 61.625 48.1875 57.5625 43.546875 
Q 53.515625 38.921875 53.515625 30.90625 
L 53.515625 0 
L 44.484375 0 
L 44.484375 32.71875 
Q 44.484375 40.625 41.703125 44.40625 
Q 38.921875 48.1875 33.109375 48.1875 
Q 26.21875 48.1875 22.15625 43.53125 
Q 18.109375 38.875 18.109375 30.90625 
L 18.109375 0 
L 9.078125 0 
L 9.078125 54.6875 
L 18.109375 54.6875 
L 18.109375 46.1875 
Q 21.1875 51.21875 25.484375 53.609375 
Q 29.78125 56 35.6875 56 
Q 41.65625 56 45.828125 52.96875 
Q 50 49.953125 52 44.1875 
" id="DejaVuSans-6d"/>
      <path d="M 48.6875 27.296875 
Q 48.6875 37.203125 44.609375 42.84375 
Q 40.53125 48.484375 33.40625 48.484375 
Q 26.265625 48.484375 22.1875 42.84375 
Q 18.109375 37.203125 18.109375 27.296875 
Q 18.109375 17.390625 22.1875 11.75 
Q 26.265625 6.109375 33.40625 6.109375 
Q 40.53125 6.109375 44.609375 11.75 
Q 48.6875 17.390625 48.6875 27.296875 
M 18.109375 46.390625 
Q 20.953125 51.265625 25.265625 53.625 
Q 29.59375 56 35.59375 56 
Q 45.5625 56 51.78125 48.09375 
Q 58.015625 40.1875 58.015625 27.296875 
Q 58.015625 14.40625 51.78125 6.484375 
Q 45.5625 -1.421875 35.59375 -1.421875 
Q 29.59375 -1.421875 25.265625 0.953125 
Q 20.953125 3.328125 18.109375 8.203125 
L 18.109375 0 
L 9.078125 0 
L 9.078125 75.984375 
L 18.109375 75.984375 
z
" id="DejaVuSans-62"/>
      <path d="M 56.203125 29.59375 
L 56.203125 25.203125 
L 14.890625 25.203125 
Q 15.484375 15.921875 20.484375 11.0625 
Q 25.484375 6.203125 34.421875 6.203125 
Q 39.59375 6.203125 44.453125 7.46875 
Q 49.3125 8.734375 54.109375 11.28125 
L 54.109375 2.78125 
Q 49.265625 0.734375 44.1875 -0.34375 
Q 39.109375 -1.421875 33.890625 -1.421875 
Q 20.796875 -1.421875 13.15625 6.1875 
Q 5.515625 13.8125 5.515625 26.8125 
Q 5.515625 40.234375 12.765625 48.109375 
Q 20.015625 56 32.328125 56 
Q 43.359375 56 49.78125 48.890625 
Q 56.203125 41.796875 56.203125 29.59375 
M 47.21875 32.234375 
Q 47.125 39.59375 43.09375 43.984375 
Q 39.0625 48.390625 32.421875 48.390625 
Q 24.90625 48.390625 20.390625 44.140625 
Q 15.875 39.890625 15.1875 32.171875 
z
" id="DejaVuSans-65"/>
      <path d="M 41.109375 46.296875 
Q 39.59375 47.171875 37.8125 47.578125 
Q 36.03125 48 33.890625 48 
Q 26.265625 48 22.1875 43.046875 
Q 18.109375 38.09375 18.109375 28.8125 
L 18.109375 0 
L 9.078125 0 
L 9.078125 54.6875 
L 18.109375 54.6875 
L 18.109375 46.1875 
Q 20.953125 51.171875 25.484375 53.578125 
Q 30.03125 56 36.53125 56 
Q 37.453125 56 38.578125 55.875 
Q 39.703125 55.765625 41.0625 55.515625 
z
" id="DejaVuSans-72"/>
      <path d="M 30.609375 48.390625 
Q 23.390625 48.390625 19.1875 42.75 
Q 14.984375 37.109375 14.984375 27.296875 
Q 14.984375 17.484375 19.15625 11.84375 
Q 23.34375 6.203125 30.609375 6.203125 
Q 37.796875 6.203125 41.984375 11.859375 
Q 46.1875 17.53125 46.1875 27.296875 
Q 46.1875 37.015625 41.984375 42.703125 
Q 37.796875 48.390625 30.609375 48.390625 
M 30.609375 56 
Q 42.328125 56 49.015625 48.375 
Q 55.71875 40.765625 55.71875 27.296875 
Q 55.71875 13.875 49.015625 6.21875 
Q 42.328125 -1.421875 30.609375 -1.421875 
Q 18.84375 -1.421875 12.171875 6.21875 
Q 5.515625 13.875 5.515625 27.296875 
Q 5.515625 40.765625 12.171875 48.375 
Q 18.84375 56 30.609375 56 
" id="DejaVuSans-6f"/>
      <path d="M 37.109375 75.984375 
L 37.109375 68.5 
L 28.515625 68.5 
Q 23.6875 68.5 21.796875 66.546875 
Q 19.921875 64.59375 19.921875 59.515625 
L 19.921875 54.6875 
L 34.71875 54.6875 
L 34.71875 47.703125 
L 19.921875 47.703125 
L 19.921875 0 
L 10.890625 0 
L 10.890625 47.703125 
L 2.296875 47.703125 
L 2.296875 54.6875 
L 10.890625 54.6875 
L 10.890625 58.5 
Q 10.890625 67.625 15.140625 71.796875 
Q 19.390625 75.984375 28.609375 75.984375 
z
" id="DejaVuSans-66"/>
      <path d="M 44.28125 53.078125 
L 44.28125 44.578125 
Q 40.484375 46.53125 36.375 47.5 
Q 32.28125 48.484375 27.875 48.484375 
Q 21.1875 48.484375 17.84375 46.4375 
Q 14.5 44.390625 14.5 40.28125 
Q 14.5 37.15625 16.890625 35.375 
Q 19.28125 33.59375 26.515625 31.984375 
L 29.59375 31.296875 
Q 39.15625 29.25 43.1875 25.515625 
Q 47.21875 21.78125 47.21875 15.09375 
Q 47.21875 7.46875 41.1875 3.015625 
Q 35.15625 -1.421875 24.609375 -1.421875 
Q 20.21875 -1.421875 15.453125 -0.5625 
Q 10.6875 0.296875 5.421875 2 
L 5.421875 11.28125 
Q 10.40625 8.6875 15.234375 7.390625 
Q 20.0625 6.109375 24.8125 6.109375 
Q 31.15625 6.109375 34.5625 8.28125 
Q 37.984375 10.453125 37.984375 14.40625 
Q 37.984375 18.0625 35.515625 20.015625 
Q 33.0625 21.96875 24.703125 23.78125 
L 21.578125 24.515625 
Q 13.234375 26.265625 9.515625 29.90625 
Q 5.8125 33.546875 5.8125 39.890625 
Q 5.8125 47.609375 11.28125 51.796875 
Q 16.75 56 26.8125 56 
Q 31.78125 56 36.171875 55.265625 
Q 40.578125 54.546875 44.28125 53.078125 
" id="DejaVuSans-73"/>
      <path d="M 54.890625 33.015625 
L 54.890625 0 
L 45.90625 0 
L 45.90625 32.71875 
Q 45.90625 40.484375 42.875 44.328125 
Q 39.84375 48.1875 33.796875 48.1875 
Q 26.515625 48.1875 22.3125 43.546875 
Q 18.109375 38.921875 18.109375 30.90625 
L 18.109375 0 
L 9.078125 0 
L 9.078125 75.984375 
L 18.109375 75.984375 
L 18.109375 46.1875 
Q 21.34375 51.125 25.703125 53.5625 
Q 30.078125 56 35.796875 56 
Q 45.21875 56 50.046875 50.171875 
Q 54.890625 44.34375 54.890625 33.015625 
" id="DejaVuSans-68"/>
      <path d="M 9.421875 75.984375 
L 18.40625 75.984375 
L 18.40625 0 
L 9.421875 0 
z
" id="DejaVuSans-6c"/>
      <path d="M 8.015625 75.875 
L 15.828125 75.875 
Q 23.140625 64.359375 26.78125 53.3125 
Q 30.421875 42.28125 30.421875 31.390625 
Q 30.421875 20.453125 26.78125 9.375 
Q 23.140625 -1.703125 15.828125 -13.1875 
L 8.015625 -13.1875 
Q 14.5 -2 17.703125 9.0625 
Q 20.90625 20.125 20.90625 31.390625 
Q 20.90625 42.671875 17.703125 53.65625 
Q 14.5 64.65625 8.015625 75.875 
" id="DejaVuSans-29"/>
     </defs>
     <g style="fill:#555555;" transform="translate(234.583125 670.59625)scale(0.12 -0.12)">
      <use xlink:href="#DejaVuSans-4b"/>
      <use x="65.576172" xlink:href="#DejaVuSans-20"/>
      <use x="97.363281" xlink:href="#DejaVuSans-28"/>
      <use x="136.376953" xlink:href="#DejaVuSans-6e"/>
      <use x="199.755859" xlink:href="#DejaVuSans-75"/>
      <use x="263.134766" xlink:href="#DejaVuSans-6d"/>
      <use x="360.546875" xlink:href="#DejaVuSans-62"/>
      <use x="424.023438" xlink:href="#DejaVuSans-65"/>
      <use x="485.546875" xlink:href="#DejaVuSans-72"/>
      <use x="526.660156" xlink:href="#DejaVuSans-20"/>
      <use x="558.447266" xlink:href="#DejaVuSans-6f"/>
      <use x="619.628906" xlink:href="#DejaVuSans-66"/>
      <use x="654.833984" xlink:href="#DejaVuSans-20"/>
      <use x="686.621094" xlink:href="#DejaVuSans-73"/>
      <use x="738.720703" xlink:href="#DejaVuSans-68"/>
      <use x="802.099609" xlink:href="#DejaVuSans-65"/>
      <use x="863.623047" xlink:href="#DejaVuSans-6c"/>
      <use x="891.40625" xlink:href="#DejaVuSans-6c"/>
      <use x="919.189453" xlink:href="#DejaVuSans-73"/>
      <use x="971.289062" xlink:href="#DejaVuSans-29"/>
     </g>
    </g>
   </g>
   <g id="matplotlib.axis_2">
    <g id="ytick_1">
     <g id="line2d_8">
      <path clip-path="url(#pd8a5ce5524)" d="M 72 562.429186 
L 518.4 562.429186 
" style="fill:none;stroke:#ffffff;stroke-linecap:square;stroke-width:0.8;"/>
     </g>
     <g id="line2d_9">
      <defs>
       <path d="M 0 0 
L -3.5 0 
" id="m0dbd7f223a" style="stroke:#555555;stroke-width:0.8;"/>
      </defs>
      <g>
       <use style="fill:#555555;stroke:#555555;stroke-width:0.8;" x="72" xlink:href="#m0dbd7f223a" y="562.429186"/>
      </g>
     </g>
     <g id="text_4">
      <!-- ${10^{-8}}$ -->
      <defs>
       <path d="M 10.59375 35.5 
L 73.1875 35.5 
L 73.1875 27.203125 
L 10.59375 27.203125 
z
" id="DejaVuSans-2212"/>
       <path d="M 31.78125 34.625 
Q 24.75 34.625 20.71875 30.859375 
Q 16.703125 27.09375 16.703125 20.515625 
Q 16.703125 13.921875 20.71875 10.15625 
Q 24.75 6.390625 31.78125 6.390625 
Q 38.8125 6.390625 42.859375 10.171875 
Q 46.921875 13.96875 46.921875 20.515625 
Q 46.921875 27.09375 42.890625 30.859375 
Q 38.875 34.625 31.78125 34.625 
M 21.921875 38.8125 
Q 15.578125 40.375 12.03125 44.71875 
Q 8.5 49.078125 8.5 55.328125 
Q 8.5 64.0625 14.71875 69.140625 
Q 20.953125 74.21875 31.78125 74.21875 
Q 42.671875 74.21875 48.875 69.140625 
Q 55.078125 64.0625 55.078125 55.328125 
Q 55.078125 49.078125 51.53125 44.71875 
Q 48 40.375 41.703125 38.8125 
Q 48.828125 37.15625 52.796875 32.3125 
Q 56.78125 27.484375 56.78125 20.515625 
Q 56.78125 9.90625 50.3125 4.234375 
Q 43.84375 -1.421875 31.78125 -1.421875 
Q 19.734375 -1.421875 13.25 4.234375 
Q 6.78125 9.90625 6.78125 20.515625 
Q 6.78125 27.484375 10.78125 32.3125 
Q 14.796875 37.15625 21.921875 38.8125 
M 18.3125 54.390625 
Q 18.3125 48.734375 21.84375 45.5625 
Q 25.390625 42.390625 31.78125 42.390625 
Q 38.140625 42.390625 41.71875 45.5625 
Q 45.3125 48.734375 45.3125 54.390625 
Q 45.3125 60.0625 41.71875 63.234375 
Q 38.140625 66.40625 31.78125 66.40625 
Q 25.390625 66.40625 21.84375 63.234375 
Q 18.3125 60.0625 18.3125 54.390625 
" id="DejaVuSans-38"/>
      </defs>
      <g style="fill:#555555;" transform="translate(41.5 566.228404)scale(0.1 -0.1)">
       <use transform="translate(0 0.765625)" xlink:href="#DejaVuSans-31"/>
       <use transform="translate(63.623047 0.765625)" xlink:href="#DejaVuSans-30"/>
       <use transform="translate(128.203125 39.046875)scale(0.7)" xlink:href="#DejaVuSans-2212"/>
       <use transform="translate(186.855469 39.046875)scale(0.7)" xlink:href="#DejaVuSans-38"/>
      </g>
     </g>
    </g>
    <g id="ytick_2">
     <g id="line2d_10">
      <path clip-path="url(#pd8a5ce5524)" d="M 72 474.507528 
L 518.4 474.507528 
" style="fill:none;stroke:#ffffff;stroke-linecap:square;stroke-width:0.8;"/>
     </g>
     <g id="line2d_11">
      <g>
       <use style="fill:#555555;stroke:#555555;stroke-width:0.8;" x="72" xlink:href="#m0dbd7f223a" y="474.507528"/>
      </g>
     </g>
     <g id="text_5">
      <!-- ${10^{-5}}$ -->
      <defs>
       <path d="M 10.796875 72.90625 
L 49.515625 72.90625 
L 49.515625 64.59375 
L 19.828125 64.59375 
L 19.828125 46.734375 
Q 21.96875 47.46875 24.109375 47.828125 
Q 26.265625 48.1875 28.421875 48.1875 
Q 40.625 48.1875 47.75 41.5 
Q 54.890625 34.8125 54.890625 23.390625 
Q 54.890625 11.625 47.5625 5.09375 
Q 40.234375 -1.421875 26.90625 -1.421875 
Q 22.3125 -1.421875 17.546875 -0.640625 
Q 12.796875 0.140625 7.71875 1.703125 
L 7.71875 11.625 
Q 12.109375 9.234375 16.796875 8.0625 
Q 21.484375 6.890625 26.703125 6.890625 
Q 35.15625 6.890625 40.078125 11.328125 
Q 45.015625 15.765625 45.015625 23.390625 
Q 45.015625 31 40.078125 35.4375 
Q 35.15625 39.890625 26.703125 39.890625 
Q 22.75 39.890625 18.8125 39.015625 
Q 14.890625 38.140625 10.796875 36.28125 
z
" id="DejaVuSans-35"/>
      </defs>
      <g style="fill:#555555;" transform="translate(41.5 478.306747)scale(0.1 -0.1)">
       <use transform="translate(0 0.684375)" xlink:href="#DejaVuSans-31"/>
       <use transform="translate(63.623047 0.684375)" xlink:href="#DejaVuSans-30"/>
       <use transform="translate(128.203125 38.965625)scale(0.7)" xlink:href="#DejaVuSans-2212"/>
       <use transform="translate(186.855469 38.965625)scale(0.7)" xlink:href="#DejaVuSans-35"/>
      </g>
     </g>
    </g>
    <g id="ytick_3">
     <g id="line2d_12">
      <path clip-path="url(#pd8a5ce5524)" d="M 72 386.585871 
L 518.4 386.585871 
" style="fill:none;stroke:#ffffff;stroke-linecap:square;stroke-width:0.8;"/>
     </g>
     <g id="line2d_13">
      <g>
       <use style="fill:#555555;stroke:#555555;stroke-width:0.8;" x="72" xlink:href="#m0dbd7f223a" y="386.585871"/>
      </g>
     </g>
     <g id="text_6">
      <!-- ${10^{-2}}$ -->
      <defs>
       <path d="M 19.1875 8.296875 
L 53.609375 8.296875 
L 53.609375 0 
L 7.328125 0 
L 7.328125 8.296875 
Q 12.9375 14.109375 22.625 23.890625 
Q 32.328125 33.6875 34.8125 36.53125 
Q 39.546875 41.84375 41.421875 45.53125 
Q 43.3125 49.21875 43.3125 52.78125 
Q 43.3125 58.59375 39.234375 62.25 
Q 35.15625 65.921875 28.609375 65.921875 
Q 23.96875 65.921875 18.8125 64.3125 
Q 13.671875 62.703125 7.8125 59.421875 
L 7.8125 69.390625 
Q 13.765625 71.78125 18.9375 73 
Q 24.125 74.21875 28.421875 74.21875 
Q 39.75 74.21875 46.484375 68.546875 
Q 53.21875 62.890625 53.21875 53.421875 
Q 53.21875 48.921875 51.53125 44.890625 
Q 49.859375 40.875 45.40625 35.40625 
Q 44.1875 33.984375 37.640625 27.21875 
Q 31.109375 20.453125 19.1875 8.296875 
" id="DejaVuSans-32"/>
      </defs>
      <g style="fill:#555555;" transform="translate(41.5 390.385089)scale(0.1 -0.1)">
       <use transform="translate(0 0.765625)" xlink:href="#DejaVuSans-31"/>
       <use transform="translate(63.623047 0.765625)" xlink:href="#DejaVuSans-30"/>
       <use transform="translate(128.203125 39.046875)scale(0.7)" xlink:href="#DejaVuSans-2212"/>
       <use transform="translate(186.855469 39.046875)scale(0.7)" xlink:href="#DejaVuSans-32"/>
      </g>
     </g>
    </g>
    <g id="ytick_4">
     <g id="line2d_14">
      <path clip-path="url(#pd8a5ce5524)" d="M 72 298.664213 
L 518.4 298.664213 
" style="fill:none;stroke:#ffffff;stroke-linecap:square;stroke-width:0.8;"/>
     </g>
     <g id="line2d_15">
      <g>
       <use style="fill:#555555;stroke:#555555;stroke-width:0.8;" x="72" xlink:href="#m0dbd7f223a" y="298.664213"/>
      </g>
     </g>
     <g id="text_7">
      <!-- ${10^{1}}$ -->
      <g style="fill:#555555;" transform="translate(47.4 302.463432)scale(0.1 -0.1)">
       <use transform="translate(0 0.684375)" xlink:href="#DejaVuSans-31"/>
       <use transform="translate(63.623047 0.684375)" xlink:href="#DejaVuSans-30"/>
       <use transform="translate(128.203125 38.965625)scale(0.7)" xlink:href="#DejaVuSans-31"/>
      </g>
     </g>
    </g>
    <g id="ytick_5">
     <g id="line2d_16">
      <path clip-path="url(#pd8a5ce5524)" d="M 72 210.742556 
L 518.4 210.742556 
" style="fill:none;stroke:#ffffff;stroke-linecap:square;stroke-width:0.8;"/>
     </g>
     <g id="line2d_17">
      <g>
       <use style="fill:#555555;stroke:#555555;stroke-width:0.8;" x="72" xlink:href="#m0dbd7f223a" y="210.742556"/>
      </g>
     </g>
     <g id="text_8">
      <!-- ${10^{4}}$ -->
      <defs>
       <path d="M 37.796875 64.3125 
L 12.890625 25.390625 
L 37.796875 25.390625 
z
M 35.203125 72.90625 
L 47.609375 72.90625 
L 47.609375 25.390625 
L 58.015625 25.390625 
L 58.015625 17.1875 
L 47.609375 17.1875 
L 47.609375 0 
L 37.796875 0 
L 37.796875 17.1875 
L 4.890625 17.1875 
L 4.890625 26.703125 
z
" id="DejaVuSans-34"/>
      </defs>
      <g style="fill:#555555;" transform="translate(47.4 214.541774)scale(0.1 -0.1)">
       <use transform="translate(0 0.684375)" xlink:href="#DejaVuSans-31"/>
       <use transform="translate(63.623047 0.684375)" xlink:href="#DejaVuSans-30"/>
       <use transform="translate(128.203125 38.965625)scale(0.7)" xlink:href="#DejaVuSans-34"/>
      </g>
     </g>
    </g>
    <g id="ytick_6">
     <g id="line2d_18">
      <path clip-path="url(#pd8a5ce5524)" d="M 72 122.820898 
L 518.4 122.820898 
" style="fill:none;stroke:#ffffff;stroke-linecap:square;stroke-width:0.8;"/>
     </g>
     <g id="line2d_19">
      <g>
       <use style="fill:#555555;stroke:#555555;stroke-width:0.8;" x="72" xlink:href="#m0dbd7f223a" y="122.820898"/>
      </g>
     </g>
     <g id="text_9">
      <!-- ${10^{7}}$ -->
      <defs>
       <path d="M 8.203125 72.90625 
L 55.078125 72.90625 
L 55.078125 68.703125 
L 28.609375 0 
L 18.3125 0 
L 43.21875 64.59375 
L 8.203125 64.59375 
z
" id="DejaVuSans-37"/>
      </defs>
      <g style="fill:#555555;" transform="translate(47.4 126.620117)scale(0.1 -0.1)">
       <use transform="translate(0 0.684375)" xlink:href="#DejaVuSans-31"/>
       <use transform="translate(63.623047 0.684375)" xlink:href="#DejaVuSans-30"/>
       <use transform="translate(128.203125 38.965625)scale(0.7)" xlink:href="#DejaVuSans-37"/>
      </g>
     </g>
    </g>
    <g id="text_10">
     <!-- |ΔE_gnd/ΔK| -->
     <defs>
      <path d="M 21 76.421875 
L 21 -23.578125 
L 12.703125 -23.578125 
L 12.703125 76.421875 
z
" id="DejaVuSans-7c"/>
      <path d="M 34.1875 63.1875 
L 14.15625 8.203125 
L 54.25 8.203125 
z
M 0.78125 0 
L 28.609375 72.90625 
L 39.796875 72.90625 
L 67.578125 0 
z
" id="DejaVuSans-394"/>
      <path d="M 9.8125 72.90625 
L 55.90625 72.90625 
L 55.90625 64.59375 
L 19.671875 64.59375 
L 19.671875 43.015625 
L 54.390625 43.015625 
L 54.390625 34.71875 
L 19.671875 34.71875 
L 19.671875 8.296875 
L 56.78125 8.296875 
L 56.78125 0 
L 9.8125 0 
z
" id="DejaVuSans-45"/>
      <path d="M 50.984375 -16.609375 
L 50.984375 -23.578125 
L -0.984375 -23.578125 
L -0.984375 -16.609375 
z
" id="DejaVuSans-5f"/>
      <path d="M 45.40625 27.984375 
Q 45.40625 37.75 41.375 43.109375 
Q 37.359375 48.484375 30.078125 48.484375 
Q 22.859375 48.484375 18.828125 43.109375 
Q 14.796875 37.75 14.796875 27.984375 
Q 14.796875 18.265625 18.828125 12.890625 
Q 22.859375 7.515625 30.078125 7.515625 
Q 37.359375 7.515625 41.375 12.890625 
Q 45.40625 18.265625 45.40625 27.984375 
M 54.390625 6.78125 
Q 54.390625 -7.171875 48.1875 -13.984375 
Q 42 -20.796875 29.203125 -20.796875 
Q 24.46875 -20.796875 20.265625 -20.09375 
Q 16.0625 -19.390625 12.109375 -17.921875 
L 12.109375 -9.1875 
Q 16.0625 -11.328125 19.921875 -12.34375 
Q 23.78125 -13.375 27.78125 -13.375 
Q 36.625 -13.375 41.015625 -8.765625 
Q 45.40625 -4.15625 45.40625 5.171875 
L 45.40625 9.625 
Q 42.625 4.78125 38.28125 2.390625 
Q 33.9375 0 27.875 0 
Q 17.828125 0 11.671875 7.65625 
Q 5.515625 15.328125 5.515625 27.984375 
Q 5.515625 40.671875 11.671875 48.328125 
Q 17.828125 56 27.875 56 
Q 33.9375 56 38.28125 53.609375 
Q 42.625 51.21875 45.40625 46.390625 
L 45.40625 54.6875 
L 54.390625 54.6875 
z
" id="DejaVuSans-67"/>
      <path d="M 45.40625 46.390625 
L 45.40625 75.984375 
L 54.390625 75.984375 
L 54.390625 0 
L 45.40625 0 
L 45.40625 8.203125 
Q 42.578125 3.328125 38.25 0.953125 
Q 33.9375 -1.421875 27.875 -1.421875 
Q 17.96875 -1.421875 11.734375 6.484375 
Q 5.515625 14.40625 5.515625 27.296875 
Q 5.515625 40.1875 11.734375 48.09375 
Q 17.96875 56 27.875 56 
Q 33.9375 56 38.25 53.625 
Q 42.578125 51.265625 45.40625 46.390625 
M 14.796875 27.296875 
Q 14.796875 17.390625 18.875 11.75 
Q 22.953125 6.109375 30.078125 6.109375 
Q 37.203125 6.109375 41.296875 11.75 
Q 45.40625 17.390625 45.40625 27.296875 
Q 45.40625 37.203125 41.296875 42.84375 
Q 37.203125 48.484375 30.078125 48.484375 
Q 22.953125 48.484375 18.875 42.84375 
Q 14.796875 37.203125 14.796875 27.296875 
" id="DejaVuSans-64"/>
      <path d="M 25.390625 72.90625 
L 33.6875 72.90625 
L 8.296875 -9.28125 
L 0 -9.28125 
z
" id="DejaVuSans-2f"/>
     </defs>
     <g style="fill:#555555;" transform="translate(34.670625 400.019062)rotate(-90)scale(0.12 -0.12)">
      <use xlink:href="#DejaVuSans-7c"/>
      <use x="33.691406" xlink:href="#DejaVuSans-394"/>
      <use x="102.099609" xlink:href="#DejaVuSans-45"/>
      <use x="165.283203" xlink:href="#DejaVuSans-5f"/>
      <use x="215.283203" xlink:href="#DejaVuSans-67"/>
      <use x="278.759766" xlink:href="#DejaVuSans-6e"/>
      <use x="342.138672" xlink:href="#DejaVuSans-64"/>
      <use x="405.615234" xlink:href="#DejaVuSans-2f"/>
      <use x="439.306641" xlink:href="#DejaVuSans-394"/>
      <use x="507.714844" xlink:href="#DejaVuSans-4b"/>
      <use x="573.291016" xlink:href="#DejaVuSans-7c"/>
     </g>
    </g>
   </g>
   <g id="line2d_20">
    <defs>
     <path d="M 0 3 
C 0.795609 3 1.55874 2.683901 2.12132 2.12132 
C 2.683901 1.55874 3 0.795609 3 0 
C 3 -0.795609 2.683901 -1.55874 2.12132 -2.12132 
C 1.55874 -2.683901 0.795609 -3 0 -3 
C -0.795609 -3 -1.55874 -2.683901 -2.12132 -2.12132 
C -2.683901 -1.55874 -3 -0.795609 -3 0 
C -3 0.795609 -2.683901 1.55874 -2.12132 2.12132 
C -1.55874 2.683901 -0.795609 3 0 3 
z
" id="m90b79b8d09" style="stroke:#841a0b;"/>
    </defs>
    <g clip-path="url(#pd8a5ce5524)">
     <use style="fill:#841a0b;stroke:#841a0b;" x="92.290909" xlink:href="#m90b79b8d09" y="313.554907"/>
     <use style="fill:#841a0b;stroke:#841a0b;" x="161.889933" xlink:href="#m90b79b8d09" y="344.493096"/>
     <use style="fill:#841a0b;stroke:#841a0b;" x="219.829639" xlink:href="#m90b79b8d09" y="340.900085"/>
     <use style="fill:#841a0b;stroke:#841a0b;" x="269.461595" xlink:href="#m90b79b8d09" y="384.641567"/>
     <use style="fill:#841a0b;stroke:#841a0b;" x="312.872181" xlink:href="#m90b79b8d09" y="385.54716"/>
     <use style="fill:#841a0b;stroke:#841a0b;" x="351.448793" xlink:href="#m90b79b8d09" y="435.815273"/>
     <use style="fill:#841a0b;stroke:#841a0b;" x="386.160942" xlink:href="#m90b79b8d09" y="420.978927"/>
     <use style="fill:#841a0b;stroke:#841a0b;" x="417.712868" xlink:href="#m90b79b8d09" y="512.332687"/>
     <use style="fill:#841a0b;stroke:#841a0b;" x="446.63228" xlink:href="#m90b79b8d09" y="456.594441"/>
     <use style="fill:#841a0b;stroke:#841a0b;" x="473.324834" xlink:href="#m90b79b8d09" y="497.421564"/>
     <use style="fill:#841a0b;stroke:#841a0b;" x="498.109091" xlink:href="#m90b79b8d09" y="527.847216"/>
    </g>
   </g>
   <g id="line2d_21">
    <path clip-path="url(#pd8a5ce5524)" d="M 92.290909 111.6 
L 161.889933 198.037497 
L 219.829639 269.994874 
L 269.461595 331.634561 
L 312.872181 385.547708 
L 351.448793 433.457372 
L 386.160942 476.567621 
L 417.712868 515.753078 
L 446.63228 551.669122 
L 473.324834 584.819552 
L 498.109091 615.6 
" style="fill:none;stroke:#841a0b;stroke-linecap:square;stroke-width:1.5;"/>
   </g>
   <g id="line2d_22">
    <path clip-path="url(#pd8a5ce5524)" d="M 92.290909 207.144966 
L 161.889933 264.651441 
L 219.829639 312.524358 
L 269.461595 353.532962 
L 312.872181 389.401135 
L 351.448793 421.275217 
L 386.160942 449.95627 
L 417.712868 476.026177 
L 446.63228 499.920958 
L 473.324834 521.975789 
L 498.109091 542.453881 
" style="fill:none;stroke:#841a0b;stroke-dasharray:2.2,2.2;stroke-dashoffset:0;stroke-width:1.5;"/>
   </g>
   <g id="line2d_23">
    <defs>
     <path d="M 0 3 
C 0.795609 3 1.55874 2.683901 2.12132 2.12132 
C 2.683901 1.55874 3 0.795609 3 0 
C 3 -0.795609 2.683901 -1.55874 2.12132 -2.12132 
C 1.55874 -2.683901 0.795609 -3 0 -3 
C -0.795609 -3 -1.55874 -2.683901 -2.12132 -2.12132 
C -2.683901 -1.55874 -3 -0.795609 -3 0 
C -3 0.795609 -2.683901 1.55874 -2.12132 2.12132 
C -1.55874 2.683901 -0.795609 3 0 3 
z
" id="m767dfbe08a" style="stroke:#1351c4;"/>
    </defs>
    <g clip-path="url(#pd8a5ce5524)">
     <use style="fill:#1351c4;stroke:#1351c4;" x="92.290909" xlink:href="#m767dfbe08a" y="312.812956"/>
     <use style="fill:#1351c4;stroke:#1351c4;" x="161.889933" xlink:href="#m767dfbe08a" y="336.022888"/>
     <use style="fill:#1351c4;stroke:#1351c4;" x="219.829639" xlink:href="#m767dfbe08a" y="337.260307"/>
     <use style="fill:#1351c4;stroke:#1351c4;" x="269.461595" xlink:href="#m767dfbe08a" y="359.925078"/>
     <use style="fill:#1351c4;stroke:#1351c4;" x="312.872181" xlink:href="#m767dfbe08a" y="365.660033"/>
     <use style="fill:#1351c4;stroke:#1351c4;" x="351.448793" xlink:href="#m767dfbe08a" y="371.388989"/>
     <use style="fill:#1351c4;stroke:#1351c4;" x="386.160942" xlink:href="#m767dfbe08a" y="376.009662"/>
     <use style="fill:#1351c4;stroke:#1351c4;" x="417.712868" xlink:href="#m767dfbe08a" y="379.644938"/>
     <use style="fill:#1351c4;stroke:#1351c4;" x="446.63228" xlink:href="#m767dfbe08a" y="383.145239"/>
     <use style="fill:#1351c4;stroke:#1351c4;" x="473.324834" xlink:href="#m767dfbe08a" y="386.137914"/>
     <use style="fill:#1351c4;stroke:#1351c4;" x="498.109091" xlink:href="#m767dfbe08a" y="388.839928"/>
    </g>
   </g>
   <g id="line2d_24">
    <path clip-path="url(#pd8a5ce5524)" d="M 92.290909 336.764914 
L 161.889933 345.945599 
L 219.829639 353.588325 
L 269.461595 360.13519 
L 312.872181 365.861404 
L 351.448793 370.949978 
L 386.160942 375.528797 
L 417.712868 379.690756 
L 446.63228 383.505465 
L 473.324834 387.026433 
L 498.109091 390.295681 
" style="fill:none;stroke:#1351c4;stroke-linecap:square;stroke-width:1.5;"/>
   </g>
   <g id="line2d_25">
    <path clip-path="url(#pd8a5ce5524)" d="M 92.290909 337.885728 
L 161.889933 346.820942 
L 219.829639 354.259317 
L 269.461595 360.631133 
L 312.872181 366.204241 
L 351.448793 371.156757 
L 386.160942 375.613148 
L 417.712868 379.663826 
L 446.63228 383.376538 
L 473.324834 386.803363 
L 498.109091 389.985199 
" style="fill:none;stroke:#1351c4;stroke-dasharray:2.2,2.2;stroke-dashoffset:0;stroke-width:1.5;"/>
   </g>
   <g id="line2d_26">
    <defs>
     <path d="M 0 3 
C 0.795609 3 1.55874 2.683901 2.12132 2.12132 
C 2.683901 1.55874 3 0.795609 3 0 
C 3 -0.795609 2.683901 -1.55874 2.12132 -2.12132 
C 1.55874 -2.683901 0.795609 -3 0 -3 
C -0.795609 -3 -1.55874 -2.683901 -2.12132 -2.12132 
C -2.683901 -1.55874 -3 -0.795609 -3 0 
C -3 0.795609 -2.683901 1.55874 -2.12132 2.12132 
C -1.55874 2.683901 -0.795609 3 0 3 
z
" id="m0100a9bb03" style="stroke:#39b237;"/>
    </defs>
    <g clip-path="url(#pd8a5ce5524)">
     <use style="fill:#39b237;stroke:#39b237;" x="92.290909" xlink:href="#m0100a9bb03" y="312.798884"/>
     <use style="fill:#39b237;stroke:#39b237;" x="161.889933" xlink:href="#m0100a9bb03" y="337.508514"/>
     <use style="fill:#39b237;stroke:#39b237;" x="219.829639" xlink:href="#m0100a9bb03" y="337.272103"/>
     <use style="fill:#39b237;stroke:#39b237;" x="269.461595" xlink:href="#m0100a9bb03" y="359.845546"/>
     <use style="fill:#39b237;stroke:#39b237;" x="312.872181" xlink:href="#m0100a9bb03" y="363.713942"/>
     <use style="fill:#39b237;stroke:#39b237;" x="351.448793" xlink:href="#m0100a9bb03" y="368.778885"/>
     <use style="fill:#39b237;stroke:#39b237;" x="386.160942" xlink:href="#m0100a9bb03" y="371.769146"/>
     <use style="fill:#39b237;stroke:#39b237;" x="417.712868" xlink:href="#m0100a9bb03" y="374.865896"/>
     <use style="fill:#39b237;stroke:#39b237;" x="446.63228" xlink:href="#m0100a9bb03" y="377.315906"/>
     <use style="fill:#39b237;stroke:#39b237;" x="473.324834" xlink:href="#m0100a9bb03" y="379.686857"/>
     <use style="fill:#39b237;stroke:#39b237;" x="498.109091" xlink:href="#m0100a9bb03" y="381.808019"/>
    </g>
   </g>
   <g id="line2d_27">
    <path clip-path="url(#pd8a5ce5524)" d="M 92.290909 341.695223 
L 161.889933 348.75727 
L 219.829639 354.636275 
L 269.461595 359.672312 
L 312.872181 364.077081 
L 351.448793 367.991359 
L 386.160942 371.513518 
L 417.712868 374.715017 
L 446.63228 377.649402 
L 473.324834 380.357832 
L 498.109091 382.872632 
" style="fill:none;stroke:#39b237;stroke-linecap:square;stroke-width:1.5;"/>
   </g>
   <g id="line2d_28">
    <path clip-path="url(#pd8a5ce5524)" d="M 92.290909 342.819901 
L 161.889933 349.640815 
L 219.829639 355.319081 
L 269.461595 360.183162 
L 312.872181 364.43753 
L 351.448793 368.218154 
L 386.160942 371.620049 
L 417.712868 374.712233 
L 446.63228 377.546422 
L 473.324834 380.162373 
L 498.109091 382.591304 
" style="fill:none;stroke:#39b237;stroke-dasharray:2.2,2.2;stroke-dashoffset:0;stroke-width:1.5;"/>
   </g>
   <g id="patch_3">
    <path d="M 72 640.8 
L 72 86.4 
" style="fill:none;stroke:#ffffff;stroke-linecap:square;stroke-linejoin:miter;"/>
   </g>
   <g id="patch_4">
    <path d="M 518.4 640.8 
L 518.4 86.4 
" style="fill:none;stroke:#ffffff;stroke-linecap:square;stroke-linejoin:miter;"/>
   </g>
   <g id="patch_5">
    <path d="M 72 640.8 
L 518.4 640.8 
" style="fill:none;stroke:#ffffff;stroke-linecap:square;stroke-linejoin:miter;"/>
   </g>
   <g id="patch_6">
    <path d="M 72 86.4 
L 518.4 86.4 
" style="fill:none;stroke:#ffffff;stroke-linecap:square;stroke-linejoin:miter;"/>
   </g>
   <g id="legend_1">
    <g id="patch_7">
     <path d="M 67.129687 228.171875 
L 511.4 228.171875 
Q 513.4 228.171875 513.4 226.171875 
L 513.4 93.4 
Q 513.4 91.4 511.4 91.4 
L 67.129687 91.4 
Q 65.129687 91.4 65.129687 93.4 
L 65.129687 226.171875 
Q 65.129687 228.171875 67.129687 228.171875 
z
" style="fill:#e5e5e5;opacity:0.8;stroke:#cccccc;stroke-linejoin:miter;stroke-width:0.5;"/>
    </g>
    <g id="line2d_29"/>
    <g id="line2d_30">
     <g>
      <use style="fill:#841a0b;stroke:#841a0b;" x="79.129687" xlink:href="#m90b79b8d09" y="99.498437"/>
     </g>
    </g>
    <g id="text_11">
     <!-- hf -->
     <g transform="translate(97.129687 102.998437)scale(0.1 -0.1)">
      <use xlink:href="#DejaVuSans-68"/>
      <use x="63.378906" xlink:href="#DejaVuSans-66"/>
     </g>
    </g>
    <g id="line2d_31">
     <path d="M 69.129687 114.176562 
L 89.129687 114.176562 
" style="fill:none;stroke:#841a0b;stroke-linecap:square;stroke-width:1.5;"/>
    </g>
    <g id="line2d_32"/>
    <g id="text_12">
     <!-- hf deriv fit (E_gnd = (-9.39e+27±2.1e+29) * K ** (-32.8±11) + (≈66.911) -->
     <defs>
      <path d="M 9.421875 54.6875 
L 18.40625 54.6875 
L 18.40625 0 
L 9.421875 0 
z
M 9.421875 75.984375 
L 18.40625 75.984375 
L 18.40625 64.59375 
L 9.421875 64.59375 
z
" id="DejaVuSans-69"/>
      <path d="M 2.984375 54.6875 
L 12.5 54.6875 
L 29.59375 8.796875 
L 46.6875 54.6875 
L 56.203125 54.6875 
L 35.6875 0 
L 23.484375 0 
z
" id="DejaVuSans-76"/>
      <path d="M 18.3125 70.21875 
L 18.3125 54.6875 
L 36.8125 54.6875 
L 36.8125 47.703125 
L 18.3125 47.703125 
L 18.3125 18.015625 
Q 18.3125 11.328125 20.140625 9.421875 
Q 21.96875 7.515625 27.59375 7.515625 
L 36.8125 7.515625 
L 36.8125 0 
L 27.59375 0 
Q 17.1875 0 13.234375 3.875 
Q 9.28125 7.765625 9.28125 18.015625 
L 9.28125 47.703125 
L 2.6875 47.703125 
L 2.6875 54.6875 
L 9.28125 54.6875 
L 9.28125 70.21875 
z
" id="DejaVuSans-74"/>
      <path d="M 10.59375 45.40625 
L 73.1875 45.40625 
L 73.1875 37.203125 
L 10.59375 37.203125 
z
M 10.59375 25.484375 
L 73.1875 25.484375 
L 73.1875 17.1875 
L 10.59375 17.1875 
z
" id="DejaVuSans-3d"/>
      <path d="M 4.890625 31.390625 
L 31.203125 31.390625 
L 31.203125 23.390625 
L 4.890625 23.390625 
z
" id="DejaVuSans-2d"/>
      <path d="M 10.984375 1.515625 
L 10.984375 10.5 
Q 14.703125 8.734375 18.5 7.8125 
Q 22.3125 6.890625 25.984375 6.890625 
Q 35.75 6.890625 40.890625 13.453125 
Q 46.046875 20.015625 46.78125 33.40625 
Q 43.953125 29.203125 39.59375 26.953125 
Q 35.25 24.703125 29.984375 24.703125 
Q 19.046875 24.703125 12.671875 31.3125 
Q 6.296875 37.9375 6.296875 49.421875 
Q 6.296875 60.640625 12.9375 67.421875 
Q 19.578125 74.21875 30.609375 74.21875 
Q 43.265625 74.21875 49.921875 64.515625 
Q 56.59375 54.828125 56.59375 36.375 
Q 56.59375 19.140625 48.40625 8.859375 
Q 40.234375 -1.421875 26.421875 -1.421875 
Q 22.703125 -1.421875 18.890625 -0.6875 
Q 15.09375 0.046875 10.984375 1.515625 
M 30.609375 32.421875 
Q 37.25 32.421875 41.125 36.953125 
Q 45.015625 41.5 45.015625 49.421875 
Q 45.015625 57.28125 41.125 61.84375 
Q 37.25 66.40625 30.609375 66.40625 
Q 23.96875 66.40625 20.09375 61.84375 
Q 16.21875 57.28125 16.21875 49.421875 
Q 16.21875 41.5 20.09375 36.953125 
Q 23.96875 32.421875 30.609375 32.421875 
" id="DejaVuSans-39"/>
      <path d="M 10.6875 12.40625 
L 21 12.40625 
L 21 0 
L 10.6875 0 
z
" id="DejaVuSans-2e"/>
      <path d="M 40.578125 39.3125 
Q 47.65625 37.796875 51.625 33 
Q 55.609375 28.21875 55.609375 21.1875 
Q 55.609375 10.40625 48.1875 4.484375 
Q 40.765625 -1.421875 27.09375 -1.421875 
Q 22.515625 -1.421875 17.65625 -0.515625 
Q 12.796875 0.390625 7.625 2.203125 
L 7.625 11.71875 
Q 11.71875 9.328125 16.59375 8.109375 
Q 21.484375 6.890625 26.8125 6.890625 
Q 36.078125 6.890625 40.9375 10.546875 
Q 45.796875 14.203125 45.796875 21.1875 
Q 45.796875 27.640625 41.28125 31.265625 
Q 36.765625 34.90625 28.71875 34.90625 
L 20.21875 34.90625 
L 20.21875 43.015625 
L 29.109375 43.015625 
Q 36.375 43.015625 40.234375 45.921875 
Q 44.09375 48.828125 44.09375 54.296875 
Q 44.09375 59.90625 40.109375 62.90625 
Q 36.140625 65.921875 28.71875 65.921875 
Q 24.65625 65.921875 20.015625 65.03125 
Q 15.375 64.15625 9.8125 62.3125 
L 9.8125 71.09375 
Q 15.4375 72.65625 20.34375 73.4375 
Q 25.25 74.21875 29.59375 74.21875 
Q 40.828125 74.21875 47.359375 69.109375 
Q 53.90625 64.015625 53.90625 55.328125 
Q 53.90625 49.265625 50.4375 45.09375 
Q 46.96875 40.921875 40.578125 39.3125 
" id="DejaVuSans-33"/>
      <path d="M 46 62.703125 
L 46 35.5 
L 73.1875 35.5 
L 73.1875 27.203125 
L 46 27.203125 
L 46 0 
L 37.796875 0 
L 37.796875 27.203125 
L 10.59375 27.203125 
L 10.59375 35.5 
L 37.796875 35.5 
L 37.796875 62.703125 
z
" id="DejaVuSans-2b"/>
      <path d="M 46 62.703125 
L 46 43.796875 
L 73.1875 43.796875 
L 73.1875 35.5 
L 46 35.5 
L 46 16.609375 
L 37.796875 16.609375 
L 37.796875 35.5 
L 10.59375 35.5 
L 10.59375 43.796875 
L 37.796875 43.796875 
L 37.796875 62.703125 
z
M 10.59375 8.296875 
L 73.1875 8.296875 
L 73.1875 0 
L 10.59375 0 
z
" id="DejaVuSans-b1"/>
      <path d="M 47.015625 60.890625 
L 29.5 51.421875 
L 47.015625 41.890625 
L 44.1875 37.109375 
L 27.78125 47.015625 
L 27.78125 28.609375 
L 22.21875 28.609375 
L 22.21875 47.015625 
L 5.8125 37.109375 
L 2.984375 41.890625 
L 20.515625 51.421875 
L 2.984375 60.890625 
L 5.8125 65.71875 
L 22.21875 55.8125 
L 22.21875 74.21875 
L 27.78125 74.21875 
L 27.78125 55.8125 
L 44.1875 65.71875 
z
" id="DejaVuSans-2a"/>
      <path d="M 73.1875 30.421875 
L 73.1875 21.6875 
Q 68.0625 17.875 63.6875 16.1875 
Q 59.328125 14.5 54.59375 14.5 
Q 49.21875 14.5 42.09375 17.390625 
Q 41.609375 17.578125 41.265625 17.71875 
Q 40.96875 17.828125 40.234375 18.109375 
Q 32.671875 21.09375 28.078125 21.09375 
Q 23.78125 21.09375 19.578125 19.234375 
Q 15.375 17.390625 10.59375 13.28125 
L 10.59375 22.015625 
Q 15.71875 25.828125 20.09375 27.515625 
Q 24.46875 29.203125 29.203125 29.203125 
Q 34.578125 29.203125 41.75 26.3125 
Q 42.28125 26.078125 42.53125 25.984375 
Q 42.828125 25.875 43.5625 25.59375 
Q 51.125 22.609375 55.71875 22.609375 
Q 59.90625 22.609375 64.03125 24.4375 
Q 68.171875 26.265625 73.1875 30.421875 
M 73.1875 49.421875 
L 73.1875 40.71875 
Q 68.0625 36.859375 63.6875 35.171875 
Q 59.328125 33.5 54.59375 33.5 
Q 49.21875 33.5 42.09375 36.375 
Q 41.609375 36.578125 41.265625 36.71875 
Q 40.96875 36.8125 40.234375 37.109375 
Q 32.671875 40.09375 28.078125 40.09375 
Q 23.78125 40.09375 19.578125 38.234375 
Q 15.375 36.375 10.59375 32.328125 
L 10.59375 41.015625 
Q 15.71875 44.828125 20.09375 46.5 
Q 24.46875 48.1875 29.203125 48.1875 
Q 34.578125 48.1875 41.75 45.3125 
Q 42.234375 45.125 42.484375 45.015625 
Q 42.828125 44.875 43.5625 44.578125 
Q 51.125 41.609375 55.71875 41.609375 
Q 59.90625 41.609375 64.03125 43.4375 
Q 68.171875 45.265625 73.1875 49.421875 
" id="DejaVuSans-2248"/>
     </defs>
     <g transform="translate(97.129687 117.676562)scale(0.1 -0.1)">
      <use xlink:href="#DejaVuSans-68"/>
      <use x="63.378906" xlink:href="#DejaVuSans-66"/>
      <use x="98.583984" xlink:href="#DejaVuSans-20"/>
      <use x="130.371094" xlink:href="#DejaVuSans-64"/>
      <use x="193.847656" xlink:href="#DejaVuSans-65"/>
      <use x="255.371094" xlink:href="#DejaVuSans-72"/>
      <use x="296.484375" xlink:href="#DejaVuSans-69"/>
      <use x="324.267578" xlink:href="#DejaVuSans-76"/>
      <use x="383.447266" xlink:href="#DejaVuSans-20"/>
      <use x="415.234375" xlink:href="#DejaVuSans-66"/>
      <use x="450.439453" xlink:href="#DejaVuSans-69"/>
      <use x="478.222656" xlink:href="#DejaVuSans-74"/>
      <use x="517.431641" xlink:href="#DejaVuSans-20"/>
      <use x="549.21875" xlink:href="#DejaVuSans-28"/>
      <use x="588.232422" xlink:href="#DejaVuSans-45"/>
      <use x="651.416016" xlink:href="#DejaVuSans-5f"/>
      <use x="701.416016" xlink:href="#DejaVuSans-67"/>
      <use x="764.892578" xlink:href="#DejaVuSans-6e"/>
      <use x="828.271484" xlink:href="#DejaVuSans-64"/>
      <use x="891.748047" xlink:href="#DejaVuSans-20"/>
      <use x="923.535156" xlink:href="#DejaVuSans-3d"/>
      <use x="1007.324219" xlink:href="#DejaVuSans-20"/>
      <use x="1039.111328" xlink:href="#DejaVuSans-28"/>
      <use x="1078.125" xlink:href="#DejaVuSans-2d"/>
      <use x="1114.208984" xlink:href="#DejaVuSans-39"/>
      <use x="1177.832031" xlink:href="#DejaVuSans-2e"/>
      <use x="1209.619141" xlink:href="#DejaVuSans-33"/>
      <use x="1273.242188" xlink:href="#DejaVuSans-39"/>
      <use x="1336.865234" xlink:href="#DejaVuSans-65"/>
      <use x="1398.388672" xlink:href="#DejaVuSans-2b"/>
      <use x="1482.177734" xlink:href="#DejaVuSans-32"/>
      <use x="1545.800781" xlink:href="#DejaVuSans-37"/>
      <use x="1609.423828" xlink:href="#DejaVuSans-b1"/>
      <use x="1693.212891" xlink:href="#DejaVuSans-32"/>
      <use x="1756.835938" xlink:href="#DejaVuSans-2e"/>
      <use x="1788.623047" xlink:href="#DejaVuSans-31"/>
      <use x="1852.246094" xlink:href="#DejaVuSans-65"/>
      <use x="1913.769531" xlink:href="#DejaVuSans-2b"/>
      <use x="1997.558594" xlink:href="#DejaVuSans-32"/>
      <use x="2061.181641" xlink:href="#DejaVuSans-39"/>
      <use x="2124.804688" xlink:href="#DejaVuSans-29"/>
      <use x="2163.818359" xlink:href="#DejaVuSans-20"/>
      <use x="2195.605469" xlink:href="#DejaVuSans-2a"/>
      <use x="2245.605469" xlink:href="#DejaVuSans-20"/>
      <use x="2277.392578" xlink:href="#DejaVuSans-4b"/>
      <use x="2342.96875" xlink:href="#DejaVuSans-20"/>
      <use x="2374.755859" xlink:href="#DejaVuSans-2a"/>
      <use x="2424.755859" xlink:href="#DejaVuSans-2a"/>
      <use x="2474.755859" xlink:href="#DejaVuSans-20"/>
      <use x="2506.542969" xlink:href="#DejaVuSans-28"/>
      <use x="2545.556641" xlink:href="#DejaVuSans-2d"/>
      <use x="2581.640625" xlink:href="#DejaVuSans-33"/>
      <use x="2645.263672" xlink:href="#DejaVuSans-32"/>
      <use x="2708.886719" xlink:href="#DejaVuSans-2e"/>
      <use x="2740.673828" xlink:href="#DejaVuSans-38"/>
      <use x="2804.296875" xlink:href="#DejaVuSans-b1"/>
      <use x="2888.085938" xlink:href="#DejaVuSans-31"/>
      <use x="2951.708984" xlink:href="#DejaVuSans-31"/>
      <use x="3015.332031" xlink:href="#DejaVuSans-29"/>
      <use x="3054.345703" xlink:href="#DejaVuSans-20"/>
      <use x="3086.132812" xlink:href="#DejaVuSans-2b"/>
      <use x="3169.921875" xlink:href="#DejaVuSans-20"/>
      <use x="3201.708984" xlink:href="#DejaVuSans-28"/>
      <use x="3240.722656" xlink:href="#DejaVuSans-2248"/>
      <use x="3324.511719" xlink:href="#DejaVuSans-36"/>
      <use x="3388.134766" xlink:href="#DejaVuSans-36"/>
      <use x="3451.757812" xlink:href="#DejaVuSans-2e"/>
      <use x="3483.544922" xlink:href="#DejaVuSans-39"/>
      <use x="3547.167969" xlink:href="#DejaVuSans-31"/>
      <use x="3610.791016" xlink:href="#DejaVuSans-31"/>
      <use x="3674.414062" xlink:href="#DejaVuSans-29"/>
     </g>
    </g>
    <g id="line2d_33">
     <path d="M 69.129687 129.132812 
L 89.129687 129.132812 
" style="fill:none;stroke:#841a0b;stroke-dasharray:2.2,2.2;stroke-dashoffset:0;stroke-width:1.5;"/>
    </g>
    <g id="line2d_34"/>
    <g id="text_13">
     <!-- hf deriv fit (E_gnd = (3.14e+17±1.6e+18) * K ** (-21.5±2.5) + (66.911±0.00011) -->
     <g transform="translate(97.129687 132.632812)scale(0.1 -0.1)">
      <use xlink:href="#DejaVuSans-68"/>
      <use x="63.378906" xlink:href="#DejaVuSans-66"/>
      <use x="98.583984" xlink:href="#DejaVuSans-20"/>
      <use x="130.371094" xlink:href="#DejaVuSans-64"/>
      <use x="193.847656" xlink:href="#DejaVuSans-65"/>
      <use x="255.371094" xlink:href="#DejaVuSans-72"/>
      <use x="296.484375" xlink:href="#DejaVuSans-69"/>
      <use x="324.267578" xlink:href="#DejaVuSans-76"/>
      <use x="383.447266" xlink:href="#DejaVuSans-20"/>
      <use x="415.234375" xlink:href="#DejaVuSans-66"/>
      <use x="450.439453" xlink:href="#DejaVuSans-69"/>
      <use x="478.222656" xlink:href="#DejaVuSans-74"/>
      <use x="517.431641" xlink:href="#DejaVuSans-20"/>
      <use x="549.21875" xlink:href="#DejaVuSans-28"/>
      <use x="588.232422" xlink:href="#DejaVuSans-45"/>
      <use x="651.416016" xlink:href="#DejaVuSans-5f"/>
      <use x="701.416016" xlink:href="#DejaVuSans-67"/>
      <use x="764.892578" xlink:href="#DejaVuSans-6e"/>
      <use x="828.271484" xlink:href="#DejaVuSans-64"/>
      <use x="891.748047" xlink:href="#DejaVuSans-20"/>
      <use x="923.535156" xlink:href="#DejaVuSans-3d"/>
      <use x="1007.324219" xlink:href="#DejaVuSans-20"/>
      <use x="1039.111328" xlink:href="#DejaVuSans-28"/>
      <use x="1078.125" xlink:href="#DejaVuSans-33"/>
      <use x="1141.748047" xlink:href="#DejaVuSans-2e"/>
      <use x="1173.535156" xlink:href="#DejaVuSans-31"/>
      <use x="1237.158203" xlink:href="#DejaVuSans-34"/>
      <use x="1300.78125" xlink:href="#DejaVuSans-65"/>
      <use x="1362.304688" xlink:href="#DejaVuSans-2b"/>
      <use x="1446.09375" xlink:href="#DejaVuSans-31"/>
      <use x="1509.716797" xlink:href="#DejaVuSans-37"/>
      <use x="1573.339844" xlink:href="#DejaVuSans-b1"/>
      <use x="1657.128906" xlink:href="#DejaVuSans-31"/>
      <use x="1720.751953" xlink:href="#DejaVuSans-2e"/>
      <use x="1752.539062" xlink:href="#DejaVuSans-36"/>
      <use x="1816.162109" xlink:href="#DejaVuSans-65"/>
      <use x="1877.685547" xlink:href="#DejaVuSans-2b"/>
      <use x="1961.474609" xlink:href="#DejaVuSans-31"/>
      <use x="2025.097656" xlink:href="#DejaVuSans-38"/>
      <use x="2088.720703" xlink:href="#DejaVuSans-29"/>
      <use x="2127.734375" xlink:href="#DejaVuSans-20"/>
      <use x="2159.521484" xlink:href="#DejaVuSans-2a"/>
      <use x="2209.521484" xlink:href="#DejaVuSans-20"/>
      <use x="2241.308594" xlink:href="#DejaVuSans-4b"/>
      <use x="2306.884766" xlink:href="#DejaVuSans-20"/>
      <use x="2338.671875" xlink:href="#DejaVuSans-2a"/>
      <use x="2388.671875" xlink:href="#DejaVuSans-2a"/>
      <use x="2438.671875" xlink:href="#DejaVuSans-20"/>
      <use x="2470.458984" xlink:href="#DejaVuSans-28"/>
      <use x="2509.472656" xlink:href="#DejaVuSans-2d"/>
      <use x="2545.556641" xlink:href="#DejaVuSans-32"/>
      <use x="2609.179688" xlink:href="#DejaVuSans-31"/>
      <use x="2672.802734" xlink:href="#DejaVuSans-2e"/>
      <use x="2704.589844" xlink:href="#DejaVuSans-35"/>
      <use x="2768.212891" xlink:href="#DejaVuSans-b1"/>
      <use x="2852.001953" xlink:href="#DejaVuSans-32"/>
      <use x="2915.625" xlink:href="#DejaVuSans-2e"/>
      <use x="2947.412109" xlink:href="#DejaVuSans-35"/>
      <use x="3011.035156" xlink:href="#DejaVuSans-29"/>
      <use x="3050.048828" xlink:href="#DejaVuSans-20"/>
      <use x="3081.835938" xlink:href="#DejaVuSans-2b"/>
      <use x="3165.625" xlink:href="#DejaVuSans-20"/>
      <use x="3197.412109" xlink:href="#DejaVuSans-28"/>
      <use x="3236.425781" xlink:href="#DejaVuSans-36"/>
      <use x="3300.048828" xlink:href="#DejaVuSans-36"/>
      <use x="3363.671875" xlink:href="#DejaVuSans-2e"/>
      <use x="3395.458984" xlink:href="#DejaVuSans-39"/>
      <use x="3459.082031" xlink:href="#DejaVuSans-31"/>
      <use x="3522.705078" xlink:href="#DejaVuSans-31"/>
      <use x="3586.328125" xlink:href="#DejaVuSans-b1"/>
      <use x="3670.117188" xlink:href="#DejaVuSans-30"/>
      <use x="3733.740234" xlink:href="#DejaVuSans-2e"/>
      <use x="3765.527344" xlink:href="#DejaVuSans-30"/>
      <use x="3829.150391" xlink:href="#DejaVuSans-30"/>
      <use x="3892.773438" xlink:href="#DejaVuSans-30"/>
      <use x="3956.396484" xlink:href="#DejaVuSans-31"/>
      <use x="4020.019531" xlink:href="#DejaVuSans-31"/>
      <use x="4083.642578" xlink:href="#DejaVuSans-29"/>
     </g>
    </g>
    <g id="line2d_35"/>
    <g id="line2d_36">
     <g>
      <use style="fill:#1351c4;stroke:#1351c4;" x="79.129687" xlink:href="#m767dfbe08a" y="144.089062"/>
     </g>
    </g>
    <g id="text_14">
     <!-- imsrg -->
     <g transform="translate(97.129687 147.589062)scale(0.1 -0.1)">
      <use xlink:href="#DejaVuSans-69"/>
      <use x="27.783203" xlink:href="#DejaVuSans-6d"/>
      <use x="125.195312" xlink:href="#DejaVuSans-73"/>
      <use x="177.294922" xlink:href="#DejaVuSans-72"/>
      <use x="218.392578" xlink:href="#DejaVuSans-67"/>
     </g>
    </g>
    <g id="line2d_37">
     <path d="M 69.129687 158.767187 
L 89.129687 158.767187 
" style="fill:none;stroke:#1351c4;stroke-linecap:square;stroke-width:1.5;"/>
    </g>
    <g id="line2d_38"/>
    <g id="text_15">
     <!-- imsrg deriv fit (E_gnd = (-43±8.1) * K ** (-2.59±0.1) + (≈65.793) -->
     <g transform="translate(97.129687 162.267187)scale(0.1 -0.1)">
      <use xlink:href="#DejaVuSans-69"/>
      <use x="27.783203" xlink:href="#DejaVuSans-6d"/>
      <use x="125.195312" xlink:href="#DejaVuSans-73"/>
      <use x="177.294922" xlink:href="#DejaVuSans-72"/>
      <use x="218.392578" xlink:href="#DejaVuSans-67"/>
      <use x="281.869141" xlink:href="#DejaVuSans-20"/>
      <use x="313.65625" xlink:href="#DejaVuSans-64"/>
      <use x="377.132812" xlink:href="#DejaVuSans-65"/>
      <use x="438.65625" xlink:href="#DejaVuSans-72"/>
      <use x="479.769531" xlink:href="#DejaVuSans-69"/>
      <use x="507.552734" xlink:href="#DejaVuSans-76"/>
      <use x="566.732422" xlink:href="#DejaVuSans-20"/>
      <use x="598.519531" xlink:href="#DejaVuSans-66"/>
      <use x="633.724609" xlink:href="#DejaVuSans-69"/>
      <use x="661.507812" xlink:href="#DejaVuSans-74"/>
      <use x="700.716797" xlink:href="#DejaVuSans-20"/>
      <use x="732.503906" xlink:href="#DejaVuSans-28"/>
      <use x="771.517578" xlink:href="#DejaVuSans-45"/>
      <use x="834.701172" xlink:href="#DejaVuSans-5f"/>
      <use x="884.701172" xlink:href="#DejaVuSans-67"/>
      <use x="948.177734" xlink:href="#DejaVuSans-6e"/>
      <use x="1011.556641" xlink:href="#DejaVuSans-64"/>
      <use x="1075.033203" xlink:href="#DejaVuSans-20"/>
      <use x="1106.820312" xlink:href="#DejaVuSans-3d"/>
      <use x="1190.609375" xlink:href="#DejaVuSans-20"/>
      <use x="1222.396484" xlink:href="#DejaVuSans-28"/>
      <use x="1261.410156" xlink:href="#DejaVuSans-2d"/>
      <use x="1297.494141" xlink:href="#DejaVuSans-34"/>
      <use x="1361.117188" xlink:href="#DejaVuSans-33"/>
      <use x="1424.740234" xlink:href="#DejaVuSans-b1"/>
      <use x="1508.529297" xlink:href="#DejaVuSans-38"/>
      <use x="1572.152344" xlink:href="#DejaVuSans-2e"/>
      <use x="1603.939453" xlink:href="#DejaVuSans-31"/>
      <use x="1667.5625" xlink:href="#DejaVuSans-29"/>
      <use x="1706.576172" xlink:href="#DejaVuSans-20"/>
      <use x="1738.363281" xlink:href="#DejaVuSans-2a"/>
      <use x="1788.363281" xlink:href="#DejaVuSans-20"/>
      <use x="1820.150391" xlink:href="#DejaVuSans-4b"/>
      <use x="1885.726562" xlink:href="#DejaVuSans-20"/>
      <use x="1917.513672" xlink:href="#DejaVuSans-2a"/>
      <use x="1967.513672" xlink:href="#DejaVuSans-2a"/>
      <use x="2017.513672" xlink:href="#DejaVuSans-20"/>
      <use x="2049.300781" xlink:href="#DejaVuSans-28"/>
      <use x="2088.314453" xlink:href="#DejaVuSans-2d"/>
      <use x="2124.398438" xlink:href="#DejaVuSans-32"/>
      <use x="2188.021484" xlink:href="#DejaVuSans-2e"/>
      <use x="2219.808594" xlink:href="#DejaVuSans-35"/>
      <use x="2283.431641" xlink:href="#DejaVuSans-39"/>
      <use x="2347.054688" xlink:href="#DejaVuSans-b1"/>
      <use x="2430.84375" xlink:href="#DejaVuSans-30"/>
      <use x="2494.466797" xlink:href="#DejaVuSans-2e"/>
      <use x="2526.253906" xlink:href="#DejaVuSans-31"/>
      <use x="2589.876953" xlink:href="#DejaVuSans-29"/>
      <use x="2628.890625" xlink:href="#DejaVuSans-20"/>
      <use x="2660.677734" xlink:href="#DejaVuSans-2b"/>
      <use x="2744.466797" xlink:href="#DejaVuSans-20"/>
      <use x="2776.253906" xlink:href="#DejaVuSans-28"/>
      <use x="2815.267578" xlink:href="#DejaVuSans-2248"/>
      <use x="2899.056641" xlink:href="#DejaVuSans-36"/>
      <use x="2962.679688" xlink:href="#DejaVuSans-35"/>
      <use x="3026.302734" xlink:href="#DejaVuSans-2e"/>
      <use x="3058.089844" xlink:href="#DejaVuSans-37"/>
      <use x="3121.712891" xlink:href="#DejaVuSans-39"/>
      <use x="3185.335938" xlink:href="#DejaVuSans-33"/>
      <use x="3248.958984" xlink:href="#DejaVuSans-29"/>
     </g>
    </g>
    <g id="line2d_39">
     <path d="M 69.129687 173.723437 
L 89.129687 173.723437 
" style="fill:none;stroke:#1351c4;stroke-dasharray:2.2,2.2;stroke-dashoffset:0;stroke-width:1.5;"/>
    </g>
    <g id="line2d_40"/>
    <g id="text_16">
     <!-- imsrg deriv fit (E_gnd = (35.4±4.5) * K ** (-2.5±0.067) + (65.714±0.0026) -->
     <g transform="translate(97.129687 177.223437)scale(0.1 -0.1)">
      <use xlink:href="#DejaVuSans-69"/>
      <use x="27.783203" xlink:href="#DejaVuSans-6d"/>
      <use x="125.195312" xlink:href="#DejaVuSans-73"/>
      <use x="177.294922" xlink:href="#DejaVuSans-72"/>
      <use x="218.392578" xlink:href="#DejaVuSans-67"/>
      <use x="281.869141" xlink:href="#DejaVuSans-20"/>
      <use x="313.65625" xlink:href="#DejaVuSans-64"/>
      <use x="377.132812" xlink:href="#DejaVuSans-65"/>
      <use x="438.65625" xlink:href="#DejaVuSans-72"/>
      <use x="479.769531" xlink:href="#DejaVuSans-69"/>
      <use x="507.552734" xlink:href="#DejaVuSans-76"/>
      <use x="566.732422" xlink:href="#DejaVuSans-20"/>
      <use x="598.519531" xlink:href="#DejaVuSans-66"/>
      <use x="633.724609" xlink:href="#DejaVuSans-69"/>
      <use x="661.507812" xlink:href="#DejaVuSans-74"/>
      <use x="700.716797" xlink:href="#DejaVuSans-20"/>
      <use x="732.503906" xlink:href="#DejaVuSans-28"/>
      <use x="771.517578" xlink:href="#DejaVuSans-45"/>
      <use x="834.701172" xlink:href="#DejaVuSans-5f"/>
      <use x="884.701172" xlink:href="#DejaVuSans-67"/>
      <use x="948.177734" xlink:href="#DejaVuSans-6e"/>
      <use x="1011.556641" xlink:href="#DejaVuSans-64"/>
      <use x="1075.033203" xlink:href="#DejaVuSans-20"/>
      <use x="1106.820312" xlink:href="#DejaVuSans-3d"/>
      <use x="1190.609375" xlink:href="#DejaVuSans-20"/>
      <use x="1222.396484" xlink:href="#DejaVuSans-28"/>
      <use x="1261.410156" xlink:href="#DejaVuSans-33"/>
      <use x="1325.033203" xlink:href="#DejaVuSans-35"/>
      <use x="1388.65625" xlink:href="#DejaVuSans-2e"/>
      <use x="1420.443359" xlink:href="#DejaVuSans-34"/>
      <use x="1484.066406" xlink:href="#DejaVuSans-b1"/>
      <use x="1567.855469" xlink:href="#DejaVuSans-34"/>
      <use x="1631.478516" xlink:href="#DejaVuSans-2e"/>
      <use x="1663.265625" xlink:href="#DejaVuSans-35"/>
      <use x="1726.888672" xlink:href="#DejaVuSans-29"/>
      <use x="1765.902344" xlink:href="#DejaVuSans-20"/>
      <use x="1797.689453" xlink:href="#DejaVuSans-2a"/>
      <use x="1847.689453" xlink:href="#DejaVuSans-20"/>
      <use x="1879.476562" xlink:href="#DejaVuSans-4b"/>
      <use x="1945.052734" xlink:href="#DejaVuSans-20"/>
      <use x="1976.839844" xlink:href="#DejaVuSans-2a"/>
      <use x="2026.839844" xlink:href="#DejaVuSans-2a"/>
      <use x="2076.839844" xlink:href="#DejaVuSans-20"/>
      <use x="2108.626953" xlink:href="#DejaVuSans-28"/>
      <use x="2147.640625" xlink:href="#DejaVuSans-2d"/>
      <use x="2183.724609" xlink:href="#DejaVuSans-32"/>
      <use x="2247.347656" xlink:href="#DejaVuSans-2e"/>
      <use x="2279.134766" xlink:href="#DejaVuSans-35"/>
      <use x="2342.757812" xlink:href="#DejaVuSans-b1"/>
      <use x="2426.546875" xlink:href="#DejaVuSans-30"/>
      <use x="2490.169922" xlink:href="#DejaVuSans-2e"/>
      <use x="2521.957031" xlink:href="#DejaVuSans-30"/>
      <use x="2585.580078" xlink:href="#DejaVuSans-36"/>
      <use x="2649.203125" xlink:href="#DejaVuSans-37"/>
      <use x="2712.826172" xlink:href="#DejaVuSans-29"/>
      <use x="2751.839844" xlink:href="#DejaVuSans-20"/>
      <use x="2783.626953" xlink:href="#DejaVuSans-2b"/>
      <use x="2867.416016" xlink:href="#DejaVuSans-20"/>
      <use x="2899.203125" xlink:href="#DejaVuSans-28"/>
      <use x="2938.216797" xlink:href="#DejaVuSans-36"/>
      <use x="3001.839844" xlink:href="#DejaVuSans-35"/>
      <use x="3065.462891" xlink:href="#DejaVuSans-2e"/>
      <use x="3097.25" xlink:href="#DejaVuSans-37"/>
      <use x="3160.873047" xlink:href="#DejaVuSans-31"/>
      <use x="3224.496094" xlink:href="#DejaVuSans-34"/>
      <use x="3288.119141" xlink:href="#DejaVuSans-b1"/>
      <use x="3371.908203" xlink:href="#DejaVuSans-30"/>
      <use x="3435.53125" xlink:href="#DejaVuSans-2e"/>
      <use x="3467.318359" xlink:href="#DejaVuSans-30"/>
      <use x="3530.941406" xlink:href="#DejaVuSans-30"/>
      <use x="3594.564453" xlink:href="#DejaVuSans-32"/>
      <use x="3658.1875" xlink:href="#DejaVuSans-36"/>
      <use x="3721.810547" xlink:href="#DejaVuSans-29"/>
     </g>
    </g>
    <g id="line2d_41"/>
    <g id="line2d_42">
     <g>
      <use style="fill:#39b237;stroke:#39b237;" x="79.129687" xlink:href="#m0100a9bb03" y="188.679687"/>
     </g>
    </g>
    <g id="text_17">
     <!-- mp2 -->
     <defs>
      <path d="M 18.109375 8.203125 
L 18.109375 -20.796875 
L 9.078125 -20.796875 
L 9.078125 54.6875 
L 18.109375 54.6875 
L 18.109375 46.390625 
Q 20.953125 51.265625 25.265625 53.625 
Q 29.59375 56 35.59375 56 
Q 45.5625 56 51.78125 48.09375 
Q 58.015625 40.1875 58.015625 27.296875 
Q 58.015625 14.40625 51.78125 6.484375 
Q 45.5625 -1.421875 35.59375 -1.421875 
Q 29.59375 -1.421875 25.265625 0.953125 
Q 20.953125 3.328125 18.109375 8.203125 
M 48.6875 27.296875 
Q 48.6875 37.203125 44.609375 42.84375 
Q 40.53125 48.484375 33.40625 48.484375 
Q 26.265625 48.484375 22.1875 42.84375 
Q 18.109375 37.203125 18.109375 27.296875 
Q 18.109375 17.390625 22.1875 11.75 
Q 26.265625 6.109375 33.40625 6.109375 
Q 40.53125 6.109375 44.609375 11.75 
Q 48.6875 17.390625 48.6875 27.296875 
" id="DejaVuSans-70"/>
     </defs>
     <g transform="translate(97.129687 192.179687)scale(0.1 -0.1)">
      <use xlink:href="#DejaVuSans-6d"/>
      <use x="97.412109" xlink:href="#DejaVuSans-70"/>
      <use x="160.888672" xlink:href="#DejaVuSans-32"/>
     </g>
    </g>
    <g id="line2d_43">
     <path d="M 69.129687 203.357812 
L 89.129687 203.357812 
" style="fill:none;stroke:#39b237;stroke-linecap:square;stroke-width:1.5;"/>
    </g>
    <g id="line2d_44"/>
    <g id="text_18">
     <!-- mp2 deriv fit (E_gnd = (-12.3±2.6) * K ** (-1.76±0.12) + (≈65.879) -->
     <g transform="translate(97.129687 206.857812)scale(0.1 -0.1)">
      <use xlink:href="#DejaVuSans-6d"/>
      <use x="97.412109" xlink:href="#DejaVuSans-70"/>
      <use x="160.888672" xlink:href="#DejaVuSans-32"/>
      <use x="224.511719" xlink:href="#DejaVuSans-20"/>
      <use x="256.298828" xlink:href="#DejaVuSans-64"/>
      <use x="319.775391" xlink:href="#DejaVuSans-65"/>
      <use x="381.298828" xlink:href="#DejaVuSans-72"/>
      <use x="422.412109" xlink:href="#DejaVuSans-69"/>
      <use x="450.195312" xlink:href="#DejaVuSans-76"/>
      <use x="509.375" xlink:href="#DejaVuSans-20"/>
      <use x="541.162109" xlink:href="#DejaVuSans-66"/>
      <use x="576.367188" xlink:href="#DejaVuSans-69"/>
      <use x="604.150391" xlink:href="#DejaVuSans-74"/>
      <use x="643.359375" xlink:href="#DejaVuSans-20"/>
      <use x="675.146484" xlink:href="#DejaVuSans-28"/>
      <use x="714.160156" xlink:href="#DejaVuSans-45"/>
      <use x="777.34375" xlink:href="#DejaVuSans-5f"/>
      <use x="827.34375" xlink:href="#DejaVuSans-67"/>
      <use x="890.820312" xlink:href="#DejaVuSans-6e"/>
      <use x="954.199219" xlink:href="#DejaVuSans-64"/>
      <use x="1017.675781" xlink:href="#DejaVuSans-20"/>
      <use x="1049.462891" xlink:href="#DejaVuSans-3d"/>
      <use x="1133.251953" xlink:href="#DejaVuSans-20"/>
      <use x="1165.039062" xlink:href="#DejaVuSans-28"/>
      <use x="1204.052734" xlink:href="#DejaVuSans-2d"/>
      <use x="1240.136719" xlink:href="#DejaVuSans-31"/>
      <use x="1303.759766" xlink:href="#DejaVuSans-32"/>
      <use x="1367.382812" xlink:href="#DejaVuSans-2e"/>
      <use x="1399.169922" xlink:href="#DejaVuSans-33"/>
      <use x="1462.792969" xlink:href="#DejaVuSans-b1"/>
      <use x="1546.582031" xlink:href="#DejaVuSans-32"/>
      <use x="1610.205078" xlink:href="#DejaVuSans-2e"/>
      <use x="1641.992188" xlink:href="#DejaVuSans-36"/>
      <use x="1705.615234" xlink:href="#DejaVuSans-29"/>
      <use x="1744.628906" xlink:href="#DejaVuSans-20"/>
      <use x="1776.416016" xlink:href="#DejaVuSans-2a"/>
      <use x="1826.416016" xlink:href="#DejaVuSans-20"/>
      <use x="1858.203125" xlink:href="#DejaVuSans-4b"/>
      <use x="1923.779297" xlink:href="#DejaVuSans-20"/>
      <use x="1955.566406" xlink:href="#DejaVuSans-2a"/>
      <use x="2005.566406" xlink:href="#DejaVuSans-2a"/>
      <use x="2055.566406" xlink:href="#DejaVuSans-20"/>
      <use x="2087.353516" xlink:href="#DejaVuSans-28"/>
      <use x="2126.367188" xlink:href="#DejaVuSans-2d"/>
      <use x="2162.451172" xlink:href="#DejaVuSans-31"/>
      <use x="2226.074219" xlink:href="#DejaVuSans-2e"/>
      <use x="2257.861328" xlink:href="#DejaVuSans-37"/>
      <use x="2321.484375" xlink:href="#DejaVuSans-36"/>
      <use x="2385.107422" xlink:href="#DejaVuSans-b1"/>
      <use x="2468.896484" xlink:href="#DejaVuSans-30"/>
      <use x="2532.519531" xlink:href="#DejaVuSans-2e"/>
      <use x="2564.306641" xlink:href="#DejaVuSans-31"/>
      <use x="2627.929688" xlink:href="#DejaVuSans-32"/>
      <use x="2691.552734" xlink:href="#DejaVuSans-29"/>
      <use x="2730.566406" xlink:href="#DejaVuSans-20"/>
      <use x="2762.353516" xlink:href="#DejaVuSans-2b"/>
      <use x="2846.142578" xlink:href="#DejaVuSans-20"/>
      <use x="2877.929688" xlink:href="#DejaVuSans-28"/>
      <use x="2916.943359" xlink:href="#DejaVuSans-2248"/>
      <use x="3000.732422" xlink:href="#DejaVuSans-36"/>
      <use x="3064.355469" xlink:href="#DejaVuSans-35"/>
      <use x="3127.978516" xlink:href="#DejaVuSans-2e"/>
      <use x="3159.765625" xlink:href="#DejaVuSans-38"/>
      <use x="3223.388672" xlink:href="#DejaVuSans-37"/>
      <use x="3287.011719" xlink:href="#DejaVuSans-39"/>
      <use x="3350.634766" xlink:href="#DejaVuSans-29"/>
     </g>
    </g>
    <g id="line2d_45">
     <path d="M 69.129687 218.314062 
L 89.129687 218.314062 
" style="fill:none;stroke:#39b237;stroke-dasharray:2.2,2.2;stroke-dashoffset:0;stroke-width:1.5;"/>
    </g>
    <g id="line2d_46"/>
    <g id="text_19">
     <!-- mp2 deriv fit (E_gnd = (10.3±1.3) * K ** (-1.67±0.071) + (65.664±0.0084) -->
     <g transform="translate(97.129687 221.814062)scale(0.1 -0.1)">
      <use xlink:href="#DejaVuSans-6d"/>
      <use x="97.412109" xlink:href="#DejaVuSans-70"/>
      <use x="160.888672" xlink:href="#DejaVuSans-32"/>
      <use x="224.511719" xlink:href="#DejaVuSans-20"/>
      <use x="256.298828" xlink:href="#DejaVuSans-64"/>
      <use x="319.775391" xlink:href="#DejaVuSans-65"/>
      <use x="381.298828" xlink:href="#DejaVuSans-72"/>
      <use x="422.412109" xlink:href="#DejaVuSans-69"/>
      <use x="450.195312" xlink:href="#DejaVuSans-76"/>
      <use x="509.375" xlink:href="#DejaVuSans-20"/>
      <use x="541.162109" xlink:href="#DejaVuSans-66"/>
      <use x="576.367188" xlink:href="#DejaVuSans-69"/>
      <use x="604.150391" xlink:href="#DejaVuSans-74"/>
      <use x="643.359375" xlink:href="#DejaVuSans-20"/>
      <use x="675.146484" xlink:href="#DejaVuSans-28"/>
      <use x="714.160156" xlink:href="#DejaVuSans-45"/>
      <use x="777.34375" xlink:href="#DejaVuSans-5f"/>
      <use x="827.34375" xlink:href="#DejaVuSans-67"/>
      <use x="890.820312" xlink:href="#DejaVuSans-6e"/>
      <use x="954.199219" xlink:href="#DejaVuSans-64"/>
      <use x="1017.675781" xlink:href="#DejaVuSans-20"/>
      <use x="1049.462891" xlink:href="#DejaVuSans-3d"/>
      <use x="1133.251953" xlink:href="#DejaVuSans-20"/>
      <use x="1165.039062" xlink:href="#DejaVuSans-28"/>
      <use x="1204.052734" xlink:href="#DejaVuSans-31"/>
      <use x="1267.675781" xlink:href="#DejaVuSans-30"/>
      <use x="1331.298828" xlink:href="#DejaVuSans-2e"/>
      <use x="1363.085938" xlink:href="#DejaVuSans-33"/>
      <use x="1426.708984" xlink:href="#DejaVuSans-b1"/>
      <use x="1510.498047" xlink:href="#DejaVuSans-31"/>
      <use x="1574.121094" xlink:href="#DejaVuSans-2e"/>
      <use x="1605.908203" xlink:href="#DejaVuSans-33"/>
      <use x="1669.53125" xlink:href="#DejaVuSans-29"/>
      <use x="1708.544922" xlink:href="#DejaVuSans-20"/>
      <use x="1740.332031" xlink:href="#DejaVuSans-2a"/>
      <use x="1790.332031" xlink:href="#DejaVuSans-20"/>
      <use x="1822.119141" xlink:href="#DejaVuSans-4b"/>
      <use x="1887.695312" xlink:href="#DejaVuSans-20"/>
      <use x="1919.482422" xlink:href="#DejaVuSans-2a"/>
      <use x="1969.482422" xlink:href="#DejaVuSans-2a"/>
      <use x="2019.482422" xlink:href="#DejaVuSans-20"/>
      <use x="2051.269531" xlink:href="#DejaVuSans-28"/>
      <use x="2090.283203" xlink:href="#DejaVuSans-2d"/>
      <use x="2126.367188" xlink:href="#DejaVuSans-31"/>
      <use x="2189.990234" xlink:href="#DejaVuSans-2e"/>
      <use x="2221.777344" xlink:href="#DejaVuSans-36"/>
      <use x="2285.400391" xlink:href="#DejaVuSans-37"/>
      <use x="2349.023438" xlink:href="#DejaVuSans-b1"/>
      <use x="2432.8125" xlink:href="#DejaVuSans-30"/>
      <use x="2496.435547" xlink:href="#DejaVuSans-2e"/>
      <use x="2528.222656" xlink:href="#DejaVuSans-30"/>
      <use x="2591.845703" xlink:href="#DejaVuSans-37"/>
      <use x="2655.46875" xlink:href="#DejaVuSans-31"/>
      <use x="2719.091797" xlink:href="#DejaVuSans-29"/>
      <use x="2758.105469" xlink:href="#DejaVuSans-20"/>
      <use x="2789.892578" xlink:href="#DejaVuSans-2b"/>
      <use x="2873.681641" xlink:href="#DejaVuSans-20"/>
      <use x="2905.46875" xlink:href="#DejaVuSans-28"/>
      <use x="2944.482422" xlink:href="#DejaVuSans-36"/>
      <use x="3008.105469" xlink:href="#DejaVuSans-35"/>
      <use x="3071.728516" xlink:href="#DejaVuSans-2e"/>
      <use x="3103.515625" xlink:href="#DejaVuSans-36"/>
      <use x="3167.138672" xlink:href="#DejaVuSans-36"/>
      <use x="3230.761719" xlink:href="#DejaVuSans-34"/>
      <use x="3294.384766" xlink:href="#DejaVuSans-b1"/>
      <use x="3378.173828" xlink:href="#DejaVuSans-30"/>
      <use x="3441.796875" xlink:href="#DejaVuSans-2e"/>
      <use x="3473.583984" xlink:href="#DejaVuSans-30"/>
      <use x="3537.207031" xlink:href="#DejaVuSans-30"/>
      <use x="3600.830078" xlink:href="#DejaVuSans-38"/>
      <use x="3664.453125" xlink:href="#DejaVuSans-34"/>
      <use x="3728.076172" xlink:href="#DejaVuSans-29"/>
     </g>
    </g>
   </g>
  </g>
 </g>
 <defs>
  <clipPath id="pd8a5ce5524">
   <rect height="554.4" width="446.4" x="72" y="86.4"/>
  </clipPath>
 </defs>
</svg>
