<?xml version="1.0" encoding="utf-8" standalone="no"?>
<!DOCTYPE svg PUBLIC "-//W3C//DTD SVG 1.1//EN"
  "http://www.w3.org/Graphics/SVG/1.1/DTD/svg11.dtd">
<!-- Created with matplotlib (http://matplotlib.org/) -->
<svg height="720pt" version="1.1" viewBox="0 0 576 720" width="576pt" xmlns="http://www.w3.org/2000/svg" xmlns:xlink="http://www.w3.org/1999/xlink">
 <defs>
  <style type="text/css">
*{stroke-linecap:butt;stroke-linejoin:round;}
  </style>
 </defs>
 <g id="figure_1">
  <g id="patch_1">
   <path d="M 0 720 
L 576 720 
L 576 0 
L 0 0 
z
" style="fill:#ffffff;"/>
  </g>
  <g id="axes_1">
   <g id="patch_2">
    <path d="M 72 338.4 
L 339.84 338.4 
L 339.84 86.4 
L 72 86.4 
z
" style="fill:#e5e5e5;"/>
   </g>
   <g id="matplotlib.axis_1">
    <g id="xtick_1">
     <g id="line2d_1">
      <path clip-path="url(#p497d6f0300)" d="M 277.396861 338.4 
L 277.396861 86.4 
" style="fill:none;stroke:#ffffff;stroke-linecap:square;stroke-width:0.8;"/>
     </g>
     <g id="line2d_2">
      <defs>
       <path d="M 0 0 
L 0 3.5 
" id="me62bcd8525" style="stroke:#555555;stroke-width:0.8;"/>
      </defs>
      <g>
       <use style="fill:#555555;stroke:#555555;stroke-width:0.8;" x="277.396861" xlink:href="#me62bcd8525" y="338.4"/>
      </g>
     </g>
     <g id="text_1">
      <!-- ${10^{1}}$ -->
      <defs>
       <path d="M 12.40625 8.296875 
L 28.515625 8.296875 
L 28.515625 63.921875 
L 10.984375 60.40625 
L 10.984375 69.390625 
L 28.421875 72.90625 
L 38.28125 72.90625 
L 38.28125 8.296875 
L 54.390625 8.296875 
L 54.390625 0 
L 12.40625 0 
z
" id="DejaVuSans-31"/>
       <path d="M 31.78125 66.40625 
Q 24.171875 66.40625 20.328125 58.90625 
Q 16.5 51.421875 16.5 36.375 
Q 16.5 21.390625 20.328125 13.890625 
Q 24.171875 6.390625 31.78125 6.390625 
Q 39.453125 6.390625 43.28125 13.890625 
Q 47.125 21.390625 47.125 36.375 
Q 47.125 51.421875 43.28125 58.90625 
Q 39.453125 66.40625 31.78125 66.40625 
M 31.78125 74.21875 
Q 44.046875 74.21875 50.515625 64.515625 
Q 56.984375 54.828125 56.984375 36.375 
Q 56.984375 17.96875 50.515625 8.265625 
Q 44.046875 -1.421875 31.78125 -1.421875 
Q 19.53125 -1.421875 13.0625 8.265625 
Q 6.59375 17.96875 6.59375 36.375 
Q 6.59375 54.828125 13.0625 64.515625 
Q 19.53125 74.21875 31.78125 74.21875 
" id="DejaVuSans-30"/>
      </defs>
      <g style="fill:#555555;" transform="translate(268.596861 352.998437)scale(0.1 -0.1)">
       <use transform="translate(0 0.684375)" xlink:href="#DejaVuSans-31"/>
       <use transform="translate(63.623047 0.684375)" xlink:href="#DejaVuSans-30"/>
       <use transform="translate(128.203125 38.965625)scale(0.7)" xlink:href="#DejaVuSans-31"/>
      </g>
     </g>
    </g>
    <g id="xtick_2">
     <g id="line2d_3">
      <defs>
       <path d="M 0 0 
L 0 2 
" id="m0e513c5755" style="stroke:#555555;stroke-width:0.6;"/>
      </defs>
      <g>
       <use style="fill:#555555;stroke:#555555;stroke-width:0.6;" x="84.174545" xlink:href="#m0e513c5755" y="338.4"/>
      </g>
     </g>
     <g id="text_2">
      <!-- ${2\times10^{0}}$ -->
      <defs>
       <path d="M 19.1875 8.296875 
L 53.609375 8.296875 
L 53.609375 0 
L 7.328125 0 
L 7.328125 8.296875 
Q 12.9375 14.109375 22.625 23.890625 
Q 32.328125 33.6875 34.8125 36.53125 
Q 39.546875 41.84375 41.421875 45.53125 
Q 43.3125 49.21875 43.3125 52.78125 
Q 43.3125 58.59375 39.234375 62.25 
Q 35.15625 65.921875 28.609375 65.921875 
Q 23.96875 65.921875 18.8125 64.3125 
Q 13.671875 62.703125 7.8125 59.421875 
L 7.8125 69.390625 
Q 13.765625 71.78125 18.9375 73 
Q 24.125 74.21875 28.421875 74.21875 
Q 39.75 74.21875 46.484375 68.546875 
Q 53.21875 62.890625 53.21875 53.421875 
Q 53.21875 48.921875 51.53125 44.890625 
Q 49.859375 40.875 45.40625 35.40625 
Q 44.1875 33.984375 37.640625 27.21875 
Q 31.109375 20.453125 19.1875 8.296875 
" id="DejaVuSans-32"/>
       <path d="M 70.125 53.71875 
L 47.796875 31.296875 
L 70.125 8.984375 
L 64.3125 3.078125 
L 41.890625 25.484375 
L 19.484375 3.078125 
L 13.71875 8.984375 
L 35.984375 31.296875 
L 13.71875 53.71875 
L 19.484375 59.625 
L 41.890625 37.203125 
L 64.3125 59.625 
z
" id="DejaVuSans-d7"/>
      </defs>
      <g style="fill:#555555;" transform="translate(66.074545 351.398437)scale(0.1 -0.1)">
       <use transform="translate(0 0.765625)" xlink:href="#DejaVuSans-32"/>
       <use transform="translate(83.105469 0.765625)" xlink:href="#DejaVuSans-d7"/>
       <use transform="translate(186.376953 0.765625)" xlink:href="#DejaVuSans-31"/>
       <use transform="translate(250 0.765625)" xlink:href="#DejaVuSans-30"/>
       <use transform="translate(314.580078 39.046875)scale(0.7)" xlink:href="#DejaVuSans-30"/>
      </g>
     </g>
    </g>
    <g id="xtick_3">
     <g id="line2d_4">
      <g>
       <use style="fill:#555555;stroke:#555555;stroke-width:0.6;" x="132.852973" xlink:href="#m0e513c5755" y="338.4"/>
      </g>
     </g>
     <g id="text_3">
      <!-- ${3\times10^{0}}$ -->
      <defs>
       <path d="M 40.578125 39.3125 
Q 47.65625 37.796875 51.625 33 
Q 55.609375 28.21875 55.609375 21.1875 
Q 55.609375 10.40625 48.1875 4.484375 
Q 40.765625 -1.421875 27.09375 -1.421875 
Q 22.515625 -1.421875 17.65625 -0.515625 
Q 12.796875 0.390625 7.625 2.203125 
L 7.625 11.71875 
Q 11.71875 9.328125 16.59375 8.109375 
Q 21.484375 6.890625 26.8125 6.890625 
Q 36.078125 6.890625 40.9375 10.546875 
Q 45.796875 14.203125 45.796875 21.1875 
Q 45.796875 27.640625 41.28125 31.265625 
Q 36.765625 34.90625 28.71875 34.90625 
L 20.21875 34.90625 
L 20.21875 43.015625 
L 29.109375 43.015625 
Q 36.375 43.015625 40.234375 45.921875 
Q 44.09375 48.828125 44.09375 54.296875 
Q 44.09375 59.90625 40.109375 62.90625 
Q 36.140625 65.921875 28.71875 65.921875 
Q 24.65625 65.921875 20.015625 65.03125 
Q 15.375 64.15625 9.8125 62.3125 
L 9.8125 71.09375 
Q 15.4375 72.65625 20.34375 73.4375 
Q 25.25 74.21875 29.59375 74.21875 
Q 40.828125 74.21875 47.359375 69.109375 
Q 53.90625 64.015625 53.90625 55.328125 
Q 53.90625 49.265625 50.4375 45.09375 
Q 46.96875 40.921875 40.578125 39.3125 
" id="DejaVuSans-33"/>
      </defs>
      <g style="fill:#555555;" transform="translate(114.752973 351.398437)scale(0.1 -0.1)">
       <use transform="translate(0 0.765625)" xlink:href="#DejaVuSans-33"/>
       <use transform="translate(83.105469 0.765625)" xlink:href="#DejaVuSans-d7"/>
       <use transform="translate(186.376953 0.765625)" xlink:href="#DejaVuSans-31"/>
       <use transform="translate(250 0.765625)" xlink:href="#DejaVuSans-30"/>
       <use transform="translate(314.580078 39.046875)scale(0.7)" xlink:href="#DejaVuSans-30"/>
      </g>
     </g>
    </g>
    <g id="xtick_4">
     <g id="line2d_5">
      <g>
       <use style="fill:#555555;stroke:#555555;stroke-width:0.6;" x="167.390867" xlink:href="#m0e513c5755" y="338.4"/>
      </g>
     </g>
     <g id="text_4">
      <!-- ${4\times10^{0}}$ -->
      <defs>
       <path d="M 37.796875 64.3125 
L 12.890625 25.390625 
L 37.796875 25.390625 
z
M 35.203125 72.90625 
L 47.609375 72.90625 
L 47.609375 25.390625 
L 58.015625 25.390625 
L 58.015625 17.1875 
L 47.609375 17.1875 
L 47.609375 0 
L 37.796875 0 
L 37.796875 17.1875 
L 4.890625 17.1875 
L 4.890625 26.703125 
z
" id="DejaVuSans-34"/>
      </defs>
      <g style="fill:#555555;" transform="translate(149.290867 351.398437)scale(0.1 -0.1)">
       <use transform="translate(0 0.765625)" xlink:href="#DejaVuSans-34"/>
       <use transform="translate(83.105469 0.765625)" xlink:href="#DejaVuSans-d7"/>
       <use transform="translate(186.376953 0.765625)" xlink:href="#DejaVuSans-31"/>
       <use transform="translate(250 0.765625)" xlink:href="#DejaVuSans-30"/>
       <use transform="translate(314.580078 39.046875)scale(0.7)" xlink:href="#DejaVuSans-30"/>
      </g>
     </g>
    </g>
    <g id="xtick_5">
     <g id="line2d_6">
      <g>
       <use style="fill:#555555;stroke:#555555;stroke-width:0.6;" x="194.180539" xlink:href="#m0e513c5755" y="338.4"/>
      </g>
     </g>
    </g>
    <g id="xtick_6">
     <g id="line2d_7">
      <g>
       <use style="fill:#555555;stroke:#555555;stroke-width:0.6;" x="216.069295" xlink:href="#m0e513c5755" y="338.4"/>
      </g>
     </g>
     <g id="text_5">
      <!-- ${6\times10^{0}}$ -->
      <defs>
       <path d="M 33.015625 40.375 
Q 26.375 40.375 22.484375 35.828125 
Q 18.609375 31.296875 18.609375 23.390625 
Q 18.609375 15.53125 22.484375 10.953125 
Q 26.375 6.390625 33.015625 6.390625 
Q 39.65625 6.390625 43.53125 10.953125 
Q 47.40625 15.53125 47.40625 23.390625 
Q 47.40625 31.296875 43.53125 35.828125 
Q 39.65625 40.375 33.015625 40.375 
M 52.59375 71.296875 
L 52.59375 62.3125 
Q 48.875 64.0625 45.09375 64.984375 
Q 41.3125 65.921875 37.59375 65.921875 
Q 27.828125 65.921875 22.671875 59.328125 
Q 17.53125 52.734375 16.796875 39.40625 
Q 19.671875 43.65625 24.015625 45.921875 
Q 28.375 48.1875 33.59375 48.1875 
Q 44.578125 48.1875 50.953125 41.515625 
Q 57.328125 34.859375 57.328125 23.390625 
Q 57.328125 12.15625 50.6875 5.359375 
Q 44.046875 -1.421875 33.015625 -1.421875 
Q 20.359375 -1.421875 13.671875 8.265625 
Q 6.984375 17.96875 6.984375 36.375 
Q 6.984375 53.65625 15.1875 63.9375 
Q 23.390625 74.21875 37.203125 74.21875 
Q 40.921875 74.21875 44.703125 73.484375 
Q 48.484375 72.75 52.59375 71.296875 
" id="DejaVuSans-36"/>
      </defs>
      <g style="fill:#555555;" transform="translate(197.969295 351.398437)scale(0.1 -0.1)">
       <use transform="translate(0 0.765625)" xlink:href="#DejaVuSans-36"/>
       <use transform="translate(83.105469 0.765625)" xlink:href="#DejaVuSans-d7"/>
       <use transform="translate(186.376953 0.765625)" xlink:href="#DejaVuSans-31"/>
       <use transform="translate(250 0.765625)" xlink:href="#DejaVuSans-30"/>
       <use transform="translate(314.580078 39.046875)scale(0.7)" xlink:href="#DejaVuSans-30"/>
      </g>
     </g>
    </g>
    <g id="xtick_7">
     <g id="line2d_8">
      <g>
       <use style="fill:#555555;stroke:#555555;stroke-width:0.6;" x="234.575974" xlink:href="#m0e513c5755" y="338.4"/>
      </g>
     </g>
    </g>
    <g id="xtick_8">
     <g id="line2d_9">
      <g>
       <use style="fill:#555555;stroke:#555555;stroke-width:0.6;" x="250.607189" xlink:href="#m0e513c5755" y="338.4"/>
      </g>
     </g>
    </g>
    <g id="xtick_9">
     <g id="line2d_10">
      <g>
       <use style="fill:#555555;stroke:#555555;stroke-width:0.6;" x="264.747723" xlink:href="#m0e513c5755" y="338.4"/>
      </g>
     </g>
    </g>
    <g id="text_6">
     <!-- K (number of shells) -->
     <defs>
      <path d="M 9.8125 72.90625 
L 19.671875 72.90625 
L 19.671875 42.09375 
L 52.390625 72.90625 
L 65.09375 72.90625 
L 28.90625 38.921875 
L 67.671875 0 
L 54.6875 0 
L 19.671875 35.109375 
L 19.671875 0 
L 9.8125 0 
z
" id="DejaVuSans-4b"/>
      <path id="DejaVuSans-20"/>
      <path d="M 31 75.875 
Q 24.46875 64.65625 21.28125 53.65625 
Q 18.109375 42.671875 18.109375 31.390625 
Q 18.109375 20.125 21.3125 9.0625 
Q 24.515625 -2 31 -13.1875 
L 23.1875 -13.1875 
Q 15.875 -1.703125 12.234375 9.375 
Q 8.59375 20.453125 8.59375 31.390625 
Q 8.59375 42.28125 12.203125 53.3125 
Q 15.828125 64.359375 23.1875 75.875 
z
" id="DejaVuSans-28"/>
      <path d="M 54.890625 33.015625 
L 54.890625 0 
L 45.90625 0 
L 45.90625 32.71875 
Q 45.90625 40.484375 42.875 44.328125 
Q 39.84375 48.1875 33.796875 48.1875 
Q 26.515625 48.1875 22.3125 43.546875 
Q 18.109375 38.921875 18.109375 30.90625 
L 18.109375 0 
L 9.078125 0 
L 9.078125 54.6875 
L 18.109375 54.6875 
L 18.109375 46.1875 
Q 21.34375 51.125 25.703125 53.5625 
Q 30.078125 56 35.796875 56 
Q 45.21875 56 50.046875 50.171875 
Q 54.890625 44.34375 54.890625 33.015625 
" id="DejaVuSans-6e"/>
      <path d="M 8.5 21.578125 
L 8.5 54.6875 
L 17.484375 54.6875 
L 17.484375 21.921875 
Q 17.484375 14.15625 20.5 10.265625 
Q 23.53125 6.390625 29.59375 6.390625 
Q 36.859375 6.390625 41.078125 11.03125 
Q 45.3125 15.671875 45.3125 23.6875 
L 45.3125 54.6875 
L 54.296875 54.6875 
L 54.296875 0 
L 45.3125 0 
L 45.3125 8.40625 
Q 42.046875 3.421875 37.71875 1 
Q 33.40625 -1.421875 27.6875 -1.421875 
Q 18.265625 -1.421875 13.375 4.4375 
Q 8.5 10.296875 8.5 21.578125 
M 31.109375 56 
z
" id="DejaVuSans-75"/>
      <path d="M 52 44.1875 
Q 55.375 50.25 60.0625 53.125 
Q 64.75 56 71.09375 56 
Q 79.640625 56 84.28125 50.015625 
Q 88.921875 44.046875 88.921875 33.015625 
L 88.921875 0 
L 79.890625 0 
L 79.890625 32.71875 
Q 79.890625 40.578125 77.09375 44.375 
Q 74.3125 48.1875 68.609375 48.1875 
Q 61.625 48.1875 57.5625 43.546875 
Q 53.515625 38.921875 53.515625 30.90625 
L 53.515625 0 
L 44.484375 0 
L 44.484375 32.71875 
Q 44.484375 40.625 41.703125 44.40625 
Q 38.921875 48.1875 33.109375 48.1875 
Q 26.21875 48.1875 22.15625 43.53125 
Q 18.109375 38.875 18.109375 30.90625 
L 18.109375 0 
L 9.078125 0 
L 9.078125 54.6875 
L 18.109375 54.6875 
L 18.109375 46.1875 
Q 21.1875 51.21875 25.484375 53.609375 
Q 29.78125 56 35.6875 56 
Q 41.65625 56 45.828125 52.96875 
Q 50 49.953125 52 44.1875 
" id="DejaVuSans-6d"/>
      <path d="M 48.6875 27.296875 
Q 48.6875 37.203125 44.609375 42.84375 
Q 40.53125 48.484375 33.40625 48.484375 
Q 26.265625 48.484375 22.1875 42.84375 
Q 18.109375 37.203125 18.109375 27.296875 
Q 18.109375 17.390625 22.1875 11.75 
Q 26.265625 6.109375 33.40625 6.109375 
Q 40.53125 6.109375 44.609375 11.75 
Q 48.6875 17.390625 48.6875 27.296875 
M 18.109375 46.390625 
Q 20.953125 51.265625 25.265625 53.625 
Q 29.59375 56 35.59375 56 
Q 45.5625 56 51.78125 48.09375 
Q 58.015625 40.1875 58.015625 27.296875 
Q 58.015625 14.40625 51.78125 6.484375 
Q 45.5625 -1.421875 35.59375 -1.421875 
Q 29.59375 -1.421875 25.265625 0.953125 
Q 20.953125 3.328125 18.109375 8.203125 
L 18.109375 0 
L 9.078125 0 
L 9.078125 75.984375 
L 18.109375 75.984375 
z
" id="DejaVuSans-62"/>
      <path d="M 56.203125 29.59375 
L 56.203125 25.203125 
L 14.890625 25.203125 
Q 15.484375 15.921875 20.484375 11.0625 
Q 25.484375 6.203125 34.421875 6.203125 
Q 39.59375 6.203125 44.453125 7.46875 
Q 49.3125 8.734375 54.109375 11.28125 
L 54.109375 2.78125 
Q 49.265625 0.734375 44.1875 -0.34375 
Q 39.109375 -1.421875 33.890625 -1.421875 
Q 20.796875 -1.421875 13.15625 6.1875 
Q 5.515625 13.8125 5.515625 26.8125 
Q 5.515625 40.234375 12.765625 48.109375 
Q 20.015625 56 32.328125 56 
Q 43.359375 56 49.78125 48.890625 
Q 56.203125 41.796875 56.203125 29.59375 
M 47.21875 32.234375 
Q 47.125 39.59375 43.09375 43.984375 
Q 39.0625 48.390625 32.421875 48.390625 
Q 24.90625 48.390625 20.390625 44.140625 
Q 15.875 39.890625 15.1875 32.171875 
z
" id="DejaVuSans-65"/>
      <path d="M 41.109375 46.296875 
Q 39.59375 47.171875 37.8125 47.578125 
Q 36.03125 48 33.890625 48 
Q 26.265625 48 22.1875 43.046875 
Q 18.109375 38.09375 18.109375 28.8125 
L 18.109375 0 
L 9.078125 0 
L 9.078125 54.6875 
L 18.109375 54.6875 
L 18.109375 46.1875 
Q 20.953125 51.171875 25.484375 53.578125 
Q 30.03125 56 36.53125 56 
Q 37.453125 56 38.578125 55.875 
Q 39.703125 55.765625 41.0625 55.515625 
z
" id="DejaVuSans-72"/>
      <path d="M 30.609375 48.390625 
Q 23.390625 48.390625 19.1875 42.75 
Q 14.984375 37.109375 14.984375 27.296875 
Q 14.984375 17.484375 19.15625 11.84375 
Q 23.34375 6.203125 30.609375 6.203125 
Q 37.796875 6.203125 41.984375 11.859375 
Q 46.1875 17.53125 46.1875 27.296875 
Q 46.1875 37.015625 41.984375 42.703125 
Q 37.796875 48.390625 30.609375 48.390625 
M 30.609375 56 
Q 42.328125 56 49.015625 48.375 
Q 55.71875 40.765625 55.71875 27.296875 
Q 55.71875 13.875 49.015625 6.21875 
Q 42.328125 -1.421875 30.609375 -1.421875 
Q 18.84375 -1.421875 12.171875 6.21875 
Q 5.515625 13.875 5.515625 27.296875 
Q 5.515625 40.765625 12.171875 48.375 
Q 18.84375 56 30.609375 56 
" id="DejaVuSans-6f"/>
      <path d="M 37.109375 75.984375 
L 37.109375 68.5 
L 28.515625 68.5 
Q 23.6875 68.5 21.796875 66.546875 
Q 19.921875 64.59375 19.921875 59.515625 
L 19.921875 54.6875 
L 34.71875 54.6875 
L 34.71875 47.703125 
L 19.921875 47.703125 
L 19.921875 0 
L 10.890625 0 
L 10.890625 47.703125 
L 2.296875 47.703125 
L 2.296875 54.6875 
L 10.890625 54.6875 
L 10.890625 58.5 
Q 10.890625 67.625 15.140625 71.796875 
Q 19.390625 75.984375 28.609375 75.984375 
z
" id="DejaVuSans-66"/>
      <path d="M 44.28125 53.078125 
L 44.28125 44.578125 
Q 40.484375 46.53125 36.375 47.5 
Q 32.28125 48.484375 27.875 48.484375 
Q 21.1875 48.484375 17.84375 46.4375 
Q 14.5 44.390625 14.5 40.28125 
Q 14.5 37.15625 16.890625 35.375 
Q 19.28125 33.59375 26.515625 31.984375 
L 29.59375 31.296875 
Q 39.15625 29.25 43.1875 25.515625 
Q 47.21875 21.78125 47.21875 15.09375 
Q 47.21875 7.46875 41.1875 3.015625 
Q 35.15625 -1.421875 24.609375 -1.421875 
Q 20.21875 -1.421875 15.453125 -0.5625 
Q 10.6875 0.296875 5.421875 2 
L 5.421875 11.28125 
Q 10.40625 8.6875 15.234375 7.390625 
Q 20.0625 6.109375 24.8125 6.109375 
Q 31.15625 6.109375 34.5625 8.28125 
Q 37.984375 10.453125 37.984375 14.40625 
Q 37.984375 18.0625 35.515625 20.015625 
Q 33.0625 21.96875 24.703125 23.78125 
L 21.578125 24.515625 
Q 13.234375 26.265625 9.515625 29.90625 
Q 5.8125 33.546875 5.8125 39.890625 
Q 5.8125 47.609375 11.28125 51.796875 
Q 16.75 56 26.8125 56 
Q 31.78125 56 36.171875 55.265625 
Q 40.578125 54.546875 44.28125 53.078125 
" id="DejaVuSans-73"/>
      <path d="M 54.890625 33.015625 
L 54.890625 0 
L 45.90625 0 
L 45.90625 32.71875 
Q 45.90625 40.484375 42.875 44.328125 
Q 39.84375 48.1875 33.796875 48.1875 
Q 26.515625 48.1875 22.3125 43.546875 
Q 18.109375 38.921875 18.109375 30.90625 
L 18.109375 0 
L 9.078125 0 
L 9.078125 75.984375 
L 18.109375 75.984375 
L 18.109375 46.1875 
Q 21.34375 51.125 25.703125 53.5625 
Q 30.078125 56 35.796875 56 
Q 45.21875 56 50.046875 50.171875 
Q 54.890625 44.34375 54.890625 33.015625 
" id="DejaVuSans-68"/>
      <path d="M 9.421875 75.984375 
L 18.40625 75.984375 
L 18.40625 0 
L 9.421875 0 
z
" id="DejaVuSans-6c"/>
      <path d="M 8.015625 75.875 
L 15.828125 75.875 
Q 23.140625 64.359375 26.78125 53.3125 
Q 30.421875 42.28125 30.421875 31.390625 
Q 30.421875 20.453125 26.78125 9.375 
Q 23.140625 -1.703125 15.828125 -13.1875 
L 8.015625 -13.1875 
Q 14.5 -2 17.703125 9.0625 
Q 20.90625 20.125 20.90625 31.390625 
Q 20.90625 42.671875 17.703125 53.65625 
Q 14.5 64.65625 8.015625 75.875 
" id="DejaVuSans-29"/>
     </defs>
     <g style="fill:#555555;" transform="translate(145.303125 368.19625)scale(0.12 -0.12)">
      <use xlink:href="#DejaVuSans-4b"/>
      <use x="65.576172" xlink:href="#DejaVuSans-20"/>
      <use x="97.363281" xlink:href="#DejaVuSans-28"/>
      <use x="136.376953" xlink:href="#DejaVuSans-6e"/>
      <use x="199.755859" xlink:href="#DejaVuSans-75"/>
      <use x="263.134766" xlink:href="#DejaVuSans-6d"/>
      <use x="360.546875" xlink:href="#DejaVuSans-62"/>
      <use x="424.023438" xlink:href="#DejaVuSans-65"/>
      <use x="485.546875" xlink:href="#DejaVuSans-72"/>
      <use x="526.660156" xlink:href="#DejaVuSans-20"/>
      <use x="558.447266" xlink:href="#DejaVuSans-6f"/>
      <use x="619.628906" xlink:href="#DejaVuSans-66"/>
      <use x="654.833984" xlink:href="#DejaVuSans-20"/>
      <use x="686.621094" xlink:href="#DejaVuSans-73"/>
      <use x="738.720703" xlink:href="#DejaVuSans-68"/>
      <use x="802.099609" xlink:href="#DejaVuSans-65"/>
      <use x="863.623047" xlink:href="#DejaVuSans-6c"/>
      <use x="891.40625" xlink:href="#DejaVuSans-6c"/>
      <use x="919.189453" xlink:href="#DejaVuSans-73"/>
      <use x="971.289062" xlink:href="#DejaVuSans-29"/>
     </g>
    </g>
   </g>
   <g id="matplotlib.axis_2">
    <g id="ytick_1">
     <g id="line2d_11">
      <path clip-path="url(#p497d6f0300)" d="M 72 281.517846 
L 339.84 281.517846 
" style="fill:none;stroke:#ffffff;stroke-linecap:square;stroke-width:0.8;"/>
     </g>
     <g id="line2d_12">
      <defs>
       <path d="M 0 0 
L -3.5 0 
" id="m0dbd7f223a" style="stroke:#555555;stroke-width:0.8;"/>
      </defs>
      <g>
       <use style="fill:#555555;stroke:#555555;stroke-width:0.8;" x="72" xlink:href="#m0dbd7f223a" y="281.517846"/>
      </g>
     </g>
     <g id="text_7">
      <!-- ${10^{-3}}$ -->
      <defs>
       <path d="M 10.59375 35.5 
L 73.1875 35.5 
L 73.1875 27.203125 
L 10.59375 27.203125 
z
" id="DejaVuSans-2212"/>
      </defs>
      <g style="fill:#555555;" transform="translate(41.5 285.317065)scale(0.1 -0.1)">
       <use transform="translate(0 0.765625)" xlink:href="#DejaVuSans-31"/>
       <use transform="translate(63.623047 0.765625)" xlink:href="#DejaVuSans-30"/>
       <use transform="translate(128.203125 39.046875)scale(0.7)" xlink:href="#DejaVuSans-2212"/>
       <use transform="translate(186.855469 39.046875)scale(0.7)" xlink:href="#DejaVuSans-33"/>
      </g>
     </g>
    </g>
    <g id="ytick_2">
     <g id="line2d_13">
      <path clip-path="url(#p497d6f0300)" d="M 72 192.603262 
L 339.84 192.603262 
" style="fill:none;stroke:#ffffff;stroke-linecap:square;stroke-width:0.8;"/>
     </g>
     <g id="line2d_14">
      <g>
       <use style="fill:#555555;stroke:#555555;stroke-width:0.8;" x="72" xlink:href="#m0dbd7f223a" y="192.603262"/>
      </g>
     </g>
     <g id="text_8">
      <!-- ${10^{-2}}$ -->
      <g style="fill:#555555;" transform="translate(41.5 196.402481)scale(0.1 -0.1)">
       <use transform="translate(0 0.765625)" xlink:href="#DejaVuSans-31"/>
       <use transform="translate(63.623047 0.765625)" xlink:href="#DejaVuSans-30"/>
       <use transform="translate(128.203125 39.046875)scale(0.7)" xlink:href="#DejaVuSans-2212"/>
       <use transform="translate(186.855469 39.046875)scale(0.7)" xlink:href="#DejaVuSans-32"/>
      </g>
     </g>
    </g>
    <g id="ytick_3">
     <g id="line2d_15">
      <path clip-path="url(#p497d6f0300)" d="M 72 103.688679 
L 339.84 103.688679 
" style="fill:none;stroke:#ffffff;stroke-linecap:square;stroke-width:0.8;"/>
     </g>
     <g id="line2d_16">
      <g>
       <use style="fill:#555555;stroke:#555555;stroke-width:0.8;" x="72" xlink:href="#m0dbd7f223a" y="103.688679"/>
      </g>
     </g>
     <g id="text_9">
      <!-- ${10^{-1}}$ -->
      <g style="fill:#555555;" transform="translate(41.5 107.487897)scale(0.1 -0.1)">
       <use transform="translate(0 0.684375)" xlink:href="#DejaVuSans-31"/>
       <use transform="translate(63.623047 0.684375)" xlink:href="#DejaVuSans-30"/>
       <use transform="translate(128.203125 38.965625)scale(0.7)" xlink:href="#DejaVuSans-2212"/>
       <use transform="translate(186.855469 38.965625)scale(0.7)" xlink:href="#DejaVuSans-31"/>
      </g>
     </g>
    </g>
    <g id="ytick_4">
     <g id="line2d_17">
      <defs>
       <path d="M 0 0 
L -2 0 
" id="me9bac415fe" style="stroke:#555555;stroke-width:0.6;"/>
      </defs>
      <g>
       <use style="fill:#555555;stroke:#555555;stroke-width:0.6;" x="72" xlink:href="#me9bac415fe" y="328.009392"/>
      </g>
     </g>
    </g>
    <g id="ytick_5">
     <g id="line2d_18">
      <g>
       <use style="fill:#555555;stroke:#555555;stroke-width:0.6;" x="72" xlink:href="#me9bac415fe" y="316.900516"/>
      </g>
     </g>
    </g>
    <g id="ytick_6">
     <g id="line2d_19">
      <g>
       <use style="fill:#555555;stroke:#555555;stroke-width:0.6;" x="72" xlink:href="#me9bac415fe" y="308.283802"/>
      </g>
     </g>
    </g>
    <g id="ytick_7">
     <g id="line2d_20">
      <g>
       <use style="fill:#555555;stroke:#555555;stroke-width:0.6;" x="72" xlink:href="#me9bac415fe" y="301.243435"/>
      </g>
     </g>
    </g>
    <g id="ytick_8">
     <g id="line2d_21">
      <g>
       <use style="fill:#555555;stroke:#555555;stroke-width:0.6;" x="72" xlink:href="#me9bac415fe" y="295.290889"/>
      </g>
     </g>
    </g>
    <g id="ytick_9">
     <g id="line2d_22">
      <g>
       <use style="fill:#555555;stroke:#555555;stroke-width:0.6;" x="72" xlink:href="#me9bac415fe" y="290.134559"/>
      </g>
     </g>
    </g>
    <g id="ytick_10">
     <g id="line2d_23">
      <g>
       <use style="fill:#555555;stroke:#555555;stroke-width:0.6;" x="72" xlink:href="#me9bac415fe" y="285.586354"/>
      </g>
     </g>
    </g>
    <g id="ytick_11">
     <g id="line2d_24">
      <g>
       <use style="fill:#555555;stroke:#555555;stroke-width:0.6;" x="72" xlink:href="#me9bac415fe" y="254.751889"/>
      </g>
     </g>
    </g>
    <g id="ytick_12">
     <g id="line2d_25">
      <g>
       <use style="fill:#555555;stroke:#555555;stroke-width:0.6;" x="72" xlink:href="#me9bac415fe" y="239.094808"/>
      </g>
     </g>
    </g>
    <g id="ytick_13">
     <g id="line2d_26">
      <g>
       <use style="fill:#555555;stroke:#555555;stroke-width:0.6;" x="72" xlink:href="#me9bac415fe" y="227.985932"/>
      </g>
     </g>
    </g>
    <g id="ytick_14">
     <g id="line2d_27">
      <g>
       <use style="fill:#555555;stroke:#555555;stroke-width:0.6;" x="72" xlink:href="#me9bac415fe" y="219.369219"/>
      </g>
     </g>
    </g>
    <g id="ytick_15">
     <g id="line2d_28">
      <g>
       <use style="fill:#555555;stroke:#555555;stroke-width:0.6;" x="72" xlink:href="#me9bac415fe" y="212.328851"/>
      </g>
     </g>
    </g>
    <g id="ytick_16">
     <g id="line2d_29">
      <g>
       <use style="fill:#555555;stroke:#555555;stroke-width:0.6;" x="72" xlink:href="#me9bac415fe" y="206.376305"/>
      </g>
     </g>
    </g>
    <g id="ytick_17">
     <g id="line2d_30">
      <g>
       <use style="fill:#555555;stroke:#555555;stroke-width:0.6;" x="72" xlink:href="#me9bac415fe" y="201.219976"/>
      </g>
     </g>
    </g>
    <g id="ytick_18">
     <g id="line2d_31">
      <g>
       <use style="fill:#555555;stroke:#555555;stroke-width:0.6;" x="72" xlink:href="#me9bac415fe" y="196.67177"/>
      </g>
     </g>
    </g>
    <g id="ytick_19">
     <g id="line2d_32">
      <g>
       <use style="fill:#555555;stroke:#555555;stroke-width:0.6;" x="72" xlink:href="#me9bac415fe" y="165.837306"/>
      </g>
     </g>
    </g>
    <g id="ytick_20">
     <g id="line2d_33">
      <g>
       <use style="fill:#555555;stroke:#555555;stroke-width:0.6;" x="72" xlink:href="#me9bac415fe" y="150.180225"/>
      </g>
     </g>
    </g>
    <g id="ytick_21">
     <g id="line2d_34">
      <g>
       <use style="fill:#555555;stroke:#555555;stroke-width:0.6;" x="72" xlink:href="#me9bac415fe" y="139.071349"/>
      </g>
     </g>
    </g>
    <g id="ytick_22">
     <g id="line2d_35">
      <g>
       <use style="fill:#555555;stroke:#555555;stroke-width:0.6;" x="72" xlink:href="#me9bac415fe" y="130.454635"/>
      </g>
     </g>
    </g>
    <g id="ytick_23">
     <g id="line2d_36">
      <g>
       <use style="fill:#555555;stroke:#555555;stroke-width:0.6;" x="72" xlink:href="#me9bac415fe" y="123.414268"/>
      </g>
     </g>
    </g>
    <g id="ytick_24">
     <g id="line2d_37">
      <g>
       <use style="fill:#555555;stroke:#555555;stroke-width:0.6;" x="72" xlink:href="#me9bac415fe" y="117.461722"/>
      </g>
     </g>
    </g>
    <g id="ytick_25">
     <g id="line2d_38">
      <g>
       <use style="fill:#555555;stroke:#555555;stroke-width:0.6;" x="72" xlink:href="#me9bac415fe" y="112.305392"/>
      </g>
     </g>
    </g>
    <g id="ytick_26">
     <g id="line2d_39">
      <g>
       <use style="fill:#555555;stroke:#555555;stroke-width:0.6;" x="72" xlink:href="#me9bac415fe" y="107.757187"/>
      </g>
     </g>
    </g>
    <g id="text_10">
     <!-- |∂E/∂K| -->
     <defs>
      <path d="M 21 76.421875 
L 21 -23.578125 
L 12.703125 -23.578125 
L 12.703125 76.421875 
z
" id="DejaVuSans-7c"/>
      <path d="M 21.34375 -1.421875 
Q 14.453125 -1.421875 9.96875 2.734375 
Q 4.640625 7.671875 4.640625 16.609375 
Q 4.640625 25.875 9.328125 33.109375 
Q 14.15625 40.53125 22.859375 40.53125 
Q 28.5625 40.53125 33.0625 36.96875 
Q 35.6875 34.859375 37.5 31.34375 
Q 38.140625 35.296875 38.140625 39.796875 
Q 38.140625 46.390625 36.578125 50.203125 
Q 33.109375 58.640625 23.921875 58.640625 
Q 20.453125 58.640625 15.09375 56.5 
L 15.09375 64.703125 
Q 20.75 66.21875 25.828125 66.21875 
Q 38.921875 66.21875 44.484375 54.203125 
Q 47.078125 48.53125 47.078125 40.09375 
Q 47.078125 34.578125 45.84375 28.171875 
Q 42.78125 12.15625 34.8125 4.546875 
Q 28.5625 -1.421875 21.34375 -1.421875 
M 12.984375 15.140625 
Q 12.984375 10.25 15.140625 7.625 
Q 17.4375 4.828125 20.953125 4.828125 
Q 24.078125 4.828125 26.5625 7.03125 
Q 30.078125 10.0625 32.671875 14.984375 
Q 34.8125 19.046875 35.890625 23.390625 
Q 31.546875 33.890625 24.03125 33.890625 
Q 17.578125 33.890625 14.75 25.390625 
Q 12.984375 20.125 12.984375 15.140625 
" id="DejaVuSans-2202"/>
      <path d="M 9.8125 72.90625 
L 55.90625 72.90625 
L 55.90625 64.59375 
L 19.671875 64.59375 
L 19.671875 43.015625 
L 54.390625 43.015625 
L 54.390625 34.71875 
L 19.671875 34.71875 
L 19.671875 8.296875 
L 56.78125 8.296875 
L 56.78125 0 
L 9.8125 0 
z
" id="DejaVuSans-45"/>
      <path d="M 25.390625 72.90625 
L 33.6875 72.90625 
L 8.296875 -9.28125 
L 0 -9.28125 
z
" id="DejaVuSans-2f"/>
     </defs>
     <g style="fill:#555555;" transform="translate(34.670625 232.394062)rotate(-90)scale(0.12 -0.12)">
      <use xlink:href="#DejaVuSans-7c"/>
      <use x="33.691406" xlink:href="#DejaVuSans-2202"/>
      <use x="85.400391" xlink:href="#DejaVuSans-45"/>
      <use x="148.583984" xlink:href="#DejaVuSans-2f"/>
      <use x="182.275391" xlink:href="#DejaVuSans-2202"/>
      <use x="233.984375" xlink:href="#DejaVuSans-4b"/>
      <use x="299.560547" xlink:href="#DejaVuSans-7c"/>
     </g>
    </g>
   </g>
   <g id="patch_3">
    <path clip-path="url(#p497d6f0300)" d="M 231.095853 338.4 
L 231.095853 86.4 
L 327.665455 86.4 
L 327.665455 338.4 
z
" style="fill:#d6a528;opacity:0.15;stroke:#d6a528;stroke-linejoin:miter;stroke-width:0.5;"/>
   </g>
   <g id="line2d_40">
    <defs>
     <path d="M -3 3 
L 3 -3 
M -3 -3 
L 3 3 
" id="mdb8e65e694" style="stroke:#39b237;"/>
    </defs>
    <g clip-path="url(#p497d6f0300)">
     <use style="fill:#39b237;stroke:#39b237;" x="110.964217" xlink:href="#mdb8e65e694" y="97.854545"/>
     <use style="fill:#39b237;stroke:#39b237;" x="151.359652" xlink:href="#mdb8e65e694" y="179.724335"/>
     <use style="fill:#39b237;stroke:#39b237;" x="181.531401" xlink:href="#mdb8e65e694" y="198.991443"/>
     <use style="fill:#39b237;stroke:#39b237;" x="205.623077" xlink:href="#mdb8e65e694" y="227.930408"/>
     <use style="fill:#39b237;stroke:#39b237;" x="225.678884" xlink:href="#mdb8e65e694" y="243.943527"/>
     <use style="fill:#39b237;stroke:#39b237;" x="242.858967" xlink:href="#mdb8e65e694" y="259.984639"/>
     <use style="fill:#39b237;stroke:#39b237;" x="257.885525" xlink:href="#mdb8e65e694" y="272.197627"/>
     <use style="fill:#39b237;stroke:#39b237;" x="271.238805" xlink:href="#mdb8e65e694" y="283.32114"/>
     <use style="fill:#39b237;stroke:#39b237;" x="283.254402" xlink:href="#mdb8e65e694" y="292.799439"/>
     <use style="fill:#39b237;stroke:#39b237;" x="294.176089" xlink:href="#mdb8e65e694" y="301.402621"/>
     <use style="fill:#39b237;stroke:#39b237;" x="304.186533" xlink:href="#mdb8e65e694" y="309.137414"/>
     <use style="fill:#39b237;stroke:#39b237;" x="313.42615" xlink:href="#mdb8e65e694" y="316.191421"/>
     <use style="fill:#39b237;stroke:#39b237;" x="322.005212" xlink:href="#mdb8e65e694" y="322.678054"/>
    </g>
   </g>
   <g id="line2d_41">
    <path clip-path="url(#p497d6f0300)" d="M 84.174545 134.698899 
L 326.075289 326.364838 
L 326.075289 326.364838 
" style="fill:none;stroke:#39b237;stroke-dasharray:2.2,2.2;stroke-dashoffset:0;stroke-width:1.5;"/>
   </g>
   <g id="line2d_42">
    <path clip-path="url(#p497d6f0300)" d="M 84.174545 132.629537 
L 326.075289 326.945455 
L 326.075289 326.945455 
" style="fill:none;stroke:#39b237;stroke-dasharray:9.6,2.4,1.6,2.4;stroke-dashoffset:0;stroke-width:1.5;"/>
   </g>
   <g id="line2d_43">
    <path clip-path="url(#p497d6f0300)" d="M 84.174545 133.896414 
L 326.075289 326.8544 
L 326.075289 326.8544 
" style="fill:none;stroke:#39b237;stroke-linecap:square;stroke-width:1.5;"/>
   </g>
   <g id="patch_4">
    <path d="M 72 338.4 
L 72 86.4 
" style="fill:none;stroke:#ffffff;stroke-linecap:square;stroke-linejoin:miter;"/>
   </g>
   <g id="patch_5">
    <path d="M 339.84 338.4 
L 339.84 86.4 
" style="fill:none;stroke:#ffffff;stroke-linecap:square;stroke-linejoin:miter;"/>
   </g>
   <g id="patch_6">
    <path d="M 72 338.4 
L 339.84 338.4 
" style="fill:none;stroke:#ffffff;stroke-linecap:square;stroke-linejoin:miter;"/>
   </g>
   <g id="patch_7">
    <path d="M 72 86.4 
L 339.84 86.4 
" style="fill:none;stroke:#ffffff;stroke-linecap:square;stroke-linejoin:miter;"/>
   </g>
   <g id="text_11">
    <!-- rm, n=2, ω=1.0 -->
    <defs>
     <path d="M 11.71875 12.40625 
L 22.015625 12.40625 
L 22.015625 4 
L 14.015625 -11.625 
L 7.71875 -11.625 
L 11.71875 4 
z
" id="DejaVuSans-2c"/>
     <path d="M 10.59375 45.40625 
L 73.1875 45.40625 
L 73.1875 37.203125 
L 10.59375 37.203125 
z
M 10.59375 25.484375 
L 73.1875 25.484375 
L 73.1875 17.1875 
L 10.59375 17.1875 
z
" id="DejaVuSans-3d"/>
     <path d="M 26.859375 -1.421875 
Q 6.59375 -1.421875 6.59375 27.59375 
Q 6.59375 39.0625 14.15625 54.6875 
L 23.828125 54.6875 
Q 16.84375 39.0625 16.84375 27.34375 
Q 16.84375 6.203125 27.6875 6.203125 
Q 37.59375 6.203125 37.59375 32.46875 
L 45.90625 32.46875 
Q 45.90625 6.203125 55.8125 6.203125 
Q 66.65625 6.203125 66.65625 27.34375 
Q 66.65625 39.0625 59.671875 54.6875 
L 69.34375 54.6875 
Q 76.90625 39.0625 76.90625 27.59375 
Q 76.90625 -1.421875 56.640625 -1.421875 
Q 43.359375 -1.421875 41.75 13.1875 
Q 39.75 -1.421875 26.859375 -1.421875 
" id="DejaVuSans-3c9"/>
     <path d="M 10.6875 12.40625 
L 21 12.40625 
L 21 0 
L 10.6875 0 
z
" id="DejaVuSans-2e"/>
    </defs>
    <g transform="translate(148.105125 80.4)scale(0.144 -0.144)">
     <use xlink:href="#DejaVuSans-72"/>
     <use x="41.097656" xlink:href="#DejaVuSans-6d"/>
     <use x="138.509766" xlink:href="#DejaVuSans-2c"/>
     <use x="170.296875" xlink:href="#DejaVuSans-20"/>
     <use x="202.083984" xlink:href="#DejaVuSans-6e"/>
     <use x="265.462891" xlink:href="#DejaVuSans-3d"/>
     <use x="349.251953" xlink:href="#DejaVuSans-32"/>
     <use x="412.875" xlink:href="#DejaVuSans-2c"/>
     <use x="444.662109" xlink:href="#DejaVuSans-20"/>
     <use x="476.449219" xlink:href="#DejaVuSans-3c9"/>
     <use x="560.189453" xlink:href="#DejaVuSans-3d"/>
     <use x="643.978516" xlink:href="#DejaVuSans-31"/>
     <use x="707.601562" xlink:href="#DejaVuSans-2e"/>
     <use x="739.388672" xlink:href="#DejaVuSans-30"/>
    </g>
   </g>
   <g id="legend_1">
    <g id="patch_8">
     <path d="M 346.84 153.1125 
L 525.918125 153.1125 
Q 527.918125 153.1125 527.918125 151.1125 
L 527.918125 93.4 
Q 527.918125 91.4 525.918125 91.4 
L 346.84 91.4 
Q 344.84 91.4 344.84 93.4 
L 344.84 151.1125 
Q 344.84 153.1125 346.84 153.1125 
z
" style="fill:#e5e5e5;opacity:0.8;stroke:#cccccc;stroke-linejoin:miter;stroke-width:0.5;"/>
    </g>
    <g id="line2d_44"/>
    <g id="line2d_45">
     <g>
      <use style="fill:#39b237;stroke:#39b237;" x="358.84" xlink:href="#mdb8e65e694" y="99.498437"/>
     </g>
    </g>
    <g id="text_12">
     <!-- qdpt -->
     <defs>
      <path d="M 14.796875 27.296875 
Q 14.796875 17.390625 18.875 11.75 
Q 22.953125 6.109375 30.078125 6.109375 
Q 37.203125 6.109375 41.296875 11.75 
Q 45.40625 17.390625 45.40625 27.296875 
Q 45.40625 37.203125 41.296875 42.84375 
Q 37.203125 48.484375 30.078125 48.484375 
Q 22.953125 48.484375 18.875 42.84375 
Q 14.796875 37.203125 14.796875 27.296875 
M 45.40625 8.203125 
Q 42.578125 3.328125 38.25 0.953125 
Q 33.9375 -1.421875 27.875 -1.421875 
Q 17.96875 -1.421875 11.734375 6.484375 
Q 5.515625 14.40625 5.515625 27.296875 
Q 5.515625 40.1875 11.734375 48.09375 
Q 17.96875 56 27.875 56 
Q 33.9375 56 38.25 53.625 
Q 42.578125 51.265625 45.40625 46.390625 
L 45.40625 54.6875 
L 54.390625 54.6875 
L 54.390625 -20.796875 
L 45.40625 -20.796875 
z
" id="DejaVuSans-71"/>
      <path d="M 45.40625 46.390625 
L 45.40625 75.984375 
L 54.390625 75.984375 
L 54.390625 0 
L 45.40625 0 
L 45.40625 8.203125 
Q 42.578125 3.328125 38.25 0.953125 
Q 33.9375 -1.421875 27.875 -1.421875 
Q 17.96875 -1.421875 11.734375 6.484375 
Q 5.515625 14.40625 5.515625 27.296875 
Q 5.515625 40.1875 11.734375 48.09375 
Q 17.96875 56 27.875 56 
Q 33.9375 56 38.25 53.625 
Q 42.578125 51.265625 45.40625 46.390625 
M 14.796875 27.296875 
Q 14.796875 17.390625 18.875 11.75 
Q 22.953125 6.109375 30.078125 6.109375 
Q 37.203125 6.109375 41.296875 11.75 
Q 45.40625 17.390625 45.40625 27.296875 
Q 45.40625 37.203125 41.296875 42.84375 
Q 37.203125 48.484375 30.078125 48.484375 
Q 22.953125 48.484375 18.875 42.84375 
Q 14.796875 37.203125 14.796875 27.296875 
" id="DejaVuSans-64"/>
      <path d="M 18.109375 8.203125 
L 18.109375 -20.796875 
L 9.078125 -20.796875 
L 9.078125 54.6875 
L 18.109375 54.6875 
L 18.109375 46.390625 
Q 20.953125 51.265625 25.265625 53.625 
Q 29.59375 56 35.59375 56 
Q 45.5625 56 51.78125 48.09375 
Q 58.015625 40.1875 58.015625 27.296875 
Q 58.015625 14.40625 51.78125 6.484375 
Q 45.5625 -1.421875 35.59375 -1.421875 
Q 29.59375 -1.421875 25.265625 0.953125 
Q 20.953125 3.328125 18.109375 8.203125 
M 48.6875 27.296875 
Q 48.6875 37.203125 44.609375 42.84375 
Q 40.53125 48.484375 33.40625 48.484375 
Q 26.265625 48.484375 22.1875 42.84375 
Q 18.109375 37.203125 18.109375 27.296875 
Q 18.109375 17.390625 22.1875 11.75 
Q 26.265625 6.109375 33.40625 6.109375 
Q 40.53125 6.109375 44.609375 11.75 
Q 48.6875 17.390625 48.6875 27.296875 
" id="DejaVuSans-70"/>
      <path d="M 18.3125 70.21875 
L 18.3125 54.6875 
L 36.8125 54.6875 
L 36.8125 47.703125 
L 18.3125 47.703125 
L 18.3125 18.015625 
Q 18.3125 11.328125 20.140625 9.421875 
Q 21.96875 7.515625 27.59375 7.515625 
L 36.8125 7.515625 
L 36.8125 0 
L 27.59375 0 
Q 17.1875 0 13.234375 3.875 
Q 9.28125 7.765625 9.28125 18.015625 
L 9.28125 47.703125 
L 2.6875 47.703125 
L 2.6875 54.6875 
L 9.28125 54.6875 
L 9.28125 70.21875 
z
" id="DejaVuSans-74"/>
     </defs>
     <g transform="translate(376.84 102.998437)scale(0.1 -0.1)">
      <use xlink:href="#DejaVuSans-71"/>
      <use x="63.476562" xlink:href="#DejaVuSans-64"/>
      <use x="126.953125" xlink:href="#DejaVuSans-70"/>
      <use x="190.429688" xlink:href="#DejaVuSans-74"/>
     </g>
    </g>
    <g id="line2d_46">
     <path d="M 348.84 114.176562 
L 368.84 114.176562 
" style="fill:none;stroke:#39b237;stroke-dasharray:2.2,2.2;stroke-dashoffset:0;stroke-width:1.5;"/>
    </g>
    <g id="line2d_47"/>
    <g id="text_13">
     <!-- qdpt logderiv fit (b=-1.46) -->
     <defs>
      <path d="M 45.40625 27.984375 
Q 45.40625 37.75 41.375 43.109375 
Q 37.359375 48.484375 30.078125 48.484375 
Q 22.859375 48.484375 18.828125 43.109375 
Q 14.796875 37.75 14.796875 27.984375 
Q 14.796875 18.265625 18.828125 12.890625 
Q 22.859375 7.515625 30.078125 7.515625 
Q 37.359375 7.515625 41.375 12.890625 
Q 45.40625 18.265625 45.40625 27.984375 
M 54.390625 6.78125 
Q 54.390625 -7.171875 48.1875 -13.984375 
Q 42 -20.796875 29.203125 -20.796875 
Q 24.46875 -20.796875 20.265625 -20.09375 
Q 16.0625 -19.390625 12.109375 -17.921875 
L 12.109375 -9.1875 
Q 16.0625 -11.328125 19.921875 -12.34375 
Q 23.78125 -13.375 27.78125 -13.375 
Q 36.625 -13.375 41.015625 -8.765625 
Q 45.40625 -4.15625 45.40625 5.171875 
L 45.40625 9.625 
Q 42.625 4.78125 38.28125 2.390625 
Q 33.9375 0 27.875 0 
Q 17.828125 0 11.671875 7.65625 
Q 5.515625 15.328125 5.515625 27.984375 
Q 5.515625 40.671875 11.671875 48.328125 
Q 17.828125 56 27.875 56 
Q 33.9375 56 38.28125 53.609375 
Q 42.625 51.21875 45.40625 46.390625 
L 45.40625 54.6875 
L 54.390625 54.6875 
z
" id="DejaVuSans-67"/>
      <path d="M 9.421875 54.6875 
L 18.40625 54.6875 
L 18.40625 0 
L 9.421875 0 
z
M 9.421875 75.984375 
L 18.40625 75.984375 
L 18.40625 64.59375 
L 9.421875 64.59375 
z
" id="DejaVuSans-69"/>
      <path d="M 2.984375 54.6875 
L 12.5 54.6875 
L 29.59375 8.796875 
L 46.6875 54.6875 
L 56.203125 54.6875 
L 35.6875 0 
L 23.484375 0 
z
" id="DejaVuSans-76"/>
      <path d="M 4.890625 31.390625 
L 31.203125 31.390625 
L 31.203125 23.390625 
L 4.890625 23.390625 
z
" id="DejaVuSans-2d"/>
     </defs>
     <g transform="translate(376.84 117.676562)scale(0.1 -0.1)">
      <use xlink:href="#DejaVuSans-71"/>
      <use x="63.476562" xlink:href="#DejaVuSans-64"/>
      <use x="126.953125" xlink:href="#DejaVuSans-70"/>
      <use x="190.429688" xlink:href="#DejaVuSans-74"/>
      <use x="229.638672" xlink:href="#DejaVuSans-20"/>
      <use x="261.425781" xlink:href="#DejaVuSans-6c"/>
      <use x="289.208984" xlink:href="#DejaVuSans-6f"/>
      <use x="350.390625" xlink:href="#DejaVuSans-67"/>
      <use x="413.867188" xlink:href="#DejaVuSans-64"/>
      <use x="477.34375" xlink:href="#DejaVuSans-65"/>
      <use x="538.867188" xlink:href="#DejaVuSans-72"/>
      <use x="579.980469" xlink:href="#DejaVuSans-69"/>
      <use x="607.763672" xlink:href="#DejaVuSans-76"/>
      <use x="666.943359" xlink:href="#DejaVuSans-20"/>
      <use x="698.730469" xlink:href="#DejaVuSans-66"/>
      <use x="733.935547" xlink:href="#DejaVuSans-69"/>
      <use x="761.71875" xlink:href="#DejaVuSans-74"/>
      <use x="800.927734" xlink:href="#DejaVuSans-20"/>
      <use x="832.714844" xlink:href="#DejaVuSans-28"/>
      <use x="871.728516" xlink:href="#DejaVuSans-62"/>
      <use x="935.205078" xlink:href="#DejaVuSans-3d"/>
      <use x="1018.994141" xlink:href="#DejaVuSans-2d"/>
      <use x="1055.078125" xlink:href="#DejaVuSans-31"/>
      <use x="1118.701172" xlink:href="#DejaVuSans-2e"/>
      <use x="1150.488281" xlink:href="#DejaVuSans-34"/>
      <use x="1214.111328" xlink:href="#DejaVuSans-36"/>
      <use x="1277.734375" xlink:href="#DejaVuSans-29"/>
     </g>
    </g>
    <g id="line2d_48">
     <path d="M 348.84 128.854687 
L 368.84 128.854687 
" style="fill:none;stroke:#39b237;stroke-dasharray:9.6,2.4,1.6,2.4;stroke-dashoffset:0;stroke-width:1.5;"/>
    </g>
    <g id="line2d_49"/>
    <g id="text_14">
     <!-- qdpt deriv fit (b=-1.5±0.015) -->
     <defs>
      <path d="M 10.796875 72.90625 
L 49.515625 72.90625 
L 49.515625 64.59375 
L 19.828125 64.59375 
L 19.828125 46.734375 
Q 21.96875 47.46875 24.109375 47.828125 
Q 26.265625 48.1875 28.421875 48.1875 
Q 40.625 48.1875 47.75 41.5 
Q 54.890625 34.8125 54.890625 23.390625 
Q 54.890625 11.625 47.5625 5.09375 
Q 40.234375 -1.421875 26.90625 -1.421875 
Q 22.3125 -1.421875 17.546875 -0.640625 
Q 12.796875 0.140625 7.71875 1.703125 
L 7.71875 11.625 
Q 12.109375 9.234375 16.796875 8.0625 
Q 21.484375 6.890625 26.703125 6.890625 
Q 35.15625 6.890625 40.078125 11.328125 
Q 45.015625 15.765625 45.015625 23.390625 
Q 45.015625 31 40.078125 35.4375 
Q 35.15625 39.890625 26.703125 39.890625 
Q 22.75 39.890625 18.8125 39.015625 
Q 14.890625 38.140625 10.796875 36.28125 
z
" id="DejaVuSans-35"/>
      <path d="M 46 62.703125 
L 46 43.796875 
L 73.1875 43.796875 
L 73.1875 35.5 
L 46 35.5 
L 46 16.609375 
L 37.796875 16.609375 
L 37.796875 35.5 
L 10.59375 35.5 
L 10.59375 43.796875 
L 37.796875 43.796875 
L 37.796875 62.703125 
z
M 10.59375 8.296875 
L 73.1875 8.296875 
L 73.1875 0 
L 10.59375 0 
z
" id="DejaVuSans-b1"/>
     </defs>
     <g transform="translate(376.84 132.354687)scale(0.1 -0.1)">
      <use xlink:href="#DejaVuSans-71"/>
      <use x="63.476562" xlink:href="#DejaVuSans-64"/>
      <use x="126.953125" xlink:href="#DejaVuSans-70"/>
      <use x="190.429688" xlink:href="#DejaVuSans-74"/>
      <use x="229.638672" xlink:href="#DejaVuSans-20"/>
      <use x="261.425781" xlink:href="#DejaVuSans-64"/>
      <use x="324.902344" xlink:href="#DejaVuSans-65"/>
      <use x="386.425781" xlink:href="#DejaVuSans-72"/>
      <use x="427.539062" xlink:href="#DejaVuSans-69"/>
      <use x="455.322266" xlink:href="#DejaVuSans-76"/>
      <use x="514.501953" xlink:href="#DejaVuSans-20"/>
      <use x="546.289062" xlink:href="#DejaVuSans-66"/>
      <use x="581.494141" xlink:href="#DejaVuSans-69"/>
      <use x="609.277344" xlink:href="#DejaVuSans-74"/>
      <use x="648.486328" xlink:href="#DejaVuSans-20"/>
      <use x="680.273438" xlink:href="#DejaVuSans-28"/>
      <use x="719.287109" xlink:href="#DejaVuSans-62"/>
      <use x="782.763672" xlink:href="#DejaVuSans-3d"/>
      <use x="866.552734" xlink:href="#DejaVuSans-2d"/>
      <use x="902.636719" xlink:href="#DejaVuSans-31"/>
      <use x="966.259766" xlink:href="#DejaVuSans-2e"/>
      <use x="998.046875" xlink:href="#DejaVuSans-35"/>
      <use x="1061.669922" xlink:href="#DejaVuSans-b1"/>
      <use x="1145.458984" xlink:href="#DejaVuSans-30"/>
      <use x="1209.082031" xlink:href="#DejaVuSans-2e"/>
      <use x="1240.869141" xlink:href="#DejaVuSans-30"/>
      <use x="1304.492188" xlink:href="#DejaVuSans-31"/>
      <use x="1368.115234" xlink:href="#DejaVuSans-35"/>
      <use x="1431.738281" xlink:href="#DejaVuSans-29"/>
     </g>
    </g>
    <g id="line2d_50">
     <path d="M 348.84 143.532812 
L 368.84 143.532812 
" style="fill:none;stroke:#39b237;stroke-linecap:square;stroke-width:1.5;"/>
    </g>
    <g id="line2d_51"/>
    <g id="text_15">
     <!-- qdpt full fit (b=-1.48±0.011) -->
     <defs>
      <path d="M 31.78125 34.625 
Q 24.75 34.625 20.71875 30.859375 
Q 16.703125 27.09375 16.703125 20.515625 
Q 16.703125 13.921875 20.71875 10.15625 
Q 24.75 6.390625 31.78125 6.390625 
Q 38.8125 6.390625 42.859375 10.171875 
Q 46.921875 13.96875 46.921875 20.515625 
Q 46.921875 27.09375 42.890625 30.859375 
Q 38.875 34.625 31.78125 34.625 
M 21.921875 38.8125 
Q 15.578125 40.375 12.03125 44.71875 
Q 8.5 49.078125 8.5 55.328125 
Q 8.5 64.0625 14.71875 69.140625 
Q 20.953125 74.21875 31.78125 74.21875 
Q 42.671875 74.21875 48.875 69.140625 
Q 55.078125 64.0625 55.078125 55.328125 
Q 55.078125 49.078125 51.53125 44.71875 
Q 48 40.375 41.703125 38.8125 
Q 48.828125 37.15625 52.796875 32.3125 
Q 56.78125 27.484375 56.78125 20.515625 
Q 56.78125 9.90625 50.3125 4.234375 
Q 43.84375 -1.421875 31.78125 -1.421875 
Q 19.734375 -1.421875 13.25 4.234375 
Q 6.78125 9.90625 6.78125 20.515625 
Q 6.78125 27.484375 10.78125 32.3125 
Q 14.796875 37.15625 21.921875 38.8125 
M 18.3125 54.390625 
Q 18.3125 48.734375 21.84375 45.5625 
Q 25.390625 42.390625 31.78125 42.390625 
Q 38.140625 42.390625 41.71875 45.5625 
Q 45.3125 48.734375 45.3125 54.390625 
Q 45.3125 60.0625 41.71875 63.234375 
Q 38.140625 66.40625 31.78125 66.40625 
Q 25.390625 66.40625 21.84375 63.234375 
Q 18.3125 60.0625 18.3125 54.390625 
" id="DejaVuSans-38"/>
     </defs>
     <g transform="translate(376.84 147.032812)scale(0.1 -0.1)">
      <use xlink:href="#DejaVuSans-71"/>
      <use x="63.476562" xlink:href="#DejaVuSans-64"/>
      <use x="126.953125" xlink:href="#DejaVuSans-70"/>
      <use x="190.429688" xlink:href="#DejaVuSans-74"/>
      <use x="229.638672" xlink:href="#DejaVuSans-20"/>
      <use x="261.425781" xlink:href="#DejaVuSans-66"/>
      <use x="296.630859" xlink:href="#DejaVuSans-75"/>
      <use x="360.009766" xlink:href="#DejaVuSans-6c"/>
      <use x="387.792969" xlink:href="#DejaVuSans-6c"/>
      <use x="415.576172" xlink:href="#DejaVuSans-20"/>
      <use x="447.363281" xlink:href="#DejaVuSans-66"/>
      <use x="482.568359" xlink:href="#DejaVuSans-69"/>
      <use x="510.351562" xlink:href="#DejaVuSans-74"/>
      <use x="549.560547" xlink:href="#DejaVuSans-20"/>
      <use x="581.347656" xlink:href="#DejaVuSans-28"/>
      <use x="620.361328" xlink:href="#DejaVuSans-62"/>
      <use x="683.837891" xlink:href="#DejaVuSans-3d"/>
      <use x="767.626953" xlink:href="#DejaVuSans-2d"/>
      <use x="803.710938" xlink:href="#DejaVuSans-31"/>
      <use x="867.333984" xlink:href="#DejaVuSans-2e"/>
      <use x="899.121094" xlink:href="#DejaVuSans-34"/>
      <use x="962.744141" xlink:href="#DejaVuSans-38"/>
      <use x="1026.367188" xlink:href="#DejaVuSans-b1"/>
      <use x="1110.15625" xlink:href="#DejaVuSans-30"/>
      <use x="1173.779297" xlink:href="#DejaVuSans-2e"/>
      <use x="1205.566406" xlink:href="#DejaVuSans-30"/>
      <use x="1269.189453" xlink:href="#DejaVuSans-31"/>
      <use x="1332.8125" xlink:href="#DejaVuSans-31"/>
      <use x="1396.435547" xlink:href="#DejaVuSans-29"/>
     </g>
    </g>
   </g>
  </g>
  <g id="axes_2">
   <g id="patch_9">
    <path d="M 72 640.8 
L 339.84 640.8 
L 339.84 388.8 
L 72 388.8 
z
" style="fill:#e5e5e5;"/>
   </g>
   <g id="matplotlib.axis_3">
    <g id="xtick_10">
     <g id="line2d_52">
      <path clip-path="url(#p063671cc04)" d="M 84.174545 640.8 
L 84.174545 388.8 
" style="fill:none;stroke:#ffffff;stroke-linecap:square;stroke-width:0.8;"/>
     </g>
     <g id="line2d_53">
      <g>
       <use style="fill:#555555;stroke:#555555;stroke-width:0.8;" x="84.174545" xlink:href="#me62bcd8525" y="640.8"/>
      </g>
     </g>
     <g id="text_16">
      <!-- 2 -->
      <g style="fill:#555555;" transform="translate(80.993295 655.398438)scale(0.1 -0.1)">
       <use xlink:href="#DejaVuSans-32"/>
      </g>
     </g>
    </g>
    <g id="xtick_11">
     <g id="line2d_54">
      <path clip-path="url(#p063671cc04)" d="M 121.067107 640.8 
L 121.067107 388.8 
" style="fill:none;stroke:#ffffff;stroke-linecap:square;stroke-width:0.8;"/>
     </g>
     <g id="line2d_55">
      <g>
       <use style="fill:#555555;stroke:#555555;stroke-width:0.8;" x="121.067107" xlink:href="#me62bcd8525" y="640.8"/>
      </g>
     </g>
     <g id="text_17">
      <!-- 4 -->
      <g style="fill:#555555;" transform="translate(117.885857 655.398438)scale(0.1 -0.1)">
       <use xlink:href="#DejaVuSans-34"/>
      </g>
     </g>
    </g>
    <g id="xtick_12">
     <g id="line2d_56">
      <path clip-path="url(#p063671cc04)" d="M 157.959669 640.8 
L 157.959669 388.8 
" style="fill:none;stroke:#ffffff;stroke-linecap:square;stroke-width:0.8;"/>
     </g>
     <g id="line2d_57">
      <g>
       <use style="fill:#555555;stroke:#555555;stroke-width:0.8;" x="157.959669" xlink:href="#me62bcd8525" y="640.8"/>
      </g>
     </g>
     <g id="text_18">
      <!-- 6 -->
      <g style="fill:#555555;" transform="translate(154.778419 655.398438)scale(0.1 -0.1)">
       <use xlink:href="#DejaVuSans-36"/>
      </g>
     </g>
    </g>
    <g id="xtick_13">
     <g id="line2d_58">
      <path clip-path="url(#p063671cc04)" d="M 194.852231 640.8 
L 194.852231 388.8 
" style="fill:none;stroke:#ffffff;stroke-linecap:square;stroke-width:0.8;"/>
     </g>
     <g id="line2d_59">
      <g>
       <use style="fill:#555555;stroke:#555555;stroke-width:0.8;" x="194.852231" xlink:href="#me62bcd8525" y="640.8"/>
      </g>
     </g>
     <g id="text_19">
      <!-- 8 -->
      <g style="fill:#555555;" transform="translate(191.670981 655.398438)scale(0.1 -0.1)">
       <use xlink:href="#DejaVuSans-38"/>
      </g>
     </g>
    </g>
    <g id="xtick_14">
     <g id="line2d_60">
      <path clip-path="url(#p063671cc04)" d="M 231.744793 640.8 
L 231.744793 388.8 
" style="fill:none;stroke:#ffffff;stroke-linecap:square;stroke-width:0.8;"/>
     </g>
     <g id="line2d_61">
      <g>
       <use style="fill:#555555;stroke:#555555;stroke-width:0.8;" x="231.744793" xlink:href="#me62bcd8525" y="640.8"/>
      </g>
     </g>
     <g id="text_20">
      <!-- 10 -->
      <g style="fill:#555555;" transform="translate(225.382293 655.398438)scale(0.1 -0.1)">
       <use xlink:href="#DejaVuSans-31"/>
       <use x="63.623047" xlink:href="#DejaVuSans-30"/>
      </g>
     </g>
    </g>
    <g id="xtick_15">
     <g id="line2d_62">
      <path clip-path="url(#p063671cc04)" d="M 268.637355 640.8 
L 268.637355 388.8 
" style="fill:none;stroke:#ffffff;stroke-linecap:square;stroke-width:0.8;"/>
     </g>
     <g id="line2d_63">
      <g>
       <use style="fill:#555555;stroke:#555555;stroke-width:0.8;" x="268.637355" xlink:href="#me62bcd8525" y="640.8"/>
      </g>
     </g>
     <g id="text_21">
      <!-- 12 -->
      <g style="fill:#555555;" transform="translate(262.274855 655.398438)scale(0.1 -0.1)">
       <use xlink:href="#DejaVuSans-31"/>
       <use x="63.623047" xlink:href="#DejaVuSans-32"/>
      </g>
     </g>
    </g>
    <g id="xtick_16">
     <g id="line2d_64">
      <path clip-path="url(#p063671cc04)" d="M 305.529917 640.8 
L 305.529917 388.8 
" style="fill:none;stroke:#ffffff;stroke-linecap:square;stroke-width:0.8;"/>
     </g>
     <g id="line2d_65">
      <g>
       <use style="fill:#555555;stroke:#555555;stroke-width:0.8;" x="305.529917" xlink:href="#me62bcd8525" y="640.8"/>
      </g>
     </g>
     <g id="text_22">
      <!-- 14 -->
      <g style="fill:#555555;" transform="translate(299.167417 655.398438)scale(0.1 -0.1)">
       <use xlink:href="#DejaVuSans-31"/>
       <use x="63.623047" xlink:href="#DejaVuSans-34"/>
      </g>
     </g>
    </g>
    <g id="text_23">
     <!-- K (number of shells) -->
     <g style="fill:#555555;" transform="translate(145.303125 670.59625)scale(0.12 -0.12)">
      <use xlink:href="#DejaVuSans-4b"/>
      <use x="65.576172" xlink:href="#DejaVuSans-20"/>
      <use x="97.363281" xlink:href="#DejaVuSans-28"/>
      <use x="136.376953" xlink:href="#DejaVuSans-6e"/>
      <use x="199.755859" xlink:href="#DejaVuSans-75"/>
      <use x="263.134766" xlink:href="#DejaVuSans-6d"/>
      <use x="360.546875" xlink:href="#DejaVuSans-62"/>
      <use x="424.023438" xlink:href="#DejaVuSans-65"/>
      <use x="485.546875" xlink:href="#DejaVuSans-72"/>
      <use x="526.660156" xlink:href="#DejaVuSans-20"/>
      <use x="558.447266" xlink:href="#DejaVuSans-6f"/>
      <use x="619.628906" xlink:href="#DejaVuSans-66"/>
      <use x="654.833984" xlink:href="#DejaVuSans-20"/>
      <use x="686.621094" xlink:href="#DejaVuSans-73"/>
      <use x="738.720703" xlink:href="#DejaVuSans-68"/>
      <use x="802.099609" xlink:href="#DejaVuSans-65"/>
      <use x="863.623047" xlink:href="#DejaVuSans-6c"/>
      <use x="891.40625" xlink:href="#DejaVuSans-6c"/>
      <use x="919.189453" xlink:href="#DejaVuSans-73"/>
      <use x="971.289062" xlink:href="#DejaVuSans-29"/>
     </g>
    </g>
   </g>
   <g id="matplotlib.axis_4">
    <g id="ytick_27">
     <g id="line2d_66">
      <path clip-path="url(#p063671cc04)" d="M 72 612.15066 
L 339.84 612.15066 
" style="fill:none;stroke:#ffffff;stroke-linecap:square;stroke-width:0.8;"/>
     </g>
     <g id="line2d_67">
      <g>
       <use style="fill:#555555;stroke:#555555;stroke-width:0.8;" x="72" xlink:href="#m0dbd7f223a" y="612.15066"/>
      </g>
     </g>
     <g id="text_24">
      <!-- 2.00 -->
      <g style="fill:#555555;" transform="translate(42.734375 615.949878)scale(0.1 -0.1)">
       <use xlink:href="#DejaVuSans-32"/>
       <use x="63.623047" xlink:href="#DejaVuSans-2e"/>
       <use x="95.410156" xlink:href="#DejaVuSans-30"/>
       <use x="159.033203" xlink:href="#DejaVuSans-30"/>
      </g>
     </g>
    </g>
    <g id="ytick_28">
     <g id="line2d_68">
      <path clip-path="url(#p063671cc04)" d="M 72 582.623465 
L 339.84 582.623465 
" style="fill:none;stroke:#ffffff;stroke-linecap:square;stroke-width:0.8;"/>
     </g>
     <g id="line2d_69">
      <g>
       <use style="fill:#555555;stroke:#555555;stroke-width:0.8;" x="72" xlink:href="#m0dbd7f223a" y="582.623465"/>
      </g>
     </g>
     <g id="text_25">
      <!-- 2.02 -->
      <g style="fill:#555555;" transform="translate(42.734375 586.422684)scale(0.1 -0.1)">
       <use xlink:href="#DejaVuSans-32"/>
       <use x="63.623047" xlink:href="#DejaVuSans-2e"/>
       <use x="95.410156" xlink:href="#DejaVuSans-30"/>
       <use x="159.033203" xlink:href="#DejaVuSans-32"/>
      </g>
     </g>
    </g>
    <g id="ytick_29">
     <g id="line2d_70">
      <path clip-path="url(#p063671cc04)" d="M 72 553.096271 
L 339.84 553.096271 
" style="fill:none;stroke:#ffffff;stroke-linecap:square;stroke-width:0.8;"/>
     </g>
     <g id="line2d_71">
      <g>
       <use style="fill:#555555;stroke:#555555;stroke-width:0.8;" x="72" xlink:href="#m0dbd7f223a" y="553.096271"/>
      </g>
     </g>
     <g id="text_26">
      <!-- 2.04 -->
      <g style="fill:#555555;" transform="translate(42.734375 556.89549)scale(0.1 -0.1)">
       <use xlink:href="#DejaVuSans-32"/>
       <use x="63.623047" xlink:href="#DejaVuSans-2e"/>
       <use x="95.410156" xlink:href="#DejaVuSans-30"/>
       <use x="159.033203" xlink:href="#DejaVuSans-34"/>
      </g>
     </g>
    </g>
    <g id="ytick_30">
     <g id="line2d_72">
      <path clip-path="url(#p063671cc04)" d="M 72 523.569077 
L 339.84 523.569077 
" style="fill:none;stroke:#ffffff;stroke-linecap:square;stroke-width:0.8;"/>
     </g>
     <g id="line2d_73">
      <g>
       <use style="fill:#555555;stroke:#555555;stroke-width:0.8;" x="72" xlink:href="#m0dbd7f223a" y="523.569077"/>
      </g>
     </g>
     <g id="text_27">
      <!-- 2.06 -->
      <g style="fill:#555555;" transform="translate(42.734375 527.368296)scale(0.1 -0.1)">
       <use xlink:href="#DejaVuSans-32"/>
       <use x="63.623047" xlink:href="#DejaVuSans-2e"/>
       <use x="95.410156" xlink:href="#DejaVuSans-30"/>
       <use x="159.033203" xlink:href="#DejaVuSans-36"/>
      </g>
     </g>
    </g>
    <g id="ytick_31">
     <g id="line2d_74">
      <path clip-path="url(#p063671cc04)" d="M 72 494.041883 
L 339.84 494.041883 
" style="fill:none;stroke:#ffffff;stroke-linecap:square;stroke-width:0.8;"/>
     </g>
     <g id="line2d_75">
      <g>
       <use style="fill:#555555;stroke:#555555;stroke-width:0.8;" x="72" xlink:href="#m0dbd7f223a" y="494.041883"/>
      </g>
     </g>
     <g id="text_28">
      <!-- 2.08 -->
      <g style="fill:#555555;" transform="translate(42.734375 497.841101)scale(0.1 -0.1)">
       <use xlink:href="#DejaVuSans-32"/>
       <use x="63.623047" xlink:href="#DejaVuSans-2e"/>
       <use x="95.410156" xlink:href="#DejaVuSans-30"/>
       <use x="159.033203" xlink:href="#DejaVuSans-38"/>
      </g>
     </g>
    </g>
    <g id="ytick_32">
     <g id="line2d_76">
      <path clip-path="url(#p063671cc04)" d="M 72 464.514688 
L 339.84 464.514688 
" style="fill:none;stroke:#ffffff;stroke-linecap:square;stroke-width:0.8;"/>
     </g>
     <g id="line2d_77">
      <g>
       <use style="fill:#555555;stroke:#555555;stroke-width:0.8;" x="72" xlink:href="#m0dbd7f223a" y="464.514688"/>
      </g>
     </g>
     <g id="text_29">
      <!-- 2.10 -->
      <g style="fill:#555555;" transform="translate(42.734375 468.313907)scale(0.1 -0.1)">
       <use xlink:href="#DejaVuSans-32"/>
       <use x="63.623047" xlink:href="#DejaVuSans-2e"/>
       <use x="95.410156" xlink:href="#DejaVuSans-31"/>
       <use x="159.033203" xlink:href="#DejaVuSans-30"/>
      </g>
     </g>
    </g>
    <g id="ytick_33">
     <g id="line2d_78">
      <path clip-path="url(#p063671cc04)" d="M 72 434.987494 
L 339.84 434.987494 
" style="fill:none;stroke:#ffffff;stroke-linecap:square;stroke-width:0.8;"/>
     </g>
     <g id="line2d_79">
      <g>
       <use style="fill:#555555;stroke:#555555;stroke-width:0.8;" x="72" xlink:href="#m0dbd7f223a" y="434.987494"/>
      </g>
     </g>
     <g id="text_30">
      <!-- 2.12 -->
      <g style="fill:#555555;" transform="translate(42.734375 438.786713)scale(0.1 -0.1)">
       <use xlink:href="#DejaVuSans-32"/>
       <use x="63.623047" xlink:href="#DejaVuSans-2e"/>
       <use x="95.410156" xlink:href="#DejaVuSans-31"/>
       <use x="159.033203" xlink:href="#DejaVuSans-32"/>
      </g>
     </g>
    </g>
    <g id="ytick_34">
     <g id="line2d_80">
      <path clip-path="url(#p063671cc04)" d="M 72 405.4603 
L 339.84 405.4603 
" style="fill:none;stroke:#ffffff;stroke-linecap:square;stroke-width:0.8;"/>
     </g>
     <g id="line2d_81">
      <g>
       <use style="fill:#555555;stroke:#555555;stroke-width:0.8;" x="72" xlink:href="#m0dbd7f223a" y="405.4603"/>
      </g>
     </g>
     <g id="text_31">
      <!-- 2.14 -->
      <g style="fill:#555555;" transform="translate(42.734375 409.259519)scale(0.1 -0.1)">
       <use xlink:href="#DejaVuSans-32"/>
       <use x="63.623047" xlink:href="#DejaVuSans-2e"/>
       <use x="95.410156" xlink:href="#DejaVuSans-31"/>
       <use x="159.033203" xlink:href="#DejaVuSans-34"/>
      </g>
     </g>
    </g>
    <g id="text_32">
     <!-- E (energy) -->
     <defs>
      <path d="M 32.171875 -5.078125 
Q 28.375 -14.84375 24.75 -17.8125 
Q 21.140625 -20.796875 15.09375 -20.796875 
L 7.90625 -20.796875 
L 7.90625 -13.28125 
L 13.1875 -13.28125 
Q 16.890625 -13.28125 18.9375 -11.515625 
Q 21 -9.765625 23.484375 -3.21875 
L 25.09375 0.875 
L 2.984375 54.6875 
L 12.5 54.6875 
L 29.59375 11.921875 
L 46.6875 54.6875 
L 56.203125 54.6875 
z
" id="DejaVuSans-79"/>
     </defs>
     <g style="fill:#555555;" transform="translate(36.23875 546.192188)rotate(-90)scale(0.12 -0.12)">
      <use xlink:href="#DejaVuSans-45"/>
      <use x="63.183594" xlink:href="#DejaVuSans-20"/>
      <use x="94.970703" xlink:href="#DejaVuSans-28"/>
      <use x="133.984375" xlink:href="#DejaVuSans-65"/>
      <use x="195.507812" xlink:href="#DejaVuSans-6e"/>
      <use x="258.886719" xlink:href="#DejaVuSans-65"/>
      <use x="320.410156" xlink:href="#DejaVuSans-72"/>
      <use x="361.507812" xlink:href="#DejaVuSans-67"/>
      <use x="424.984375" xlink:href="#DejaVuSans-79"/>
      <use x="484.164062" xlink:href="#DejaVuSans-29"/>
     </g>
    </g>
   </g>
   <g id="patch_10">
    <path clip-path="url(#p063671cc04)" d="M 172.716694 640.8 
L 172.716694 388.8 
L 327.665455 388.8 
L 327.665455 640.8 
z
" style="fill:#d6a528;opacity:0.15;stroke:#d6a528;stroke-linejoin:miter;stroke-width:0.5;"/>
   </g>
   <g id="line2d_82">
    <g clip-path="url(#p063671cc04)">
     <use style="fill:#39b237;stroke:#39b237;" x="84.174545" xlink:href="#mdb8e65e694" y="400.254545"/>
     <use style="fill:#39b237;stroke:#39b237;" x="102.620826" xlink:href="#mdb8e65e694" y="571.969144"/>
     <use style="fill:#39b237;stroke:#39b237;" x="121.067107" xlink:href="#mdb8e65e694" y="592.577258"/>
     <use style="fill:#39b237;stroke:#39b237;" x="139.513388" xlink:href="#mdb8e65e694" y="605.08981"/>
     <use style="fill:#39b237;stroke:#39b237;" x="157.959669" xlink:href="#mdb8e65e694" y="611.003747"/>
     <use style="fill:#39b237;stroke:#39b237;" x="176.40595" xlink:href="#mdb8e65e694" y="614.910186"/>
     <use style="fill:#39b237;stroke:#39b237;" x="194.852231" xlink:href="#mdb8e65e694" y="617.488708"/>
     <use style="fill:#39b237;stroke:#39b237;" x="213.298512" xlink:href="#mdb8e65e694" y="619.368087"/>
     <use style="fill:#39b237;stroke:#39b237;" x="231.744793" xlink:href="#mdb8e65e694" y="620.777087"/>
     <use style="fill:#39b237;stroke:#39b237;" x="250.191074" xlink:href="#mdb8e65e694" y="621.879415"/>
     <use style="fill:#39b237;stroke:#39b237;" x="268.637355" xlink:href="#mdb8e65e694" y="622.761587"/>
     <use style="fill:#39b237;stroke:#39b237;" x="287.083636" xlink:href="#mdb8e65e694" y="623.483628"/>
     <use style="fill:#39b237;stroke:#39b237;" x="305.529917" xlink:href="#mdb8e65e694" y="624.085116"/>
     <use style="fill:#39b237;stroke:#39b237;" x="323.976198" xlink:href="#mdb8e65e694" y="624.593596"/>
    </g>
   </g>
   <g id="line2d_83">
    <path clip-path="url(#p063671cc04)" d="M 84.174545 538.960235 
L 85.137604 542.305274 
L 86.100663 545.447067 
L 88.026781 551.186915 
L 89.952899 556.295307 
L 91.879016 560.865729 
L 93.805134 564.974563 
L 95.731252 568.684766 
L 97.657369 572.048649 
L 100.546546 576.53899 
L 103.435722 580.467117 
L 106.324899 583.927203 
L 109.214075 586.99403 
L 112.103252 589.727662 
L 114.992429 592.176842 
L 117.881605 594.381495 
L 121.73384 596.996851 
L 125.586076 599.298933 
L 129.438311 601.338049 
L 133.290547 603.154556 
L 138.105841 605.1614 
L 142.921135 606.922296 
L 148.699488 608.766958 
L 154.477841 610.369789 
L 161.219253 611.990041 
L 167.960665 613.390272 
L 175.665136 614.771766 
L 184.332666 616.100562 
L 193.963254 617.353556 
L 205.51996 618.613234 
L 218.039725 619.744914 
L 232.485608 620.820674 
L 248.857608 621.81455 
L 268.118785 622.756023 
L 291.232198 623.649246 
L 318.197845 624.459461 
L 323.976198 624.608055 
L 323.976198 624.608055 
" style="fill:none;stroke:#39b237;stroke-dasharray:5.6,2.4;stroke-dashoffset:0;stroke-width:1.5;"/>
   </g>
   <g id="line2d_84">
    <path clip-path="url(#p063671cc04)" d="M 72 629.345455 
L 339.84 629.345455 
" style="fill:none;stroke:#39b237;stroke-dasharray:2.2,2.2;stroke-dashoffset:0;stroke-width:1.5;"/>
   </g>
   <g id="line2d_85">
    <path clip-path="url(#p063671cc04)" d="M 84.174545 537.959007 
L 85.137604 541.373562 
L 86.100663 544.579293 
L 88.026781 550.432396 
L 89.952899 555.63749 
L 91.879016 560.290937 
L 93.805134 564.471409 
L 95.731252 568.243702 
L 97.657369 571.66162 
L 100.546546 576.220518 
L 103.435722 580.205022 
L 106.324899 583.711764 
L 109.214075 586.817417 
L 112.103252 589.583511 
L 114.992429 592.059939 
L 117.881605 594.287539 
L 121.73384 596.92804 
L 125.586076 599.250257 
L 129.438311 601.305525 
L 133.290547 603.134994 
L 138.105841 605.15448 
L 142.921135 606.924906 
L 148.699488 608.777855 
L 154.477841 610.386364 
L 161.219253 612.010784 
L 167.960665 613.413238 
L 175.665136 614.795554 
L 184.332666 616.123739 
L 193.963254 617.374773 
L 204.556901 618.534997 
L 217.076666 619.6787 
L 231.522549 620.763272 
L 247.894549 621.762836 
L 267.155726 622.70733 
L 289.30608 623.568034 
L 316.271728 624.384144 
L 323.976198 624.581551 
L 323.976198 624.581551 
" style="fill:none;stroke:#39b237;stroke-linecap:square;stroke-width:1.5;"/>
   </g>
   <g id="line2d_86">
    <path clip-path="url(#p063671cc04)" d="M 72 629.206783 
L 339.84 629.206783 
" style="fill:none;stroke:#39b237;stroke-dasharray:2.2,2.2;stroke-dashoffset:0;stroke-width:1.5;"/>
   </g>
   <g id="patch_11">
    <path d="M 72 640.8 
L 72 388.8 
" style="fill:none;stroke:#ffffff;stroke-linecap:square;stroke-linejoin:miter;"/>
   </g>
   <g id="patch_12">
    <path d="M 339.84 640.8 
L 339.84 388.8 
" style="fill:none;stroke:#ffffff;stroke-linecap:square;stroke-linejoin:miter;"/>
   </g>
   <g id="patch_13">
    <path d="M 72 640.8 
L 339.84 640.8 
" style="fill:none;stroke:#ffffff;stroke-linecap:square;stroke-linejoin:miter;"/>
   </g>
   <g id="patch_14">
    <path d="M 72 388.8 
L 339.84 388.8 
" style="fill:none;stroke:#ffffff;stroke-linecap:square;stroke-linejoin:miter;"/>
   </g>
   <g id="legend_2">
    <g id="patch_15">
     <path d="M 346.84 440.834375 
L 522.385312 440.834375 
Q 524.385312 440.834375 524.385312 438.834375 
L 524.385312 395.8 
Q 524.385312 393.8 522.385312 393.8 
L 346.84 393.8 
Q 344.84 393.8 344.84 395.8 
L 344.84 438.834375 
Q 344.84 440.834375 346.84 440.834375 
z
" style="fill:#e5e5e5;opacity:0.8;stroke:#cccccc;stroke-linejoin:miter;stroke-width:0.5;"/>
    </g>
    <g id="line2d_87"/>
    <g id="line2d_88">
     <g>
      <use style="fill:#39b237;stroke:#39b237;" x="358.84" xlink:href="#mdb8e65e694" y="401.898438"/>
     </g>
    </g>
    <g id="text_33">
     <!-- qdpt -->
     <g transform="translate(376.84 405.398438)scale(0.1 -0.1)">
      <use xlink:href="#DejaVuSans-71"/>
      <use x="63.476562" xlink:href="#DejaVuSans-64"/>
      <use x="126.953125" xlink:href="#DejaVuSans-70"/>
      <use x="190.429688" xlink:href="#DejaVuSans-74"/>
     </g>
    </g>
    <g id="line2d_89">
     <path d="M 348.84 416.576563 
L 368.84 416.576563 
" style="fill:none;stroke:#39b237;stroke-dasharray:5.6,2.4;stroke-dashoffset:0;stroke-width:1.5;"/>
    </g>
    <g id="line2d_90"/>
    <g id="text_34">
     <!-- qdpt fixedab fit (b=-1.46) -->
     <defs>
      <path d="M 54.890625 54.6875 
L 35.109375 28.078125 
L 55.90625 0 
L 45.3125 0 
L 29.390625 21.484375 
L 13.484375 0 
L 2.875 0 
L 24.125 28.609375 
L 4.6875 54.6875 
L 15.28125 54.6875 
L 29.78125 35.203125 
L 44.28125 54.6875 
z
" id="DejaVuSans-78"/>
      <path d="M 34.28125 27.484375 
Q 23.390625 27.484375 19.1875 25 
Q 14.984375 22.515625 14.984375 16.5 
Q 14.984375 11.71875 18.140625 8.90625 
Q 21.296875 6.109375 26.703125 6.109375 
Q 34.1875 6.109375 38.703125 11.40625 
Q 43.21875 16.703125 43.21875 25.484375 
L 43.21875 27.484375 
z
M 52.203125 31.203125 
L 52.203125 0 
L 43.21875 0 
L 43.21875 8.296875 
Q 40.140625 3.328125 35.546875 0.953125 
Q 30.953125 -1.421875 24.3125 -1.421875 
Q 15.921875 -1.421875 10.953125 3.296875 
Q 6 8.015625 6 15.921875 
Q 6 25.140625 12.171875 29.828125 
Q 18.359375 34.515625 30.609375 34.515625 
L 43.21875 34.515625 
L 43.21875 35.40625 
Q 43.21875 41.609375 39.140625 45 
Q 35.0625 48.390625 27.6875 48.390625 
Q 23 48.390625 18.546875 47.265625 
Q 14.109375 46.140625 10.015625 43.890625 
L 10.015625 52.203125 
Q 14.9375 54.109375 19.578125 55.046875 
Q 24.21875 56 28.609375 56 
Q 40.484375 56 46.34375 49.84375 
Q 52.203125 43.703125 52.203125 31.203125 
" id="DejaVuSans-61"/>
     </defs>
     <g transform="translate(376.84 420.076563)scale(0.1 -0.1)">
      <use xlink:href="#DejaVuSans-71"/>
      <use x="63.476562" xlink:href="#DejaVuSans-64"/>
      <use x="126.953125" xlink:href="#DejaVuSans-70"/>
      <use x="190.429688" xlink:href="#DejaVuSans-74"/>
      <use x="229.638672" xlink:href="#DejaVuSans-20"/>
      <use x="261.425781" xlink:href="#DejaVuSans-66"/>
      <use x="296.630859" xlink:href="#DejaVuSans-69"/>
      <use x="324.414062" xlink:href="#DejaVuSans-78"/>
      <use x="383.546875" xlink:href="#DejaVuSans-65"/>
      <use x="445.070312" xlink:href="#DejaVuSans-64"/>
      <use x="508.546875" xlink:href="#DejaVuSans-61"/>
      <use x="569.826172" xlink:href="#DejaVuSans-62"/>
      <use x="633.302734" xlink:href="#DejaVuSans-20"/>
      <use x="665.089844" xlink:href="#DejaVuSans-66"/>
      <use x="700.294922" xlink:href="#DejaVuSans-69"/>
      <use x="728.078125" xlink:href="#DejaVuSans-74"/>
      <use x="767.287109" xlink:href="#DejaVuSans-20"/>
      <use x="799.074219" xlink:href="#DejaVuSans-28"/>
      <use x="838.087891" xlink:href="#DejaVuSans-62"/>
      <use x="901.564453" xlink:href="#DejaVuSans-3d"/>
      <use x="985.353516" xlink:href="#DejaVuSans-2d"/>
      <use x="1021.4375" xlink:href="#DejaVuSans-31"/>
      <use x="1085.060547" xlink:href="#DejaVuSans-2e"/>
      <use x="1116.847656" xlink:href="#DejaVuSans-34"/>
      <use x="1180.470703" xlink:href="#DejaVuSans-36"/>
      <use x="1244.09375" xlink:href="#DejaVuSans-29"/>
     </g>
    </g>
    <g id="line2d_91">
     <path d="M 348.84 431.254687 
L 368.84 431.254687 
" style="fill:none;stroke:#39b237;stroke-linecap:square;stroke-width:1.5;"/>
    </g>
    <g id="line2d_92"/>
    <g id="text_35">
     <!-- qdpt full fit (b=-1.48±0.011) -->
     <g transform="translate(376.84 434.754687)scale(0.1 -0.1)">
      <use xlink:href="#DejaVuSans-71"/>
      <use x="63.476562" xlink:href="#DejaVuSans-64"/>
      <use x="126.953125" xlink:href="#DejaVuSans-70"/>
      <use x="190.429688" xlink:href="#DejaVuSans-74"/>
      <use x="229.638672" xlink:href="#DejaVuSans-20"/>
      <use x="261.425781" xlink:href="#DejaVuSans-66"/>
      <use x="296.630859" xlink:href="#DejaVuSans-75"/>
      <use x="360.009766" xlink:href="#DejaVuSans-6c"/>
      <use x="387.792969" xlink:href="#DejaVuSans-6c"/>
      <use x="415.576172" xlink:href="#DejaVuSans-20"/>
      <use x="447.363281" xlink:href="#DejaVuSans-66"/>
      <use x="482.568359" xlink:href="#DejaVuSans-69"/>
      <use x="510.351562" xlink:href="#DejaVuSans-74"/>
      <use x="549.560547" xlink:href="#DejaVuSans-20"/>
      <use x="581.347656" xlink:href="#DejaVuSans-28"/>
      <use x="620.361328" xlink:href="#DejaVuSans-62"/>
      <use x="683.837891" xlink:href="#DejaVuSans-3d"/>
      <use x="767.626953" xlink:href="#DejaVuSans-2d"/>
      <use x="803.710938" xlink:href="#DejaVuSans-31"/>
      <use x="867.333984" xlink:href="#DejaVuSans-2e"/>
      <use x="899.121094" xlink:href="#DejaVuSans-34"/>
      <use x="962.744141" xlink:href="#DejaVuSans-38"/>
      <use x="1026.367188" xlink:href="#DejaVuSans-b1"/>
      <use x="1110.15625" xlink:href="#DejaVuSans-30"/>
      <use x="1173.779297" xlink:href="#DejaVuSans-2e"/>
      <use x="1205.566406" xlink:href="#DejaVuSans-30"/>
      <use x="1269.189453" xlink:href="#DejaVuSans-31"/>
      <use x="1332.8125" xlink:href="#DejaVuSans-31"/>
      <use x="1396.435547" xlink:href="#DejaVuSans-29"/>
     </g>
    </g>
   </g>
  </g>
 </g>
 <defs>
  <clipPath id="p497d6f0300">
   <rect height="252" width="267.84" x="72" y="86.4"/>
  </clipPath>
  <clipPath id="p063671cc04">
   <rect height="252" width="267.84" x="72" y="388.8"/>
  </clipPath>
 </defs>
</svg>
