<?xml version="1.0" encoding="utf-8" standalone="no"?>
<!DOCTYPE svg PUBLIC "-//W3C//DTD SVG 1.1//EN"
  "http://www.w3.org/Graphics/SVG/1.1/DTD/svg11.dtd">
<!-- Created with matplotlib (http://matplotlib.org/) -->
<svg height="194pt" version="1.1" viewBox="0 0 230 194" width="230pt" xmlns="http://www.w3.org/2000/svg" xmlns:xlink="http://www.w3.org/1999/xlink">
 <defs>
  <style type="text/css">
*{stroke-linecap:butt;stroke-linejoin:round;}
  </style>
 </defs>
 <g id="figure_1">
  <g id="patch_1">
   <path d="M 0 194.4 
L 230.4 194.4 
L 230.4 0 
L 0 0 
z
" style="fill:#ffffff;"/>
  </g>
  <g id="axes_1">
   <g id="patch_2">
    <path d="M 52.76 152.44 
L 217.08 152.44 
L 217.08 13.32 
L 52.76 13.32 
z
" style="fill:#ffffff;"/>
   </g>
   <g id="matplotlib.axis_1">
    <g id="xtick_1">
     <g id="line2d_1">
      <defs>
       <path d="M 0 0 
L 0 3.5 
" id="m952e0415a4" style="stroke:#000000;stroke-width:0.8;"/>
      </defs>
      <g>
       <use style="stroke:#000000;stroke-width:0.8;" x="60.229091" xlink:href="#m952e0415a4" y="152.44"/>
      </g>
     </g>
     <g id="text_1">
      <!-- 4 -->
      <defs>
       <path d="M 33.90625 24.09375 
L 10.09375 24.09375 
L 33.703125 58.796875 
L 33.90625 58.796875 
z
M 41.90625 24.09375 
L 41.90625 70.90625 
L 35.09375 70.90625 
L 2.796875 24.796875 
L 2.796875 16.59375 
L 33.90625 16.59375 
L 33.90625 0 
L 41.90625 0 
L 41.90625 16.59375 
L 51.5 16.59375 
L 51.5 24.09375 
z
" id="HelveticaNeue-34"/>
      </defs>
      <g transform="translate(57.449403 166.580625)scale(0.1 -0.1)">
       <use xlink:href="#HelveticaNeue-34"/>
      </g>
     </g>
    </g>
    <g id="xtick_2">
     <g id="line2d_2">
      <g>
       <use style="stroke:#000000;stroke-width:0.8;" x="87.389421" xlink:href="#m952e0415a4" y="152.44"/>
      </g>
     </g>
     <g id="text_2">
      <!-- 6 -->
      <defs>
       <path d="M 41.40625 52.796875 
L 49.90625 52.796875 
Q 49.09375 61.59375 43.890625 66.25 
Q 38.703125 70.90625 29.90625 70.90625 
Q 22.296875 70.90625 17.296875 67.703125 
Q 12.296875 64.5 9.296875 59.203125 
Q 6.296875 53.90625 5.046875 47.046875 
Q 3.796875 40.203125 3.796875 32.90625 
Q 3.796875 27.296875 4.640625 21.296875 
Q 5.5 15.296875 8.09375 10.296875 
Q 10.703125 5.296875 15.5 2.09375 
Q 20.296875 -1.09375 28.203125 -1.09375 
Q 34.90625 -1.09375 39.453125 1.15625 
Q 44 3.40625 46.75 6.84375 
Q 49.5 10.296875 50.703125 14.5 
Q 51.90625 18.703125 51.90625 22.59375 
Q 51.90625 27.5 50.40625 31.703125 
Q 48.90625 35.90625 46.15625 39 
Q 43.40625 42.09375 39.34375 43.84375 
Q 35.296875 45.59375 30.203125 45.59375 
Q 24.40625 45.59375 19.953125 43.390625 
Q 15.5 41.203125 12.5 36.296875 
L 12.296875 36.5 
Q 12.40625 40.59375 13.09375 45.296875 
Q 13.796875 50 15.640625 54.046875 
Q 17.5 58.09375 20.796875 60.75 
Q 24.09375 63.40625 29.5 63.40625 
Q 34.59375 63.40625 37.6875 60.5 
Q 40.796875 57.59375 41.40625 52.796875 
z
M 28.59375 38.09375 
Q 32.203125 38.09375 34.890625 36.796875 
Q 37.59375 35.5 39.390625 33.34375 
Q 41.203125 31.203125 42.046875 28.25 
Q 42.90625 25.296875 42.90625 22 
Q 42.90625 18.90625 41.953125 16.046875 
Q 41 13.203125 39.203125 11 
Q 37.40625 8.796875 34.75 7.546875 
Q 32.09375 6.296875 28.59375 6.296875 
Q 25.09375 6.296875 22.34375 7.546875 
Q 19.59375 8.796875 17.75 10.890625 
Q 15.90625 13 14.90625 15.890625 
Q 13.90625 18.796875 13.90625 22.09375 
Q 13.90625 25.40625 14.84375 28.34375 
Q 15.796875 31.296875 17.6875 33.4375 
Q 19.59375 35.59375 22.296875 36.84375 
Q 25 38.09375 28.59375 38.09375 
z
" id="HelveticaNeue-36"/>
      </defs>
      <g transform="translate(84.609734 166.580625)scale(0.1 -0.1)">
       <use xlink:href="#HelveticaNeue-36"/>
      </g>
     </g>
    </g>
    <g id="xtick_3">
     <g id="line2d_3">
      <g>
       <use style="stroke:#000000;stroke-width:0.8;" x="114.549752" xlink:href="#m952e0415a4" y="152.44"/>
      </g>
     </g>
     <g id="text_3">
      <!-- 8 -->
      <defs>
       <path d="M 15.5 52.5 
Q 15.5 55.203125 16.5 57.203125 
Q 17.5 59.203125 19.140625 60.59375 
Q 20.796875 62 23.09375 62.703125 
Q 25.40625 63.40625 27.90625 63.40625 
Q 33.09375 63.40625 36.4375 60.65625 
Q 39.796875 57.90625 39.796875 52.5 
Q 39.796875 47.09375 36.5 44.09375 
Q 33.203125 41.09375 28.09375 41.09375 
Q 25.5 41.09375 23.203125 41.796875 
Q 20.90625 42.5 19.203125 43.890625 
Q 17.5 45.296875 16.5 47.4375 
Q 15.5 49.59375 15.5 52.5 
z
M 6.5 52.796875 
Q 6.5 48 9.203125 43.953125 
Q 11.90625 39.90625 16.40625 38.09375 
Q 10.40625 36 7.203125 31.34375 
Q 4 26.703125 4 20.40625 
Q 4 15 5.84375 10.953125 
Q 7.703125 6.90625 10.953125 4.203125 
Q 14.203125 1.5 18.59375 0.203125 
Q 23 -1.09375 28.09375 -1.09375 
Q 33 -1.09375 37.296875 0.296875 
Q 41.59375 1.703125 44.75 4.453125 
Q 47.90625 7.203125 49.75 11.203125 
Q 51.59375 15.203125 51.59375 20.40625 
Q 51.59375 27 48.5 31.546875 
Q 45.40625 36.09375 39 38.09375 
Q 43.5 40.09375 46.140625 44.046875 
Q 48.796875 48 48.796875 52.796875 
Q 48.796875 56.203125 47.59375 59.453125 
Q 46.40625 62.703125 43.84375 65.25 
Q 41.296875 67.796875 37.1875 69.34375 
Q 33.09375 70.90625 27.296875 70.90625 
Q 23.203125 70.90625 19.453125 69.703125 
Q 15.703125 68.5 12.796875 66.203125 
Q 9.90625 63.90625 8.203125 60.546875 
Q 6.5 57.203125 6.5 52.796875 
z
M 13 20 
Q 13 23.09375 14.140625 25.59375 
Q 15.296875 28.09375 17.34375 29.890625 
Q 19.40625 31.703125 22.15625 32.640625 
Q 24.90625 33.59375 28 33.59375 
Q 31 33.59375 33.640625 32.546875 
Q 36.296875 31.5 38.296875 29.703125 
Q 40.296875 27.90625 41.4375 25.453125 
Q 42.59375 23 42.59375 20.09375 
Q 42.59375 17.09375 41.546875 14.59375 
Q 40.5 12.09375 38.546875 10.25 
Q 36.59375 8.40625 33.9375 7.34375 
Q 31.296875 6.296875 28.09375 6.296875 
Q 21.5 6.296875 17.25 9.9375 
Q 13 13.59375 13 20 
z
" id="HelveticaNeue-38"/>
      </defs>
      <g transform="translate(111.770065 166.580625)scale(0.1 -0.1)">
       <use xlink:href="#HelveticaNeue-38"/>
      </g>
     </g>
    </g>
    <g id="xtick_4">
     <g id="line2d_4">
      <g>
       <use style="stroke:#000000;stroke-width:0.8;" x="141.710083" xlink:href="#m952e0415a4" y="152.44"/>
      </g>
     </g>
     <g id="text_4">
      <!-- 10 -->
      <defs>
       <path d="M 35.59375 0 
L 35.59375 70.90625 
L 29.09375 70.90625 
Q 28.40625 66.90625 26.5 64.296875 
Q 24.59375 61.703125 21.84375 60.203125 
Q 19.09375 58.703125 15.6875 58.140625 
Q 12.296875 57.59375 8.703125 57.59375 
L 8.703125 50.796875 
L 27.09375 50.796875 
L 27.09375 0 
z
" id="HelveticaNeue-31"/>
       <path d="M 13.203125 34.90625 
Q 13.203125 37.5 13.25 40.640625 
Q 13.296875 43.796875 13.75 46.9375 
Q 14.203125 50.09375 15.046875 53.09375 
Q 15.90625 56.09375 17.546875 58.34375 
Q 19.203125 60.59375 21.703125 62 
Q 24.203125 63.40625 27.796875 63.40625 
Q 31.40625 63.40625 33.90625 62 
Q 36.40625 60.59375 38.046875 58.34375 
Q 39.703125 56.09375 40.546875 53.09375 
Q 41.40625 50.09375 41.84375 46.9375 
Q 42.296875 43.796875 42.34375 40.640625 
Q 42.40625 37.5 42.40625 34.90625 
Q 42.40625 30.90625 42.15625 25.953125 
Q 41.90625 21 40.546875 16.640625 
Q 39.203125 12.296875 36.203125 9.296875 
Q 33.203125 6.296875 27.796875 6.296875 
Q 22.40625 6.296875 19.40625 9.296875 
Q 16.40625 12.296875 15.046875 16.640625 
Q 13.703125 21 13.453125 25.953125 
Q 13.203125 30.90625 13.203125 34.90625 
z
M 4.203125 34.796875 
Q 4.203125 30.90625 4.390625 26.703125 
Q 4.59375 22.5 5.390625 18.5 
Q 6.203125 14.5 7.703125 10.953125 
Q 9.203125 7.40625 11.796875 4.703125 
Q 14.40625 2 18.34375 0.453125 
Q 22.296875 -1.09375 27.796875 -1.09375 
Q 33.40625 -1.09375 37.296875 0.453125 
Q 41.203125 2 43.796875 4.703125 
Q 46.40625 7.40625 47.90625 10.953125 
Q 49.40625 14.5 50.203125 18.5 
Q 51 22.5 51.203125 26.703125 
Q 51.40625 30.90625 51.40625 34.796875 
Q 51.40625 38.703125 51.203125 42.890625 
Q 51 47.09375 50.203125 51.09375 
Q 49.40625 55.09375 47.90625 58.6875 
Q 46.40625 62.296875 43.796875 65 
Q 41.203125 67.703125 37.25 69.296875 
Q 33.296875 70.90625 27.796875 70.90625 
Q 22.296875 70.90625 18.34375 69.296875 
Q 14.40625 67.703125 11.796875 65 
Q 9.203125 62.296875 7.703125 58.6875 
Q 6.203125 55.09375 5.390625 51.09375 
Q 4.59375 47.09375 4.390625 42.890625 
Q 4.203125 38.703125 4.203125 34.796875 
z
" id="HelveticaNeue-30"/>
      </defs>
      <g transform="translate(136.150708 166.580625)scale(0.1 -0.1)">
       <use xlink:href="#HelveticaNeue-31"/>
       <use x="55.599991" xlink:href="#HelveticaNeue-30"/>
      </g>
     </g>
    </g>
    <g id="xtick_5">
     <g id="line2d_5">
      <g>
       <use style="stroke:#000000;stroke-width:0.8;" x="168.870413" xlink:href="#m952e0415a4" y="152.44"/>
      </g>
     </g>
     <g id="text_5">
      <!-- 12 -->
      <defs>
       <path d="M 4.40625 45.796875 
L 12.90625 45.796875 
Q 12.796875 49 13.546875 52.140625 
Q 14.296875 55.296875 16 57.796875 
Q 17.703125 60.296875 20.34375 61.84375 
Q 23 63.40625 26.703125 63.40625 
Q 29.5 63.40625 32 62.5 
Q 34.5 61.59375 36.34375 59.890625 
Q 38.203125 58.203125 39.296875 55.84375 
Q 40.40625 53.5 40.40625 50.59375 
Q 40.40625 46.90625 39.25 44.09375 
Q 38.09375 41.296875 35.84375 38.890625 
Q 33.59375 36.5 30.1875 34.140625 
Q 26.796875 31.796875 22.296875 29 
Q 18.59375 26.796875 15.1875 24.296875 
Q 11.796875 21.796875 9.09375 18.5 
Q 6.40625 15.203125 4.65625 10.75 
Q 2.90625 6.296875 2.40625 0 
L 48.703125 0 
L 48.703125 7.5 
L 12.296875 7.5 
Q 12.90625 10.796875 14.84375 13.34375 
Q 16.796875 15.90625 19.546875 18.09375 
Q 22.296875 20.296875 25.59375 22.25 
Q 28.90625 24.203125 32.203125 26.203125 
Q 35.5 28.296875 38.59375 30.59375 
Q 41.703125 32.90625 44.09375 35.75 
Q 46.5 38.59375 47.953125 42.1875 
Q 49.40625 45.796875 49.40625 50.5 
Q 49.40625 55.5 47.65625 59.296875 
Q 45.90625 63.09375 42.90625 65.640625 
Q 39.90625 68.203125 35.84375 69.546875 
Q 31.796875 70.90625 27.203125 70.90625 
Q 21.59375 70.90625 17.1875 69 
Q 12.796875 67.09375 9.84375 63.75 
Q 6.90625 60.40625 5.5 55.796875 
Q 4.09375 51.203125 4.40625 45.796875 
z
" id="HelveticaNeue-32"/>
      </defs>
      <g transform="translate(163.311038 166.580625)scale(0.1 -0.1)">
       <use xlink:href="#HelveticaNeue-31"/>
       <use x="55.599991" xlink:href="#HelveticaNeue-32"/>
      </g>
     </g>
    </g>
    <g id="xtick_6">
     <g id="line2d_6">
      <g>
       <use style="stroke:#000000;stroke-width:0.8;" x="196.030744" xlink:href="#m952e0415a4" y="152.44"/>
      </g>
     </g>
     <g id="text_6">
      <!-- 14 -->
      <g transform="translate(190.471369 166.580625)scale(0.1 -0.1)">
       <use xlink:href="#HelveticaNeue-31"/>
       <use x="55.599991" xlink:href="#HelveticaNeue-34"/>
      </g>
     </g>
    </g>
    <g id="text_7">
     <!-- $K$ (number of shells) -->
     <defs>
      <path d="M 72.90625 66.203125 
L 72.40625 64.5 
L 34.59375 35.703125 
L 63 0 
L 51.09375 0 
L 27 30.203125 
L 22.796875 26.90625 
L 16.09375 0 
L 7.40625 0 
L 23.90625 66.203125 
L 32.59375 66.203125 
L 25.40625 37.5 
L 63.40625 66.203125 
z
" id="STIXGeneral-Italic-1d612"/>
      <path id="HelveticaNeue-20"/>
      <path d="M 20.40625 -19.703125 
L 26.90625 -19.703125 
Q 19.796875 -8.203125 16.75 3.09375 
Q 13.703125 14.40625 13.703125 27 
Q 13.703125 39.296875 16.703125 50.5 
Q 19.703125 61.703125 26.90625 73.09375 
L 20.40625 73.09375 
Q 12.59375 62.796875 8.640625 50.796875 
Q 4.703125 38.796875 4.703125 27 
Q 4.703125 20.40625 5.796875 14.40625 
Q 6.90625 8.40625 8.953125 2.703125 
Q 11 -3 13.890625 -8.546875 
Q 16.796875 -14.09375 20.40625 -19.703125 
z
" id="HelveticaNeue-28"/>
      <path d="M 6.40625 51.703125 
L 6.40625 0 
L 14.90625 0 
L 14.90625 29.203125 
Q 14.90625 32.703125 15.84375 35.640625 
Q 16.796875 38.59375 18.6875 40.796875 
Q 20.59375 43 23.4375 44.203125 
Q 26.296875 45.40625 30.203125 45.40625 
Q 35.09375 45.40625 37.890625 42.59375 
Q 40.703125 39.796875 40.703125 35 
L 40.703125 0 
L 49.203125 0 
L 49.203125 34 
Q 49.203125 38.203125 48.34375 41.640625 
Q 47.5 45.09375 45.390625 47.59375 
Q 43.296875 50.09375 39.890625 51.5 
Q 36.5 52.90625 31.40625 52.90625 
Q 19.90625 52.90625 14.59375 43.5 
L 14.40625 43.5 
L 14.40625 51.703125 
z
" id="HelveticaNeue-6e"/>
      <path d="M 49.203125 0 
L 49.203125 51.703125 
L 40.703125 51.703125 
L 40.703125 22.5 
Q 40.703125 19 39.75 16.046875 
Q 38.796875 13.09375 36.890625 10.890625 
Q 35 8.703125 32.140625 7.5 
Q 29.296875 6.296875 25.40625 6.296875 
Q 20.5 6.296875 17.703125 9.09375 
Q 14.90625 11.90625 14.90625 16.703125 
L 14.90625 51.703125 
L 6.40625 51.703125 
L 6.40625 17.703125 
Q 6.40625 13.5 7.25 10.046875 
Q 8.09375 6.59375 10.1875 4.09375 
Q 12.296875 1.59375 15.6875 0.25 
Q 19.09375 -1.09375 24.203125 -1.09375 
Q 29.90625 -1.09375 34.09375 1.15625 
Q 38.296875 3.40625 41 8.203125 
L 41.203125 8.203125 
L 41.203125 0 
z
" id="HelveticaNeue-75"/>
      <path d="M 6.40625 51.703125 
L 6.40625 0 
L 14.90625 0 
L 14.90625 32.203125 
Q 14.90625 33.703125 15.65625 35.953125 
Q 16.40625 38.203125 18.046875 40.296875 
Q 19.703125 42.40625 22.34375 43.90625 
Q 25 45.40625 28.703125 45.40625 
Q 31.59375 45.40625 33.4375 44.546875 
Q 35.296875 43.703125 36.390625 42.140625 
Q 37.5 40.59375 37.953125 38.5 
Q 38.40625 36.40625 38.40625 33.90625 
L 38.40625 0 
L 46.90625 0 
L 46.90625 32.203125 
Q 46.90625 38.203125 50.5 41.796875 
Q 54.09375 45.40625 60.40625 45.40625 
Q 63.5 45.40625 65.453125 44.5 
Q 67.40625 43.59375 68.5 42.046875 
Q 69.59375 40.5 70 38.390625 
Q 70.40625 36.296875 70.40625 33.90625 
L 70.40625 0 
L 78.90625 0 
L 78.90625 37.90625 
Q 78.90625 41.90625 77.65625 44.75 
Q 76.40625 47.59375 74.15625 49.390625 
Q 71.90625 51.203125 68.75 52.046875 
Q 65.59375 52.90625 61.703125 52.90625 
Q 56.59375 52.90625 52.34375 50.59375 
Q 48.09375 48.296875 45.5 44.09375 
Q 43.90625 48.90625 40 50.90625 
Q 36.09375 52.90625 31.296875 52.90625 
Q 20.40625 52.90625 14.59375 44.09375 
L 14.40625 44.09375 
L 14.40625 51.703125 
z
" id="HelveticaNeue-6d"/>
      <path d="M 6.703125 71.40625 
L 6.703125 0 
L 15.203125 0 
L 15.203125 6.90625 
L 15.40625 6.90625 
Q 16.796875 4.59375 18.84375 3.046875 
Q 20.90625 1.5 23.203125 0.59375 
Q 25.5 -0.296875 27.84375 -0.6875 
Q 30.203125 -1.09375 32.09375 -1.09375 
Q 38 -1.09375 42.453125 1 
Q 46.90625 3.09375 49.84375 6.75 
Q 52.796875 10.40625 54.25 15.296875 
Q 55.703125 20.203125 55.703125 25.703125 
Q 55.703125 31.203125 54.203125 36.09375 
Q 52.703125 41 49.75 44.75 
Q 46.796875 48.5 42.34375 50.703125 
Q 37.90625 52.90625 31.90625 52.90625 
Q 26.5 52.90625 22 50.953125 
Q 17.5 49 15.40625 44.703125 
L 15.203125 44.703125 
L 15.203125 71.40625 
z
M 46.703125 26.296875 
Q 46.703125 22.5 45.890625 18.890625 
Q 45.09375 15.296875 43.296875 12.5 
Q 41.5 9.703125 38.546875 8 
Q 35.59375 6.296875 31.203125 6.296875 
Q 26.796875 6.296875 23.6875 7.9375 
Q 20.59375 9.59375 18.640625 12.296875 
Q 16.703125 15 15.796875 18.546875 
Q 14.90625 22.09375 14.90625 25.90625 
Q 14.90625 29.5 15.75 33 
Q 16.59375 36.5 18.5 39.25 
Q 20.40625 42 23.40625 43.703125 
Q 26.40625 45.40625 30.703125 45.40625 
Q 34.796875 45.40625 37.84375 43.796875 
Q 40.90625 42.203125 42.84375 39.5 
Q 44.796875 36.796875 45.75 33.34375 
Q 46.703125 29.90625 46.703125 26.296875 
z
" id="HelveticaNeue-62"/>
      <path d="M 42.296875 30.796875 
L 12.59375 30.796875 
Q 12.796875 33.796875 13.890625 36.4375 
Q 15 39.09375 16.890625 41.09375 
Q 18.796875 43.09375 21.4375 44.25 
Q 24.09375 45.40625 27.40625 45.40625 
Q 30.59375 45.40625 33.25 44.25 
Q 35.90625 43.09375 37.84375 41.140625 
Q 39.796875 39.203125 40.9375 36.5 
Q 42.09375 33.796875 42.296875 30.796875 
z
M 50.5 16.40625 
L 42.09375 16.40625 
Q 41 11.296875 37.546875 8.796875 
Q 34.09375 6.296875 28.703125 6.296875 
Q 24.5 6.296875 21.390625 7.6875 
Q 18.296875 9.09375 16.296875 11.4375 
Q 14.296875 13.796875 13.390625 16.84375 
Q 12.5 19.90625 12.59375 23.296875 
L 51.296875 23.296875 
Q 51.5 28 50.453125 33.203125 
Q 49.40625 38.40625 46.65625 42.796875 
Q 43.90625 47.203125 39.34375 50.046875 
Q 34.796875 52.90625 27.90625 52.90625 
Q 22.59375 52.90625 18.140625 50.90625 
Q 13.703125 48.90625 10.453125 45.296875 
Q 7.203125 41.703125 5.390625 36.796875 
Q 3.59375 31.90625 3.59375 26 
Q 3.796875 20.09375 5.34375 15.09375 
Q 6.90625 10.09375 10 6.5 
Q 13.09375 2.90625 17.640625 0.90625 
Q 22.203125 -1.09375 28.40625 -1.09375 
Q 37.203125 -1.09375 43 3.296875 
Q 48.796875 7.703125 50.5 16.40625 
z
" id="HelveticaNeue-65"/>
      <path d="M 6.09375 51.703125 
L 6.09375 0 
L 14.59375 0 
L 14.59375 23 
Q 14.59375 28 15.59375 31.84375 
Q 16.59375 35.703125 18.796875 38.390625 
Q 21 41.09375 24.59375 42.5 
Q 28.203125 43.90625 33.296875 43.90625 
L 33.296875 52.90625 
Q 26.40625 53.09375 21.90625 50.09375 
Q 17.40625 47.09375 14.296875 40.796875 
L 14.09375 40.796875 
L 14.09375 51.703125 
z
" id="HelveticaNeue-72"/>
      <path d="M 12.59375 25.796875 
Q 12.59375 30.5 13.84375 34.140625 
Q 15.09375 37.796875 17.296875 40.296875 
Q 19.5 42.796875 22.453125 44.09375 
Q 25.40625 45.40625 28.703125 45.40625 
Q 32 45.40625 34.953125 44.09375 
Q 37.90625 42.796875 40.09375 40.296875 
Q 42.296875 37.796875 43.546875 34.140625 
Q 44.796875 30.5 44.796875 25.796875 
Q 44.796875 21.09375 43.546875 17.4375 
Q 42.296875 13.796875 40.09375 11.34375 
Q 37.90625 8.90625 34.953125 7.59375 
Q 32 6.296875 28.703125 6.296875 
Q 25.40625 6.296875 22.453125 7.59375 
Q 19.5 8.90625 17.296875 11.34375 
Q 15.09375 13.796875 13.84375 17.4375 
Q 12.59375 21.09375 12.59375 25.796875 
z
M 3.59375 25.796875 
Q 3.59375 20.09375 5.1875 15.1875 
Q 6.796875 10.296875 10 6.640625 
Q 13.203125 3 17.890625 0.953125 
Q 22.59375 -1.09375 28.703125 -1.09375 
Q 34.90625 -1.09375 39.546875 0.953125 
Q 44.203125 3 47.390625 6.640625 
Q 50.59375 10.296875 52.1875 15.1875 
Q 53.796875 20.09375 53.796875 25.796875 
Q 53.796875 31.5 52.1875 36.453125 
Q 50.59375 41.40625 47.390625 45.046875 
Q 44.203125 48.703125 39.546875 50.796875 
Q 34.90625 52.90625 28.703125 52.90625 
Q 22.59375 52.90625 17.890625 50.796875 
Q 13.203125 48.703125 10 45.046875 
Q 6.796875 41.40625 5.1875 36.453125 
Q 3.59375 31.5 3.59375 25.796875 
z
" id="HelveticaNeue-6f"/>
      <path d="M 9.90625 44.203125 
L 9.90625 0 
L 18.40625 0 
L 18.40625 44.203125 
L 28.40625 44.203125 
L 28.40625 51.703125 
L 18.40625 51.703125 
L 18.40625 58.90625 
Q 18.40625 62.296875 20.09375 63.5 
Q 21.796875 64.703125 24.90625 64.703125 
Q 26 64.703125 27.296875 64.546875 
Q 28.59375 64.40625 29.703125 64 
L 29.703125 71.40625 
Q 28.5 71.796875 26.953125 72 
Q 25.40625 72.203125 24.203125 72.203125 
Q 17.203125 72.203125 13.546875 68.953125 
Q 9.90625 65.703125 9.90625 59.40625 
L 9.90625 51.703125 
L 1.203125 51.703125 
L 1.203125 44.203125 
z
" id="HelveticaNeue-66"/>
      <path d="M 11.59375 16.296875 
L 3.09375 16.296875 
Q 3.296875 11.5 5.09375 8.140625 
Q 6.90625 4.796875 9.90625 2.75 
Q 12.90625 0.703125 16.796875 -0.1875 
Q 20.703125 -1.09375 25 -1.09375 
Q 28.90625 -1.09375 32.84375 -0.34375 
Q 36.796875 0.40625 39.9375 2.296875 
Q 43.09375 4.203125 45.046875 7.296875 
Q 47 10.40625 47 15.09375 
Q 47 18.796875 45.546875 21.296875 
Q 44.09375 23.796875 41.75 25.4375 
Q 39.40625 27.09375 36.34375 28.09375 
Q 33.296875 29.09375 30.09375 29.796875 
Q 27.09375 30.5 24.09375 31.140625 
Q 21.09375 31.796875 18.6875 32.75 
Q 16.296875 33.703125 14.75 35.140625 
Q 13.203125 36.59375 13.203125 38.796875 
Q 13.203125 40.796875 14.203125 42.046875 
Q 15.203125 43.296875 16.796875 44.046875 
Q 18.40625 44.796875 20.34375 45.09375 
Q 22.296875 45.40625 24.203125 45.40625 
Q 26.296875 45.40625 28.34375 44.953125 
Q 30.40625 44.5 32.09375 43.5 
Q 33.796875 42.5 34.890625 40.84375 
Q 36 39.203125 36.203125 36.703125 
L 44.703125 36.703125 
Q 44.40625 41.40625 42.703125 44.546875 
Q 41 47.703125 38.140625 49.546875 
Q 35.296875 51.40625 31.59375 52.15625 
Q 27.90625 52.90625 23.5 52.90625 
Q 20.09375 52.90625 16.640625 52.046875 
Q 13.203125 51.203125 10.453125 49.453125 
Q 7.703125 47.703125 5.953125 44.890625 
Q 4.203125 42.09375 4.203125 38.203125 
Q 4.203125 33.203125 6.703125 30.390625 
Q 9.203125 27.59375 12.953125 26.046875 
Q 16.703125 24.5 21.09375 23.640625 
Q 25.5 22.796875 29.25 21.75 
Q 33 20.703125 35.5 19 
Q 38 17.296875 38 14 
Q 38 11.59375 36.796875 10.046875 
Q 35.59375 8.5 33.75 7.703125 
Q 31.90625 6.90625 29.703125 6.59375 
Q 27.5 6.296875 25.5 6.296875 
Q 22.90625 6.296875 20.453125 6.796875 
Q 18 7.296875 16.046875 8.4375 
Q 14.09375 9.59375 12.890625 11.546875 
Q 11.703125 13.5 11.59375 16.296875 
z
" id="HelveticaNeue-73"/>
      <path d="M 6.40625 71.40625 
L 6.40625 0 
L 14.90625 0 
L 14.90625 29.203125 
Q 14.90625 32.703125 15.84375 35.640625 
Q 16.796875 38.59375 18.6875 40.796875 
Q 20.59375 43 23.4375 44.203125 
Q 26.296875 45.40625 30.203125 45.40625 
Q 35.09375 45.40625 37.890625 42.59375 
Q 40.703125 39.796875 40.703125 35 
L 40.703125 0 
L 49.203125 0 
L 49.203125 34 
Q 49.203125 38.203125 48.34375 41.640625 
Q 47.5 45.09375 45.390625 47.59375 
Q 43.296875 50.09375 39.890625 51.5 
Q 36.5 52.90625 31.40625 52.90625 
Q 29.09375 52.90625 26.640625 52.40625 
Q 24.203125 51.90625 21.953125 50.84375 
Q 19.703125 49.796875 17.890625 48.140625 
Q 16.09375 46.5 15.09375 44.09375 
L 14.90625 44.09375 
L 14.90625 71.40625 
z
" id="HelveticaNeue-68"/>
      <path d="M 6.90625 71.40625 
L 6.90625 0 
L 15.40625 0 
L 15.40625 71.40625 
z
" id="HelveticaNeue-6c"/>
      <path d="M -0.90625 -19.703125 
L 5.5 -19.703125 
Q 13.296875 -9.40625 17.25 2.546875 
Q 21.203125 14.5 21.203125 26.296875 
Q 21.203125 32.90625 20.09375 38.90625 
Q 19 44.90625 16.953125 50.65625 
Q 14.90625 56.40625 12 61.953125 
Q 9.09375 67.5 5.5 73.09375 
L -0.90625 73.09375 
Q 6.09375 61.59375 9.140625 50.25 
Q 12.203125 38.90625 12.203125 26.296875 
Q 12.203125 14.09375 9.203125 2.84375 
Q 6.203125 -8.40625 -0.90625 -19.703125 
z
" id="HelveticaNeue-29"/>
     </defs>
     <g transform="translate(90.77 179.950938)scale(0.1 -0.1)">
      <use transform="translate(0 0.90625)" xlink:href="#STIXGeneral-Italic-1d612"/>
      <use transform="translate(63.399994 0.90625)" xlink:href="#HelveticaNeue-20"/>
      <use transform="translate(91.199982 0.90625)" xlink:href="#HelveticaNeue-28"/>
      <use transform="translate(117.099976 0.90625)" xlink:href="#HelveticaNeue-6e"/>
      <use transform="translate(172.699966 0.90625)" xlink:href="#HelveticaNeue-75"/>
      <use transform="translate(228.299957 0.90625)" xlink:href="#HelveticaNeue-6d"/>
      <use transform="translate(313.599945 0.90625)" xlink:href="#HelveticaNeue-62"/>
      <use transform="translate(372.899933 0.90625)" xlink:href="#HelveticaNeue-65"/>
      <use transform="translate(426.59993 0.90625)" xlink:href="#HelveticaNeue-72"/>
      <use transform="translate(459.899918 0.90625)" xlink:href="#HelveticaNeue-20"/>
      <use transform="translate(487.699905 0.90625)" xlink:href="#HelveticaNeue-6f"/>
      <use transform="translate(545.099899 0.90625)" xlink:href="#HelveticaNeue-66"/>
      <use transform="translate(574.69989 0.90625)" xlink:href="#HelveticaNeue-20"/>
      <use transform="translate(602.499878 0.90625)" xlink:href="#HelveticaNeue-73"/>
      <use transform="translate(652.499863 0.90625)" xlink:href="#HelveticaNeue-68"/>
      <use transform="translate(708.099854 0.90625)" xlink:href="#HelveticaNeue-65"/>
      <use transform="translate(761.79985 0.90625)" xlink:href="#HelveticaNeue-6c"/>
      <use transform="translate(783.999847 0.90625)" xlink:href="#HelveticaNeue-6c"/>
      <use transform="translate(806.199844 0.90625)" xlink:href="#HelveticaNeue-73"/>
      <use transform="translate(856.199829 0.90625)" xlink:href="#HelveticaNeue-29"/>
     </g>
    </g>
   </g>
   <g id="matplotlib.axis_2">
    <g id="ytick_1">
     <g id="line2d_7">
      <defs>
       <path d="M 0 0 
L -3.5 0 
" id="m11f91c9850" style="stroke:#000000;stroke-width:0.8;"/>
      </defs>
      <g>
       <use style="stroke:#000000;stroke-width:0.8;" x="52.76" xlink:href="#m11f91c9850" y="138.909257"/>
      </g>
     </g>
     <g id="text_8">
      <!-- 20.2 -->
      <defs>
       <path d="M 8.296875 11.09375 
L 8.296875 0 
L 19.40625 0 
L 19.40625 11.09375 
z
" id="HelveticaNeue-2e"/>
      </defs>
      <g transform="translate(26.302187 142.479569)scale(0.1 -0.1)">
       <use xlink:href="#HelveticaNeue-32"/>
       <use x="55.599991" xlink:href="#HelveticaNeue-30"/>
       <use x="111.199982" xlink:href="#HelveticaNeue-2e"/>
       <use x="138.999969" xlink:href="#HelveticaNeue-32"/>
      </g>
     </g>
    </g>
    <g id="ytick_2">
     <g id="line2d_8">
      <g>
       <use style="stroke:#000000;stroke-width:0.8;" x="52.76" xlink:href="#m11f91c9850" y="96.834276"/>
      </g>
     </g>
     <g id="text_9">
      <!-- 20.4 -->
      <g transform="translate(26.302187 100.404589)scale(0.1 -0.1)">
       <use xlink:href="#HelveticaNeue-32"/>
       <use x="55.599991" xlink:href="#HelveticaNeue-30"/>
       <use x="111.199982" xlink:href="#HelveticaNeue-2e"/>
       <use x="138.999969" xlink:href="#HelveticaNeue-34"/>
      </g>
     </g>
    </g>
    <g id="ytick_3">
     <g id="line2d_9">
      <g>
       <use style="stroke:#000000;stroke-width:0.8;" x="52.76" xlink:href="#m11f91c9850" y="54.759295"/>
      </g>
     </g>
     <g id="text_10">
      <!-- 20.6 -->
      <g transform="translate(26.302187 58.329608)scale(0.1 -0.1)">
       <use xlink:href="#HelveticaNeue-32"/>
       <use x="55.599991" xlink:href="#HelveticaNeue-30"/>
       <use x="111.199982" xlink:href="#HelveticaNeue-2e"/>
       <use x="138.999969" xlink:href="#HelveticaNeue-36"/>
      </g>
     </g>
    </g>
    <g id="text_11">
     <!-- $E$ (energy) -->
     <defs>
      <path d="M 67.796875 66.203125 
L 65.90625 58.796875 
L 30.703125 58.796875 
L 25.703125 38.59375 
L 56.203125 38.59375 
L 54.296875 31.09375 
L 23.796875 31.09375 
L 17.90625 7.40625 
L 55.796875 7.40625 
L 52.296875 0 
L 7.40625 0 
L 23.90625 66.203125 
z
" id="STIXGeneral-Italic-1d60c"/>
      <path d="M 51 4.40625 
L 51 51.703125 
L 43 51.703125 
L 43 44.296875 
L 42.90625 44.296875 
Q 40.59375 48.59375 36.5 50.75 
Q 32.40625 52.90625 27.5 52.90625 
Q 20.796875 52.90625 16.1875 50.34375 
Q 11.59375 47.796875 8.796875 43.84375 
Q 6 39.90625 4.796875 35.046875 
Q 3.59375 30.203125 3.59375 25.59375 
Q 3.59375 20.296875 5.046875 15.546875 
Q 6.5 10.796875 9.390625 7.25 
Q 12.296875 3.703125 16.59375 1.59375 
Q 20.90625 -0.5 26.703125 -0.5 
Q 31.703125 -0.5 36.140625 1.75 
Q 40.59375 4 42.796875 8.796875 
L 43 8.796875 
L 43 5.40625 
Q 43 1.09375 42.140625 -2.5 
Q 41.296875 -6.09375 39.390625 -8.640625 
Q 37.5 -11.203125 34.59375 -12.640625 
Q 31.703125 -14.09375 27.5 -14.09375 
Q 25.40625 -14.09375 23.09375 -13.640625 
Q 20.796875 -13.203125 18.84375 -12.203125 
Q 16.90625 -11.203125 15.546875 -9.59375 
Q 14.203125 -8 14.09375 -5.703125 
L 5.59375 -5.703125 
Q 5.796875 -9.90625 7.796875 -12.796875 
Q 9.796875 -15.703125 12.84375 -17.5 
Q 15.90625 -19.296875 19.65625 -20.09375 
Q 23.40625 -20.90625 27 -20.90625 
Q 39.40625 -20.90625 45.203125 -14.59375 
Q 51 -8.296875 51 4.40625 
z
M 27.203125 6.90625 
Q 23 6.90625 20.203125 8.65625 
Q 17.40625 10.40625 15.703125 13.25 
Q 14 16.09375 13.296875 19.59375 
Q 12.59375 23.09375 12.59375 26.59375 
Q 12.59375 30.296875 13.4375 33.6875 
Q 14.296875 37.09375 16.140625 39.6875 
Q 18 42.296875 20.890625 43.84375 
Q 23.796875 45.40625 27.90625 45.40625 
Q 31.90625 45.40625 34.703125 43.796875 
Q 37.5 42.203125 39.25 39.546875 
Q 41 36.90625 41.796875 33.59375 
Q 42.59375 30.296875 42.59375 26.90625 
Q 42.59375 23.296875 41.75 19.6875 
Q 40.90625 16.09375 39.09375 13.25 
Q 37.296875 10.40625 34.34375 8.65625 
Q 31.40625 6.90625 27.203125 6.90625 
z
" id="HelveticaNeue-67"/>
      <path d="M 26.703125 -6.90625 
Q 25.203125 -10.703125 23.75 -13.296875 
Q 22.296875 -15.90625 20.546875 -17.546875 
Q 18.796875 -19.203125 16.640625 -19.953125 
Q 14.5 -20.703125 11.703125 -20.703125 
Q 10.203125 -20.703125 8.703125 -20.5 
Q 7.203125 -20.296875 5.796875 -19.796875 
L 5.796875 -12 
Q 6.90625 -12.5 8.34375 -12.84375 
Q 9.796875 -13.203125 10.796875 -13.203125 
Q 13.40625 -13.203125 15.15625 -11.953125 
Q 16.90625 -10.703125 17.796875 -8.40625 
L 21.296875 0.296875 
L 0.796875 51.703125 
L 10.40625 51.703125 
L 25.5 9.40625 
L 25.703125 9.40625 
L 40.203125 51.703125 
L 49.203125 51.703125 
z
" id="HelveticaNeue-79"/>
     </defs>
     <g transform="translate(20.202187 104.98)rotate(-90)scale(0.1 -0.1)">
      <use transform="translate(0 0.90625)" xlink:href="#STIXGeneral-Italic-1d60c"/>
      <use transform="translate(58.299988 0.90625)" xlink:href="#HelveticaNeue-20"/>
      <use transform="translate(86.099976 0.90625)" xlink:href="#HelveticaNeue-28"/>
      <use transform="translate(111.999969 0.90625)" xlink:href="#HelveticaNeue-65"/>
      <use transform="translate(165.699966 0.90625)" xlink:href="#HelveticaNeue-6e"/>
      <use transform="translate(221.299957 0.90625)" xlink:href="#HelveticaNeue-65"/>
      <use transform="translate(274.999954 0.90625)" xlink:href="#HelveticaNeue-72"/>
      <use transform="translate(308.299942 0.90625)" xlink:href="#HelveticaNeue-67"/>
      <use transform="translate(365.699936 0.90625)" xlink:href="#HelveticaNeue-79"/>
      <use transform="translate(415.699921 0.90625)" xlink:href="#HelveticaNeue-29"/>
     </g>
    </g>
   </g>
   <g id="line2d_10">
    <path clip-path="url(#p7d16ccb373)" d="M 73.809256 111.268295 
L 87.389421 123.500003 
L 100.969587 128.587435 
L 114.549752 131.790323 
L 128.129917 133.962965 
L 141.710083 135.5163 
L 155.290248 136.684645 
L 168.870413 137.592837 
L 182.450579 138.318872 
L 196.030744 138.912217 
L 209.610909 139.405858 
" style="fill:none;stroke:#428ff4;stroke-linecap:square;stroke-width:1.5;"/>
    <defs>
     <path d="M 0 2.5 
C 0.663008 2.5 1.29895 2.236584 1.767767 1.767767 
C 2.236584 1.29895 2.5 0.663008 2.5 0 
C 2.5 -0.663008 2.236584 -1.29895 1.767767 -1.767767 
C 1.29895 -2.236584 0.663008 -2.5 0 -2.5 
C -0.663008 -2.5 -1.29895 -2.236584 -1.767767 -1.767767 
C -2.236584 -1.29895 -2.5 -0.663008 -2.5 0 
C -2.5 0.663008 -2.236584 1.29895 -1.767767 1.767767 
C -1.29895 2.236584 -0.663008 2.5 0 2.5 
z
" id="m2828653cc7" style="stroke:#428ff4;"/>
    </defs>
    <g clip-path="url(#p7d16ccb373)">
     <use style="fill:none;stroke:#428ff4;" x="73.809256" xlink:href="#m2828653cc7" y="111.268295"/>
     <use style="fill:none;stroke:#428ff4;" x="87.389421" xlink:href="#m2828653cc7" y="123.500003"/>
     <use style="fill:none;stroke:#428ff4;" x="100.969587" xlink:href="#m2828653cc7" y="128.587435"/>
     <use style="fill:none;stroke:#428ff4;" x="114.549752" xlink:href="#m2828653cc7" y="131.790323"/>
     <use style="fill:none;stroke:#428ff4;" x="128.129917" xlink:href="#m2828653cc7" y="133.962965"/>
     <use style="fill:none;stroke:#428ff4;" x="141.710083" xlink:href="#m2828653cc7" y="135.5163"/>
     <use style="fill:none;stroke:#428ff4;" x="155.290248" xlink:href="#m2828653cc7" y="136.684645"/>
     <use style="fill:none;stroke:#428ff4;" x="168.870413" xlink:href="#m2828653cc7" y="137.592837"/>
     <use style="fill:none;stroke:#428ff4;" x="182.450579" xlink:href="#m2828653cc7" y="138.318872"/>
     <use style="fill:none;stroke:#428ff4;" x="196.030744" xlink:href="#m2828653cc7" y="138.912217"/>
     <use style="fill:none;stroke:#428ff4;" x="209.610909" xlink:href="#m2828653cc7" y="139.405858"/>
    </g>
   </g>
   <g id="line2d_11">
    <path clip-path="url(#p7d16ccb373)" d="M 60.229091 93.50341 
L 73.809256 114.345462 
L 87.389421 126.876654 
L 100.969587 132.112675 
L 114.549752 135.453218 
" style="fill:none;stroke:#2e2360;stroke-linecap:square;stroke-width:1.5;"/>
    <defs>
     <path d="M -0 2.474874 
L 2.474874 0 
L 0 -2.474874 
L -2.474874 -0 
z
" id="m1bd0a12574" style="stroke:#2e2360;stroke-linejoin:miter;"/>
    </defs>
    <g clip-path="url(#p7d16ccb373)">
     <use style="fill:none;stroke:#2e2360;stroke-linejoin:miter;" x="60.229091" xlink:href="#m1bd0a12574" y="93.50341"/>
     <use style="fill:none;stroke:#2e2360;stroke-linejoin:miter;" x="73.809256" xlink:href="#m1bd0a12574" y="114.345462"/>
     <use style="fill:none;stroke:#2e2360;stroke-linejoin:miter;" x="87.389421" xlink:href="#m1bd0a12574" y="126.876654"/>
     <use style="fill:none;stroke:#2e2360;stroke-linejoin:miter;" x="100.969587" xlink:href="#m1bd0a12574" y="132.112675"/>
     <use style="fill:none;stroke:#2e2360;stroke-linejoin:miter;" x="114.549752" xlink:href="#m1bd0a12574" y="135.453218"/>
    </g>
   </g>
   <g id="line2d_12">
    <path clip-path="url(#p7d16ccb373)" d="M 60.229091 19.643636 
L 73.809256 23.539186 
L 87.389421 29.460225 
L 100.969587 29.486635 
L 114.549752 29.672416 
L 128.129917 29.672472 
L 141.710083 29.679019 
L 155.290248 29.679361 
L 168.870413 29.679362 
L 182.450579 29.679436 
L 196.030744 29.679501 
L 209.610909 29.679504 
" style="fill:none;stroke:#b7ac12;stroke-linecap:square;stroke-width:1.5;"/>
    <defs>
     <path d="M 0 -2.5 
L -2.5 2.5 
L 2.5 2.5 
z
" id="m31bb1f5e6f" style="stroke:#b7ac12;stroke-linejoin:miter;"/>
    </defs>
    <g clip-path="url(#p7d16ccb373)">
     <use style="fill:none;stroke:#b7ac12;stroke-linejoin:miter;" x="60.229091" xlink:href="#m31bb1f5e6f" y="19.643636"/>
     <use style="fill:none;stroke:#b7ac12;stroke-linejoin:miter;" x="73.809256" xlink:href="#m31bb1f5e6f" y="23.539186"/>
     <use style="fill:none;stroke:#b7ac12;stroke-linejoin:miter;" x="87.389421" xlink:href="#m31bb1f5e6f" y="29.460225"/>
     <use style="fill:none;stroke:#b7ac12;stroke-linejoin:miter;" x="100.969587" xlink:href="#m31bb1f5e6f" y="29.486635"/>
     <use style="fill:none;stroke:#b7ac12;stroke-linejoin:miter;" x="114.549752" xlink:href="#m31bb1f5e6f" y="29.672416"/>
     <use style="fill:none;stroke:#b7ac12;stroke-linejoin:miter;" x="128.129917" xlink:href="#m31bb1f5e6f" y="29.672472"/>
     <use style="fill:none;stroke:#b7ac12;stroke-linejoin:miter;" x="141.710083" xlink:href="#m31bb1f5e6f" y="29.679019"/>
     <use style="fill:none;stroke:#b7ac12;stroke-linejoin:miter;" x="155.290248" xlink:href="#m31bb1f5e6f" y="29.679361"/>
     <use style="fill:none;stroke:#b7ac12;stroke-linejoin:miter;" x="168.870413" xlink:href="#m31bb1f5e6f" y="29.679362"/>
     <use style="fill:none;stroke:#b7ac12;stroke-linejoin:miter;" x="182.450579" xlink:href="#m31bb1f5e6f" y="29.679436"/>
     <use style="fill:none;stroke:#b7ac12;stroke-linejoin:miter;" x="196.030744" xlink:href="#m31bb1f5e6f" y="29.679501"/>
     <use style="fill:none;stroke:#b7ac12;stroke-linejoin:miter;" x="209.610909" xlink:href="#m31bb1f5e6f" y="29.679504"/>
    </g>
   </g>
   <g id="line2d_13">
    <path clip-path="url(#p7d16ccb373)" d="M 60.229091 95.358857 
L 73.809256 117.673464 
L 87.389421 129.950138 
L 100.969587 135.244802 
L 114.549752 138.491888 
L 128.129917 140.700243 
L 141.710083 142.257511 
L 155.290248 143.424803 
L 168.870413 144.3266 
L 182.450579 145.045053 
L 196.030744 145.630474 
L 209.610909 146.116364 
" style="fill:none;stroke:#3ec61b;stroke-linecap:square;stroke-width:1.5;"/>
    <defs>
     <path d="M -2.5 2.5 
L 2.5 -2.5 
M -2.5 -2.5 
L 2.5 2.5 
" id="m94da3dd548" style="stroke:#3ec61b;"/>
    </defs>
    <g clip-path="url(#p7d16ccb373)">
     <use style="fill:none;stroke:#3ec61b;" x="60.229091" xlink:href="#m94da3dd548" y="95.358857"/>
     <use style="fill:none;stroke:#3ec61b;" x="73.809256" xlink:href="#m94da3dd548" y="117.673464"/>
     <use style="fill:none;stroke:#3ec61b;" x="87.389421" xlink:href="#m94da3dd548" y="129.950138"/>
     <use style="fill:none;stroke:#3ec61b;" x="100.969587" xlink:href="#m94da3dd548" y="135.244802"/>
     <use style="fill:none;stroke:#3ec61b;" x="114.549752" xlink:href="#m94da3dd548" y="138.491888"/>
     <use style="fill:none;stroke:#3ec61b;" x="128.129917" xlink:href="#m94da3dd548" y="140.700243"/>
     <use style="fill:none;stroke:#3ec61b;" x="141.710083" xlink:href="#m94da3dd548" y="142.257511"/>
     <use style="fill:none;stroke:#3ec61b;" x="155.290248" xlink:href="#m94da3dd548" y="143.424803"/>
     <use style="fill:none;stroke:#3ec61b;" x="168.870413" xlink:href="#m94da3dd548" y="144.3266"/>
     <use style="fill:none;stroke:#3ec61b;" x="182.450579" xlink:href="#m94da3dd548" y="145.045053"/>
     <use style="fill:none;stroke:#3ec61b;" x="196.030744" xlink:href="#m94da3dd548" y="145.630474"/>
     <use style="fill:none;stroke:#3ec61b;" x="209.610909" xlink:href="#m94da3dd548" y="146.116364"/>
    </g>
   </g>
   <g id="line2d_14">
    <path clip-path="url(#p7d16ccb373)" d="M 60.229091 85.583573 
L 73.809256 103.66375 
L 87.389421 117.332941 
L 100.969587 123.331498 
L 114.549752 127.920315 
L 128.129917 131.192869 
L 141.710083 133.793583 
L 155.290248 135.868321 
L 168.870413 137.571883 
L 182.450579 138.994893 
L 196.030744 140.199633 
L 209.610909 141.23253 
" style="fill:none;stroke:#a81e4c;stroke-linecap:square;stroke-width:1.5;"/>
    <defs>
     <path d="M 0 -2.5 
L -2.377641 -0.772542 
L -1.469463 2.022542 
L 1.469463 2.022542 
L 2.377641 -0.772542 
z
" id="m4e433e7a0b" style="stroke:#a81e4c;stroke-linejoin:miter;"/>
    </defs>
    <g clip-path="url(#p7d16ccb373)">
     <use style="fill:none;stroke:#a81e4c;stroke-linejoin:miter;" x="60.229091" xlink:href="#m4e433e7a0b" y="85.583573"/>
     <use style="fill:none;stroke:#a81e4c;stroke-linejoin:miter;" x="73.809256" xlink:href="#m4e433e7a0b" y="103.66375"/>
     <use style="fill:none;stroke:#a81e4c;stroke-linejoin:miter;" x="87.389421" xlink:href="#m4e433e7a0b" y="117.332941"/>
     <use style="fill:none;stroke:#a81e4c;stroke-linejoin:miter;" x="100.969587" xlink:href="#m4e433e7a0b" y="123.331498"/>
     <use style="fill:none;stroke:#a81e4c;stroke-linejoin:miter;" x="114.549752" xlink:href="#m4e433e7a0b" y="127.920315"/>
     <use style="fill:none;stroke:#a81e4c;stroke-linejoin:miter;" x="128.129917" xlink:href="#m4e433e7a0b" y="131.192869"/>
     <use style="fill:none;stroke:#a81e4c;stroke-linejoin:miter;" x="141.710083" xlink:href="#m4e433e7a0b" y="133.793583"/>
     <use style="fill:none;stroke:#a81e4c;stroke-linejoin:miter;" x="155.290248" xlink:href="#m4e433e7a0b" y="135.868321"/>
     <use style="fill:none;stroke:#a81e4c;stroke-linejoin:miter;" x="168.870413" xlink:href="#m4e433e7a0b" y="137.571883"/>
     <use style="fill:none;stroke:#a81e4c;stroke-linejoin:miter;" x="182.450579" xlink:href="#m4e433e7a0b" y="138.994893"/>
     <use style="fill:none;stroke:#a81e4c;stroke-linejoin:miter;" x="196.030744" xlink:href="#m4e433e7a0b" y="140.199633"/>
     <use style="fill:none;stroke:#a81e4c;stroke-linejoin:miter;" x="209.610909" xlink:href="#m4e433e7a0b" y="141.23253"/>
    </g>
   </g>
   <g id="line2d_15">
    <path clip-path="url(#p7d16ccb373)" d="M 52.76 147.467308 
L 217.08 147.467308 
" style="fill:none;stroke:#666666;stroke-dasharray:5.55,2.4;stroke-dashoffset:0;stroke-width:1.5;"/>
   </g>
   <g id="patch_3">
    <path d="M 52.76 152.44 
L 52.76 13.32 
" style="fill:none;stroke:#000000;stroke-linecap:square;stroke-linejoin:miter;stroke-width:0.8;"/>
   </g>
   <g id="patch_4">
    <path d="M 217.08 152.44 
L 217.08 13.32 
" style="fill:none;stroke:#000000;stroke-linecap:square;stroke-linejoin:miter;stroke-width:0.8;"/>
   </g>
   <g id="patch_5">
    <path d="M 52.76 152.44 
L 217.08 152.44 
" style="fill:none;stroke:#000000;stroke-linecap:square;stroke-linejoin:miter;stroke-width:0.8;"/>
   </g>
   <g id="patch_6">
    <path d="M 52.76 13.32 
L 217.08 13.32 
" style="fill:none;stroke:#000000;stroke-linecap:square;stroke-linejoin:miter;stroke-width:0.8;"/>
   </g>
   <g id="legend_1">
    <g id="line2d_16">
     <path d="M 133.228437 46.553438 
L 153.228437 46.553438 
" style="fill:none;stroke:#428ff4;stroke-linecap:square;stroke-width:1.5;"/>
    </g>
    <g id="line2d_17">
     <g>
      <use style="fill:none;stroke:#428ff4;" x="143.228437" xlink:href="#m2828653cc7" y="46.553438"/>
     </g>
    </g>
    <g id="text_12">
     <!-- CCSD -->
     <defs>
      <path d="M 58 49.90625 
L 67.5 49.90625 
Q 66.703125 55.59375 64.09375 59.9375 
Q 61.5 64.296875 57.59375 67.1875 
Q 53.703125 70.09375 48.703125 71.59375 
Q 43.703125 73.09375 38.09375 73.09375 
Q 29.90625 73.09375 23.546875 70.140625 
Q 17.203125 67.203125 12.953125 62.09375 
Q 8.703125 57 6.5 50.140625 
Q 4.296875 43.296875 4.296875 35.5 
Q 4.296875 27.703125 6.34375 20.890625 
Q 8.40625 14.09375 12.5 9.09375 
Q 16.59375 4.09375 22.796875 1.25 
Q 29 -1.59375 37.296875 -1.59375 
Q 51 -1.59375 58.890625 5.90625 
Q 66.796875 13.40625 68.203125 26.90625 
L 58.703125 26.90625 
Q 58.40625 22.5 56.90625 18.703125 
Q 55.40625 14.90625 52.75 12.15625 
Q 50.09375 9.40625 46.4375 7.84375 
Q 42.796875 6.296875 38.09375 6.296875 
Q 31.703125 6.296875 27.09375 8.6875 
Q 22.5 11.09375 19.546875 15.140625 
Q 16.59375 19.203125 15.1875 24.640625 
Q 13.796875 30.09375 13.796875 36.203125 
Q 13.796875 41.796875 15.1875 47 
Q 16.59375 52.203125 19.546875 56.25 
Q 22.5 60.296875 27.046875 62.6875 
Q 31.59375 65.09375 38 65.09375 
Q 45.5 65.09375 50.953125 61.296875 
Q 56.40625 57.5 58 49.90625 
z
" id="HelveticaNeue-43"/>
      <path d="M 49.09375 50.5 
L 58.09375 50.5 
Q 57.90625 56.40625 55.84375 60.65625 
Q 53.796875 64.90625 50.25 67.703125 
Q 46.703125 70.5 42 71.796875 
Q 37.296875 73.09375 31.796875 73.09375 
Q 26.90625 73.09375 22.25 71.84375 
Q 17.59375 70.59375 13.9375 68.046875 
Q 10.296875 65.5 8.09375 61.546875 
Q 5.90625 57.59375 5.90625 52.203125 
Q 5.90625 47.296875 7.84375 44.046875 
Q 9.796875 40.796875 13.046875 38.75 
Q 16.296875 36.703125 20.390625 35.453125 
Q 24.5 34.203125 28.75 33.25 
Q 33 32.296875 37.09375 31.390625 
Q 41.203125 30.5 44.453125 29.046875 
Q 47.703125 27.59375 49.640625 25.296875 
Q 51.59375 23 51.59375 19.296875 
Q 51.59375 15.40625 50 12.90625 
Q 48.40625 10.40625 45.796875 8.953125 
Q 43.203125 7.5 39.953125 6.890625 
Q 36.703125 6.296875 33.5 6.296875 
Q 29.5 6.296875 25.703125 7.296875 
Q 21.90625 8.296875 19.046875 10.390625 
Q 16.203125 12.5 14.453125 15.75 
Q 12.703125 19 12.703125 23.5 
L 3.703125 23.5 
Q 3.703125 17 6.046875 12.25 
Q 8.40625 7.5 12.453125 4.453125 
Q 16.5 1.40625 21.84375 -0.09375 
Q 27.203125 -1.59375 33.203125 -1.59375 
Q 38.09375 -1.59375 43.046875 -0.4375 
Q 48 0.703125 52 3.25 
Q 56 5.796875 58.546875 9.84375 
Q 61.09375 13.90625 61.09375 19.59375 
Q 61.09375 24.90625 59.140625 28.40625 
Q 57.203125 31.90625 53.953125 34.203125 
Q 50.703125 36.5 46.59375 37.84375 
Q 42.5 39.203125 38.25 40.203125 
Q 34 41.203125 29.890625 42.046875 
Q 25.796875 42.90625 22.546875 44.203125 
Q 19.296875 45.5 17.34375 47.546875 
Q 15.40625 49.59375 15.40625 52.90625 
Q 15.40625 56.40625 16.75 58.75 
Q 18.09375 61.09375 20.34375 62.5 
Q 22.59375 63.90625 25.5 64.5 
Q 28.40625 65.09375 31.40625 65.09375 
Q 38.796875 65.09375 43.546875 61.640625 
Q 48.296875 58.203125 49.09375 50.5 
z
" id="HelveticaNeue-53"/>
      <path d="M 17.296875 8 
L 17.296875 63.40625 
L 33.296875 63.40625 
Q 39.90625 63.40625 44.40625 61.546875 
Q 48.90625 59.703125 51.75 56.140625 
Q 54.59375 52.59375 55.84375 47.546875 
Q 57.09375 42.5 57.09375 36.09375 
Q 57.09375 29.5 55.75 24.84375 
Q 54.40625 20.203125 52.296875 17.09375 
Q 50.203125 14 47.546875 12.203125 
Q 44.90625 10.40625 42.203125 9.453125 
Q 39.5 8.5 37.09375 8.25 
Q 34.703125 8 33.09375 8 
z
M 7.796875 71.40625 
L 7.796875 0 
L 32.296875 0 
Q 41.203125 0 47.703125 2.5 
Q 54.203125 5 58.390625 9.75 
Q 62.59375 14.5 64.59375 21.453125 
Q 66.59375 28.40625 66.59375 37.40625 
Q 66.59375 54.59375 57.6875 63 
Q 48.796875 71.40625 32.296875 71.40625 
z
" id="HelveticaNeue-44"/>
     </defs>
     <g transform="translate(161.228437 50.053438)scale(0.1 -0.1)">
      <use xlink:href="#HelveticaNeue-43"/>
      <use x="72.199982" xlink:href="#HelveticaNeue-43"/>
      <use x="144.399963" xlink:href="#HelveticaNeue-53"/>
      <use x="209.199951" xlink:href="#HelveticaNeue-44"/>
     </g>
    </g>
    <g id="line2d_18">
     <path d="M 133.228437 60.664375 
L 153.228437 60.664375 
" style="fill:none;stroke:#2e2360;stroke-linecap:square;stroke-width:1.5;"/>
    </g>
    <g id="line2d_19">
     <g>
      <use style="fill:none;stroke:#2e2360;stroke-linejoin:miter;" x="143.228437" xlink:href="#m1bd0a12574" y="60.664375"/>
     </g>
    </g>
    <g id="text_13">
     <!-- FCI -->
     <defs>
      <path d="M 7.796875 71.40625 
L 7.796875 0 
L 17.296875 0 
L 17.296875 32.703125 
L 50.09375 32.703125 
L 50.09375 40.703125 
L 17.296875 40.703125 
L 17.296875 63.40625 
L 54.703125 63.40625 
L 54.703125 71.40625 
z
" id="HelveticaNeue-46"/>
      <path d="M 8.203125 71.40625 
L 8.203125 0 
L 17.703125 0 
L 17.703125 71.40625 
z
" id="HelveticaNeue-49"/>
     </defs>
     <g transform="translate(161.228437 64.164375)scale(0.1 -0.1)">
      <use xlink:href="#HelveticaNeue-46"/>
      <use x="57.399994" xlink:href="#HelveticaNeue-43"/>
      <use x="129.599976" xlink:href="#HelveticaNeue-49"/>
     </g>
    </g>
    <g id="line2d_20">
     <path d="M 133.228437 74.775312 
L 153.228437 74.775312 
" style="fill:none;stroke:#b7ac12;stroke-linecap:square;stroke-width:1.5;"/>
    </g>
    <g id="line2d_21">
     <g>
      <use style="fill:none;stroke:#b7ac12;stroke-linejoin:miter;" x="143.228437" xlink:href="#m31bb1f5e6f" y="74.775312"/>
     </g>
    </g>
    <g id="text_14">
     <!-- HF only -->
     <defs>
      <path d="M 7.796875 71.40625 
L 7.796875 0 
L 17.296875 0 
L 17.296875 32.703125 
L 54.90625 32.703125 
L 54.90625 0 
L 64.40625 0 
L 64.40625 71.40625 
L 54.90625 71.40625 
L 54.90625 40.703125 
L 17.296875 40.703125 
L 17.296875 71.40625 
z
" id="HelveticaNeue-48"/>
     </defs>
     <g transform="translate(161.228437 78.275312)scale(0.1 -0.1)">
      <use xlink:href="#HelveticaNeue-48"/>
      <use x="72.199982" xlink:href="#HelveticaNeue-46"/>
      <use x="129.599976" xlink:href="#HelveticaNeue-20"/>
      <use x="157.399963" xlink:href="#HelveticaNeue-6f"/>
      <use x="214.799957" xlink:href="#HelveticaNeue-6e"/>
      <use x="270.399948" xlink:href="#HelveticaNeue-6c"/>
      <use x="292.599945" xlink:href="#HelveticaNeue-79"/>
     </g>
    </g>
    <g id="line2d_22">
     <path d="M 133.228437 89.155 
L 153.228437 89.155 
" style="fill:none;stroke:#3ec61b;stroke-linecap:square;stroke-width:1.5;"/>
    </g>
    <g id="line2d_23">
     <g>
      <use style="fill:none;stroke:#3ec61b;" x="143.228437" xlink:href="#m94da3dd548" y="89.155"/>
     </g>
    </g>
    <g id="text_15">
     <!-- IM-SRG(2) -->
     <defs>
      <path d="M 8 71.40625 
L 8 0 
L 17 0 
L 17 59.40625 
L 17.203125 59.40625 
L 39.5 0 
L 47.59375 0 
L 69.90625 59.40625 
L 70.09375 59.40625 
L 70.09375 0 
L 79.09375 0 
L 79.09375 71.40625 
L 66.09375 71.40625 
L 43.5 11.40625 
L 21 71.40625 
z
" id="HelveticaNeue-4d"/>
      <path d="M 5 31.796875 
L 5 23.796875 
L 33.90625 23.796875 
L 33.90625 31.796875 
z
" id="HelveticaNeue-2d"/>
      <path d="M 7.796875 71.40625 
L 7.796875 0 
L 17.296875 0 
L 17.296875 30.5 
L 40.5 30.5 
Q 44 30.5 46.09375 29.453125 
Q 48.203125 28.40625 49.5 26.65625 
Q 50.796875 24.90625 51.390625 22.546875 
Q 52 20.203125 52.40625 17.59375 
Q 52.90625 15 53 12.296875 
Q 53.09375 9.59375 53.1875 7.25 
Q 53.296875 4.90625 53.640625 3 
Q 54 1.09375 55 0 
L 65.59375 0 
Q 64.09375 1.796875 63.34375 4.140625 
Q 62.59375 6.5 62.1875 9.09375 
Q 61.796875 11.703125 61.6875 14.390625 
Q 61.59375 17.09375 61.40625 19.703125 
Q 61.09375 22.296875 60.546875 24.6875 
Q 60 27.09375 58.84375 29.046875 
Q 57.703125 31 55.75 32.390625 
Q 53.796875 33.796875 50.703125 34.40625 
L 50.703125 34.59375 
Q 57.203125 36.40625 60.140625 41.296875 
Q 63.09375 46.203125 63.09375 52.703125 
Q 63.09375 61.40625 57.34375 66.40625 
Q 51.59375 71.40625 41.40625 71.40625 
z
M 37.09375 38.5 
L 17.296875 38.5 
L 17.296875 63.40625 
L 40.90625 63.40625 
Q 47.59375 63.40625 50.59375 60 
Q 53.59375 56.59375 53.59375 51.203125 
Q 53.59375 47.296875 52.25 44.84375 
Q 50.90625 42.40625 48.65625 40.953125 
Q 46.40625 39.5 43.40625 39 
Q 40.40625 38.5 37.09375 38.5 
z
" id="HelveticaNeue-52"/>
      <path d="M 61.203125 8.90625 
L 63.703125 0 
L 69.703125 0 
L 69.703125 37.59375 
L 38.40625 37.59375 
L 38.40625 29.59375 
L 61.203125 29.59375 
Q 61.40625 24.703125 59.90625 20.453125 
Q 58.40625 16.203125 55.453125 13.046875 
Q 52.5 9.90625 48.203125 8.09375 
Q 43.90625 6.296875 38.296875 6.296875 
Q 32.296875 6.296875 27.75 8.640625 
Q 23.203125 11 20.09375 14.953125 
Q 17 18.90625 15.390625 24.046875 
Q 13.796875 29.203125 13.796875 34.796875 
Q 13.796875 40.5 15.1875 45.953125 
Q 16.59375 51.40625 19.546875 55.65625 
Q 22.5 59.90625 27.140625 62.5 
Q 31.796875 65.09375 38.296875 65.09375 
Q 42.296875 65.09375 45.84375 64.140625 
Q 49.40625 63.203125 52.203125 61.296875 
Q 55 59.40625 56.890625 56.453125 
Q 58.796875 53.5 59.5 49.40625 
L 69 49.40625 
Q 68 55.703125 65.25 60.140625 
Q 62.5 64.59375 58.453125 67.5 
Q 54.40625 70.40625 49.25 71.75 
Q 44.09375 73.09375 38.296875 73.09375 
Q 29.796875 73.09375 23.4375 69.9375 
Q 17.09375 66.796875 12.84375 61.5 
Q 8.59375 56.203125 6.4375 49.140625 
Q 4.296875 42.09375 4.296875 34.296875 
Q 4.296875 27.296875 6.59375 20.796875 
Q 8.90625 14.296875 13.296875 9.296875 
Q 17.703125 4.296875 24 1.34375 
Q 30.296875 -1.59375 38.296875 -1.59375 
Q 44.59375 -1.59375 50.796875 0.84375 
Q 57 3.296875 61.203125 8.90625 
z
" id="HelveticaNeue-47"/>
     </defs>
     <g transform="translate(161.228437 92.655)scale(0.1 -0.1)">
      <use xlink:href="#HelveticaNeue-49"/>
      <use x="25.899994" xlink:href="#HelveticaNeue-4d"/>
      <use x="112.999985" xlink:href="#HelveticaNeue-2d"/>
      <use x="151.899979" xlink:href="#HelveticaNeue-53"/>
      <use x="216.699966" xlink:href="#HelveticaNeue-52"/>
      <use x="285.199951" xlink:href="#HelveticaNeue-47"/>
      <use x="361.099945" xlink:href="#HelveticaNeue-28"/>
      <use x="386.999939" xlink:href="#HelveticaNeue-32"/>
      <use x="442.59993" xlink:href="#HelveticaNeue-29"/>
     </g>
    </g>
    <g id="line2d_24">
     <path d="M 133.228437 103.265938 
L 153.228437 103.265938 
" style="fill:none;stroke:#a81e4c;stroke-linecap:square;stroke-width:1.5;"/>
    </g>
    <g id="line2d_25">
     <g>
      <use style="fill:none;stroke:#a81e4c;stroke-linejoin:miter;" x="143.228437" xlink:href="#m4e433e7a0b" y="103.265938"/>
     </g>
    </g>
    <g id="text_16">
     <!-- MP2 -->
     <defs>
      <path d="M 17.296875 37.203125 
L 17.296875 63.40625 
L 35.90625 63.40625 
Q 44 63.40625 47.75 60.046875 
Q 51.5 56.703125 51.5 50.296875 
Q 51.5 43.90625 47.75 40.5 
Q 44 37.09375 35.90625 37.203125 
z
M 7.796875 71.40625 
L 7.796875 0 
L 17.296875 0 
L 17.296875 29.203125 
L 39.09375 29.203125 
Q 49.90625 29.09375 55.453125 34.6875 
Q 61 40.296875 61 50.296875 
Q 61 60.296875 55.453125 65.84375 
Q 49.90625 71.40625 39.09375 71.40625 
z
" id="HelveticaNeue-50"/>
     </defs>
     <g transform="translate(161.228437 106.765938)scale(0.1 -0.1)">
      <use xlink:href="#HelveticaNeue-4d"/>
      <use x="87.099991" xlink:href="#HelveticaNeue-50"/>
      <use x="151.899979" xlink:href="#HelveticaNeue-32"/>
     </g>
    </g>
    <g id="line2d_26">
     <path d="M 133.228437 117.376875 
L 153.228437 117.376875 
" style="fill:none;stroke:#666666;stroke-dasharray:5.55,2.4;stroke-dashoffset:0;stroke-width:1.5;"/>
    </g>
    <g id="line2d_27"/>
    <g id="text_17">
     <!-- DMC -->
     <g transform="translate(161.228437 120.876875)scale(0.1 -0.1)">
      <use xlink:href="#HelveticaNeue-44"/>
      <use x="70.399994" xlink:href="#HelveticaNeue-4d"/>
      <use x="157.499985" xlink:href="#HelveticaNeue-43"/>
     </g>
    </g>
   </g>
  </g>
 </g>
 <defs>
  <clipPath id="p7d16ccb373">
   <rect height="139.12" width="164.32" x="52.76" y="13.32"/>
  </clipPath>
 </defs>
</svg>
