<?xml version="1.0" encoding="utf-8" standalone="no"?>
<!DOCTYPE svg PUBLIC "-//W3C//DTD SVG 1.1//EN"
  "http://www.w3.org/Graphics/SVG/1.1/DTD/svg11.dtd">
<!-- Created with matplotlib (http://matplotlib.org/) -->
<svg height="216pt" version="1.1" viewBox="0 0 288 216" width="288pt" xmlns="http://www.w3.org/2000/svg" xmlns:xlink="http://www.w3.org/1999/xlink">
 <defs>
  <style type="text/css">
*{stroke-linecap:butt;stroke-linejoin:round;}
  </style>
 </defs>
 <g id="figure_1">
  <g id="patch_1">
   <path d="M 0 216 
L 288 216 
L 288 0 
L 0 0 
z
" style="fill:#ffffff;"/>
  </g>
  <g id="axes_1">
   <g id="patch_2">
    <path d="M 53.58125 171.68875 
L 274.68 171.68875 
L 274.68 13.32 
L 53.58125 13.32 
z
" style="fill:#e5e5e5;"/>
   </g>
   <g id="matplotlib.axis_1">
    <g id="xtick_1">
     <g id="line2d_1">
      <path clip-path="url(#pfa47870d01)" d="M 63.631193 171.68875 
L 63.631193 13.32 
" style="fill:none;stroke:#ffffff;stroke-linecap:square;stroke-width:0.8;"/>
     </g>
     <g id="line2d_2">
      <defs>
       <path d="M 0 0 
L 0 3.5 
" id="me62bcd8525" style="stroke:#555555;stroke-width:0.8;"/>
      </defs>
      <g>
       <use style="fill:#555555;stroke:#555555;stroke-width:0.8;" x="63.631193" xlink:href="#me62bcd8525" y="171.68875"/>
      </g>
     </g>
     <g id="text_1">
      <!-- 4 -->
      <defs>
       <path d="M 44.046875 23.875 
L 53.90625 23.875 
L 53.90625 16.5 
L 44.046875 16.5 
L 44.046875 0 
L 34.96875 0 
L 34.96875 16.5 
L 2.59375 16.5 
L 2.59375 21.828125 
L 34.421875 71.09375 
L 44.046875 71.09375 
z
M 12.84375 23.875 
L 34.96875 23.875 
L 34.96875 58.734375 
L 33.890625 56.78125 
z
" id="Roboto-Regular-34"/>
      </defs>
      <g style="fill:#555555;" transform="translate(60.823381 186.18875)scale(0.1 -0.1)">
       <use xlink:href="#Roboto-Regular-34"/>
      </g>
     </g>
    </g>
    <g id="xtick_2">
     <g id="line2d_3">
      <path clip-path="url(#pfa47870d01)" d="M 100.176441 171.68875 
L 100.176441 13.32 
" style="fill:none;stroke:#ffffff;stroke-linecap:square;stroke-width:0.8;"/>
     </g>
     <g id="line2d_4">
      <g>
       <use style="fill:#555555;stroke:#555555;stroke-width:0.8;" x="100.176441" xlink:href="#me62bcd8525" y="171.68875"/>
      </g>
     </g>
     <g id="text_2">
      <!-- 6 -->
      <defs>
       <path d="M 41.359375 71.140625 
L 41.359375 63.484375 
L 39.703125 63.484375 
Q 29.15625 63.28125 22.90625 57.21875 
Q 16.65625 51.171875 15.671875 40.1875 
Q 21.296875 46.625 31 46.625 
Q 40.28125 46.625 45.828125 40.078125 
Q 51.375 33.546875 51.375 23.1875 
Q 51.375 12.203125 45.390625 5.609375 
Q 39.40625 -0.984375 29.34375 -0.984375 
Q 19.140625 -0.984375 12.796875 6.859375 
Q 6.453125 14.703125 6.453125 27.046875 
L 6.453125 30.515625 
Q 6.453125 50.140625 14.8125 60.515625 
Q 23.1875 70.90625 39.75 71.140625 
z
M 29.5 39.109375 
Q 24.859375 39.109375 20.953125 36.328125 
Q 17.046875 33.546875 15.53125 29.34375 
L 15.53125 26.03125 
Q 15.53125 17.234375 19.484375 11.859375 
Q 23.4375 6.5 29.34375 6.5 
Q 35.453125 6.5 38.9375 10.984375 
Q 42.4375 15.484375 42.4375 22.75 
Q 42.4375 30.078125 38.890625 34.59375 
Q 35.359375 39.109375 29.5 39.109375 
" id="Roboto-Regular-36"/>
      </defs>
      <g style="fill:#555555;" transform="translate(97.368629 186.18875)scale(0.1 -0.1)">
       <use xlink:href="#Roboto-Regular-36"/>
      </g>
     </g>
    </g>
    <g id="xtick_3">
     <g id="line2d_5">
      <path clip-path="url(#pfa47870d01)" d="M 136.721689 171.68875 
L 136.721689 13.32 
" style="fill:none;stroke:#ffffff;stroke-linecap:square;stroke-width:0.8;"/>
     </g>
     <g id="line2d_6">
      <g>
       <use style="fill:#555555;stroke:#555555;stroke-width:0.8;" x="136.721689" xlink:href="#me62bcd8525" y="171.68875"/>
      </g>
     </g>
     <g id="text_3">
      <!-- 8 -->
      <defs>
       <path d="M 49.03125 52.546875 
Q 49.03125 47.21875 46.21875 43.0625 
Q 43.40625 38.921875 38.625 36.578125 
Q 44.1875 34.1875 47.4375 29.59375 
Q 50.6875 25 50.6875 19.1875 
Q 50.6875 9.96875 44.453125 4.484375 
Q 38.234375 -0.984375 28.078125 -0.984375 
Q 17.828125 -0.984375 11.640625 4.515625 
Q 5.46875 10.015625 5.46875 19.1875 
Q 5.46875 24.953125 8.609375 29.59375 
Q 11.765625 34.234375 17.328125 36.625 
Q 12.59375 38.96875 9.859375 43.109375 
Q 7.125 47.265625 7.125 52.546875 
Q 7.125 61.53125 12.890625 66.796875 
Q 18.65625 72.078125 28.078125 72.078125 
Q 37.453125 72.078125 43.234375 66.796875 
Q 49.03125 61.53125 49.03125 52.546875 
M 41.65625 19.390625 
Q 41.65625 25.34375 37.859375 29.09375 
Q 34.078125 32.859375 27.96875 32.859375 
Q 21.875 32.859375 18.1875 29.140625 
Q 14.5 25.4375 14.5 19.375 
Q 14.5 13.328125 18.09375 9.859375 
Q 21.6875 6.390625 28.078125 6.390625 
Q 34.421875 6.390625 38.03125 9.875 
Q 41.65625 13.375 41.65625 19.390625 
M 28.078125 64.65625 
Q 22.75 64.65625 19.453125 61.359375 
Q 16.15625 58.0625 16.15625 52.390625 
Q 16.15625 46.96875 19.40625 43.625 
Q 22.65625 40.28125 28.078125 40.28125 
Q 33.5 40.28125 36.734375 43.625 
Q 39.984375 46.96875 39.984375 52.390625 
Q 39.984375 57.8125 36.609375 61.234375 
Q 33.25 64.65625 28.078125 64.65625 
" id="Roboto-Regular-38"/>
      </defs>
      <g style="fill:#555555;" transform="translate(133.913877 186.18875)scale(0.1 -0.1)">
       <use xlink:href="#Roboto-Regular-38"/>
      </g>
     </g>
    </g>
    <g id="xtick_4">
     <g id="line2d_7">
      <path clip-path="url(#pfa47870d01)" d="M 173.266937 171.68875 
L 173.266937 13.32 
" style="fill:none;stroke:#ffffff;stroke-linecap:square;stroke-width:0.8;"/>
     </g>
     <g id="line2d_8">
      <g>
       <use style="fill:#555555;stroke:#555555;stroke-width:0.8;" x="173.266937" xlink:href="#me62bcd8525" y="171.68875"/>
      </g>
     </g>
     <g id="text_4">
      <!-- 10 -->
      <defs>
       <path d="M 35.59375 0 
L 26.515625 0 
L 26.515625 60.203125 
L 8.296875 53.515625 
L 8.296875 61.71875 
L 34.1875 71.4375 
L 35.59375 71.4375 
z
" id="Roboto-Regular-31"/>
       <path d="M 50.484375 30.328125 
Q 50.484375 14.453125 45.0625 6.734375 
Q 39.65625 -0.984375 28.125 -0.984375 
Q 16.75 -0.984375 11.28125 6.5625 
Q 5.8125 14.109375 5.609375 29.109375 
L 5.609375 41.15625 
Q 5.609375 56.84375 11.03125 64.453125 
Q 16.453125 72.078125 28.03125 72.078125 
Q 39.5 72.078125 44.921875 64.71875 
Q 50.34375 57.375 50.484375 42.046875 
z
M 41.453125 42.671875 
Q 41.453125 54.15625 38.234375 59.40625 
Q 35.015625 64.65625 28.03125 64.65625 
Q 21.09375 64.65625 17.921875 59.421875 
Q 14.75 54.203125 14.65625 43.359375 
L 14.65625 28.90625 
Q 14.65625 17.390625 18 11.890625 
Q 21.34375 6.390625 28.125 6.390625 
Q 34.8125 6.390625 38.0625 11.5625 
Q 41.3125 16.75 41.453125 27.875 
z
" id="Roboto-Regular-30"/>
      </defs>
      <g style="fill:#555555;" transform="translate(167.651312 186.18875)scale(0.1 -0.1)">
       <use xlink:href="#Roboto-Regular-31"/>
       <use x="56.152344" xlink:href="#Roboto-Regular-30"/>
      </g>
     </g>
    </g>
    <g id="xtick_5">
     <g id="line2d_9">
      <path clip-path="url(#pfa47870d01)" d="M 209.812185 171.68875 
L 209.812185 13.32 
" style="fill:none;stroke:#ffffff;stroke-linecap:square;stroke-width:0.8;"/>
     </g>
     <g id="line2d_10">
      <g>
       <use style="fill:#555555;stroke:#555555;stroke-width:0.8;" x="209.812185" xlink:href="#me62bcd8525" y="171.68875"/>
      </g>
     </g>
     <g id="text_5">
      <!-- 12 -->
      <defs>
       <path d="M 52.484375 0 
L 5.90625 0 
L 5.90625 6.5 
L 30.515625 33.84375 
Q 35.984375 40.046875 38.0625 43.921875 
Q 40.140625 47.796875 40.140625 51.953125 
Q 40.140625 57.515625 36.765625 61.078125 
Q 33.40625 64.65625 27.78125 64.65625 
Q 21.046875 64.65625 17.3125 60.8125 
Q 13.578125 56.984375 13.578125 50.140625 
L 4.546875 50.140625 
Q 4.546875 59.96875 10.859375 66.015625 
Q 17.1875 72.078125 27.78125 72.078125 
Q 37.703125 72.078125 43.453125 66.875 
Q 49.21875 61.671875 49.21875 53.03125 
Q 49.21875 42.53125 35.84375 28.03125 
L 16.796875 7.375 
L 52.484375 7.375 
z
" id="Roboto-Regular-32"/>
      </defs>
      <g style="fill:#555555;" transform="translate(204.19656 186.18875)scale(0.1 -0.1)">
       <use xlink:href="#Roboto-Regular-31"/>
       <use x="56.152344" xlink:href="#Roboto-Regular-32"/>
      </g>
     </g>
    </g>
    <g id="xtick_6">
     <g id="line2d_11">
      <path clip-path="url(#pfa47870d01)" d="M 246.357433 171.68875 
L 246.357433 13.32 
" style="fill:none;stroke:#ffffff;stroke-linecap:square;stroke-width:0.8;"/>
     </g>
     <g id="line2d_12">
      <g>
       <use style="fill:#555555;stroke:#555555;stroke-width:0.8;" x="246.357433" xlink:href="#me62bcd8525" y="171.68875"/>
      </g>
     </g>
     <g id="text_6">
      <!-- 14 -->
      <g style="fill:#555555;" transform="translate(240.741808 186.18875)scale(0.1 -0.1)">
       <use xlink:href="#Roboto-Regular-31"/>
       <use x="56.152344" xlink:href="#Roboto-Regular-34"/>
      </g>
     </g>
    </g>
    <g id="text_7">
     <!-- K (number of shells) -->
     <defs>
      <path d="M 26.3125 33.0625 
L 17.625 24.03125 
L 17.625 0 
L 8.25 0 
L 8.25 71.09375 
L 17.625 71.09375 
L 17.625 35.9375 
L 49.21875 71.09375 
L 60.546875 71.09375 
L 32.5625 39.703125 
L 62.75 0 
L 51.515625 0 
z
" id="Roboto-Regular-4b"/>
      <path id="Roboto-Regular-20"/>
      <path d="M 6.5 28.859375 
Q 6.5 39.890625 9.453125 50.046875 
Q 12.40625 60.203125 18.265625 68.5 
Q 24.125 76.8125 30.421875 80.21875 
L 32.28125 74.265625 
Q 25.140625 68.796875 20.578125 57.5625 
Q 16.015625 46.34375 15.578125 32.421875 
L 15.53125 28.265625 
Q 15.53125 9.421875 22.40625 -4.4375 
Q 26.5625 -12.75 32.28125 -17.4375 
L 30.421875 -22.953125 
Q 23.921875 -19.34375 18.015625 -10.84375 
Q 6.5 5.765625 6.5 28.859375 
" id="Roboto-Regular-28"/>
      <path d="M 15.375 52.828125 
L 15.671875 46.1875 
Q 21.734375 53.8125 31.5 53.8125 
Q 48.25 53.8125 48.390625 34.90625 
L 48.390625 0 
L 39.359375 0 
L 39.359375 34.96875 
Q 39.3125 40.671875 36.75 43.40625 
Q 34.1875 46.140625 28.765625 46.140625 
Q 24.359375 46.140625 21.03125 43.796875 
Q 17.71875 41.453125 15.875 37.640625 
L 15.875 0 
L 6.84375 0 
L 6.84375 52.828125 
z
" id="Roboto-Regular-6e"/>
      <path d="M 39.453125 5.21875 
Q 34.1875 -0.984375 23.96875 -0.984375 
Q 15.53125 -0.984375 11.109375 3.921875 
Q 6.6875 8.84375 6.640625 18.453125 
L 6.640625 52.828125 
L 15.671875 52.828125 
L 15.671875 18.703125 
Q 15.671875 6.6875 25.4375 6.6875 
Q 35.796875 6.6875 39.203125 14.40625 
L 39.203125 52.828125 
L 48.25 52.828125 
L 48.25 0 
L 39.65625 0 
z
" id="Roboto-Regular-75"/>
      <path d="M 15.328125 52.828125 
L 15.578125 46.96875 
Q 21.390625 53.8125 31.25 53.8125 
Q 42.328125 53.8125 46.34375 45.3125 
Q 48.96875 49.125 53.1875 51.46875 
Q 57.421875 53.8125 63.1875 53.8125 
Q 80.5625 53.8125 80.859375 35.40625 
L 80.859375 0 
L 71.828125 0 
L 71.828125 34.859375 
Q 71.828125 40.53125 69.234375 43.328125 
Q 66.65625 46.140625 60.546875 46.140625 
Q 55.515625 46.140625 52.1875 43.140625 
Q 48.875 40.140625 48.34375 35.0625 
L 48.34375 0 
L 39.265625 0 
L 39.265625 34.625 
Q 39.265625 46.140625 27.984375 46.140625 
Q 19.09375 46.140625 15.828125 38.578125 
L 15.828125 0 
L 6.78125 0 
L 6.78125 52.828125 
z
" id="Roboto-Regular-6d"/>
      <path d="M 51.5625 25.828125 
Q 51.5625 13.71875 46 6.359375 
Q 40.4375 -0.984375 31.0625 -0.984375 
Q 21.046875 -0.984375 15.578125 6.109375 
L 15.140625 0 
L 6.84375 0 
L 6.84375 75 
L 15.875 75 
L 15.875 47.015625 
Q 21.34375 53.8125 30.953125 53.8125 
Q 40.578125 53.8125 46.0625 46.53125 
Q 51.5625 39.265625 51.5625 26.609375 
z
M 42.53125 26.859375 
Q 42.53125 36.078125 38.96875 41.109375 
Q 35.40625 46.140625 28.71875 46.140625 
Q 19.78125 46.140625 15.875 37.84375 
L 15.875 14.984375 
Q 20.015625 6.6875 28.8125 6.6875 
Q 35.296875 6.6875 38.90625 11.71875 
Q 42.53125 16.75 42.53125 26.859375 
" id="Roboto-Regular-62"/>
      <path d="M 28.765625 -0.984375 
Q 18.015625 -0.984375 11.28125 6.078125 
Q 4.546875 13.140625 4.546875 24.953125 
L 4.546875 26.609375 
Q 4.546875 34.46875 7.546875 40.640625 
Q 10.546875 46.828125 15.9375 50.3125 
Q 21.34375 53.8125 27.640625 53.8125 
Q 37.9375 53.8125 43.640625 47.015625 
Q 49.359375 40.234375 49.359375 27.59375 
L 49.359375 23.828125 
L 13.578125 23.828125 
Q 13.765625 16.015625 18.140625 11.203125 
Q 22.515625 6.390625 29.25 6.390625 
Q 34.03125 6.390625 37.34375 8.34375 
Q 40.671875 10.296875 43.171875 13.53125 
L 48.6875 9.234375 
Q 42.046875 -0.984375 28.765625 -0.984375 
M 27.640625 46.390625 
Q 22.171875 46.390625 18.453125 42.40625 
Q 14.75 38.421875 13.875 31.25 
L 40.328125 31.25 
L 40.328125 31.9375 
Q 39.9375 38.8125 36.609375 42.59375 
Q 33.296875 46.390625 27.640625 46.390625 
" id="Roboto-Regular-65"/>
      <path d="M 32.375 44.734375 
Q 30.328125 45.0625 27.9375 45.0625 
Q 19.046875 45.0625 15.875 37.5 
L 15.875 0 
L 6.84375 0 
L 6.84375 52.828125 
L 15.625 52.828125 
L 15.765625 46.734375 
Q 20.21875 53.8125 28.375 53.8125 
Q 31 53.8125 32.375 53.125 
z
" id="Roboto-Regular-72"/>
      <path d="M 4.4375 26.90625 
Q 4.4375 34.671875 7.484375 40.875 
Q 10.546875 47.078125 15.984375 50.4375 
Q 21.4375 53.8125 28.421875 53.8125 
Q 39.203125 53.8125 45.875 46.34375 
Q 52.546875 38.875 52.546875 26.46875 
L 52.546875 25.828125 
Q 52.546875 18.109375 49.578125 11.984375 
Q 46.625 5.859375 41.125 2.4375 
Q 35.640625 -0.984375 28.515625 -0.984375 
Q 17.78125 -0.984375 11.109375 6.484375 
Q 4.4375 13.96875 4.4375 26.265625 
z
M 13.53125 25.828125 
Q 13.53125 17.046875 17.609375 11.71875 
Q 21.6875 6.390625 28.515625 6.390625 
Q 35.40625 6.390625 39.453125 11.78125 
Q 43.5 17.1875 43.5 26.90625 
Q 43.5 35.59375 39.375 40.984375 
Q 35.25 46.390625 28.421875 46.390625 
Q 21.734375 46.390625 17.625 41.0625 
Q 13.53125 35.75 13.53125 25.828125 
" id="Roboto-Regular-6f"/>
      <path d="M 11.28125 0 
L 11.28125 45.84375 
L 2.9375 45.84375 
L 2.9375 52.828125 
L 11.28125 52.828125 
L 11.28125 58.25 
Q 11.28125 66.75 15.8125 71.390625 
Q 20.359375 76.03125 28.65625 76.03125 
Q 31.78125 76.03125 34.859375 75.203125 
L 34.375 67.875 
Q 32.078125 68.3125 29.5 68.3125 
Q 25.09375 68.3125 22.703125 65.75 
Q 20.3125 63.1875 20.3125 58.40625 
L 20.3125 52.828125 
L 31.59375 52.828125 
L 31.59375 45.84375 
L 20.3125 45.84375 
L 20.3125 0 
z
" id="Roboto-Regular-66"/>
      <path d="M 37.59375 14.015625 
Q 37.59375 17.671875 34.828125 19.703125 
Q 32.078125 21.734375 25.21875 23.1875 
Q 18.359375 24.65625 14.328125 26.703125 
Q 10.296875 28.765625 8.375 31.59375 
Q 6.453125 34.421875 6.453125 38.328125 
Q 6.453125 44.828125 11.9375 49.3125 
Q 17.4375 53.8125 25.984375 53.8125 
Q 34.96875 53.8125 40.546875 49.171875 
Q 46.140625 44.53125 46.140625 37.3125 
L 37.0625 37.3125 
Q 37.0625 41.015625 33.90625 43.703125 
Q 30.765625 46.390625 25.984375 46.390625 
Q 21.046875 46.390625 18.265625 44.234375 
Q 15.484375 42.09375 15.484375 38.625 
Q 15.484375 35.359375 18.0625 33.6875 
Q 20.65625 32.03125 27.421875 30.515625 
Q 34.1875 29 38.375 26.90625 
Q 42.578125 24.8125 44.59375 21.84375 
Q 46.625 18.890625 46.625 14.65625 
Q 46.625 7.5625 40.953125 3.28125 
Q 35.296875 -0.984375 26.265625 -0.984375 
Q 19.921875 -0.984375 15.03125 1.265625 
Q 10.15625 3.515625 7.390625 7.546875 
Q 4.640625 11.578125 4.640625 16.265625 
L 13.671875 16.265625 
Q 13.921875 11.71875 17.3125 9.046875 
Q 20.703125 6.390625 26.265625 6.390625 
Q 31.390625 6.390625 34.484375 8.46875 
Q 37.59375 10.546875 37.59375 14.015625 
" id="Roboto-Regular-73"/>
      <path d="M 15.875 46.4375 
Q 21.875 53.8125 31.5 53.8125 
Q 48.25 53.8125 48.390625 34.90625 
L 48.390625 0 
L 39.359375 0 
L 39.359375 34.96875 
Q 39.3125 40.671875 36.75 43.40625 
Q 34.1875 46.140625 28.765625 46.140625 
Q 24.359375 46.140625 21.03125 43.796875 
Q 17.71875 41.453125 15.875 37.640625 
L 15.875 0 
L 6.84375 0 
L 6.84375 75 
L 15.875 75 
z
" id="Roboto-Regular-68"/>
      <path d="M 16.65625 0 
L 7.625 0 
L 7.625 75 
L 16.65625 75 
z
" id="Roboto-Regular-6c"/>
      <path d="M 27.6875 28.375 
Q 27.6875 17.484375 24.828125 7.5 
Q 21.96875 -2.484375 16.078125 -10.9375 
Q 10.203125 -19.390625 3.765625 -22.953125 
L 1.859375 -17.4375 
Q 9.375 -11.671875 13.9375 0.453125 
Q 18.5 12.59375 18.609375 27.390625 
L 18.609375 28.953125 
Q 18.609375 39.203125 16.453125 48.015625 
Q 14.3125 56.84375 10.46875 63.8125 
Q 6.640625 70.796875 1.859375 74.703125 
L 3.765625 80.21875 
Q 10.203125 76.65625 16.03125 68.3125 
Q 21.875 59.96875 24.78125 49.90625 
Q 27.6875 39.84375 27.6875 28.375 
" id="Roboto-Regular-29"/>
     </defs>
     <g style="fill:#555555;" transform="translate(110.235625 201.84625)scale(0.12 -0.12)">
      <use xlink:href="#Roboto-Regular-4b"/>
      <use x="62.695312" xlink:href="#Roboto-Regular-20"/>
      <use x="87.451172" xlink:href="#Roboto-Regular-28"/>
      <use x="121.630859" xlink:href="#Roboto-Regular-6e"/>
      <use x="176.806641" xlink:href="#Roboto-Regular-75"/>
      <use x="231.933594" xlink:href="#Roboto-Regular-6d"/>
      <use x="319.580078" xlink:href="#Roboto-Regular-62"/>
      <use x="375.683594" xlink:href="#Roboto-Regular-65"/>
      <use x="428.662109" xlink:href="#Roboto-Regular-72"/>
      <use x="462.5" xlink:href="#Roboto-Regular-20"/>
      <use x="487.255859" xlink:href="#Roboto-Regular-6f"/>
      <use x="544.287109" xlink:href="#Roboto-Regular-66"/>
      <use x="579.003906" xlink:href="#Roboto-Regular-20"/>
      <use x="603.759766" xlink:href="#Roboto-Regular-73"/>
      <use x="655.322266" xlink:href="#Roboto-Regular-68"/>
      <use x="710.400391" xlink:href="#Roboto-Regular-65"/>
      <use x="763.378906" xlink:href="#Roboto-Regular-6c"/>
      <use x="787.646484" xlink:href="#Roboto-Regular-6c"/>
      <use x="811.914062" xlink:href="#Roboto-Regular-73"/>
      <use x="863.476562" xlink:href="#Roboto-Regular-29"/>
     </g>
    </g>
   </g>
   <g id="matplotlib.axis_2">
    <g id="ytick_1">
     <g id="line2d_13">
      <path clip-path="url(#pfa47870d01)" d="M 53.58125 156.285883 
L 274.68 156.285883 
" style="fill:none;stroke:#ffffff;stroke-linecap:square;stroke-width:0.8;"/>
     </g>
     <g id="line2d_14">
      <defs>
       <path d="M 0 0 
L -3.5 0 
" id="m0dbd7f223a" style="stroke:#555555;stroke-width:0.8;"/>
      </defs>
      <g>
       <use style="fill:#555555;stroke:#555555;stroke-width:0.8;" x="53.58125" xlink:href="#m0dbd7f223a" y="156.285883"/>
      </g>
     </g>
     <g id="text_8">
      <!-- 20.2 -->
      <defs>
       <path d="M 7.03125 4.734375 
Q 7.03125 7.078125 8.421875 8.640625 
Q 9.8125 10.203125 12.59375 10.203125 
Q 15.375 10.203125 16.8125 8.640625 
Q 18.265625 7.078125 18.265625 4.734375 
Q 18.265625 2.484375 16.8125 0.96875 
Q 15.375 -0.53125 12.59375 -0.53125 
Q 9.8125 -0.53125 8.421875 0.96875 
Q 7.03125 2.484375 7.03125 4.734375 
" id="Roboto-Regular-2e"/>
      </defs>
      <g style="fill:#555555;" transform="translate(27.103125 160.035883)scale(0.1 -0.1)">
       <use xlink:href="#Roboto-Regular-32"/>
       <use x="56.152344" xlink:href="#Roboto-Regular-30"/>
       <use x="112.304688" xlink:href="#Roboto-Regular-2e"/>
       <use x="138.623047" xlink:href="#Roboto-Regular-32"/>
      </g>
     </g>
    </g>
    <g id="ytick_2">
     <g id="line2d_15">
      <path clip-path="url(#pfa47870d01)" d="M 53.58125 132.337629 
L 274.68 132.337629 
" style="fill:none;stroke:#ffffff;stroke-linecap:square;stroke-width:0.8;"/>
     </g>
     <g id="line2d_16">
      <g>
       <use style="fill:#555555;stroke:#555555;stroke-width:0.8;" x="53.58125" xlink:href="#m0dbd7f223a" y="132.337629"/>
      </g>
     </g>
     <g id="text_9">
      <!-- 20.3 -->
      <defs>
       <path d="M 19.046875 39.9375 
L 25.828125 39.9375 
Q 32.234375 40.046875 35.890625 43.3125 
Q 39.546875 46.578125 39.546875 52.15625 
Q 39.546875 64.65625 27.09375 64.65625 
Q 21.234375 64.65625 17.75 61.296875 
Q 14.265625 57.953125 14.265625 52.4375 
L 5.21875 52.4375 
Q 5.21875 60.890625 11.390625 66.484375 
Q 17.578125 72.078125 27.09375 72.078125 
Q 37.15625 72.078125 42.859375 66.75 
Q 48.578125 61.421875 48.578125 51.953125 
Q 48.578125 47.3125 45.578125 42.96875 
Q 42.578125 38.625 37.40625 36.46875 
Q 43.265625 34.625 46.453125 30.328125 
Q 49.65625 26.03125 49.65625 19.828125 
Q 49.65625 10.25 43.40625 4.625 
Q 37.15625 -0.984375 27.140625 -0.984375 
Q 17.140625 -0.984375 10.859375 4.4375 
Q 4.59375 9.859375 4.59375 18.75 
L 13.671875 18.75 
Q 13.671875 13.140625 17.328125 9.765625 
Q 21 6.390625 27.15625 6.390625 
Q 33.6875 6.390625 37.15625 9.8125 
Q 40.625 13.234375 40.625 19.625 
Q 40.625 25.828125 36.8125 29.140625 
Q 33.015625 32.46875 25.828125 32.5625 
L 19.046875 32.5625 
z
" id="Roboto-Regular-33"/>
      </defs>
      <g style="fill:#555555;" transform="translate(27.103125 136.087629)scale(0.1 -0.1)">
       <use xlink:href="#Roboto-Regular-32"/>
       <use x="56.152344" xlink:href="#Roboto-Regular-30"/>
       <use x="112.304688" xlink:href="#Roboto-Regular-2e"/>
       <use x="138.623047" xlink:href="#Roboto-Regular-33"/>
      </g>
     </g>
    </g>
    <g id="ytick_3">
     <g id="line2d_17">
      <path clip-path="url(#pfa47870d01)" d="M 53.58125 108.389375 
L 274.68 108.389375 
" style="fill:none;stroke:#ffffff;stroke-linecap:square;stroke-width:0.8;"/>
     </g>
     <g id="line2d_18">
      <g>
       <use style="fill:#555555;stroke:#555555;stroke-width:0.8;" x="53.58125" xlink:href="#m0dbd7f223a" y="108.389375"/>
      </g>
     </g>
     <g id="text_10">
      <!-- 20.4 -->
      <g style="fill:#555555;" transform="translate(27.103125 112.139375)scale(0.1 -0.1)">
       <use xlink:href="#Roboto-Regular-32"/>
       <use x="56.152344" xlink:href="#Roboto-Regular-30"/>
       <use x="112.304688" xlink:href="#Roboto-Regular-2e"/>
       <use x="138.623047" xlink:href="#Roboto-Regular-34"/>
      </g>
     </g>
    </g>
    <g id="ytick_4">
     <g id="line2d_19">
      <path clip-path="url(#pfa47870d01)" d="M 53.58125 84.441122 
L 274.68 84.441122 
" style="fill:none;stroke:#ffffff;stroke-linecap:square;stroke-width:0.8;"/>
     </g>
     <g id="line2d_20">
      <g>
       <use style="fill:#555555;stroke:#555555;stroke-width:0.8;" x="53.58125" xlink:href="#m0dbd7f223a" y="84.441122"/>
      </g>
     </g>
     <g id="text_11">
      <!-- 20.5 -->
      <defs>
       <path d="M 10.0625 35.640625 
L 13.671875 71.09375 
L 50.09375 71.09375 
L 50.09375 62.75 
L 21.34375 62.75 
L 19.1875 43.359375 
Q 24.421875 46.4375 31.0625 46.4375 
Q 40.765625 46.4375 46.484375 40.015625 
Q 52.203125 33.59375 52.203125 22.65625 
Q 52.203125 11.671875 46.265625 5.34375 
Q 40.328125 -0.984375 29.6875 -0.984375 
Q 20.265625 -0.984375 14.296875 4.234375 
Q 8.34375 9.46875 7.515625 18.703125 
L 16.0625 18.703125 
Q 16.890625 12.59375 20.40625 9.484375 
Q 23.921875 6.390625 29.6875 6.390625 
Q 35.984375 6.390625 39.578125 10.6875 
Q 43.171875 14.984375 43.171875 22.5625 
Q 43.171875 29.6875 39.28125 34 
Q 35.40625 38.328125 28.953125 38.328125 
Q 23.046875 38.328125 19.671875 35.75 
L 17.28125 33.796875 
z
" id="Roboto-Regular-35"/>
      </defs>
      <g style="fill:#555555;" transform="translate(27.103125 88.191122)scale(0.1 -0.1)">
       <use xlink:href="#Roboto-Regular-32"/>
       <use x="56.152344" xlink:href="#Roboto-Regular-30"/>
       <use x="112.304688" xlink:href="#Roboto-Regular-2e"/>
       <use x="138.623047" xlink:href="#Roboto-Regular-35"/>
      </g>
     </g>
    </g>
    <g id="ytick_5">
     <g id="line2d_21">
      <path clip-path="url(#pfa47870d01)" d="M 53.58125 60.492868 
L 274.68 60.492868 
" style="fill:none;stroke:#ffffff;stroke-linecap:square;stroke-width:0.8;"/>
     </g>
     <g id="line2d_22">
      <g>
       <use style="fill:#555555;stroke:#555555;stroke-width:0.8;" x="53.58125" xlink:href="#m0dbd7f223a" y="60.492868"/>
      </g>
     </g>
     <g id="text_12">
      <!-- 20.6 -->
      <g style="fill:#555555;" transform="translate(27.103125 64.242868)scale(0.1 -0.1)">
       <use xlink:href="#Roboto-Regular-32"/>
       <use x="56.152344" xlink:href="#Roboto-Regular-30"/>
       <use x="112.304688" xlink:href="#Roboto-Regular-2e"/>
       <use x="138.623047" xlink:href="#Roboto-Regular-36"/>
      </g>
     </g>
    </g>
    <g id="ytick_6">
     <g id="line2d_23">
      <path clip-path="url(#pfa47870d01)" d="M 53.58125 36.544615 
L 274.68 36.544615 
" style="fill:none;stroke:#ffffff;stroke-linecap:square;stroke-width:0.8;"/>
     </g>
     <g id="line2d_24">
      <g>
       <use style="fill:#555555;stroke:#555555;stroke-width:0.8;" x="53.58125" xlink:href="#m0dbd7f223a" y="36.544615"/>
      </g>
     </g>
     <g id="text_13">
      <!-- 20.7 -->
      <defs>
       <path d="M 51.8125 66.015625 
L 22.359375 0 
L 12.890625 0 
L 42.234375 63.671875 
L 3.765625 63.671875 
L 3.765625 71.09375 
L 51.8125 71.09375 
z
" id="Roboto-Regular-37"/>
      </defs>
      <g style="fill:#555555;" transform="translate(27.103125 40.294615)scale(0.1 -0.1)">
       <use xlink:href="#Roboto-Regular-32"/>
       <use x="56.152344" xlink:href="#Roboto-Regular-30"/>
       <use x="112.304688" xlink:href="#Roboto-Regular-2e"/>
       <use x="138.623047" xlink:href="#Roboto-Regular-37"/>
      </g>
     </g>
    </g>
    <g id="text_14">
     <!-- E (energy) -->
     <defs>
      <path d="M 48.4375 32.859375 
L 17.625 32.859375 
L 17.625 7.671875 
L 53.421875 7.671875 
L 53.421875 0 
L 8.25 0 
L 8.25 71.09375 
L 52.9375 71.09375 
L 52.9375 63.375 
L 17.625 63.375 
L 17.625 40.53125 
L 48.4375 40.53125 
z
" id="Roboto-Regular-45"/>
      <path d="M 4.6875 26.859375 
Q 4.6875 39.203125 10.390625 46.5 
Q 16.109375 53.8125 25.53125 53.8125 
Q 35.203125 53.8125 40.625 46.96875 
L 41.0625 52.828125 
L 49.3125 52.828125 
L 49.3125 1.265625 
Q 49.3125 -8.984375 43.234375 -14.890625 
Q 37.15625 -20.796875 26.90625 -20.796875 
Q 21.1875 -20.796875 15.71875 -18.359375 
Q 10.25 -15.921875 7.375 -11.671875 
L 12.0625 -6.25 
Q 17.875 -13.421875 26.265625 -13.421875 
Q 32.859375 -13.421875 36.546875 -9.703125 
Q 40.234375 -6 40.234375 0.734375 
L 40.234375 5.28125 
Q 34.8125 -0.984375 25.4375 -0.984375 
Q 16.15625 -0.984375 10.421875 6.484375 
Q 4.6875 13.96875 4.6875 26.859375 
M 13.765625 25.828125 
Q 13.765625 16.890625 17.421875 11.78125 
Q 21.09375 6.6875 27.6875 6.6875 
Q 36.234375 6.6875 40.234375 14.453125 
L 40.234375 38.578125 
Q 36.078125 46.140625 27.78125 46.140625 
Q 21.1875 46.140625 17.46875 41.015625 
Q 13.765625 35.890625 13.765625 25.828125 
" id="Roboto-Regular-67"/>
      <path d="M 24.125 13.234375 
L 36.421875 52.828125 
L 46.09375 52.828125 
L 24.859375 -8.15625 
Q 19.921875 -21.34375 9.1875 -21.34375 
L 7.46875 -21.1875 
L 4.109375 -20.5625 
L 4.109375 -13.234375 
L 6.546875 -13.421875 
Q 11.140625 -13.421875 13.703125 -11.5625 
Q 16.265625 -9.71875 17.921875 -4.78125 
L 19.921875 0.59375 
L 1.078125 52.828125 
L 10.9375 52.828125 
z
" id="Roboto-Regular-79"/>
     </defs>
     <g style="fill:#555555;" transform="translate(20.34875 119.441563)rotate(-90)scale(0.12 -0.12)">
      <use xlink:href="#Roboto-Regular-45"/>
      <use x="56.835938" xlink:href="#Roboto-Regular-20"/>
      <use x="81.591797" xlink:href="#Roboto-Regular-28"/>
      <use x="115.771484" xlink:href="#Roboto-Regular-65"/>
      <use x="168.75" xlink:href="#Roboto-Regular-6e"/>
      <use x="223.925781" xlink:href="#Roboto-Regular-65"/>
      <use x="276.904297" xlink:href="#Roboto-Regular-72"/>
      <use x="310.742188" xlink:href="#Roboto-Regular-67"/>
      <use x="366.845703" xlink:href="#Roboto-Regular-79"/>
      <use x="414.160156" xlink:href="#Roboto-Regular-29"/>
     </g>
    </g>
   </g>
   <g id="line2d_25">
    <path clip-path="url(#pfa47870d01)" d="M 81.903817 124.820572 
L 100.176441 138.744665 
L 118.449065 144.536005 
L 136.721689 148.182049 
L 154.994313 150.655303 
L 173.266937 152.423561 
L 191.539561 153.75356 
L 209.812185 154.787411 
L 228.084809 155.613903 
L 246.357433 156.289344 
L 264.630057 156.851286 
" style="fill:none;stroke:#1c5aa5;stroke-linecap:square;stroke-width:1.5;"/>
    <defs>
     <path d="M -3 3 
L 3 -3 
M -3 -3 
L 3 3 
" id="m478f0d4fc2" style="stroke:#1c5aa5;"/>
    </defs>
    <g clip-path="url(#pfa47870d01)">
     <use style="fill:#1c5aa5;stroke:#1c5aa5;" x="81.903817" xlink:href="#m478f0d4fc2" y="124.820572"/>
     <use style="fill:#1c5aa5;stroke:#1c5aa5;" x="100.176441" xlink:href="#m478f0d4fc2" y="138.744665"/>
     <use style="fill:#1c5aa5;stroke:#1c5aa5;" x="118.449065" xlink:href="#m478f0d4fc2" y="144.536005"/>
     <use style="fill:#1c5aa5;stroke:#1c5aa5;" x="136.721689" xlink:href="#m478f0d4fc2" y="148.182049"/>
     <use style="fill:#1c5aa5;stroke:#1c5aa5;" x="154.994313" xlink:href="#m478f0d4fc2" y="150.655303"/>
     <use style="fill:#1c5aa5;stroke:#1c5aa5;" x="173.266937" xlink:href="#m478f0d4fc2" y="152.423561"/>
     <use style="fill:#1c5aa5;stroke:#1c5aa5;" x="191.539561" xlink:href="#m478f0d4fc2" y="153.75356"/>
     <use style="fill:#1c5aa5;stroke:#1c5aa5;" x="209.812185" xlink:href="#m478f0d4fc2" y="154.787411"/>
     <use style="fill:#1c5aa5;stroke:#1c5aa5;" x="228.084809" xlink:href="#m478f0d4fc2" y="155.613903"/>
     <use style="fill:#1c5aa5;stroke:#1c5aa5;" x="246.357433" xlink:href="#m478f0d4fc2" y="156.289344"/>
     <use style="fill:#1c5aa5;stroke:#1c5aa5;" x="264.630057" xlink:href="#m478f0d4fc2" y="156.851286"/>
    </g>
   </g>
   <g id="line2d_26">
    <path clip-path="url(#pfa47870d01)" d="M 63.631193 104.597648 
L 81.903817 128.323423 
L 100.176441 142.58844 
L 118.449065 148.54892 
L 136.721689 152.351664 
" style="fill:none;stroke:#2e2360;stroke-linecap:square;stroke-width:1.5;"/>
    <defs>
     <path d="M -3 3 
L 3 -3 
M -3 -3 
L 3 3 
" id="m67312bdc0d" style="stroke:#2e2360;"/>
    </defs>
    <g clip-path="url(#pfa47870d01)">
     <use style="fill:#2e2360;stroke:#2e2360;" x="63.631193" xlink:href="#m67312bdc0d" y="104.597648"/>
     <use style="fill:#2e2360;stroke:#2e2360;" x="81.903817" xlink:href="#m67312bdc0d" y="128.323423"/>
     <use style="fill:#2e2360;stroke:#2e2360;" x="100.176441" xlink:href="#m67312bdc0d" y="142.58844"/>
     <use style="fill:#2e2360;stroke:#2e2360;" x="118.449065" xlink:href="#m67312bdc0d" y="148.54892"/>
     <use style="fill:#2e2360;stroke:#2e2360;" x="136.721689" xlink:href="#m67312bdc0d" y="152.351664"/>
    </g>
   </g>
   <g id="line2d_27">
    <path clip-path="url(#pfa47870d01)" d="M 63.631193 20.51858 
L 81.903817 24.95312 
L 100.176441 31.693399 
L 118.449065 31.723464 
L 136.721689 31.934949 
L 154.994313 31.935013 
L 173.266937 31.942465 
L 191.539561 31.942854 
L 209.812185 31.942855 
L 228.084809 31.94294 
L 246.357433 31.943014 
L 264.630057 31.943018 
" style="fill:none;stroke:#e0cc18;stroke-linecap:square;stroke-width:1.5;"/>
    <defs>
     <path d="M -3 3 
L 3 -3 
M -3 -3 
L 3 3 
" id="m8059fedfb8" style="stroke:#e0cc18;"/>
    </defs>
    <g clip-path="url(#pfa47870d01)">
     <use style="fill:#e0cc18;stroke:#e0cc18;" x="63.631193" xlink:href="#m8059fedfb8" y="20.51858"/>
     <use style="fill:#e0cc18;stroke:#e0cc18;" x="81.903817" xlink:href="#m8059fedfb8" y="24.95312"/>
     <use style="fill:#e0cc18;stroke:#e0cc18;" x="100.176441" xlink:href="#m8059fedfb8" y="31.693399"/>
     <use style="fill:#e0cc18;stroke:#e0cc18;" x="118.449065" xlink:href="#m8059fedfb8" y="31.723464"/>
     <use style="fill:#e0cc18;stroke:#e0cc18;" x="136.721689" xlink:href="#m8059fedfb8" y="31.934949"/>
     <use style="fill:#e0cc18;stroke:#e0cc18;" x="154.994313" xlink:href="#m8059fedfb8" y="31.935013"/>
     <use style="fill:#e0cc18;stroke:#e0cc18;" x="173.266937" xlink:href="#m8059fedfb8" y="31.942465"/>
     <use style="fill:#e0cc18;stroke:#e0cc18;" x="191.539561" xlink:href="#m8059fedfb8" y="31.942854"/>
     <use style="fill:#e0cc18;stroke:#e0cc18;" x="209.812185" xlink:href="#m8059fedfb8" y="31.942855"/>
     <use style="fill:#e0cc18;stroke:#e0cc18;" x="228.084809" xlink:href="#m8059fedfb8" y="31.94294"/>
     <use style="fill:#e0cc18;stroke:#e0cc18;" x="246.357433" xlink:href="#m8059fedfb8" y="31.943014"/>
     <use style="fill:#e0cc18;stroke:#e0cc18;" x="264.630057" xlink:href="#m8059fedfb8" y="31.943018"/>
    </g>
   </g>
   <g id="line2d_28">
    <path clip-path="url(#pfa47870d01)" d="M 63.631193 106.709817 
L 81.903817 132.11189 
L 100.176441 146.087173 
L 118.449065 152.114411 
L 136.721689 155.810767 
L 154.994313 158.324671 
L 173.266937 160.097404 
L 191.539561 161.426204 
L 209.812185 162.452774 
L 228.084809 163.270633 
L 246.357433 163.937053 
L 264.630057 164.49017 
" style="fill:none;stroke:#92e057;stroke-linecap:square;stroke-width:1.5;"/>
    <defs>
     <path d="M -3 3 
L 3 -3 
M -3 -3 
L 3 3 
" id="m59fe79908b" style="stroke:#92e057;"/>
    </defs>
    <g clip-path="url(#pfa47870d01)">
     <use style="fill:#92e057;stroke:#92e057;" x="63.631193" xlink:href="#m59fe79908b" y="106.709817"/>
     <use style="fill:#92e057;stroke:#92e057;" x="81.903817" xlink:href="#m59fe79908b" y="132.11189"/>
     <use style="fill:#92e057;stroke:#92e057;" x="100.176441" xlink:href="#m59fe79908b" y="146.087173"/>
     <use style="fill:#92e057;stroke:#92e057;" x="118.449065" xlink:href="#m59fe79908b" y="152.114411"/>
     <use style="fill:#92e057;stroke:#92e057;" x="136.721689" xlink:href="#m59fe79908b" y="155.810767"/>
     <use style="fill:#92e057;stroke:#92e057;" x="154.994313" xlink:href="#m59fe79908b" y="158.324671"/>
     <use style="fill:#92e057;stroke:#92e057;" x="173.266937" xlink:href="#m59fe79908b" y="160.097404"/>
     <use style="fill:#92e057;stroke:#92e057;" x="191.539561" xlink:href="#m59fe79908b" y="161.426204"/>
     <use style="fill:#92e057;stroke:#92e057;" x="209.812185" xlink:href="#m59fe79908b" y="162.452774"/>
     <use style="fill:#92e057;stroke:#92e057;" x="228.084809" xlink:href="#m59fe79908b" y="163.270633"/>
     <use style="fill:#92e057;stroke:#92e057;" x="246.357433" xlink:href="#m59fe79908b" y="163.937053"/>
     <use style="fill:#92e057;stroke:#92e057;" x="264.630057" xlink:href="#m59fe79908b" y="164.49017"/>
    </g>
   </g>
   <g id="line2d_29">
    <path clip-path="url(#pfa47870d01)" d="M 63.631193 95.582017 
L 81.903817 116.163781 
L 100.176441 131.724251 
L 118.449065 138.552774 
L 136.721689 143.776502 
L 154.994313 147.50185 
L 173.266937 150.4624 
L 191.539561 152.824201 
L 209.812185 154.763469 
L 228.084809 156.383368 
L 246.357433 157.754797 
L 264.630057 158.930605 
" style="fill:none;stroke:#a81e4c;stroke-linecap:square;stroke-width:1.5;"/>
    <defs>
     <path d="M -3 3 
L 3 -3 
M -3 -3 
L 3 3 
" id="me1d36d7786" style="stroke:#a81e4c;"/>
    </defs>
    <g clip-path="url(#pfa47870d01)">
     <use style="fill:#a81e4c;stroke:#a81e4c;" x="63.631193" xlink:href="#me1d36d7786" y="95.582017"/>
     <use style="fill:#a81e4c;stroke:#a81e4c;" x="81.903817" xlink:href="#me1d36d7786" y="116.163781"/>
     <use style="fill:#a81e4c;stroke:#a81e4c;" x="100.176441" xlink:href="#me1d36d7786" y="131.724251"/>
     <use style="fill:#a81e4c;stroke:#a81e4c;" x="118.449065" xlink:href="#me1d36d7786" y="138.552774"/>
     <use style="fill:#a81e4c;stroke:#a81e4c;" x="136.721689" xlink:href="#me1d36d7786" y="143.776502"/>
     <use style="fill:#a81e4c;stroke:#a81e4c;" x="154.994313" xlink:href="#me1d36d7786" y="147.50185"/>
     <use style="fill:#a81e4c;stroke:#a81e4c;" x="173.266937" xlink:href="#me1d36d7786" y="150.4624"/>
     <use style="fill:#a81e4c;stroke:#a81e4c;" x="191.539561" xlink:href="#me1d36d7786" y="152.824201"/>
     <use style="fill:#a81e4c;stroke:#a81e4c;" x="209.812185" xlink:href="#me1d36d7786" y="154.763469"/>
     <use style="fill:#a81e4c;stroke:#a81e4c;" x="228.084809" xlink:href="#me1d36d7786" y="156.383368"/>
     <use style="fill:#a81e4c;stroke:#a81e4c;" x="246.357433" xlink:href="#me1d36d7786" y="157.754797"/>
     <use style="fill:#a81e4c;stroke:#a81e4c;" x="264.630057" xlink:href="#me1d36d7786" y="158.930605"/>
    </g>
   </g>
   <g id="patch_3">
    <path d="M 53.58125 171.68875 
L 53.58125 13.32 
" style="fill:none;stroke:#ffffff;stroke-linecap:square;stroke-linejoin:miter;"/>
   </g>
   <g id="patch_4">
    <path d="M 274.68 171.68875 
L 274.68 13.32 
" style="fill:none;stroke:#ffffff;stroke-linecap:square;stroke-linejoin:miter;"/>
   </g>
   <g id="patch_5">
    <path d="M 53.58125 171.68875 
L 274.68 171.68875 
" style="fill:none;stroke:#ffffff;stroke-linecap:square;stroke-linejoin:miter;"/>
   </g>
   <g id="patch_6">
    <path d="M 53.58125 13.32 
L 274.68 13.32 
" style="fill:none;stroke:#ffffff;stroke-linecap:square;stroke-linejoin:miter;"/>
   </g>
   <g id="legend_1">
    <g id="patch_7">
     <path d="M 192.815938 130.777031 
L 267.68 130.777031 
Q 269.68 130.777031 269.68 128.777031 
L 269.68 56.231719 
Q 269.68 54.231719 267.68 54.231719 
L 192.815938 54.231719 
Q 190.815938 54.231719 190.815938 56.231719 
L 190.815938 128.777031 
Q 190.815938 130.777031 192.815938 130.777031 
z
" style="fill:#e5e5e5;opacity:0.8;stroke:#cccccc;stroke-linejoin:miter;stroke-width:0.5;"/>
    </g>
    <g id="line2d_30">
     <path d="M 194.815938 62.231719 
L 214.815938 62.231719 
" style="fill:none;stroke:#1c5aa5;stroke-linecap:square;stroke-width:1.5;"/>
    </g>
    <g id="line2d_31">
     <g>
      <use style="fill:#1c5aa5;stroke:#1c5aa5;" x="204.815938" xlink:href="#m478f0d4fc2" y="62.231719"/>
     </g>
    </g>
    <g id="text_15">
     <!-- CCSD -->
     <defs>
      <path d="M 60.546875 22.5625 
Q 59.234375 11.28125 52.21875 5.140625 
Q 45.21875 -0.984375 33.59375 -0.984375 
Q 21 -0.984375 13.40625 8.046875 
Q 5.8125 17.09375 5.8125 32.234375 
L 5.8125 39.0625 
Q 5.8125 48.96875 9.34375 56.484375 
Q 12.890625 64.015625 19.375 68.046875 
Q 25.875 72.078125 34.421875 72.078125 
Q 45.75 72.078125 52.578125 65.75 
Q 59.421875 59.421875 60.546875 48.25 
L 51.125 48.25 
Q 49.90625 56.734375 45.828125 60.546875 
Q 41.75 64.359375 34.421875 64.359375 
Q 25.4375 64.359375 20.328125 57.71875 
Q 15.234375 51.078125 15.234375 38.8125 
L 15.234375 31.9375 
Q 15.234375 20.359375 20.0625 13.515625 
Q 24.90625 6.6875 33.59375 6.6875 
Q 41.40625 6.6875 45.578125 10.21875 
Q 49.75 13.765625 51.125 22.5625 
z
" id="Roboto-Regular-43"/>
      <path d="M 29.203125 31.6875 
Q 17.140625 35.15625 11.640625 40.203125 
Q 6.15625 45.265625 6.15625 52.6875 
Q 6.15625 61.078125 12.859375 66.578125 
Q 19.578125 72.078125 30.328125 72.078125 
Q 37.640625 72.078125 43.375 69.234375 
Q 49.125 66.40625 52.265625 61.421875 
Q 55.421875 56.453125 55.421875 50.53125 
L 46 50.53125 
Q 46 56.984375 41.890625 60.671875 
Q 37.796875 64.359375 30.328125 64.359375 
Q 23.390625 64.359375 19.5 61.296875 
Q 15.625 58.25 15.625 52.828125 
Q 15.625 48.484375 19.3125 45.484375 
Q 23 42.484375 31.859375 39.984375 
Q 40.71875 37.5 45.71875 34.5 
Q 50.734375 31.5 53.140625 27.484375 
Q 55.5625 23.484375 55.5625 18.0625 
Q 55.5625 9.421875 48.828125 4.21875 
Q 42.09375 -0.984375 30.8125 -0.984375 
Q 23.484375 -0.984375 17.140625 1.828125 
Q 10.796875 4.640625 7.34375 9.515625 
Q 3.90625 14.40625 3.90625 20.609375 
L 13.328125 20.609375 
Q 13.328125 14.15625 18.09375 10.421875 
Q 22.859375 6.6875 30.8125 6.6875 
Q 38.234375 6.6875 42.1875 9.71875 
Q 46.140625 12.75 46.140625 17.96875 
Q 46.140625 23.1875 42.46875 26.046875 
Q 38.8125 28.90625 29.203125 31.6875 
" id="Roboto-Regular-53"/>
      <path d="M 8.25 0 
L 8.25 71.09375 
L 28.328125 71.09375 
Q 37.59375 71.09375 44.71875 66.984375 
Q 51.859375 62.890625 55.734375 55.3125 
Q 59.625 47.75 59.671875 37.9375 
L 59.671875 33.40625 
Q 59.671875 23.34375 55.78125 15.765625 
Q 51.90625 8.203125 44.703125 4.140625 
Q 37.5 0.09375 27.9375 0 
z
M 17.625 63.375 
L 17.625 7.671875 
L 27.484375 7.671875 
Q 38.328125 7.671875 44.359375 14.40625 
Q 50.390625 21.140625 50.390625 33.59375 
L 50.390625 37.75 
Q 50.390625 49.859375 44.703125 56.5625 
Q 39.015625 63.28125 28.5625 63.375 
z
" id="Roboto-Regular-44"/>
     </defs>
     <g transform="translate(222.815938 65.731719)scale(0.1 -0.1)">
      <use xlink:href="#Roboto-Regular-43"/>
      <use x="65.087891" xlink:href="#Roboto-Regular-43"/>
      <use x="130.175781" xlink:href="#Roboto-Regular-53"/>
      <use x="189.501953" xlink:href="#Roboto-Regular-44"/>
     </g>
    </g>
    <g id="line2d_32">
     <path d="M 194.815938 76.762969 
L 214.815938 76.762969 
" style="fill:none;stroke:#2e2360;stroke-linecap:square;stroke-width:1.5;"/>
    </g>
    <g id="line2d_33">
     <g>
      <use style="fill:#2e2360;stroke:#2e2360;" x="204.815938" xlink:href="#m67312bdc0d" y="76.762969"/>
     </g>
    </g>
    <g id="text_16">
     <!-- FCI -->
     <defs>
      <path d="M 47.46875 31.390625 
L 17.625 31.390625 
L 17.625 0 
L 8.25 0 
L 8.25 71.09375 
L 52.296875 71.09375 
L 52.296875 63.375 
L 17.625 63.375 
L 17.625 39.0625 
L 47.46875 39.0625 
z
" id="Roboto-Regular-46"/>
      <path d="M 18.3125 0 
L 8.9375 0 
L 8.9375 71.09375 
L 18.3125 71.09375 
z
" id="Roboto-Regular-49"/>
     </defs>
     <g transform="translate(222.815938 80.262969)scale(0.1 -0.1)">
      <use xlink:href="#Roboto-Regular-46"/>
      <use x="55.273438" xlink:href="#Roboto-Regular-43"/>
      <use x="120.361328" xlink:href="#Roboto-Regular-49"/>
     </g>
    </g>
    <g id="line2d_34">
     <path d="M 194.815938 91.294219 
L 214.815938 91.294219 
" style="fill:none;stroke:#e0cc18;stroke-linecap:square;stroke-width:1.5;"/>
    </g>
    <g id="line2d_35">
     <g>
      <use style="fill:#e0cc18;stroke:#e0cc18;" x="204.815938" xlink:href="#m8059fedfb8" y="91.294219"/>
     </g>
    </g>
    <g id="text_17">
     <!-- HF only -->
     <defs>
      <path d="M 62.890625 0 
L 53.46875 0 
L 53.46875 32.859375 
L 17.625 32.859375 
L 17.625 0 
L 8.25 0 
L 8.25 71.09375 
L 17.625 71.09375 
L 17.625 40.53125 
L 53.46875 40.53125 
L 53.46875 71.09375 
L 62.890625 71.09375 
z
" id="Roboto-Regular-48"/>
     </defs>
     <g transform="translate(222.815938 94.794219)scale(0.1 -0.1)">
      <use xlink:href="#Roboto-Regular-48"/>
      <use x="71.289062" xlink:href="#Roboto-Regular-46"/>
      <use x="126.5625" xlink:href="#Roboto-Regular-20"/>
      <use x="151.318359" xlink:href="#Roboto-Regular-6f"/>
      <use x="208.349609" xlink:href="#Roboto-Regular-6e"/>
      <use x="263.525391" xlink:href="#Roboto-Regular-6c"/>
      <use x="287.792969" xlink:href="#Roboto-Regular-79"/>
     </g>
    </g>
    <g id="line2d_36">
     <path d="M 194.815938 106.450469 
L 214.815938 106.450469 
" style="fill:none;stroke:#92e057;stroke-linecap:square;stroke-width:1.5;"/>
    </g>
    <g id="line2d_37">
     <g>
      <use style="fill:#92e057;stroke:#92e057;" x="204.815938" xlink:href="#m59fe79908b" y="106.450469"/>
     </g>
    </g>
    <g id="text_18">
     <!-- IMSRG(2) -->
     <defs>
      <path d="M 20.359375 71.09375 
L 43.609375 13.09375 
L 66.84375 71.09375 
L 79 71.09375 
L 79 0 
L 69.625 0 
L 69.625 27.6875 
L 70.515625 57.5625 
L 47.171875 0 
L 39.984375 0 
L 16.703125 57.421875 
L 17.625 27.6875 
L 17.625 0 
L 8.25 0 
L 8.25 71.09375 
z
" id="Roboto-Regular-4d"/>
      <path d="M 34.328125 28.765625 
L 17.625 28.765625 
L 17.625 0 
L 8.203125 0 
L 8.203125 71.09375 
L 31.734375 71.09375 
Q 43.75 71.09375 50.21875 65.625 
Q 56.6875 60.15625 56.6875 49.703125 
Q 56.6875 43.0625 53.09375 38.125 
Q 49.515625 33.203125 43.109375 30.765625 
L 59.8125 0.59375 
L 59.8125 0 
L 49.75 0 
z
M 17.625 36.421875 
L 32.03125 36.421875 
Q 39.015625 36.421875 43.140625 40.03125 
Q 47.265625 43.65625 47.265625 49.703125 
Q 47.265625 56.296875 43.328125 59.8125 
Q 39.40625 63.328125 31.984375 63.375 
L 17.625 63.375 
z
" id="Roboto-Regular-52"/>
      <path d="M 60.75 9.328125 
Q 57.125 4.15625 50.65625 1.578125 
Q 44.1875 -0.984375 35.59375 -0.984375 
Q 26.90625 -0.984375 20.15625 3.09375 
Q 13.421875 7.171875 9.734375 14.6875 
Q 6.0625 22.21875 5.953125 32.125 
L 5.953125 38.328125 
Q 5.953125 54.390625 13.453125 63.234375 
Q 20.953125 72.078125 34.515625 72.078125 
Q 45.65625 72.078125 52.4375 66.375 
Q 59.234375 60.6875 60.75 50.25 
L 51.375 50.25 
Q 48.734375 64.359375 34.578125 64.359375 
Q 25.140625 64.359375 20.28125 57.734375 
Q 15.4375 51.125 15.375 38.578125 
L 15.375 32.765625 
Q 15.375 20.796875 20.84375 13.734375 
Q 26.3125 6.6875 35.640625 6.6875 
Q 40.921875 6.6875 44.875 7.859375 
Q 48.828125 9.03125 51.421875 11.8125 
L 51.421875 27.78125 
L 34.96875 27.78125 
L 34.96875 35.40625 
L 60.75 35.40625 
z
" id="Roboto-Regular-47"/>
     </defs>
     <g transform="translate(222.815938 109.950469)scale(0.1 -0.1)">
      <use xlink:href="#Roboto-Regular-49"/>
      <use x="27.197266" xlink:href="#Roboto-Regular-4d"/>
      <use x="114.501953" xlink:href="#Roboto-Regular-53"/>
      <use x="173.828125" xlink:href="#Roboto-Regular-52"/>
      <use x="235.400391" xlink:href="#Roboto-Regular-47"/>
      <use x="303.515625" xlink:href="#Roboto-Regular-28"/>
      <use x="337.695312" xlink:href="#Roboto-Regular-32"/>
      <use x="393.847656" xlink:href="#Roboto-Regular-29"/>
     </g>
    </g>
    <g id="line2d_38">
     <path d="M 194.815938 121.245781 
L 214.815938 121.245781 
" style="fill:none;stroke:#a81e4c;stroke-linecap:square;stroke-width:1.5;"/>
    </g>
    <g id="line2d_39">
     <g>
      <use style="fill:#a81e4c;stroke:#a81e4c;" x="204.815938" xlink:href="#me1d36d7786" y="121.245781"/>
     </g>
    </g>
    <g id="text_19">
     <!-- MP2 -->
     <defs>
      <path d="M 17.625 27.828125 
L 17.625 0 
L 8.25 0 
L 8.25 71.09375 
L 34.46875 71.09375 
Q 46.140625 71.09375 52.75 65.140625 
Q 59.375 59.1875 59.375 49.359375 
Q 59.375 39.015625 52.90625 33.421875 
Q 46.4375 27.828125 34.375 27.828125 
z
M 17.625 35.5 
L 34.46875 35.5 
Q 42 35.5 46 39.03125 
Q 50 42.578125 50 49.265625 
Q 50 55.609375 46 59.421875 
Q 42 63.234375 35.015625 63.375 
L 17.625 63.375 
z
" id="Roboto-Regular-50"/>
     </defs>
     <g transform="translate(222.815938 124.745781)scale(0.1 -0.1)">
      <use xlink:href="#Roboto-Regular-4d"/>
      <use x="87.304688" xlink:href="#Roboto-Regular-50"/>
      <use x="150.390625" xlink:href="#Roboto-Regular-32"/>
     </g>
    </g>
   </g>
  </g>
 </g>
 <defs>
  <clipPath id="pfa47870d01">
   <rect height="158.36875" width="221.09875" x="53.58125" y="13.32"/>
  </clipPath>
 </defs>
</svg>
