<?xml version="1.0" encoding="utf-8" standalone="no"?>
<!DOCTYPE svg PUBLIC "-//W3C//DTD SVG 1.1//EN"
  "http://www.w3.org/Graphics/SVG/1.1/DTD/svg11.dtd">
<!-- Created with matplotlib (http://matplotlib.org/) -->
<svg height="720pt" version="1.1" viewBox="0 0 576 720" width="576pt" xmlns="http://www.w3.org/2000/svg" xmlns:xlink="http://www.w3.org/1999/xlink">
 <defs>
  <style type="text/css">
*{stroke-linecap:butt;stroke-linejoin:round;}
  </style>
 </defs>
 <g id="figure_1">
  <g id="patch_1">
   <path d="M 0 720 
L 576 720 
L 576 0 
L 0 0 
z
" style="fill:#ffffff;"/>
  </g>
  <g id="axes_1">
   <g id="patch_2">
    <path d="M 72 338.4 
L 518.4 338.4 
L 518.4 86.4 
L 72 86.4 
z
" style="fill:#e5e5e5;"/>
   </g>
   <g id="matplotlib.axis_1">
    <g id="xtick_1">
     <g id="line2d_1">
      <path clip-path="url(#p7bc7ef6a7d)" d="M 132.872727 338.4 
L 132.872727 86.4 
" style="fill:none;stroke:#ffffff;stroke-linecap:square;stroke-width:0.8;"/>
     </g>
     <g id="line2d_2">
      <defs>
       <path d="M 0 0 
L 0 3.5 
" id="me62bcd8525" style="stroke:#555555;stroke-width:0.8;"/>
      </defs>
      <g>
       <use style="fill:#555555;stroke:#555555;stroke-width:0.8;" x="132.872727" xlink:href="#me62bcd8525" y="338.4"/>
      </g>
     </g>
     <g id="text_1">
      <!-- 6 -->
      <defs>
       <path d="M 33.015625 40.375 
Q 26.375 40.375 22.484375 35.828125 
Q 18.609375 31.296875 18.609375 23.390625 
Q 18.609375 15.53125 22.484375 10.953125 
Q 26.375 6.390625 33.015625 6.390625 
Q 39.65625 6.390625 43.53125 10.953125 
Q 47.40625 15.53125 47.40625 23.390625 
Q 47.40625 31.296875 43.53125 35.828125 
Q 39.65625 40.375 33.015625 40.375 
M 52.59375 71.296875 
L 52.59375 62.3125 
Q 48.875 64.0625 45.09375 64.984375 
Q 41.3125 65.921875 37.59375 65.921875 
Q 27.828125 65.921875 22.671875 59.328125 
Q 17.53125 52.734375 16.796875 39.40625 
Q 19.671875 43.65625 24.015625 45.921875 
Q 28.375 48.1875 33.59375 48.1875 
Q 44.578125 48.1875 50.953125 41.515625 
Q 57.328125 34.859375 57.328125 23.390625 
Q 57.328125 12.15625 50.6875 5.359375 
Q 44.046875 -1.421875 33.015625 -1.421875 
Q 20.359375 -1.421875 13.671875 8.265625 
Q 6.984375 17.96875 6.984375 36.375 
Q 6.984375 53.65625 15.1875 63.9375 
Q 23.390625 74.21875 37.203125 74.21875 
Q 40.921875 74.21875 44.703125 73.484375 
Q 48.484375 72.75 52.59375 71.296875 
" id="DejaVuSans-36"/>
      </defs>
      <g style="fill:#555555;" transform="translate(129.691477 352.998437)scale(0.1 -0.1)">
       <use xlink:href="#DejaVuSans-36"/>
      </g>
     </g>
    </g>
    <g id="xtick_2">
     <g id="line2d_3">
      <path clip-path="url(#p7bc7ef6a7d)" d="M 214.036364 338.4 
L 214.036364 86.4 
" style="fill:none;stroke:#ffffff;stroke-linecap:square;stroke-width:0.8;"/>
     </g>
     <g id="line2d_4">
      <g>
       <use style="fill:#555555;stroke:#555555;stroke-width:0.8;" x="214.036364" xlink:href="#me62bcd8525" y="338.4"/>
      </g>
     </g>
     <g id="text_2">
      <!-- 8 -->
      <defs>
       <path d="M 31.78125 34.625 
Q 24.75 34.625 20.71875 30.859375 
Q 16.703125 27.09375 16.703125 20.515625 
Q 16.703125 13.921875 20.71875 10.15625 
Q 24.75 6.390625 31.78125 6.390625 
Q 38.8125 6.390625 42.859375 10.171875 
Q 46.921875 13.96875 46.921875 20.515625 
Q 46.921875 27.09375 42.890625 30.859375 
Q 38.875 34.625 31.78125 34.625 
M 21.921875 38.8125 
Q 15.578125 40.375 12.03125 44.71875 
Q 8.5 49.078125 8.5 55.328125 
Q 8.5 64.0625 14.71875 69.140625 
Q 20.953125 74.21875 31.78125 74.21875 
Q 42.671875 74.21875 48.875 69.140625 
Q 55.078125 64.0625 55.078125 55.328125 
Q 55.078125 49.078125 51.53125 44.71875 
Q 48 40.375 41.703125 38.8125 
Q 48.828125 37.15625 52.796875 32.3125 
Q 56.78125 27.484375 56.78125 20.515625 
Q 56.78125 9.90625 50.3125 4.234375 
Q 43.84375 -1.421875 31.78125 -1.421875 
Q 19.734375 -1.421875 13.25 4.234375 
Q 6.78125 9.90625 6.78125 20.515625 
Q 6.78125 27.484375 10.78125 32.3125 
Q 14.796875 37.15625 21.921875 38.8125 
M 18.3125 54.390625 
Q 18.3125 48.734375 21.84375 45.5625 
Q 25.390625 42.390625 31.78125 42.390625 
Q 38.140625 42.390625 41.71875 45.5625 
Q 45.3125 48.734375 45.3125 54.390625 
Q 45.3125 60.0625 41.71875 63.234375 
Q 38.140625 66.40625 31.78125 66.40625 
Q 25.390625 66.40625 21.84375 63.234375 
Q 18.3125 60.0625 18.3125 54.390625 
" id="DejaVuSans-38"/>
      </defs>
      <g style="fill:#555555;" transform="translate(210.855114 352.998437)scale(0.1 -0.1)">
       <use xlink:href="#DejaVuSans-38"/>
      </g>
     </g>
    </g>
    <g id="xtick_3">
     <g id="line2d_5">
      <path clip-path="url(#p7bc7ef6a7d)" d="M 295.2 338.4 
L 295.2 86.4 
" style="fill:none;stroke:#ffffff;stroke-linecap:square;stroke-width:0.8;"/>
     </g>
     <g id="line2d_6">
      <g>
       <use style="fill:#555555;stroke:#555555;stroke-width:0.8;" x="295.2" xlink:href="#me62bcd8525" y="338.4"/>
      </g>
     </g>
     <g id="text_3">
      <!-- 10 -->
      <defs>
       <path d="M 12.40625 8.296875 
L 28.515625 8.296875 
L 28.515625 63.921875 
L 10.984375 60.40625 
L 10.984375 69.390625 
L 28.421875 72.90625 
L 38.28125 72.90625 
L 38.28125 8.296875 
L 54.390625 8.296875 
L 54.390625 0 
L 12.40625 0 
z
" id="DejaVuSans-31"/>
       <path d="M 31.78125 66.40625 
Q 24.171875 66.40625 20.328125 58.90625 
Q 16.5 51.421875 16.5 36.375 
Q 16.5 21.390625 20.328125 13.890625 
Q 24.171875 6.390625 31.78125 6.390625 
Q 39.453125 6.390625 43.28125 13.890625 
Q 47.125 21.390625 47.125 36.375 
Q 47.125 51.421875 43.28125 58.90625 
Q 39.453125 66.40625 31.78125 66.40625 
M 31.78125 74.21875 
Q 44.046875 74.21875 50.515625 64.515625 
Q 56.984375 54.828125 56.984375 36.375 
Q 56.984375 17.96875 50.515625 8.265625 
Q 44.046875 -1.421875 31.78125 -1.421875 
Q 19.53125 -1.421875 13.0625 8.265625 
Q 6.59375 17.96875 6.59375 36.375 
Q 6.59375 54.828125 13.0625 64.515625 
Q 19.53125 74.21875 31.78125 74.21875 
" id="DejaVuSans-30"/>
      </defs>
      <g style="fill:#555555;" transform="translate(288.8375 352.998437)scale(0.1 -0.1)">
       <use xlink:href="#DejaVuSans-31"/>
       <use x="63.623047" xlink:href="#DejaVuSans-30"/>
      </g>
     </g>
    </g>
    <g id="xtick_4">
     <g id="line2d_7">
      <path clip-path="url(#p7bc7ef6a7d)" d="M 376.363636 338.4 
L 376.363636 86.4 
" style="fill:none;stroke:#ffffff;stroke-linecap:square;stroke-width:0.8;"/>
     </g>
     <g id="line2d_8">
      <g>
       <use style="fill:#555555;stroke:#555555;stroke-width:0.8;" x="376.363636" xlink:href="#me62bcd8525" y="338.4"/>
      </g>
     </g>
     <g id="text_4">
      <!-- 12 -->
      <defs>
       <path d="M 19.1875 8.296875 
L 53.609375 8.296875 
L 53.609375 0 
L 7.328125 0 
L 7.328125 8.296875 
Q 12.9375 14.109375 22.625 23.890625 
Q 32.328125 33.6875 34.8125 36.53125 
Q 39.546875 41.84375 41.421875 45.53125 
Q 43.3125 49.21875 43.3125 52.78125 
Q 43.3125 58.59375 39.234375 62.25 
Q 35.15625 65.921875 28.609375 65.921875 
Q 23.96875 65.921875 18.8125 64.3125 
Q 13.671875 62.703125 7.8125 59.421875 
L 7.8125 69.390625 
Q 13.765625 71.78125 18.9375 73 
Q 24.125 74.21875 28.421875 74.21875 
Q 39.75 74.21875 46.484375 68.546875 
Q 53.21875 62.890625 53.21875 53.421875 
Q 53.21875 48.921875 51.53125 44.890625 
Q 49.859375 40.875 45.40625 35.40625 
Q 44.1875 33.984375 37.640625 27.21875 
Q 31.109375 20.453125 19.1875 8.296875 
" id="DejaVuSans-32"/>
      </defs>
      <g style="fill:#555555;" transform="translate(370.001136 352.998437)scale(0.1 -0.1)">
       <use xlink:href="#DejaVuSans-31"/>
       <use x="63.623047" xlink:href="#DejaVuSans-32"/>
      </g>
     </g>
    </g>
    <g id="xtick_5">
     <g id="line2d_9">
      <path clip-path="url(#p7bc7ef6a7d)" d="M 457.527273 338.4 
L 457.527273 86.4 
" style="fill:none;stroke:#ffffff;stroke-linecap:square;stroke-width:0.8;"/>
     </g>
     <g id="line2d_10">
      <g>
       <use style="fill:#555555;stroke:#555555;stroke-width:0.8;" x="457.527273" xlink:href="#me62bcd8525" y="338.4"/>
      </g>
     </g>
     <g id="text_5">
      <!-- 14 -->
      <defs>
       <path d="M 37.796875 64.3125 
L 12.890625 25.390625 
L 37.796875 25.390625 
z
M 35.203125 72.90625 
L 47.609375 72.90625 
L 47.609375 25.390625 
L 58.015625 25.390625 
L 58.015625 17.1875 
L 47.609375 17.1875 
L 47.609375 0 
L 37.796875 0 
L 37.796875 17.1875 
L 4.890625 17.1875 
L 4.890625 26.703125 
z
" id="DejaVuSans-34"/>
      </defs>
      <g style="fill:#555555;" transform="translate(451.164773 352.998437)scale(0.1 -0.1)">
       <use xlink:href="#DejaVuSans-31"/>
       <use x="63.623047" xlink:href="#DejaVuSans-34"/>
      </g>
     </g>
    </g>
    <g id="text_6">
     <!-- number_of_shells -->
     <defs>
      <path d="M 54.890625 33.015625 
L 54.890625 0 
L 45.90625 0 
L 45.90625 32.71875 
Q 45.90625 40.484375 42.875 44.328125 
Q 39.84375 48.1875 33.796875 48.1875 
Q 26.515625 48.1875 22.3125 43.546875 
Q 18.109375 38.921875 18.109375 30.90625 
L 18.109375 0 
L 9.078125 0 
L 9.078125 54.6875 
L 18.109375 54.6875 
L 18.109375 46.1875 
Q 21.34375 51.125 25.703125 53.5625 
Q 30.078125 56 35.796875 56 
Q 45.21875 56 50.046875 50.171875 
Q 54.890625 44.34375 54.890625 33.015625 
" id="DejaVuSans-6e"/>
      <path d="M 8.5 21.578125 
L 8.5 54.6875 
L 17.484375 54.6875 
L 17.484375 21.921875 
Q 17.484375 14.15625 20.5 10.265625 
Q 23.53125 6.390625 29.59375 6.390625 
Q 36.859375 6.390625 41.078125 11.03125 
Q 45.3125 15.671875 45.3125 23.6875 
L 45.3125 54.6875 
L 54.296875 54.6875 
L 54.296875 0 
L 45.3125 0 
L 45.3125 8.40625 
Q 42.046875 3.421875 37.71875 1 
Q 33.40625 -1.421875 27.6875 -1.421875 
Q 18.265625 -1.421875 13.375 4.4375 
Q 8.5 10.296875 8.5 21.578125 
M 31.109375 56 
z
" id="DejaVuSans-75"/>
      <path d="M 52 44.1875 
Q 55.375 50.25 60.0625 53.125 
Q 64.75 56 71.09375 56 
Q 79.640625 56 84.28125 50.015625 
Q 88.921875 44.046875 88.921875 33.015625 
L 88.921875 0 
L 79.890625 0 
L 79.890625 32.71875 
Q 79.890625 40.578125 77.09375 44.375 
Q 74.3125 48.1875 68.609375 48.1875 
Q 61.625 48.1875 57.5625 43.546875 
Q 53.515625 38.921875 53.515625 30.90625 
L 53.515625 0 
L 44.484375 0 
L 44.484375 32.71875 
Q 44.484375 40.625 41.703125 44.40625 
Q 38.921875 48.1875 33.109375 48.1875 
Q 26.21875 48.1875 22.15625 43.53125 
Q 18.109375 38.875 18.109375 30.90625 
L 18.109375 0 
L 9.078125 0 
L 9.078125 54.6875 
L 18.109375 54.6875 
L 18.109375 46.1875 
Q 21.1875 51.21875 25.484375 53.609375 
Q 29.78125 56 35.6875 56 
Q 41.65625 56 45.828125 52.96875 
Q 50 49.953125 52 44.1875 
" id="DejaVuSans-6d"/>
      <path d="M 48.6875 27.296875 
Q 48.6875 37.203125 44.609375 42.84375 
Q 40.53125 48.484375 33.40625 48.484375 
Q 26.265625 48.484375 22.1875 42.84375 
Q 18.109375 37.203125 18.109375 27.296875 
Q 18.109375 17.390625 22.1875 11.75 
Q 26.265625 6.109375 33.40625 6.109375 
Q 40.53125 6.109375 44.609375 11.75 
Q 48.6875 17.390625 48.6875 27.296875 
M 18.109375 46.390625 
Q 20.953125 51.265625 25.265625 53.625 
Q 29.59375 56 35.59375 56 
Q 45.5625 56 51.78125 48.09375 
Q 58.015625 40.1875 58.015625 27.296875 
Q 58.015625 14.40625 51.78125 6.484375 
Q 45.5625 -1.421875 35.59375 -1.421875 
Q 29.59375 -1.421875 25.265625 0.953125 
Q 20.953125 3.328125 18.109375 8.203125 
L 18.109375 0 
L 9.078125 0 
L 9.078125 75.984375 
L 18.109375 75.984375 
z
" id="DejaVuSans-62"/>
      <path d="M 56.203125 29.59375 
L 56.203125 25.203125 
L 14.890625 25.203125 
Q 15.484375 15.921875 20.484375 11.0625 
Q 25.484375 6.203125 34.421875 6.203125 
Q 39.59375 6.203125 44.453125 7.46875 
Q 49.3125 8.734375 54.109375 11.28125 
L 54.109375 2.78125 
Q 49.265625 0.734375 44.1875 -0.34375 
Q 39.109375 -1.421875 33.890625 -1.421875 
Q 20.796875 -1.421875 13.15625 6.1875 
Q 5.515625 13.8125 5.515625 26.8125 
Q 5.515625 40.234375 12.765625 48.109375 
Q 20.015625 56 32.328125 56 
Q 43.359375 56 49.78125 48.890625 
Q 56.203125 41.796875 56.203125 29.59375 
M 47.21875 32.234375 
Q 47.125 39.59375 43.09375 43.984375 
Q 39.0625 48.390625 32.421875 48.390625 
Q 24.90625 48.390625 20.390625 44.140625 
Q 15.875 39.890625 15.1875 32.171875 
z
" id="DejaVuSans-65"/>
      <path d="M 41.109375 46.296875 
Q 39.59375 47.171875 37.8125 47.578125 
Q 36.03125 48 33.890625 48 
Q 26.265625 48 22.1875 43.046875 
Q 18.109375 38.09375 18.109375 28.8125 
L 18.109375 0 
L 9.078125 0 
L 9.078125 54.6875 
L 18.109375 54.6875 
L 18.109375 46.1875 
Q 20.953125 51.171875 25.484375 53.578125 
Q 30.03125 56 36.53125 56 
Q 37.453125 56 38.578125 55.875 
Q 39.703125 55.765625 41.0625 55.515625 
z
" id="DejaVuSans-72"/>
      <path d="M 50.984375 -16.609375 
L 50.984375 -23.578125 
L -0.984375 -23.578125 
L -0.984375 -16.609375 
z
" id="DejaVuSans-5f"/>
      <path d="M 30.609375 48.390625 
Q 23.390625 48.390625 19.1875 42.75 
Q 14.984375 37.109375 14.984375 27.296875 
Q 14.984375 17.484375 19.15625 11.84375 
Q 23.34375 6.203125 30.609375 6.203125 
Q 37.796875 6.203125 41.984375 11.859375 
Q 46.1875 17.53125 46.1875 27.296875 
Q 46.1875 37.015625 41.984375 42.703125 
Q 37.796875 48.390625 30.609375 48.390625 
M 30.609375 56 
Q 42.328125 56 49.015625 48.375 
Q 55.71875 40.765625 55.71875 27.296875 
Q 55.71875 13.875 49.015625 6.21875 
Q 42.328125 -1.421875 30.609375 -1.421875 
Q 18.84375 -1.421875 12.171875 6.21875 
Q 5.515625 13.875 5.515625 27.296875 
Q 5.515625 40.765625 12.171875 48.375 
Q 18.84375 56 30.609375 56 
" id="DejaVuSans-6f"/>
      <path d="M 37.109375 75.984375 
L 37.109375 68.5 
L 28.515625 68.5 
Q 23.6875 68.5 21.796875 66.546875 
Q 19.921875 64.59375 19.921875 59.515625 
L 19.921875 54.6875 
L 34.71875 54.6875 
L 34.71875 47.703125 
L 19.921875 47.703125 
L 19.921875 0 
L 10.890625 0 
L 10.890625 47.703125 
L 2.296875 47.703125 
L 2.296875 54.6875 
L 10.890625 54.6875 
L 10.890625 58.5 
Q 10.890625 67.625 15.140625 71.796875 
Q 19.390625 75.984375 28.609375 75.984375 
z
" id="DejaVuSans-66"/>
      <path d="M 44.28125 53.078125 
L 44.28125 44.578125 
Q 40.484375 46.53125 36.375 47.5 
Q 32.28125 48.484375 27.875 48.484375 
Q 21.1875 48.484375 17.84375 46.4375 
Q 14.5 44.390625 14.5 40.28125 
Q 14.5 37.15625 16.890625 35.375 
Q 19.28125 33.59375 26.515625 31.984375 
L 29.59375 31.296875 
Q 39.15625 29.25 43.1875 25.515625 
Q 47.21875 21.78125 47.21875 15.09375 
Q 47.21875 7.46875 41.1875 3.015625 
Q 35.15625 -1.421875 24.609375 -1.421875 
Q 20.21875 -1.421875 15.453125 -0.5625 
Q 10.6875 0.296875 5.421875 2 
L 5.421875 11.28125 
Q 10.40625 8.6875 15.234375 7.390625 
Q 20.0625 6.109375 24.8125 6.109375 
Q 31.15625 6.109375 34.5625 8.28125 
Q 37.984375 10.453125 37.984375 14.40625 
Q 37.984375 18.0625 35.515625 20.015625 
Q 33.0625 21.96875 24.703125 23.78125 
L 21.578125 24.515625 
Q 13.234375 26.265625 9.515625 29.90625 
Q 5.8125 33.546875 5.8125 39.890625 
Q 5.8125 47.609375 11.28125 51.796875 
Q 16.75 56 26.8125 56 
Q 31.78125 56 36.171875 55.265625 
Q 40.578125 54.546875 44.28125 53.078125 
" id="DejaVuSans-73"/>
      <path d="M 54.890625 33.015625 
L 54.890625 0 
L 45.90625 0 
L 45.90625 32.71875 
Q 45.90625 40.484375 42.875 44.328125 
Q 39.84375 48.1875 33.796875 48.1875 
Q 26.515625 48.1875 22.3125 43.546875 
Q 18.109375 38.921875 18.109375 30.90625 
L 18.109375 0 
L 9.078125 0 
L 9.078125 75.984375 
L 18.109375 75.984375 
L 18.109375 46.1875 
Q 21.34375 51.125 25.703125 53.5625 
Q 30.078125 56 35.796875 56 
Q 45.21875 56 50.046875 50.171875 
Q 54.890625 44.34375 54.890625 33.015625 
" id="DejaVuSans-68"/>
      <path d="M 9.421875 75.984375 
L 18.40625 75.984375 
L 18.40625 0 
L 9.421875 0 
z
" id="DejaVuSans-6c"/>
     </defs>
     <g style="fill:#555555;" transform="translate(242.920312 368.19625)scale(0.12 -0.12)">
      <use xlink:href="#DejaVuSans-6e"/>
      <use x="63.378906" xlink:href="#DejaVuSans-75"/>
      <use x="126.757812" xlink:href="#DejaVuSans-6d"/>
      <use x="224.169922" xlink:href="#DejaVuSans-62"/>
      <use x="287.646484" xlink:href="#DejaVuSans-65"/>
      <use x="349.169922" xlink:href="#DejaVuSans-72"/>
      <use x="390.283203" xlink:href="#DejaVuSans-5f"/>
      <use x="440.283203" xlink:href="#DejaVuSans-6f"/>
      <use x="501.464844" xlink:href="#DejaVuSans-66"/>
      <use x="536.669922" xlink:href="#DejaVuSans-5f"/>
      <use x="586.669922" xlink:href="#DejaVuSans-73"/>
      <use x="638.769531" xlink:href="#DejaVuSans-68"/>
      <use x="702.148438" xlink:href="#DejaVuSans-65"/>
      <use x="763.671875" xlink:href="#DejaVuSans-6c"/>
      <use x="791.455078" xlink:href="#DejaVuSans-6c"/>
      <use x="819.238281" xlink:href="#DejaVuSans-73"/>
     </g>
    </g>
   </g>
   <g id="matplotlib.axis_2">
    <g id="ytick_1">
     <g id="line2d_11">
      <path clip-path="url(#p7bc7ef6a7d)" d="M 72 317.366479 
L 518.4 317.366479 
" style="fill:none;stroke:#ffffff;stroke-linecap:square;stroke-width:0.8;"/>
     </g>
     <g id="line2d_12">
      <defs>
       <path d="M 0 0 
L -3.5 0 
" id="m0dbd7f223a" style="stroke:#555555;stroke-width:0.8;"/>
      </defs>
      <g>
       <use style="fill:#555555;stroke:#555555;stroke-width:0.8;" x="72" xlink:href="#m0dbd7f223a" y="317.366479"/>
      </g>
     </g>
     <g id="text_7">
      <!-- 3.55 -->
      <defs>
       <path d="M 40.578125 39.3125 
Q 47.65625 37.796875 51.625 33 
Q 55.609375 28.21875 55.609375 21.1875 
Q 55.609375 10.40625 48.1875 4.484375 
Q 40.765625 -1.421875 27.09375 -1.421875 
Q 22.515625 -1.421875 17.65625 -0.515625 
Q 12.796875 0.390625 7.625 2.203125 
L 7.625 11.71875 
Q 11.71875 9.328125 16.59375 8.109375 
Q 21.484375 6.890625 26.8125 6.890625 
Q 36.078125 6.890625 40.9375 10.546875 
Q 45.796875 14.203125 45.796875 21.1875 
Q 45.796875 27.640625 41.28125 31.265625 
Q 36.765625 34.90625 28.71875 34.90625 
L 20.21875 34.90625 
L 20.21875 43.015625 
L 29.109375 43.015625 
Q 36.375 43.015625 40.234375 45.921875 
Q 44.09375 48.828125 44.09375 54.296875 
Q 44.09375 59.90625 40.109375 62.90625 
Q 36.140625 65.921875 28.71875 65.921875 
Q 24.65625 65.921875 20.015625 65.03125 
Q 15.375 64.15625 9.8125 62.3125 
L 9.8125 71.09375 
Q 15.4375 72.65625 20.34375 73.4375 
Q 25.25 74.21875 29.59375 74.21875 
Q 40.828125 74.21875 47.359375 69.109375 
Q 53.90625 64.015625 53.90625 55.328125 
Q 53.90625 49.265625 50.4375 45.09375 
Q 46.96875 40.921875 40.578125 39.3125 
" id="DejaVuSans-33"/>
       <path d="M 10.6875 12.40625 
L 21 12.40625 
L 21 0 
L 10.6875 0 
z
" id="DejaVuSans-2e"/>
       <path d="M 10.796875 72.90625 
L 49.515625 72.90625 
L 49.515625 64.59375 
L 19.828125 64.59375 
L 19.828125 46.734375 
Q 21.96875 47.46875 24.109375 47.828125 
Q 26.265625 48.1875 28.421875 48.1875 
Q 40.625 48.1875 47.75 41.5 
Q 54.890625 34.8125 54.890625 23.390625 
Q 54.890625 11.625 47.5625 5.09375 
Q 40.234375 -1.421875 26.90625 -1.421875 
Q 22.3125 -1.421875 17.546875 -0.640625 
Q 12.796875 0.140625 7.71875 1.703125 
L 7.71875 11.625 
Q 12.109375 9.234375 16.796875 8.0625 
Q 21.484375 6.890625 26.703125 6.890625 
Q 35.15625 6.890625 40.078125 11.328125 
Q 45.015625 15.765625 45.015625 23.390625 
Q 45.015625 31 40.078125 35.4375 
Q 35.15625 39.890625 26.703125 39.890625 
Q 22.75 39.890625 18.8125 39.015625 
Q 14.890625 38.140625 10.796875 36.28125 
z
" id="DejaVuSans-35"/>
      </defs>
      <g style="fill:#555555;" transform="translate(42.734375 321.165697)scale(0.1 -0.1)">
       <use xlink:href="#DejaVuSans-33"/>
       <use x="63.623047" xlink:href="#DejaVuSans-2e"/>
       <use x="95.410156" xlink:href="#DejaVuSans-35"/>
       <use x="159.033203" xlink:href="#DejaVuSans-35"/>
      </g>
     </g>
    </g>
    <g id="ytick_2">
     <g id="line2d_13">
      <path clip-path="url(#p7bc7ef6a7d)" d="M 72 288.093106 
L 518.4 288.093106 
" style="fill:none;stroke:#ffffff;stroke-linecap:square;stroke-width:0.8;"/>
     </g>
     <g id="line2d_14">
      <g>
       <use style="fill:#555555;stroke:#555555;stroke-width:0.8;" x="72" xlink:href="#m0dbd7f223a" y="288.093106"/>
      </g>
     </g>
     <g id="text_8">
      <!-- 3.60 -->
      <g style="fill:#555555;" transform="translate(42.734375 291.892325)scale(0.1 -0.1)">
       <use xlink:href="#DejaVuSans-33"/>
       <use x="63.623047" xlink:href="#DejaVuSans-2e"/>
       <use x="95.410156" xlink:href="#DejaVuSans-36"/>
       <use x="159.033203" xlink:href="#DejaVuSans-30"/>
      </g>
     </g>
    </g>
    <g id="ytick_3">
     <g id="line2d_15">
      <path clip-path="url(#p7bc7ef6a7d)" d="M 72 258.819734 
L 518.4 258.819734 
" style="fill:none;stroke:#ffffff;stroke-linecap:square;stroke-width:0.8;"/>
     </g>
     <g id="line2d_16">
      <g>
       <use style="fill:#555555;stroke:#555555;stroke-width:0.8;" x="72" xlink:href="#m0dbd7f223a" y="258.819734"/>
      </g>
     </g>
     <g id="text_9">
      <!-- 3.65 -->
      <g style="fill:#555555;" transform="translate(42.734375 262.618952)scale(0.1 -0.1)">
       <use xlink:href="#DejaVuSans-33"/>
       <use x="63.623047" xlink:href="#DejaVuSans-2e"/>
       <use x="95.410156" xlink:href="#DejaVuSans-36"/>
       <use x="159.033203" xlink:href="#DejaVuSans-35"/>
      </g>
     </g>
    </g>
    <g id="ytick_4">
     <g id="line2d_17">
      <path clip-path="url(#p7bc7ef6a7d)" d="M 72 229.546361 
L 518.4 229.546361 
" style="fill:none;stroke:#ffffff;stroke-linecap:square;stroke-width:0.8;"/>
     </g>
     <g id="line2d_18">
      <g>
       <use style="fill:#555555;stroke:#555555;stroke-width:0.8;" x="72" xlink:href="#m0dbd7f223a" y="229.546361"/>
      </g>
     </g>
     <g id="text_10">
      <!-- 3.70 -->
      <defs>
       <path d="M 8.203125 72.90625 
L 55.078125 72.90625 
L 55.078125 68.703125 
L 28.609375 0 
L 18.3125 0 
L 43.21875 64.59375 
L 8.203125 64.59375 
z
" id="DejaVuSans-37"/>
      </defs>
      <g style="fill:#555555;" transform="translate(42.734375 233.34558)scale(0.1 -0.1)">
       <use xlink:href="#DejaVuSans-33"/>
       <use x="63.623047" xlink:href="#DejaVuSans-2e"/>
       <use x="95.410156" xlink:href="#DejaVuSans-37"/>
       <use x="159.033203" xlink:href="#DejaVuSans-30"/>
      </g>
     </g>
    </g>
    <g id="ytick_5">
     <g id="line2d_19">
      <path clip-path="url(#p7bc7ef6a7d)" d="M 72 200.272988 
L 518.4 200.272988 
" style="fill:none;stroke:#ffffff;stroke-linecap:square;stroke-width:0.8;"/>
     </g>
     <g id="line2d_20">
      <g>
       <use style="fill:#555555;stroke:#555555;stroke-width:0.8;" x="72" xlink:href="#m0dbd7f223a" y="200.272988"/>
      </g>
     </g>
     <g id="text_11">
      <!-- 3.75 -->
      <g style="fill:#555555;" transform="translate(42.734375 204.072207)scale(0.1 -0.1)">
       <use xlink:href="#DejaVuSans-33"/>
       <use x="63.623047" xlink:href="#DejaVuSans-2e"/>
       <use x="95.410156" xlink:href="#DejaVuSans-37"/>
       <use x="159.033203" xlink:href="#DejaVuSans-35"/>
      </g>
     </g>
    </g>
    <g id="ytick_6">
     <g id="line2d_21">
      <path clip-path="url(#p7bc7ef6a7d)" d="M 72 170.999616 
L 518.4 170.999616 
" style="fill:none;stroke:#ffffff;stroke-linecap:square;stroke-width:0.8;"/>
     </g>
     <g id="line2d_22">
      <g>
       <use style="fill:#555555;stroke:#555555;stroke-width:0.8;" x="72" xlink:href="#m0dbd7f223a" y="170.999616"/>
      </g>
     </g>
     <g id="text_12">
      <!-- 3.80 -->
      <g style="fill:#555555;" transform="translate(42.734375 174.798835)scale(0.1 -0.1)">
       <use xlink:href="#DejaVuSans-33"/>
       <use x="63.623047" xlink:href="#DejaVuSans-2e"/>
       <use x="95.410156" xlink:href="#DejaVuSans-38"/>
       <use x="159.033203" xlink:href="#DejaVuSans-30"/>
      </g>
     </g>
    </g>
    <g id="ytick_7">
     <g id="line2d_23">
      <path clip-path="url(#p7bc7ef6a7d)" d="M 72 141.726243 
L 518.4 141.726243 
" style="fill:none;stroke:#ffffff;stroke-linecap:square;stroke-width:0.8;"/>
     </g>
     <g id="line2d_24">
      <g>
       <use style="fill:#555555;stroke:#555555;stroke-width:0.8;" x="72" xlink:href="#m0dbd7f223a" y="141.726243"/>
      </g>
     </g>
     <g id="text_13">
      <!-- 3.85 -->
      <g style="fill:#555555;" transform="translate(42.734375 145.525462)scale(0.1 -0.1)">
       <use xlink:href="#DejaVuSans-33"/>
       <use x="63.623047" xlink:href="#DejaVuSans-2e"/>
       <use x="95.410156" xlink:href="#DejaVuSans-38"/>
       <use x="159.033203" xlink:href="#DejaVuSans-35"/>
      </g>
     </g>
    </g>
    <g id="ytick_8">
     <g id="line2d_25">
      <path clip-path="url(#p7bc7ef6a7d)" d="M 72 112.452871 
L 518.4 112.452871 
" style="fill:none;stroke:#ffffff;stroke-linecap:square;stroke-width:0.8;"/>
     </g>
     <g id="line2d_26">
      <g>
       <use style="fill:#555555;stroke:#555555;stroke-width:0.8;" x="72" xlink:href="#m0dbd7f223a" y="112.452871"/>
      </g>
     </g>
     <g id="text_14">
      <!-- 3.90 -->
      <defs>
       <path d="M 10.984375 1.515625 
L 10.984375 10.5 
Q 14.703125 8.734375 18.5 7.8125 
Q 22.3125 6.890625 25.984375 6.890625 
Q 35.75 6.890625 40.890625 13.453125 
Q 46.046875 20.015625 46.78125 33.40625 
Q 43.953125 29.203125 39.59375 26.953125 
Q 35.25 24.703125 29.984375 24.703125 
Q 19.046875 24.703125 12.671875 31.3125 
Q 6.296875 37.9375 6.296875 49.421875 
Q 6.296875 60.640625 12.9375 67.421875 
Q 19.578125 74.21875 30.609375 74.21875 
Q 43.265625 74.21875 49.921875 64.515625 
Q 56.59375 54.828125 56.59375 36.375 
Q 56.59375 19.140625 48.40625 8.859375 
Q 40.234375 -1.421875 26.421875 -1.421875 
Q 22.703125 -1.421875 18.890625 -0.6875 
Q 15.09375 0.046875 10.984375 1.515625 
M 30.609375 32.421875 
Q 37.25 32.421875 41.125 36.953125 
Q 45.015625 41.5 45.015625 49.421875 
Q 45.015625 57.28125 41.125 61.84375 
Q 37.25 66.40625 30.609375 66.40625 
Q 23.96875 66.40625 20.09375 61.84375 
Q 16.21875 57.28125 16.21875 49.421875 
Q 16.21875 41.5 20.09375 36.953125 
Q 23.96875 32.421875 30.609375 32.421875 
" id="DejaVuSans-39"/>
      </defs>
      <g style="fill:#555555;" transform="translate(42.734375 116.252089)scale(0.1 -0.1)">
       <use xlink:href="#DejaVuSans-33"/>
       <use x="63.623047" xlink:href="#DejaVuSans-2e"/>
       <use x="95.410156" xlink:href="#DejaVuSans-39"/>
       <use x="159.033203" xlink:href="#DejaVuSans-30"/>
      </g>
     </g>
    </g>
    <g id="text_15">
     <!-- energy -->
     <defs>
      <path d="M 45.40625 27.984375 
Q 45.40625 37.75 41.375 43.109375 
Q 37.359375 48.484375 30.078125 48.484375 
Q 22.859375 48.484375 18.828125 43.109375 
Q 14.796875 37.75 14.796875 27.984375 
Q 14.796875 18.265625 18.828125 12.890625 
Q 22.859375 7.515625 30.078125 7.515625 
Q 37.359375 7.515625 41.375 12.890625 
Q 45.40625 18.265625 45.40625 27.984375 
M 54.390625 6.78125 
Q 54.390625 -7.171875 48.1875 -13.984375 
Q 42 -20.796875 29.203125 -20.796875 
Q 24.46875 -20.796875 20.265625 -20.09375 
Q 16.0625 -19.390625 12.109375 -17.921875 
L 12.109375 -9.1875 
Q 16.0625 -11.328125 19.921875 -12.34375 
Q 23.78125 -13.375 27.78125 -13.375 
Q 36.625 -13.375 41.015625 -8.765625 
Q 45.40625 -4.15625 45.40625 5.171875 
L 45.40625 9.625 
Q 42.625 4.78125 38.28125 2.390625 
Q 33.9375 0 27.875 0 
Q 17.828125 0 11.671875 7.65625 
Q 5.515625 15.328125 5.515625 27.984375 
Q 5.515625 40.671875 11.671875 48.328125 
Q 17.828125 56 27.875 56 
Q 33.9375 56 38.28125 53.609375 
Q 42.625 51.21875 45.40625 46.390625 
L 45.40625 54.6875 
L 54.390625 54.6875 
z
" id="DejaVuSans-67"/>
      <path d="M 32.171875 -5.078125 
Q 28.375 -14.84375 24.75 -17.8125 
Q 21.140625 -20.796875 15.09375 -20.796875 
L 7.90625 -20.796875 
L 7.90625 -13.28125 
L 13.1875 -13.28125 
Q 16.890625 -13.28125 18.9375 -11.515625 
Q 21 -9.765625 23.484375 -3.21875 
L 25.09375 0.875 
L 2.984375 54.6875 
L 12.5 54.6875 
L 29.59375 11.921875 
L 46.6875 54.6875 
L 56.203125 54.6875 
z
" id="DejaVuSans-79"/>
     </defs>
     <g style="fill:#555555;" transform="translate(36.23875 233.412187)rotate(-90)scale(0.12 -0.12)">
      <use xlink:href="#DejaVuSans-65"/>
      <use x="61.523438" xlink:href="#DejaVuSans-6e"/>
      <use x="124.902344" xlink:href="#DejaVuSans-65"/>
      <use x="186.425781" xlink:href="#DejaVuSans-72"/>
      <use x="227.523438" xlink:href="#DejaVuSans-67"/>
      <use x="291" xlink:href="#DejaVuSans-79"/>
     </g>
    </g>
   </g>
   <g id="line2d_27">
    <path clip-path="url(#p7bc7ef6a7d)" d="M 92.290909 104.446665 
L 132.872727 176.510399 
L 173.454545 259.424988 
L 214.036364 299.570804 
L 254.618182 322.665547 
L 295.2 324.672586 
L 335.781818 325.873477 
L 376.363636 326.262428 
L 416.945455 326.555853 
L 457.527273 326.776763 
L 498.109091 326.945455 
" style="fill:none;stroke:#39b237;stroke-linecap:square;stroke-width:1.5;"/>
    <defs>
     <path d="M -3 3 
L 3 -3 
M -3 -3 
L 3 3 
" id="mdb8e65e694" style="stroke:#39b237;"/>
    </defs>
    <g clip-path="url(#p7bc7ef6a7d)">
     <use style="fill:#39b237;stroke:#39b237;" x="92.290909" xlink:href="#mdb8e65e694" y="104.446665"/>
     <use style="fill:#39b237;stroke:#39b237;" x="132.872727" xlink:href="#mdb8e65e694" y="176.510399"/>
     <use style="fill:#39b237;stroke:#39b237;" x="173.454545" xlink:href="#mdb8e65e694" y="259.424988"/>
     <use style="fill:#39b237;stroke:#39b237;" x="214.036364" xlink:href="#mdb8e65e694" y="299.570804"/>
     <use style="fill:#39b237;stroke:#39b237;" x="254.618182" xlink:href="#mdb8e65e694" y="322.665547"/>
     <use style="fill:#39b237;stroke:#39b237;" x="295.2" xlink:href="#mdb8e65e694" y="324.672586"/>
     <use style="fill:#39b237;stroke:#39b237;" x="335.781818" xlink:href="#mdb8e65e694" y="325.873477"/>
     <use style="fill:#39b237;stroke:#39b237;" x="376.363636" xlink:href="#mdb8e65e694" y="326.262428"/>
     <use style="fill:#39b237;stroke:#39b237;" x="416.945455" xlink:href="#mdb8e65e694" y="326.555853"/>
     <use style="fill:#39b237;stroke:#39b237;" x="457.527273" xlink:href="#mdb8e65e694" y="326.776763"/>
     <use style="fill:#39b237;stroke:#39b237;" x="498.109091" xlink:href="#mdb8e65e694" y="326.945455"/>
    </g>
   </g>
   <g id="line2d_28">
    <path clip-path="url(#p7bc7ef6a7d)" d="M 92.290909 103.441687 
L 132.872727 176.825924 
L 173.454545 258.126583 
L 214.036364 297.811719 
L 254.618182 320.647994 
L 295.2 322.704382 
L 335.781818 323.961363 
L 376.363636 324.345423 
L 416.945455 324.64265 
L 457.527273 324.864652 
L 498.109091 325.045695 
" style="fill:none;stroke:#841a0b;stroke-linecap:square;stroke-width:1.5;"/>
    <defs>
     <path d="M -3 3 
L 3 -3 
M -3 -3 
L 3 3 
" id="mf4d0b1335c" style="stroke:#841a0b;"/>
    </defs>
    <g clip-path="url(#p7bc7ef6a7d)">
     <use style="fill:#841a0b;stroke:#841a0b;" x="92.290909" xlink:href="#mf4d0b1335c" y="103.441687"/>
     <use style="fill:#841a0b;stroke:#841a0b;" x="132.872727" xlink:href="#mf4d0b1335c" y="176.825924"/>
     <use style="fill:#841a0b;stroke:#841a0b;" x="173.454545" xlink:href="#mf4d0b1335c" y="258.126583"/>
     <use style="fill:#841a0b;stroke:#841a0b;" x="214.036364" xlink:href="#mf4d0b1335c" y="297.811719"/>
     <use style="fill:#841a0b;stroke:#841a0b;" x="254.618182" xlink:href="#mf4d0b1335c" y="320.647994"/>
     <use style="fill:#841a0b;stroke:#841a0b;" x="295.2" xlink:href="#mf4d0b1335c" y="322.704382"/>
     <use style="fill:#841a0b;stroke:#841a0b;" x="335.781818" xlink:href="#mf4d0b1335c" y="323.961363"/>
     <use style="fill:#841a0b;stroke:#841a0b;" x="376.363636" xlink:href="#mf4d0b1335c" y="324.345423"/>
     <use style="fill:#841a0b;stroke:#841a0b;" x="416.945455" xlink:href="#mf4d0b1335c" y="324.64265"/>
     <use style="fill:#841a0b;stroke:#841a0b;" x="457.527273" xlink:href="#mf4d0b1335c" y="324.864652"/>
     <use style="fill:#841a0b;stroke:#841a0b;" x="498.109091" xlink:href="#mf4d0b1335c" y="325.045695"/>
    </g>
   </g>
   <g id="line2d_29">
    <path clip-path="url(#p7bc7ef6a7d)" d="M 214.036364 297.959871 
L 254.618182 320.765284 
L 295.2 322.809029 
L 335.781818 324.040999 
L 376.363636 324.432197 
L 416.945455 324.732196 
L 457.527273 324.958381 
L 498.109091 325.134929 
" style="fill:none;stroke:#c6cc26;stroke-dasharray:5.6,2.4;stroke-dashoffset:0;stroke-width:1.5;"/>
    <defs>
     <path d="M -3 3 
L 3 -3 
M -3 -3 
L 3 3 
" id="m44f1d1fe35" style="stroke:#c6cc26;"/>
    </defs>
    <g clip-path="url(#p7bc7ef6a7d)">
     <use style="fill:#c6cc26;stroke:#c6cc26;" x="214.036364" xlink:href="#m44f1d1fe35" y="297.959871"/>
     <use style="fill:#c6cc26;stroke:#c6cc26;" x="254.618182" xlink:href="#m44f1d1fe35" y="320.765284"/>
     <use style="fill:#c6cc26;stroke:#c6cc26;" x="295.2" xlink:href="#m44f1d1fe35" y="322.809029"/>
     <use style="fill:#c6cc26;stroke:#c6cc26;" x="335.781818" xlink:href="#m44f1d1fe35" y="324.040999"/>
     <use style="fill:#c6cc26;stroke:#c6cc26;" x="376.363636" xlink:href="#m44f1d1fe35" y="324.432197"/>
     <use style="fill:#c6cc26;stroke:#c6cc26;" x="416.945455" xlink:href="#m44f1d1fe35" y="324.732196"/>
     <use style="fill:#c6cc26;stroke:#c6cc26;" x="457.527273" xlink:href="#m44f1d1fe35" y="324.958381"/>
     <use style="fill:#c6cc26;stroke:#c6cc26;" x="498.109091" xlink:href="#m44f1d1fe35" y="325.134929"/>
    </g>
   </g>
   <g id="line2d_30">
    <path clip-path="url(#p7bc7ef6a7d)" d="M 92.290909 97.854545 
L 132.872727 160.301326 
L 173.454545 238.503419 
L 214.036364 266.944811 
L 254.618182 293.885713 
L 295.2 296.815388 
L 335.781818 298.982365 
L 376.363636 299.637095 
L 416.945455 300.116513 
L 457.527273 300.490017 
L 498.109091 300.785858 
" style="fill:none;stroke:#1351c4;stroke-linecap:square;stroke-width:1.5;"/>
    <defs>
     <path d="M -3 3 
L 3 -3 
M -3 -3 
L 3 3 
" id="mb91013c188" style="stroke:#1351c4;"/>
    </defs>
    <g clip-path="url(#p7bc7ef6a7d)">
     <use style="fill:#1351c4;stroke:#1351c4;" x="92.290909" xlink:href="#mb91013c188" y="97.854545"/>
     <use style="fill:#1351c4;stroke:#1351c4;" x="132.872727" xlink:href="#mb91013c188" y="160.301326"/>
     <use style="fill:#1351c4;stroke:#1351c4;" x="173.454545" xlink:href="#mb91013c188" y="238.503419"/>
     <use style="fill:#1351c4;stroke:#1351c4;" x="214.036364" xlink:href="#mb91013c188" y="266.944811"/>
     <use style="fill:#1351c4;stroke:#1351c4;" x="254.618182" xlink:href="#mb91013c188" y="293.885713"/>
     <use style="fill:#1351c4;stroke:#1351c4;" x="295.2" xlink:href="#mb91013c188" y="296.815388"/>
     <use style="fill:#1351c4;stroke:#1351c4;" x="335.781818" xlink:href="#mb91013c188" y="298.982365"/>
     <use style="fill:#1351c4;stroke:#1351c4;" x="376.363636" xlink:href="#mb91013c188" y="299.637095"/>
     <use style="fill:#1351c4;stroke:#1351c4;" x="416.945455" xlink:href="#mb91013c188" y="300.116513"/>
     <use style="fill:#1351c4;stroke:#1351c4;" x="457.527273" xlink:href="#mb91013c188" y="300.490017"/>
     <use style="fill:#1351c4;stroke:#1351c4;" x="498.109091" xlink:href="#mb91013c188" y="300.785858"/>
    </g>
   </g>
   <g id="patch_3">
    <path d="M 72 338.4 
L 72 86.4 
" style="fill:none;stroke:#ffffff;stroke-linecap:square;stroke-linejoin:miter;"/>
   </g>
   <g id="patch_4">
    <path d="M 518.4 338.4 
L 518.4 86.4 
" style="fill:none;stroke:#ffffff;stroke-linecap:square;stroke-linejoin:miter;"/>
   </g>
   <g id="patch_5">
    <path d="M 72 338.4 
L 518.4 338.4 
" style="fill:none;stroke:#ffffff;stroke-linecap:square;stroke-linejoin:miter;"/>
   </g>
   <g id="patch_6">
    <path d="M 72 86.4 
L 518.4 86.4 
" style="fill:none;stroke:#ffffff;stroke-linecap:square;stroke-linejoin:miter;"/>
   </g>
   <g id="text_16">
    <!-- removal energy for 12 particles (ML = 0, omega = 0.28) -->
    <defs>
     <path d="M 2.984375 54.6875 
L 12.5 54.6875 
L 29.59375 8.796875 
L 46.6875 54.6875 
L 56.203125 54.6875 
L 35.6875 0 
L 23.484375 0 
z
" id="DejaVuSans-76"/>
     <path d="M 34.28125 27.484375 
Q 23.390625 27.484375 19.1875 25 
Q 14.984375 22.515625 14.984375 16.5 
Q 14.984375 11.71875 18.140625 8.90625 
Q 21.296875 6.109375 26.703125 6.109375 
Q 34.1875 6.109375 38.703125 11.40625 
Q 43.21875 16.703125 43.21875 25.484375 
L 43.21875 27.484375 
z
M 52.203125 31.203125 
L 52.203125 0 
L 43.21875 0 
L 43.21875 8.296875 
Q 40.140625 3.328125 35.546875 0.953125 
Q 30.953125 -1.421875 24.3125 -1.421875 
Q 15.921875 -1.421875 10.953125 3.296875 
Q 6 8.015625 6 15.921875 
Q 6 25.140625 12.171875 29.828125 
Q 18.359375 34.515625 30.609375 34.515625 
L 43.21875 34.515625 
L 43.21875 35.40625 
Q 43.21875 41.609375 39.140625 45 
Q 35.0625 48.390625 27.6875 48.390625 
Q 23 48.390625 18.546875 47.265625 
Q 14.109375 46.140625 10.015625 43.890625 
L 10.015625 52.203125 
Q 14.9375 54.109375 19.578125 55.046875 
Q 24.21875 56 28.609375 56 
Q 40.484375 56 46.34375 49.84375 
Q 52.203125 43.703125 52.203125 31.203125 
" id="DejaVuSans-61"/>
     <path id="DejaVuSans-20"/>
     <path d="M 18.109375 8.203125 
L 18.109375 -20.796875 
L 9.078125 -20.796875 
L 9.078125 54.6875 
L 18.109375 54.6875 
L 18.109375 46.390625 
Q 20.953125 51.265625 25.265625 53.625 
Q 29.59375 56 35.59375 56 
Q 45.5625 56 51.78125 48.09375 
Q 58.015625 40.1875 58.015625 27.296875 
Q 58.015625 14.40625 51.78125 6.484375 
Q 45.5625 -1.421875 35.59375 -1.421875 
Q 29.59375 -1.421875 25.265625 0.953125 
Q 20.953125 3.328125 18.109375 8.203125 
M 48.6875 27.296875 
Q 48.6875 37.203125 44.609375 42.84375 
Q 40.53125 48.484375 33.40625 48.484375 
Q 26.265625 48.484375 22.1875 42.84375 
Q 18.109375 37.203125 18.109375 27.296875 
Q 18.109375 17.390625 22.1875 11.75 
Q 26.265625 6.109375 33.40625 6.109375 
Q 40.53125 6.109375 44.609375 11.75 
Q 48.6875 17.390625 48.6875 27.296875 
" id="DejaVuSans-70"/>
     <path d="M 18.3125 70.21875 
L 18.3125 54.6875 
L 36.8125 54.6875 
L 36.8125 47.703125 
L 18.3125 47.703125 
L 18.3125 18.015625 
Q 18.3125 11.328125 20.140625 9.421875 
Q 21.96875 7.515625 27.59375 7.515625 
L 36.8125 7.515625 
L 36.8125 0 
L 27.59375 0 
Q 17.1875 0 13.234375 3.875 
Q 9.28125 7.765625 9.28125 18.015625 
L 9.28125 47.703125 
L 2.6875 47.703125 
L 2.6875 54.6875 
L 9.28125 54.6875 
L 9.28125 70.21875 
z
" id="DejaVuSans-74"/>
     <path d="M 9.421875 54.6875 
L 18.40625 54.6875 
L 18.40625 0 
L 9.421875 0 
z
M 9.421875 75.984375 
L 18.40625 75.984375 
L 18.40625 64.59375 
L 9.421875 64.59375 
z
" id="DejaVuSans-69"/>
     <path d="M 48.78125 52.59375 
L 48.78125 44.1875 
Q 44.96875 46.296875 41.140625 47.34375 
Q 37.3125 48.390625 33.40625 48.390625 
Q 24.65625 48.390625 19.8125 42.84375 
Q 14.984375 37.3125 14.984375 27.296875 
Q 14.984375 17.28125 19.8125 11.734375 
Q 24.65625 6.203125 33.40625 6.203125 
Q 37.3125 6.203125 41.140625 7.25 
Q 44.96875 8.296875 48.78125 10.40625 
L 48.78125 2.09375 
Q 45.015625 0.34375 40.984375 -0.53125 
Q 36.96875 -1.421875 32.421875 -1.421875 
Q 20.0625 -1.421875 12.78125 6.34375 
Q 5.515625 14.109375 5.515625 27.296875 
Q 5.515625 40.671875 12.859375 48.328125 
Q 20.21875 56 33.015625 56 
Q 37.15625 56 41.109375 55.140625 
Q 45.0625 54.296875 48.78125 52.59375 
" id="DejaVuSans-63"/>
     <path d="M 31 75.875 
Q 24.46875 64.65625 21.28125 53.65625 
Q 18.109375 42.671875 18.109375 31.390625 
Q 18.109375 20.125 21.3125 9.0625 
Q 24.515625 -2 31 -13.1875 
L 23.1875 -13.1875 
Q 15.875 -1.703125 12.234375 9.375 
Q 8.59375 20.453125 8.59375 31.390625 
Q 8.59375 42.28125 12.203125 53.3125 
Q 15.828125 64.359375 23.1875 75.875 
z
" id="DejaVuSans-28"/>
     <path d="M 9.8125 72.90625 
L 24.515625 72.90625 
L 43.109375 23.296875 
L 61.8125 72.90625 
L 76.515625 72.90625 
L 76.515625 0 
L 66.890625 0 
L 66.890625 64.015625 
L 48.09375 14.015625 
L 38.1875 14.015625 
L 19.390625 64.015625 
L 19.390625 0 
L 9.8125 0 
z
" id="DejaVuSans-4d"/>
     <path d="M 9.8125 72.90625 
L 19.671875 72.90625 
L 19.671875 8.296875 
L 55.171875 8.296875 
L 55.171875 0 
L 9.8125 0 
z
" id="DejaVuSans-4c"/>
     <path d="M 10.59375 45.40625 
L 73.1875 45.40625 
L 73.1875 37.203125 
L 10.59375 37.203125 
z
M 10.59375 25.484375 
L 73.1875 25.484375 
L 73.1875 17.1875 
L 10.59375 17.1875 
z
" id="DejaVuSans-3d"/>
     <path d="M 11.71875 12.40625 
L 22.015625 12.40625 
L 22.015625 4 
L 14.015625 -11.625 
L 7.71875 -11.625 
L 11.71875 4 
z
" id="DejaVuSans-2c"/>
     <path d="M 8.015625 75.875 
L 15.828125 75.875 
Q 23.140625 64.359375 26.78125 53.3125 
Q 30.421875 42.28125 30.421875 31.390625 
Q 30.421875 20.453125 26.78125 9.375 
Q 23.140625 -1.703125 15.828125 -13.1875 
L 8.015625 -13.1875 
Q 14.5 -2 17.703125 9.0625 
Q 20.90625 20.125 20.90625 31.390625 
Q 20.90625 42.671875 17.703125 53.65625 
Q 14.5 64.65625 8.015625 75.875 
" id="DejaVuSans-29"/>
    </defs>
    <g transform="translate(92.012625 45.71465)scale(0.144 -0.144)">
     <use xlink:href="#DejaVuSans-72"/>
     <use x="41.082031" xlink:href="#DejaVuSans-65"/>
     <use x="102.605469" xlink:href="#DejaVuSans-6d"/>
     <use x="200.017578" xlink:href="#DejaVuSans-6f"/>
     <use x="261.199219" xlink:href="#DejaVuSans-76"/>
     <use x="320.378906" xlink:href="#DejaVuSans-61"/>
     <use x="381.658203" xlink:href="#DejaVuSans-6c"/>
     <use x="409.441406" xlink:href="#DejaVuSans-20"/>
     <use x="441.228516" xlink:href="#DejaVuSans-65"/>
     <use x="502.751953" xlink:href="#DejaVuSans-6e"/>
     <use x="566.130859" xlink:href="#DejaVuSans-65"/>
     <use x="627.654297" xlink:href="#DejaVuSans-72"/>
     <use x="668.751953" xlink:href="#DejaVuSans-67"/>
     <use x="732.228516" xlink:href="#DejaVuSans-79"/>
     <use x="791.408203" xlink:href="#DejaVuSans-20"/>
     <use x="823.195312" xlink:href="#DejaVuSans-66"/>
     <use x="858.400391" xlink:href="#DejaVuSans-6f"/>
     <use x="919.582031" xlink:href="#DejaVuSans-72"/>
     <use x="960.695312" xlink:href="#DejaVuSans-20"/>
     <use x="992.482422" xlink:href="#DejaVuSans-31"/>
     <use x="1056.105469" xlink:href="#DejaVuSans-32"/>
     <use x="1119.728516" xlink:href="#DejaVuSans-20"/>
     <use x="1151.515625" xlink:href="#DejaVuSans-70"/>
     <use x="1214.992188" xlink:href="#DejaVuSans-61"/>
     <use x="1276.271484" xlink:href="#DejaVuSans-72"/>
     <use x="1317.384766" xlink:href="#DejaVuSans-74"/>
     <use x="1356.59375" xlink:href="#DejaVuSans-69"/>
     <use x="1384.376953" xlink:href="#DejaVuSans-63"/>
     <use x="1439.357422" xlink:href="#DejaVuSans-6c"/>
     <use x="1467.140625" xlink:href="#DejaVuSans-65"/>
     <use x="1528.664062" xlink:href="#DejaVuSans-73"/>
     <use x="1580.763672" xlink:href="#DejaVuSans-20"/>
     <use x="1612.550781" xlink:href="#DejaVuSans-28"/>
     <use x="1651.564453" xlink:href="#DejaVuSans-4d"/>
     <use x="1737.84375" xlink:href="#DejaVuSans-4c"/>
     <use x="1793.556641" xlink:href="#DejaVuSans-20"/>
     <use x="1825.34375" xlink:href="#DejaVuSans-3d"/>
     <use x="1909.132812" xlink:href="#DejaVuSans-20"/>
     <use x="1940.919922" xlink:href="#DejaVuSans-30"/>
     <use x="2004.542969" xlink:href="#DejaVuSans-2c"/>
     <use x="2036.330078" xlink:href="#DejaVuSans-20"/>
     <use x="2068.117188" xlink:href="#DejaVuSans-6f"/>
     <use x="2129.298828" xlink:href="#DejaVuSans-6d"/>
     <use x="2226.710938" xlink:href="#DejaVuSans-65"/>
     <use x="2288.234375" xlink:href="#DejaVuSans-67"/>
     <use x="2351.710938" xlink:href="#DejaVuSans-61"/>
     <use x="2412.990234" xlink:href="#DejaVuSans-20"/>
     <use x="2444.777344" xlink:href="#DejaVuSans-3d"/>
     <use x="2528.566406" xlink:href="#DejaVuSans-20"/>
     <use x="2560.353516" xlink:href="#DejaVuSans-30"/>
     <use x="2623.976562" xlink:href="#DejaVuSans-2e"/>
     <use x="2655.763672" xlink:href="#DejaVuSans-32"/>
     <use x="2719.386719" xlink:href="#DejaVuSans-38"/>
     <use x="2783.009766" xlink:href="#DejaVuSans-29"/>
    </g>
    <!--  (rel_slope = -0.000082) -->
    <defs>
     <path d="M 4.890625 31.390625 
L 31.203125 31.390625 
L 31.203125 23.390625 
L 4.890625 23.390625 
z
" id="DejaVuSans-2d"/>
    </defs>
    <g transform="translate(207.585 61.8395)scale(0.144 -0.144)">
     <use xlink:href="#DejaVuSans-20"/>
     <use x="31.787109" xlink:href="#DejaVuSans-28"/>
     <use x="70.800781" xlink:href="#DejaVuSans-72"/>
     <use x="111.882812" xlink:href="#DejaVuSans-65"/>
     <use x="173.40625" xlink:href="#DejaVuSans-6c"/>
     <use x="201.189453" xlink:href="#DejaVuSans-5f"/>
     <use x="251.189453" xlink:href="#DejaVuSans-73"/>
     <use x="303.289062" xlink:href="#DejaVuSans-6c"/>
     <use x="331.072266" xlink:href="#DejaVuSans-6f"/>
     <use x="392.253906" xlink:href="#DejaVuSans-70"/>
     <use x="455.730469" xlink:href="#DejaVuSans-65"/>
     <use x="517.253906" xlink:href="#DejaVuSans-20"/>
     <use x="549.041016" xlink:href="#DejaVuSans-3d"/>
     <use x="632.830078" xlink:href="#DejaVuSans-20"/>
     <use x="664.617188" xlink:href="#DejaVuSans-2d"/>
     <use x="700.701172" xlink:href="#DejaVuSans-30"/>
     <use x="764.324219" xlink:href="#DejaVuSans-2e"/>
     <use x="796.111328" xlink:href="#DejaVuSans-30"/>
     <use x="859.734375" xlink:href="#DejaVuSans-30"/>
     <use x="923.357422" xlink:href="#DejaVuSans-30"/>
     <use x="986.980469" xlink:href="#DejaVuSans-30"/>
     <use x="1050.603516" xlink:href="#DejaVuSans-38"/>
     <use x="1114.226562" xlink:href="#DejaVuSans-32"/>
     <use x="1177.849609" xlink:href="#DejaVuSans-29"/>
    </g>
   </g>
   <g id="legend_1">
    <g id="patch_7">
     <path d="M 448.867188 153.390625 
L 511.4 153.390625 
Q 513.4 153.390625 513.4 151.390625 
L 513.4 93.4 
Q 513.4 91.4 511.4 91.4 
L 448.867188 91.4 
Q 446.867188 91.4 446.867188 93.4 
L 446.867188 151.390625 
Q 446.867188 153.390625 448.867188 153.390625 
z
" style="fill:#e5e5e5;opacity:0.8;stroke:#cccccc;stroke-linejoin:miter;stroke-width:0.5;"/>
    </g>
    <g id="line2d_31">
     <path d="M 450.867188 99.498438 
L 470.867188 99.498438 
" style="fill:none;stroke:#39b237;stroke-linecap:square;stroke-width:1.5;"/>
    </g>
    <g id="line2d_32">
     <g>
      <use style="fill:#39b237;stroke:#39b237;" x="460.867188" xlink:href="#mdb8e65e694" y="99.498438"/>
     </g>
    </g>
    <g id="text_17">
     <!-- qdpt -->
     <defs>
      <path d="M 14.796875 27.296875 
Q 14.796875 17.390625 18.875 11.75 
Q 22.953125 6.109375 30.078125 6.109375 
Q 37.203125 6.109375 41.296875 11.75 
Q 45.40625 17.390625 45.40625 27.296875 
Q 45.40625 37.203125 41.296875 42.84375 
Q 37.203125 48.484375 30.078125 48.484375 
Q 22.953125 48.484375 18.875 42.84375 
Q 14.796875 37.203125 14.796875 27.296875 
M 45.40625 8.203125 
Q 42.578125 3.328125 38.25 0.953125 
Q 33.9375 -1.421875 27.875 -1.421875 
Q 17.96875 -1.421875 11.734375 6.484375 
Q 5.515625 14.40625 5.515625 27.296875 
Q 5.515625 40.1875 11.734375 48.09375 
Q 17.96875 56 27.875 56 
Q 33.9375 56 38.25 53.625 
Q 42.578125 51.265625 45.40625 46.390625 
L 45.40625 54.6875 
L 54.390625 54.6875 
L 54.390625 -20.796875 
L 45.40625 -20.796875 
z
" id="DejaVuSans-71"/>
      <path d="M 45.40625 46.390625 
L 45.40625 75.984375 
L 54.390625 75.984375 
L 54.390625 0 
L 45.40625 0 
L 45.40625 8.203125 
Q 42.578125 3.328125 38.25 0.953125 
Q 33.9375 -1.421875 27.875 -1.421875 
Q 17.96875 -1.421875 11.734375 6.484375 
Q 5.515625 14.40625 5.515625 27.296875 
Q 5.515625 40.1875 11.734375 48.09375 
Q 17.96875 56 27.875 56 
Q 33.9375 56 38.25 53.625 
Q 42.578125 51.265625 45.40625 46.390625 
M 14.796875 27.296875 
Q 14.796875 17.390625 18.875 11.75 
Q 22.953125 6.109375 30.078125 6.109375 
Q 37.203125 6.109375 41.296875 11.75 
Q 45.40625 17.390625 45.40625 27.296875 
Q 45.40625 37.203125 41.296875 42.84375 
Q 37.203125 48.484375 30.078125 48.484375 
Q 22.953125 48.484375 18.875 42.84375 
Q 14.796875 37.203125 14.796875 27.296875 
" id="DejaVuSans-64"/>
     </defs>
     <g transform="translate(478.867188 102.998438)scale(0.1 -0.1)">
      <use xlink:href="#DejaVuSans-71"/>
      <use x="63.476562" xlink:href="#DejaVuSans-64"/>
      <use x="126.953125" xlink:href="#DejaVuSans-70"/>
      <use x="190.429688" xlink:href="#DejaVuSans-74"/>
     </g>
    </g>
    <g id="line2d_33">
     <path d="M 450.867188 114.176563 
L 470.867188 114.176563 
" style="fill:none;stroke:#841a0b;stroke-linecap:square;stroke-width:1.5;"/>
    </g>
    <g id="line2d_34">
     <g>
      <use style="fill:#841a0b;stroke:#841a0b;" x="460.867188" xlink:href="#mf4d0b1335c" y="114.176563"/>
     </g>
    </g>
    <g id="text_18">
     <!-- eom -->
     <g transform="translate(478.867188 117.676563)scale(0.1 -0.1)">
      <use xlink:href="#DejaVuSans-65"/>
      <use x="61.523438" xlink:href="#DejaVuSans-6f"/>
      <use x="122.705078" xlink:href="#DejaVuSans-6d"/>
     </g>
    </g>
    <g id="line2d_35">
     <path d="M 450.867188 128.854688 
L 470.867188 128.854688 
" style="fill:none;stroke:#c6cc26;stroke-dasharray:5.6,2.4;stroke-dashoffset:0;stroke-width:1.5;"/>
    </g>
    <g id="line2d_36">
     <g>
      <use style="fill:#c6cc26;stroke:#c6cc26;" x="460.867188" xlink:href="#m44f1d1fe35" y="128.854688"/>
     </g>
    </g>
    <g id="text_19">
     <!-- eom_f -->
     <g transform="translate(478.867188 132.354688)scale(0.1 -0.1)">
      <use xlink:href="#DejaVuSans-65"/>
      <use x="61.523438" xlink:href="#DejaVuSans-6f"/>
      <use x="122.705078" xlink:href="#DejaVuSans-6d"/>
      <use x="220.117188" xlink:href="#DejaVuSans-5f"/>
      <use x="270.117188" xlink:href="#DejaVuSans-66"/>
     </g>
    </g>
    <g id="line2d_37">
     <path d="M 450.867188 143.810938 
L 470.867188 143.810938 
" style="fill:none;stroke:#1351c4;stroke-linecap:square;stroke-width:1.5;"/>
    </g>
    <g id="line2d_38">
     <g>
      <use style="fill:#1351c4;stroke:#1351c4;" x="460.867188" xlink:href="#mb91013c188" y="143.810938"/>
     </g>
    </g>
    <g id="text_20">
     <!-- cc -->
     <g transform="translate(478.867188 147.310938)scale(0.1 -0.1)">
      <use xlink:href="#DejaVuSans-63"/>
      <use x="54.980469" xlink:href="#DejaVuSans-63"/>
     </g>
    </g>
   </g>
  </g>
  <g id="axes_2">
   <g id="patch_8">
    <path d="M 72 640.8 
L 518.4 640.8 
L 518.4 388.8 
L 72 388.8 
z
" style="fill:#e5e5e5;"/>
   </g>
   <g id="matplotlib.axis_3">
    <g id="xtick_6">
     <g id="line2d_39">
      <path clip-path="url(#p9c965f05c2)" d="M 92.290909 640.8 
L 92.290909 388.8 
" style="fill:none;stroke:#ffffff;stroke-linecap:square;stroke-width:0.8;"/>
     </g>
     <g id="line2d_40">
      <g>
       <use style="fill:#555555;stroke:#555555;stroke-width:0.8;" x="92.290909" xlink:href="#me62bcd8525" y="640.8"/>
      </g>
     </g>
     <g id="text_21">
      <!-- 9 -->
      <g style="fill:#555555;" transform="translate(89.109659 655.398438)scale(0.1 -0.1)">
       <use xlink:href="#DejaVuSans-39"/>
      </g>
     </g>
    </g>
    <g id="xtick_7">
     <g id="line2d_41">
      <path clip-path="url(#p9c965f05c2)" d="M 159.927273 640.8 
L 159.927273 388.8 
" style="fill:none;stroke:#ffffff;stroke-linecap:square;stroke-width:0.8;"/>
     </g>
     <g id="line2d_42">
      <g>
       <use style="fill:#555555;stroke:#555555;stroke-width:0.8;" x="159.927273" xlink:href="#me62bcd8525" y="640.8"/>
      </g>
     </g>
     <g id="text_22">
      <!-- 10 -->
      <g style="fill:#555555;" transform="translate(153.564773 655.398438)scale(0.1 -0.1)">
       <use xlink:href="#DejaVuSans-31"/>
       <use x="63.623047" xlink:href="#DejaVuSans-30"/>
      </g>
     </g>
    </g>
    <g id="xtick_8">
     <g id="line2d_43">
      <path clip-path="url(#p9c965f05c2)" d="M 227.563636 640.8 
L 227.563636 388.8 
" style="fill:none;stroke:#ffffff;stroke-linecap:square;stroke-width:0.8;"/>
     </g>
     <g id="line2d_44">
      <g>
       <use style="fill:#555555;stroke:#555555;stroke-width:0.8;" x="227.563636" xlink:href="#me62bcd8525" y="640.8"/>
      </g>
     </g>
     <g id="text_23">
      <!-- 11 -->
      <g style="fill:#555555;" transform="translate(221.201136 655.398438)scale(0.1 -0.1)">
       <use xlink:href="#DejaVuSans-31"/>
       <use x="63.623047" xlink:href="#DejaVuSans-31"/>
      </g>
     </g>
    </g>
    <g id="xtick_9">
     <g id="line2d_45">
      <path clip-path="url(#p9c965f05c2)" d="M 295.2 640.8 
L 295.2 388.8 
" style="fill:none;stroke:#ffffff;stroke-linecap:square;stroke-width:0.8;"/>
     </g>
     <g id="line2d_46">
      <g>
       <use style="fill:#555555;stroke:#555555;stroke-width:0.8;" x="295.2" xlink:href="#me62bcd8525" y="640.8"/>
      </g>
     </g>
     <g id="text_24">
      <!-- 12 -->
      <g style="fill:#555555;" transform="translate(288.8375 655.398438)scale(0.1 -0.1)">
       <use xlink:href="#DejaVuSans-31"/>
       <use x="63.623047" xlink:href="#DejaVuSans-32"/>
      </g>
     </g>
    </g>
    <g id="xtick_10">
     <g id="line2d_47">
      <path clip-path="url(#p9c965f05c2)" d="M 362.836364 640.8 
L 362.836364 388.8 
" style="fill:none;stroke:#ffffff;stroke-linecap:square;stroke-width:0.8;"/>
     </g>
     <g id="line2d_48">
      <g>
       <use style="fill:#555555;stroke:#555555;stroke-width:0.8;" x="362.836364" xlink:href="#me62bcd8525" y="640.8"/>
      </g>
     </g>
     <g id="text_25">
      <!-- 13 -->
      <g style="fill:#555555;" transform="translate(356.473864 655.398438)scale(0.1 -0.1)">
       <use xlink:href="#DejaVuSans-31"/>
       <use x="63.623047" xlink:href="#DejaVuSans-33"/>
      </g>
     </g>
    </g>
    <g id="xtick_11">
     <g id="line2d_49">
      <path clip-path="url(#p9c965f05c2)" d="M 430.472727 640.8 
L 430.472727 388.8 
" style="fill:none;stroke:#ffffff;stroke-linecap:square;stroke-width:0.8;"/>
     </g>
     <g id="line2d_50">
      <g>
       <use style="fill:#555555;stroke:#555555;stroke-width:0.8;" x="430.472727" xlink:href="#me62bcd8525" y="640.8"/>
      </g>
     </g>
     <g id="text_26">
      <!-- 14 -->
      <g style="fill:#555555;" transform="translate(424.110227 655.398438)scale(0.1 -0.1)">
       <use xlink:href="#DejaVuSans-31"/>
       <use x="63.623047" xlink:href="#DejaVuSans-34"/>
      </g>
     </g>
    </g>
    <g id="xtick_12">
     <g id="line2d_51">
      <path clip-path="url(#p9c965f05c2)" d="M 498.109091 640.8 
L 498.109091 388.8 
" style="fill:none;stroke:#ffffff;stroke-linecap:square;stroke-width:0.8;"/>
     </g>
     <g id="line2d_52">
      <g>
       <use style="fill:#555555;stroke:#555555;stroke-width:0.8;" x="498.109091" xlink:href="#me62bcd8525" y="640.8"/>
      </g>
     </g>
     <g id="text_27">
      <!-- 15 -->
      <g style="fill:#555555;" transform="translate(491.746591 655.398438)scale(0.1 -0.1)">
       <use xlink:href="#DejaVuSans-31"/>
       <use x="63.623047" xlink:href="#DejaVuSans-35"/>
      </g>
     </g>
    </g>
    <g id="text_28">
     <!-- number_of_shells -->
     <g style="fill:#555555;" transform="translate(242.920312 670.59625)scale(0.12 -0.12)">
      <use xlink:href="#DejaVuSans-6e"/>
      <use x="63.378906" xlink:href="#DejaVuSans-75"/>
      <use x="126.757812" xlink:href="#DejaVuSans-6d"/>
      <use x="224.169922" xlink:href="#DejaVuSans-62"/>
      <use x="287.646484" xlink:href="#DejaVuSans-65"/>
      <use x="349.169922" xlink:href="#DejaVuSans-72"/>
      <use x="390.283203" xlink:href="#DejaVuSans-5f"/>
      <use x="440.283203" xlink:href="#DejaVuSans-6f"/>
      <use x="501.464844" xlink:href="#DejaVuSans-66"/>
      <use x="536.669922" xlink:href="#DejaVuSans-5f"/>
      <use x="586.669922" xlink:href="#DejaVuSans-73"/>
      <use x="638.769531" xlink:href="#DejaVuSans-68"/>
      <use x="702.148438" xlink:href="#DejaVuSans-65"/>
      <use x="763.671875" xlink:href="#DejaVuSans-6c"/>
      <use x="791.455078" xlink:href="#DejaVuSans-6c"/>
      <use x="819.238281" xlink:href="#DejaVuSans-73"/>
     </g>
    </g>
   </g>
   <g id="matplotlib.axis_4">
    <g id="ytick_9">
     <g id="line2d_53">
      <path clip-path="url(#p9c965f05c2)" d="M 72 603.537522 
L 518.4 603.537522 
" style="fill:none;stroke:#ffffff;stroke-linecap:square;stroke-width:0.8;"/>
     </g>
     <g id="line2d_54">
      <g>
       <use style="fill:#555555;stroke:#555555;stroke-width:0.8;" x="72" xlink:href="#m0dbd7f223a" y="603.537522"/>
      </g>
     </g>
     <g id="text_29">
      <!-- 3.54 -->
      <g style="fill:#555555;" transform="translate(42.734375 607.336741)scale(0.1 -0.1)">
       <use xlink:href="#DejaVuSans-33"/>
       <use x="63.623047" xlink:href="#DejaVuSans-2e"/>
       <use x="95.410156" xlink:href="#DejaVuSans-35"/>
       <use x="159.033203" xlink:href="#DejaVuSans-34"/>
      </g>
     </g>
    </g>
    <g id="ytick_10">
     <g id="line2d_55">
      <path clip-path="url(#p9c965f05c2)" d="M 72 562.966948 
L 518.4 562.966948 
" style="fill:none;stroke:#ffffff;stroke-linecap:square;stroke-width:0.8;"/>
     </g>
     <g id="line2d_56">
      <g>
       <use style="fill:#555555;stroke:#555555;stroke-width:0.8;" x="72" xlink:href="#m0dbd7f223a" y="562.966948"/>
      </g>
     </g>
     <g id="text_30">
      <!-- 3.55 -->
      <g style="fill:#555555;" transform="translate(42.734375 566.766166)scale(0.1 -0.1)">
       <use xlink:href="#DejaVuSans-33"/>
       <use x="63.623047" xlink:href="#DejaVuSans-2e"/>
       <use x="95.410156" xlink:href="#DejaVuSans-35"/>
       <use x="159.033203" xlink:href="#DejaVuSans-35"/>
      </g>
     </g>
    </g>
    <g id="ytick_11">
     <g id="line2d_57">
      <path clip-path="url(#p9c965f05c2)" d="M 72 522.396373 
L 518.4 522.396373 
" style="fill:none;stroke:#ffffff;stroke-linecap:square;stroke-width:0.8;"/>
     </g>
     <g id="line2d_58">
      <g>
       <use style="fill:#555555;stroke:#555555;stroke-width:0.8;" x="72" xlink:href="#m0dbd7f223a" y="522.396373"/>
      </g>
     </g>
     <g id="text_31">
      <!-- 3.56 -->
      <g style="fill:#555555;" transform="translate(42.734375 526.195592)scale(0.1 -0.1)">
       <use xlink:href="#DejaVuSans-33"/>
       <use x="63.623047" xlink:href="#DejaVuSans-2e"/>
       <use x="95.410156" xlink:href="#DejaVuSans-35"/>
       <use x="159.033203" xlink:href="#DejaVuSans-36"/>
      </g>
     </g>
    </g>
    <g id="ytick_12">
     <g id="line2d_59">
      <path clip-path="url(#p9c965f05c2)" d="M 72 481.825799 
L 518.4 481.825799 
" style="fill:none;stroke:#ffffff;stroke-linecap:square;stroke-width:0.8;"/>
     </g>
     <g id="line2d_60">
      <g>
       <use style="fill:#555555;stroke:#555555;stroke-width:0.8;" x="72" xlink:href="#m0dbd7f223a" y="481.825799"/>
      </g>
     </g>
     <g id="text_32">
      <!-- 3.57 -->
      <g style="fill:#555555;" transform="translate(42.734375 485.625018)scale(0.1 -0.1)">
       <use xlink:href="#DejaVuSans-33"/>
       <use x="63.623047" xlink:href="#DejaVuSans-2e"/>
       <use x="95.410156" xlink:href="#DejaVuSans-35"/>
       <use x="159.033203" xlink:href="#DejaVuSans-37"/>
      </g>
     </g>
    </g>
    <g id="ytick_13">
     <g id="line2d_61">
      <path clip-path="url(#p9c965f05c2)" d="M 72 441.255225 
L 518.4 441.255225 
" style="fill:none;stroke:#ffffff;stroke-linecap:square;stroke-width:0.8;"/>
     </g>
     <g id="line2d_62">
      <g>
       <use style="fill:#555555;stroke:#555555;stroke-width:0.8;" x="72" xlink:href="#m0dbd7f223a" y="441.255225"/>
      </g>
     </g>
     <g id="text_33">
      <!-- 3.58 -->
      <g style="fill:#555555;" transform="translate(42.734375 445.054443)scale(0.1 -0.1)">
       <use xlink:href="#DejaVuSans-33"/>
       <use x="63.623047" xlink:href="#DejaVuSans-2e"/>
       <use x="95.410156" xlink:href="#DejaVuSans-35"/>
       <use x="159.033203" xlink:href="#DejaVuSans-38"/>
      </g>
     </g>
    </g>
    <g id="ytick_14">
     <g id="line2d_63">
      <path clip-path="url(#p9c965f05c2)" d="M 72 400.68465 
L 518.4 400.68465 
" style="fill:none;stroke:#ffffff;stroke-linecap:square;stroke-width:0.8;"/>
     </g>
     <g id="line2d_64">
      <g>
       <use style="fill:#555555;stroke:#555555;stroke-width:0.8;" x="72" xlink:href="#m0dbd7f223a" y="400.68465"/>
      </g>
     </g>
     <g id="text_34">
      <!-- 3.59 -->
      <g style="fill:#555555;" transform="translate(42.734375 404.483869)scale(0.1 -0.1)">
       <use xlink:href="#DejaVuSans-33"/>
       <use x="63.623047" xlink:href="#DejaVuSans-2e"/>
       <use x="95.410156" xlink:href="#DejaVuSans-35"/>
       <use x="159.033203" xlink:href="#DejaVuSans-39"/>
      </g>
     </g>
    </g>
    <g id="text_35">
     <!-- energy -->
     <g style="fill:#555555;" transform="translate(36.23875 535.812188)rotate(-90)scale(0.12 -0.12)">
      <use xlink:href="#DejaVuSans-65"/>
      <use x="61.523438" xlink:href="#DejaVuSans-6e"/>
      <use x="124.902344" xlink:href="#DejaVuSans-65"/>
      <use x="186.425781" xlink:href="#DejaVuSans-72"/>
      <use x="227.523438" xlink:href="#DejaVuSans-67"/>
      <use x="291" xlink:href="#DejaVuSans-79"/>
     </g>
    </g>
   </g>
   <g id="line2d_65">
    <path clip-path="url(#p9c965f05c2)" d="M 92.290909 599.687388 
L 159.927273 613.595374 
L 227.563636 621.917073 
L 295.2 624.612353 
L 362.836364 626.645668 
L 430.472727 628.17649 
L 498.109091 629.345455 
" style="fill:none;stroke:#39b237;stroke-linecap:square;stroke-width:1.5;"/>
    <g clip-path="url(#p9c965f05c2)">
     <use style="fill:#39b237;stroke:#39b237;" x="92.290909" xlink:href="#mdb8e65e694" y="599.687388"/>
     <use style="fill:#39b237;stroke:#39b237;" x="159.927273" xlink:href="#mdb8e65e694" y="613.595374"/>
     <use style="fill:#39b237;stroke:#39b237;" x="227.563636" xlink:href="#mdb8e65e694" y="621.917073"/>
     <use style="fill:#39b237;stroke:#39b237;" x="295.2" xlink:href="#mdb8e65e694" y="624.612353"/>
     <use style="fill:#39b237;stroke:#39b237;" x="362.836364" xlink:href="#mdb8e65e694" y="626.645668"/>
     <use style="fill:#39b237;stroke:#39b237;" x="430.472727" xlink:href="#mdb8e65e694" y="628.17649"/>
     <use style="fill:#39b237;stroke:#39b237;" x="498.109091" xlink:href="#mdb8e65e694" y="629.345455"/>
    </g>
   </g>
   <g id="line2d_66">
    <path clip-path="url(#p9c965f05c2)" d="M 92.290909 585.706552 
L 159.927273 599.956504 
L 227.563636 608.66688 
L 295.2 611.328265 
L 362.836364 613.387932 
L 430.472727 614.926319 
L 498.109091 616.180871 
" style="fill:none;stroke:#841a0b;stroke-linecap:square;stroke-width:1.5;"/>
    <g clip-path="url(#p9c965f05c2)">
     <use style="fill:#841a0b;stroke:#841a0b;" x="92.290909" xlink:href="#mf4d0b1335c" y="585.706552"/>
     <use style="fill:#841a0b;stroke:#841a0b;" x="159.927273" xlink:href="#mf4d0b1335c" y="599.956504"/>
     <use style="fill:#841a0b;stroke:#841a0b;" x="227.563636" xlink:href="#mf4d0b1335c" y="608.66688"/>
     <use style="fill:#841a0b;stroke:#841a0b;" x="295.2" xlink:href="#mf4d0b1335c" y="611.328265"/>
     <use style="fill:#841a0b;stroke:#841a0b;" x="362.836364" xlink:href="#mf4d0b1335c" y="613.387932"/>
     <use style="fill:#841a0b;stroke:#841a0b;" x="430.472727" xlink:href="#mf4d0b1335c" y="614.926319"/>
     <use style="fill:#841a0b;stroke:#841a0b;" x="498.109091" xlink:href="#mf4d0b1335c" y="616.180871"/>
    </g>
   </g>
   <g id="line2d_67">
    <path clip-path="url(#p9c965f05c2)" d="M 92.290909 586.519323 
L 159.927273 600.681663 
L 227.563636 609.218729 
L 295.2 611.929575 
L 362.836364 614.00845 
L 430.472727 615.575825 
L 498.109091 616.799229 
" style="fill:none;stroke:#c6cc26;stroke-dasharray:5.6,2.4;stroke-dashoffset:0;stroke-width:1.5;"/>
    <g clip-path="url(#p9c965f05c2)">
     <use style="fill:#c6cc26;stroke:#c6cc26;" x="92.290909" xlink:href="#m44f1d1fe35" y="586.519323"/>
     <use style="fill:#c6cc26;stroke:#c6cc26;" x="159.927273" xlink:href="#m44f1d1fe35" y="600.681663"/>
     <use style="fill:#c6cc26;stroke:#c6cc26;" x="227.563636" xlink:href="#m44f1d1fe35" y="609.218729"/>
     <use style="fill:#c6cc26;stroke:#c6cc26;" x="295.2" xlink:href="#m44f1d1fe35" y="611.929575"/>
     <use style="fill:#c6cc26;stroke:#c6cc26;" x="362.836364" xlink:href="#m44f1d1fe35" y="614.00845"/>
     <use style="fill:#c6cc26;stroke:#c6cc26;" x="430.472727" xlink:href="#m44f1d1fe35" y="615.575825"/>
     <use style="fill:#c6cc26;stroke:#c6cc26;" x="498.109091" xlink:href="#m44f1d1fe35" y="616.799229"/>
    </g>
   </g>
   <g id="line2d_68">
    <path clip-path="url(#p9c965f05c2)" d="M 92.290909 400.254545 
L 159.927273 420.556032 
L 227.563636 435.572326 
L 295.2 440.109345 
L 362.836364 443.43152 
L 430.472727 446.019756 
L 498.109091 448.069819 
" style="fill:none;stroke:#1351c4;stroke-linecap:square;stroke-width:1.5;"/>
    <g clip-path="url(#p9c965f05c2)">
     <use style="fill:#1351c4;stroke:#1351c4;" x="92.290909" xlink:href="#mb91013c188" y="400.254545"/>
     <use style="fill:#1351c4;stroke:#1351c4;" x="159.927273" xlink:href="#mb91013c188" y="420.556032"/>
     <use style="fill:#1351c4;stroke:#1351c4;" x="227.563636" xlink:href="#mb91013c188" y="435.572326"/>
     <use style="fill:#1351c4;stroke:#1351c4;" x="295.2" xlink:href="#mb91013c188" y="440.109345"/>
     <use style="fill:#1351c4;stroke:#1351c4;" x="362.836364" xlink:href="#mb91013c188" y="443.43152"/>
     <use style="fill:#1351c4;stroke:#1351c4;" x="430.472727" xlink:href="#mb91013c188" y="446.019756"/>
     <use style="fill:#1351c4;stroke:#1351c4;" x="498.109091" xlink:href="#mb91013c188" y="448.069819"/>
    </g>
   </g>
   <g id="patch_9">
    <path d="M 72 640.8 
L 72 388.8 
" style="fill:none;stroke:#ffffff;stroke-linecap:square;stroke-linejoin:miter;"/>
   </g>
   <g id="patch_10">
    <path d="M 518.4 640.8 
L 518.4 388.8 
" style="fill:none;stroke:#ffffff;stroke-linecap:square;stroke-linejoin:miter;"/>
   </g>
   <g id="patch_11">
    <path d="M 72 640.8 
L 518.4 640.8 
" style="fill:none;stroke:#ffffff;stroke-linecap:square;stroke-linejoin:miter;"/>
   </g>
   <g id="patch_12">
    <path d="M 72 388.8 
L 518.4 388.8 
" style="fill:none;stroke:#ffffff;stroke-linecap:square;stroke-linejoin:miter;"/>
   </g>
  </g>
 </g>
 <defs>
  <clipPath id="p7bc7ef6a7d">
   <rect height="252" width="446.4" x="72" y="86.4"/>
  </clipPath>
  <clipPath id="p9c965f05c2">
   <rect height="252" width="446.4" x="72" y="388.8"/>
  </clipPath>
 </defs>
</svg>
