<?xml version="1.0" encoding="utf-8" standalone="no"?>
<!DOCTYPE svg PUBLIC "-//W3C//DTD SVG 1.1//EN"
  "http://www.w3.org/Graphics/SVG/1.1/DTD/svg11.dtd">
<!-- Created with matplotlib (http://matplotlib.org/) -->
<svg height="216pt" version="1.1" viewBox="0 0 288 216" width="288pt" xmlns="http://www.w3.org/2000/svg" xmlns:xlink="http://www.w3.org/1999/xlink">
 <defs>
  <style type="text/css">
*{stroke-linecap:butt;stroke-linejoin:round;}
  </style>
 </defs>
 <g id="figure_1">
  <g id="patch_1">
   <path d="M 0 216 
L 288 216 
L 288 0 
L 0 0 
z
" style="fill:#ffffff;"/>
  </g>
  <g id="axes_1">
   <g id="patch_2">
    <path d="M 52.8275 173.32 
L 274.68 173.32 
L 274.68 13.32 
L 52.8275 13.32 
z
" style="fill:#e5e5e5;"/>
   </g>
   <g id="matplotlib.axis_1">
    <g id="xtick_1">
     <g id="line2d_1">
      <path clip-path="url(#pa9e88592d8)" d="M 85.321048 173.32 
L 85.321048 13.32 
" style="fill:none;stroke:#ffffff;stroke-linecap:square;stroke-width:0.8;"/>
     </g>
     <g id="line2d_2">
      <defs>
       <path d="M 0 0 
L 0 3.5 
" id="me62bcd8525" style="stroke:#555555;stroke-width:0.8;"/>
      </defs>
      <g>
       <use style="fill:#555555;stroke:#555555;stroke-width:0.8;" x="85.321048" xlink:href="#me62bcd8525" y="173.32"/>
      </g>
     </g>
     <g id="text_1">
      <!-- 0.2 -->
      <defs>
       <path d="M 50.484375 30.328125 
Q 50.484375 14.453125 45.0625 6.734375 
Q 39.65625 -0.984375 28.125 -0.984375 
Q 16.75 -0.984375 11.28125 6.5625 
Q 5.8125 14.109375 5.609375 29.109375 
L 5.609375 41.15625 
Q 5.609375 56.84375 11.03125 64.453125 
Q 16.453125 72.078125 28.03125 72.078125 
Q 39.5 72.078125 44.921875 64.71875 
Q 50.34375 57.375 50.484375 42.046875 
z
M 41.453125 42.671875 
Q 41.453125 54.15625 38.234375 59.40625 
Q 35.015625 64.65625 28.03125 64.65625 
Q 21.09375 64.65625 17.921875 59.421875 
Q 14.75 54.203125 14.65625 43.359375 
L 14.65625 28.90625 
Q 14.65625 17.390625 18 11.890625 
Q 21.34375 6.390625 28.125 6.390625 
Q 34.8125 6.390625 38.0625 11.5625 
Q 41.3125 16.75 41.453125 27.875 
z
" id="Roboto-Regular-30"/>
       <path d="M 7.03125 4.734375 
Q 7.03125 7.078125 8.421875 8.640625 
Q 9.8125 10.203125 12.59375 10.203125 
Q 15.375 10.203125 16.8125 8.640625 
Q 18.265625 7.078125 18.265625 4.734375 
Q 18.265625 2.484375 16.8125 0.96875 
Q 15.375 -0.53125 12.59375 -0.53125 
Q 9.8125 -0.53125 8.421875 0.96875 
Q 7.03125 2.484375 7.03125 4.734375 
" id="Roboto-Regular-2e"/>
       <path d="M 52.484375 0 
L 5.90625 0 
L 5.90625 6.5 
L 30.515625 33.84375 
Q 35.984375 40.046875 38.0625 43.921875 
Q 40.140625 47.796875 40.140625 51.953125 
Q 40.140625 57.515625 36.765625 61.078125 
Q 33.40625 64.65625 27.78125 64.65625 
Q 21.046875 64.65625 17.3125 60.8125 
Q 13.578125 56.984375 13.578125 50.140625 
L 4.546875 50.140625 
Q 4.546875 59.96875 10.859375 66.015625 
Q 17.1875 72.078125 27.78125 72.078125 
Q 37.703125 72.078125 43.453125 66.875 
Q 49.21875 61.671875 49.21875 53.03125 
Q 49.21875 42.53125 35.84375 28.03125 
L 16.796875 7.375 
L 52.484375 7.375 
z
" id="Roboto-Regular-32"/>
      </defs>
      <g style="fill:#555555;" transform="translate(78.389798 187.82)scale(0.1 -0.1)">
       <use xlink:href="#Roboto-Regular-30"/>
       <use x="56.152344" xlink:href="#Roboto-Regular-2e"/>
       <use x="82.470703" xlink:href="#Roboto-Regular-32"/>
      </g>
     </g>
    </g>
    <g id="xtick_2">
     <g id="line2d_3">
      <path clip-path="url(#pa9e88592d8)" d="M 130.139735 173.32 
L 130.139735 13.32 
" style="fill:none;stroke:#ffffff;stroke-linecap:square;stroke-width:0.8;"/>
     </g>
     <g id="line2d_4">
      <g>
       <use style="fill:#555555;stroke:#555555;stroke-width:0.8;" x="130.139735" xlink:href="#me62bcd8525" y="173.32"/>
      </g>
     </g>
     <g id="text_2">
      <!-- 0.4 -->
      <defs>
       <path d="M 44.046875 23.875 
L 53.90625 23.875 
L 53.90625 16.5 
L 44.046875 16.5 
L 44.046875 0 
L 34.96875 0 
L 34.96875 16.5 
L 2.59375 16.5 
L 2.59375 21.828125 
L 34.421875 71.09375 
L 44.046875 71.09375 
z
M 12.84375 23.875 
L 34.96875 23.875 
L 34.96875 58.734375 
L 33.890625 56.78125 
z
" id="Roboto-Regular-34"/>
      </defs>
      <g style="fill:#555555;" transform="translate(123.208485 187.82)scale(0.1 -0.1)">
       <use xlink:href="#Roboto-Regular-30"/>
       <use x="56.152344" xlink:href="#Roboto-Regular-2e"/>
       <use x="82.470703" xlink:href="#Roboto-Regular-34"/>
      </g>
     </g>
    </g>
    <g id="xtick_3">
     <g id="line2d_5">
      <path clip-path="url(#pa9e88592d8)" d="M 174.958422 173.32 
L 174.958422 13.32 
" style="fill:none;stroke:#ffffff;stroke-linecap:square;stroke-width:0.8;"/>
     </g>
     <g id="line2d_6">
      <g>
       <use style="fill:#555555;stroke:#555555;stroke-width:0.8;" x="174.958422" xlink:href="#me62bcd8525" y="173.32"/>
      </g>
     </g>
     <g id="text_3">
      <!-- 0.6 -->
      <defs>
       <path d="M 41.359375 71.140625 
L 41.359375 63.484375 
L 39.703125 63.484375 
Q 29.15625 63.28125 22.90625 57.21875 
Q 16.65625 51.171875 15.671875 40.1875 
Q 21.296875 46.625 31 46.625 
Q 40.28125 46.625 45.828125 40.078125 
Q 51.375 33.546875 51.375 23.1875 
Q 51.375 12.203125 45.390625 5.609375 
Q 39.40625 -0.984375 29.34375 -0.984375 
Q 19.140625 -0.984375 12.796875 6.859375 
Q 6.453125 14.703125 6.453125 27.046875 
L 6.453125 30.515625 
Q 6.453125 50.140625 14.8125 60.515625 
Q 23.1875 70.90625 39.75 71.140625 
z
M 29.5 39.109375 
Q 24.859375 39.109375 20.953125 36.328125 
Q 17.046875 33.546875 15.53125 29.34375 
L 15.53125 26.03125 
Q 15.53125 17.234375 19.484375 11.859375 
Q 23.4375 6.5 29.34375 6.5 
Q 35.453125 6.5 38.9375 10.984375 
Q 42.4375 15.484375 42.4375 22.75 
Q 42.4375 30.078125 38.890625 34.59375 
Q 35.359375 39.109375 29.5 39.109375 
" id="Roboto-Regular-36"/>
      </defs>
      <g style="fill:#555555;" transform="translate(168.027172 187.82)scale(0.1 -0.1)">
       <use xlink:href="#Roboto-Regular-30"/>
       <use x="56.152344" xlink:href="#Roboto-Regular-2e"/>
       <use x="82.470703" xlink:href="#Roboto-Regular-36"/>
      </g>
     </g>
    </g>
    <g id="xtick_4">
     <g id="line2d_7">
      <path clip-path="url(#pa9e88592d8)" d="M 219.777109 173.32 
L 219.777109 13.32 
" style="fill:none;stroke:#ffffff;stroke-linecap:square;stroke-width:0.8;"/>
     </g>
     <g id="line2d_8">
      <g>
       <use style="fill:#555555;stroke:#555555;stroke-width:0.8;" x="219.777109" xlink:href="#me62bcd8525" y="173.32"/>
      </g>
     </g>
     <g id="text_4">
      <!-- 0.8 -->
      <defs>
       <path d="M 49.03125 52.546875 
Q 49.03125 47.21875 46.21875 43.0625 
Q 43.40625 38.921875 38.625 36.578125 
Q 44.1875 34.1875 47.4375 29.59375 
Q 50.6875 25 50.6875 19.1875 
Q 50.6875 9.96875 44.453125 4.484375 
Q 38.234375 -0.984375 28.078125 -0.984375 
Q 17.828125 -0.984375 11.640625 4.515625 
Q 5.46875 10.015625 5.46875 19.1875 
Q 5.46875 24.953125 8.609375 29.59375 
Q 11.765625 34.234375 17.328125 36.625 
Q 12.59375 38.96875 9.859375 43.109375 
Q 7.125 47.265625 7.125 52.546875 
Q 7.125 61.53125 12.890625 66.796875 
Q 18.65625 72.078125 28.078125 72.078125 
Q 37.453125 72.078125 43.234375 66.796875 
Q 49.03125 61.53125 49.03125 52.546875 
M 41.65625 19.390625 
Q 41.65625 25.34375 37.859375 29.09375 
Q 34.078125 32.859375 27.96875 32.859375 
Q 21.875 32.859375 18.1875 29.140625 
Q 14.5 25.4375 14.5 19.375 
Q 14.5 13.328125 18.09375 9.859375 
Q 21.6875 6.390625 28.078125 6.390625 
Q 34.421875 6.390625 38.03125 9.875 
Q 41.65625 13.375 41.65625 19.390625 
M 28.078125 64.65625 
Q 22.75 64.65625 19.453125 61.359375 
Q 16.15625 58.0625 16.15625 52.390625 
Q 16.15625 46.96875 19.40625 43.625 
Q 22.65625 40.28125 28.078125 40.28125 
Q 33.5 40.28125 36.734375 43.625 
Q 39.984375 46.96875 39.984375 52.390625 
Q 39.984375 57.8125 36.609375 61.234375 
Q 33.25 64.65625 28.078125 64.65625 
" id="Roboto-Regular-38"/>
      </defs>
      <g style="fill:#555555;" transform="translate(212.845859 187.82)scale(0.1 -0.1)">
       <use xlink:href="#Roboto-Regular-30"/>
       <use x="56.152344" xlink:href="#Roboto-Regular-2e"/>
       <use x="82.470703" xlink:href="#Roboto-Regular-38"/>
      </g>
     </g>
    </g>
    <g id="xtick_5">
     <g id="line2d_9">
      <path clip-path="url(#pa9e88592d8)" d="M 264.595795 173.32 
L 264.595795 13.32 
" style="fill:none;stroke:#ffffff;stroke-linecap:square;stroke-width:0.8;"/>
     </g>
     <g id="line2d_10">
      <g>
       <use style="fill:#555555;stroke:#555555;stroke-width:0.8;" x="264.595795" xlink:href="#me62bcd8525" y="173.32"/>
      </g>
     </g>
     <g id="text_5">
      <!-- 1.0 -->
      <defs>
       <path d="M 35.59375 0 
L 26.515625 0 
L 26.515625 60.203125 
L 8.296875 53.515625 
L 8.296875 61.71875 
L 34.1875 71.4375 
L 35.59375 71.4375 
z
" id="Roboto-Regular-31"/>
      </defs>
      <g style="fill:#555555;" transform="translate(257.664545 187.82)scale(0.1 -0.1)">
       <use xlink:href="#Roboto-Regular-31"/>
       <use x="56.152344" xlink:href="#Roboto-Regular-2e"/>
       <use x="82.470703" xlink:href="#Roboto-Regular-30"/>
      </g>
     </g>
    </g>
    <g id="text_6">
     <!-- ω -->
     <defs>
      <path d="M 22.078125 52.828125 
Q 15.328125 39.015625 14.984375 27.34375 
Q 14.984375 17.4375 17.765625 11.890625 
Q 20.5625 6.34375 25.734375 6.34375 
Q 31 6.34375 33.765625 10.5625 
Q 36.53125 14.796875 36.53125 22.90625 
L 36.53125 37.59375 
L 45.65625 37.59375 
L 45.65625 22.65625 
Q 45.703125 14.65625 48.453125 10.5 
Q 51.21875 6.34375 56.453125 6.34375 
Q 61.625 6.34375 64.40625 11.859375 
Q 67.1875 17.390625 67.1875 27.34375 
Q 66.84375 39.015625 60.109375 52.828125 
L 69.625 52.828125 
Q 76.21875 40.921875 76.21875 27.34375 
Q 76.21875 13.921875 71.15625 6.46875 
Q 66.109375 -0.984375 56.9375 -0.984375 
Q 45.21875 -0.984375 41.0625 10.640625 
Q 39.0625 4.9375 35.0625 1.96875 
Q 31.0625 -0.984375 25.25 -0.984375 
Q 16.0625 -0.984375 11 6.46875 
Q 5.953125 13.921875 5.953125 27.34375 
Q 5.953125 41.359375 12.546875 52.828125 
z
" id="Roboto-Regular-3c9"/>
     </defs>
     <g style="fill:#555555;" transform="translate(158.81125 202.85125)scale(0.12 -0.12)">
      <use xlink:href="#Roboto-Regular-3c9"/>
     </g>
    </g>
   </g>
   <g id="matplotlib.axis_2">
    <g id="ytick_1">
     <g id="line2d_11">
      <path clip-path="url(#pa9e88592d8)" d="M 52.8275 145.427809 
L 274.68 145.427809 
" style="fill:none;stroke:#ffffff;stroke-linecap:square;stroke-width:0.8;"/>
     </g>
     <g id="line2d_12">
      <defs>
       <path d="M 0 0 
L -3.5 0 
" id="m0dbd7f223a" style="stroke:#555555;stroke-width:0.8;"/>
      </defs>
      <g>
       <use style="fill:#555555;stroke:#555555;stroke-width:0.8;" x="52.8275" xlink:href="#m0dbd7f223a" y="145.427809"/>
      </g>
     </g>
     <g id="text_7">
      <!-- 0.92 -->
      <defs>
       <path d="M 40.53125 31.25 
Q 37.703125 27.875 33.765625 25.828125 
Q 29.828125 23.78125 25.140625 23.78125 
Q 19 23.78125 14.421875 26.796875 
Q 9.859375 29.828125 7.375 35.328125 
Q 4.890625 40.828125 4.890625 47.46875 
Q 4.890625 54.59375 7.59375 60.296875 
Q 10.296875 66.015625 15.28125 69.046875 
Q 20.265625 72.078125 26.90625 72.078125 
Q 37.453125 72.078125 43.53125 64.1875 
Q 49.609375 56.296875 49.609375 42.671875 
L 49.609375 40.046875 
Q 49.609375 19.28125 41.40625 9.734375 
Q 33.203125 0.203125 16.65625 -0.046875 
L 14.890625 -0.046875 
L 14.890625 7.5625 
L 16.796875 7.5625 
Q 27.984375 7.765625 33.984375 13.40625 
Q 39.984375 19.046875 40.53125 31.25 
M 26.609375 31.25 
Q 31.15625 31.25 34.984375 34.03125 
Q 38.8125 36.8125 40.578125 40.921875 
L 40.578125 44.53125 
Q 40.578125 53.421875 36.71875 58.984375 
Q 32.859375 64.546875 26.953125 64.546875 
Q 21 64.546875 17.375 59.984375 
Q 13.765625 55.421875 13.765625 47.953125 
Q 13.765625 40.671875 17.25 35.953125 
Q 20.75 31.25 26.609375 31.25 
" id="Roboto-Regular-39"/>
      </defs>
      <g style="fill:#555555;" transform="translate(26.349375 149.177809)scale(0.1 -0.1)">
       <use xlink:href="#Roboto-Regular-30"/>
       <use x="56.152344" xlink:href="#Roboto-Regular-2e"/>
       <use x="82.470703" xlink:href="#Roboto-Regular-39"/>
       <use x="138.623047" xlink:href="#Roboto-Regular-32"/>
      </g>
     </g>
    </g>
    <g id="ytick_2">
     <g id="line2d_13">
      <path clip-path="url(#pa9e88592d8)" d="M 52.8275 114.219038 
L 274.68 114.219038 
" style="fill:none;stroke:#ffffff;stroke-linecap:square;stroke-width:0.8;"/>
     </g>
     <g id="line2d_14">
      <g>
       <use style="fill:#555555;stroke:#555555;stroke-width:0.8;" x="52.8275" xlink:href="#m0dbd7f223a" y="114.219038"/>
      </g>
     </g>
     <g id="text_8">
      <!-- 0.94 -->
      <g style="fill:#555555;" transform="translate(26.349375 117.969038)scale(0.1 -0.1)">
       <use xlink:href="#Roboto-Regular-30"/>
       <use x="56.152344" xlink:href="#Roboto-Regular-2e"/>
       <use x="82.470703" xlink:href="#Roboto-Regular-39"/>
       <use x="138.623047" xlink:href="#Roboto-Regular-34"/>
      </g>
     </g>
    </g>
    <g id="ytick_3">
     <g id="line2d_15">
      <path clip-path="url(#pa9e88592d8)" d="M 52.8275 83.010268 
L 274.68 83.010268 
" style="fill:none;stroke:#ffffff;stroke-linecap:square;stroke-width:0.8;"/>
     </g>
     <g id="line2d_16">
      <g>
       <use style="fill:#555555;stroke:#555555;stroke-width:0.8;" x="52.8275" xlink:href="#m0dbd7f223a" y="83.010268"/>
      </g>
     </g>
     <g id="text_9">
      <!-- 0.96 -->
      <g style="fill:#555555;" transform="translate(26.349375 86.760268)scale(0.1 -0.1)">
       <use xlink:href="#Roboto-Regular-30"/>
       <use x="56.152344" xlink:href="#Roboto-Regular-2e"/>
       <use x="82.470703" xlink:href="#Roboto-Regular-39"/>
       <use x="138.623047" xlink:href="#Roboto-Regular-36"/>
      </g>
     </g>
    </g>
    <g id="ytick_4">
     <g id="line2d_17">
      <path clip-path="url(#pa9e88592d8)" d="M 52.8275 51.801498 
L 274.68 51.801498 
" style="fill:none;stroke:#ffffff;stroke-linecap:square;stroke-width:0.8;"/>
     </g>
     <g id="line2d_18">
      <g>
       <use style="fill:#555555;stroke:#555555;stroke-width:0.8;" x="52.8275" xlink:href="#m0dbd7f223a" y="51.801498"/>
      </g>
     </g>
     <g id="text_10">
      <!-- 0.98 -->
      <g style="fill:#555555;" transform="translate(26.349375 55.551498)scale(0.1 -0.1)">
       <use xlink:href="#Roboto-Regular-30"/>
       <use x="56.152344" xlink:href="#Roboto-Regular-2e"/>
       <use x="82.470703" xlink:href="#Roboto-Regular-39"/>
       <use x="138.623047" xlink:href="#Roboto-Regular-38"/>
      </g>
     </g>
    </g>
    <g id="ytick_5">
     <g id="line2d_19">
      <path clip-path="url(#pa9e88592d8)" d="M 52.8275 20.592727 
L 274.68 20.592727 
" style="fill:none;stroke:#ffffff;stroke-linecap:square;stroke-width:0.8;"/>
     </g>
     <g id="line2d_20">
      <g>
       <use style="fill:#555555;stroke:#555555;stroke-width:0.8;" x="52.8275" xlink:href="#m0dbd7f223a" y="20.592727"/>
      </g>
     </g>
     <g id="text_11">
      <!-- 1.00 -->
      <g style="fill:#555555;" transform="translate(26.349375 24.342727)scale(0.1 -0.1)">
       <use xlink:href="#Roboto-Regular-31"/>
       <use x="56.152344" xlink:href="#Roboto-Regular-2e"/>
       <use x="82.470703" xlink:href="#Roboto-Regular-30"/>
       <use x="138.623047" xlink:href="#Roboto-Regular-30"/>
      </g>
     </g>
    </g>
    <g id="text_12">
     <!-- ε/ε[HF] -->
     <defs>
      <path d="M 13.96875 14.84375 
Q 13.96875 11.078125 17.546875 8.6875 
Q 21.140625 6.296875 26.90625 6.296875 
Q 32.421875 6.296875 36.203125 8.984375 
Q 39.984375 11.671875 39.984375 15.625 
L 49.03125 15.625 
Q 49.03125 8.0625 42.796875 3.53125 
Q 36.578125 -0.984375 26.90625 -0.984375 
Q 16.9375 -0.984375 10.875 3.34375 
Q 4.828125 7.671875 4.828125 14.84375 
Q 4.828125 23.921875 14.84375 27.15625 
Q 10.546875 28.90625 8.15625 31.875 
Q 5.765625 34.859375 5.765625 38.421875 
Q 5.765625 45.65625 11.40625 49.703125 
Q 17.046875 53.765625 26.90625 53.765625 
Q 35.984375 53.765625 42.0625 49.390625 
Q 48.140625 45.015625 48.140625 38.09375 
L 39.109375 38.09375 
Q 39.109375 41.5 35.609375 43.96875 
Q 32.125 46.4375 26.90625 46.4375 
Q 21.4375 46.4375 18.140625 44.21875 
Q 14.84375 42 14.84375 38.375 
Q 14.84375 30.5625 26.765625 30.5625 
L 36.328125 30.5625 
L 36.328125 23.34375 
L 25.390625 23.34375 
Q 13.96875 23.046875 13.96875 14.84375 
" id="Roboto-Regular-3b5"/>
      <path d="M 8.640625 -6.109375 
L 0.875 -6.109375 
L 30.5625 71.09375 
L 38.28125 71.09375 
z
" id="Roboto-Regular-2f"/>
      <path d="M 25.53125 73.828125 
L 16.21875 73.828125 
L 16.21875 -7.8125 
L 25.53125 -7.8125 
L 25.53125 -15.234375 
L 7.125 -15.234375 
L 7.125 81.25 
L 25.53125 81.25 
z
" id="Roboto-Regular-5b"/>
      <path d="M 62.890625 0 
L 53.46875 0 
L 53.46875 32.859375 
L 17.625 32.859375 
L 17.625 0 
L 8.25 0 
L 8.25 71.09375 
L 17.625 71.09375 
L 17.625 40.53125 
L 53.46875 40.53125 
L 53.46875 71.09375 
L 62.890625 71.09375 
z
" id="Roboto-Regular-48"/>
      <path d="M 47.46875 31.390625 
L 17.625 31.390625 
L 17.625 0 
L 8.25 0 
L 8.25 71.09375 
L 52.296875 71.09375 
L 52.296875 63.375 
L 17.625 63.375 
L 17.625 39.0625 
L 47.46875 39.0625 
z
" id="Roboto-Regular-46"/>
      <path d="M 0.4375 81.25 
L 18.890625 81.25 
L 18.890625 -15.234375 
L 0.4375 -15.234375 
L 0.4375 -7.8125 
L 9.859375 -7.8125 
L 9.859375 73.828125 
L 0.4375 73.828125 
z
" id="Roboto-Regular-5d"/>
     </defs>
     <g style="fill:#555555;" transform="translate(19.911875 113.038437)rotate(-90)scale(0.12 -0.12)">
      <use xlink:href="#Roboto-Regular-3b5"/>
      <use x="53.90625" xlink:href="#Roboto-Regular-2f"/>
      <use x="95.117188" xlink:href="#Roboto-Regular-3b5"/>
      <use x="149.023438" xlink:href="#Roboto-Regular-5b"/>
      <use x="175.537109" xlink:href="#Roboto-Regular-48"/>
      <use x="246.826172" xlink:href="#Roboto-Regular-46"/>
      <use x="302.099609" xlink:href="#Roboto-Regular-5d"/>
     </g>
    </g>
   </g>
   <g id="line2d_21">
    <path clip-path="url(#pa9e88592d8)" d="M 62.911705 129.255221 
L 103.248523 94.636499 
L 152.549078 76.69963 
L 264.595795 58.482184 
" style="fill:none;stroke:#1c5aa5;stroke-linecap:square;stroke-width:1.5;"/>
    <defs>
     <path d="M -3 3 
L 3 -3 
M -3 -3 
L 3 3 
" id="m478f0d4fc2" style="stroke:#1c5aa5;"/>
    </defs>
    <g clip-path="url(#pa9e88592d8)">
     <use style="fill:#1c5aa5;stroke:#1c5aa5;" x="62.911705" xlink:href="#m478f0d4fc2" y="129.255221"/>
     <use style="fill:#1c5aa5;stroke:#1c5aa5;" x="103.248523" xlink:href="#m478f0d4fc2" y="94.636499"/>
     <use style="fill:#1c5aa5;stroke:#1c5aa5;" x="152.549078" xlink:href="#m478f0d4fc2" y="76.69963"/>
     <use style="fill:#1c5aa5;stroke:#1c5aa5;" x="264.595795" xlink:href="#m478f0d4fc2" y="58.482184"/>
    </g>
   </g>
   <g id="line2d_22">
    <path clip-path="url(#pa9e88592d8)" d="M 62.911705 20.592727 
L 85.321048 20.592727 
L 103.248523 20.592727 
L 107.730391 20.592727 
L 130.139735 20.592727 
L 152.549078 20.592727 
L 174.958422 20.592727 
L 197.367765 20.592727 
L 219.777109 20.592727 
L 242.186452 20.592727 
L 264.595795 20.592727 
" style="fill:none;stroke:#e0cc18;stroke-linecap:square;stroke-width:1.5;"/>
    <defs>
     <path d="M -3 3 
L 3 -3 
M -3 -3 
L 3 3 
" id="m8059fedfb8" style="stroke:#e0cc18;"/>
    </defs>
    <g clip-path="url(#pa9e88592d8)">
     <use style="fill:#e0cc18;stroke:#e0cc18;" x="62.911705" xlink:href="#m8059fedfb8" y="20.592727"/>
     <use style="fill:#e0cc18;stroke:#e0cc18;" x="85.321048" xlink:href="#m8059fedfb8" y="20.592727"/>
     <use style="fill:#e0cc18;stroke:#e0cc18;" x="103.248523" xlink:href="#m8059fedfb8" y="20.592727"/>
     <use style="fill:#e0cc18;stroke:#e0cc18;" x="107.730391" xlink:href="#m8059fedfb8" y="20.592727"/>
     <use style="fill:#e0cc18;stroke:#e0cc18;" x="130.139735" xlink:href="#m8059fedfb8" y="20.592727"/>
     <use style="fill:#e0cc18;stroke:#e0cc18;" x="152.549078" xlink:href="#m8059fedfb8" y="20.592727"/>
     <use style="fill:#e0cc18;stroke:#e0cc18;" x="174.958422" xlink:href="#m8059fedfb8" y="20.592727"/>
     <use style="fill:#e0cc18;stroke:#e0cc18;" x="197.367765" xlink:href="#m8059fedfb8" y="20.592727"/>
     <use style="fill:#e0cc18;stroke:#e0cc18;" x="219.777109" xlink:href="#m8059fedfb8" y="20.592727"/>
     <use style="fill:#e0cc18;stroke:#e0cc18;" x="242.186452" xlink:href="#m8059fedfb8" y="20.592727"/>
     <use style="fill:#e0cc18;stroke:#e0cc18;" x="264.595795" xlink:href="#m8059fedfb8" y="20.592727"/>
    </g>
   </g>
   <g id="line2d_23">
    <path clip-path="url(#pa9e88592d8)" d="M 62.911705 166.047273 
L 85.321048 123.412235 
L 103.248523 106.833671 
L 107.730391 103.685307 
L 130.139735 91.412457 
L 152.549078 82.812228 
L 174.958422 76.358726 
L 197.367765 71.293843 
L 219.777109 67.187098 
L 242.186452 63.779337 
L 264.595795 60.89549 
" style="fill:none;stroke:#92e057;stroke-linecap:square;stroke-width:1.5;"/>
    <defs>
     <path d="M -3 3 
L 3 -3 
M -3 -3 
L 3 3 
" id="m59fe79908b" style="stroke:#92e057;"/>
    </defs>
    <g clip-path="url(#pa9e88592d8)">
     <use style="fill:#92e057;stroke:#92e057;" x="62.911705" xlink:href="#m59fe79908b" y="166.047273"/>
     <use style="fill:#92e057;stroke:#92e057;" x="85.321048" xlink:href="#m59fe79908b" y="123.412235"/>
     <use style="fill:#92e057;stroke:#92e057;" x="103.248523" xlink:href="#m59fe79908b" y="106.833671"/>
     <use style="fill:#92e057;stroke:#92e057;" x="107.730391" xlink:href="#m59fe79908b" y="103.685307"/>
     <use style="fill:#92e057;stroke:#92e057;" x="130.139735" xlink:href="#m59fe79908b" y="91.412457"/>
     <use style="fill:#92e057;stroke:#92e057;" x="152.549078" xlink:href="#m59fe79908b" y="82.812228"/>
     <use style="fill:#92e057;stroke:#92e057;" x="174.958422" xlink:href="#m59fe79908b" y="76.358726"/>
     <use style="fill:#92e057;stroke:#92e057;" x="197.367765" xlink:href="#m59fe79908b" y="71.293843"/>
     <use style="fill:#92e057;stroke:#92e057;" x="219.777109" xlink:href="#m59fe79908b" y="67.187098"/>
     <use style="fill:#92e057;stroke:#92e057;" x="242.186452" xlink:href="#m59fe79908b" y="63.779337"/>
     <use style="fill:#92e057;stroke:#92e057;" x="264.595795" xlink:href="#m59fe79908b" y="60.89549"/>
    </g>
   </g>
   <g id="line2d_24">
    <path clip-path="url(#pa9e88592d8)" d="M 62.911705 138.568845 
L 85.321048 109.327044 
L 103.248523 96.40604 
L 107.730391 93.883826 
L 130.139735 83.874305 
L 152.549078 76.701282 
L 174.958422 71.238206 
L 197.367765 66.902438 
L 219.777109 63.357007 
L 242.186452 60.391204 
L 264.595795 57.865429 
" style="fill:none;stroke:#a81e4c;stroke-linecap:square;stroke-width:1.5;"/>
    <defs>
     <path d="M -3 3 
L 3 -3 
M -3 -3 
L 3 3 
" id="me1d36d7786" style="stroke:#a81e4c;"/>
    </defs>
    <g clip-path="url(#pa9e88592d8)">
     <use style="fill:#a81e4c;stroke:#a81e4c;" x="62.911705" xlink:href="#me1d36d7786" y="138.568845"/>
     <use style="fill:#a81e4c;stroke:#a81e4c;" x="85.321048" xlink:href="#me1d36d7786" y="109.327044"/>
     <use style="fill:#a81e4c;stroke:#a81e4c;" x="103.248523" xlink:href="#me1d36d7786" y="96.40604"/>
     <use style="fill:#a81e4c;stroke:#a81e4c;" x="107.730391" xlink:href="#me1d36d7786" y="93.883826"/>
     <use style="fill:#a81e4c;stroke:#a81e4c;" x="130.139735" xlink:href="#me1d36d7786" y="83.874305"/>
     <use style="fill:#a81e4c;stroke:#a81e4c;" x="152.549078" xlink:href="#me1d36d7786" y="76.701282"/>
     <use style="fill:#a81e4c;stroke:#a81e4c;" x="174.958422" xlink:href="#me1d36d7786" y="71.238206"/>
     <use style="fill:#a81e4c;stroke:#a81e4c;" x="197.367765" xlink:href="#me1d36d7786" y="66.902438"/>
     <use style="fill:#a81e4c;stroke:#a81e4c;" x="219.777109" xlink:href="#me1d36d7786" y="63.357007"/>
     <use style="fill:#a81e4c;stroke:#a81e4c;" x="242.186452" xlink:href="#me1d36d7786" y="60.391204"/>
     <use style="fill:#a81e4c;stroke:#a81e4c;" x="264.595795" xlink:href="#me1d36d7786" y="57.865429"/>
    </g>
   </g>
   <g id="patch_3">
    <path d="M 52.8275 173.32 
L 52.8275 13.32 
" style="fill:none;stroke:#ffffff;stroke-linecap:square;stroke-linejoin:miter;"/>
   </g>
   <g id="patch_4">
    <path d="M 274.68 173.32 
L 274.68 13.32 
" style="fill:none;stroke:#ffffff;stroke-linecap:square;stroke-linejoin:miter;"/>
   </g>
   <g id="patch_5">
    <path d="M 52.8275 173.32 
L 274.68 173.32 
" style="fill:none;stroke:#ffffff;stroke-linecap:square;stroke-linejoin:miter;"/>
   </g>
   <g id="patch_6">
    <path d="M 52.8275 13.32 
L 274.68 13.32 
" style="fill:none;stroke:#ffffff;stroke-linecap:square;stroke-linejoin:miter;"/>
   </g>
   <g id="legend_1">
    <g id="patch_7">
     <path d="M 192.815938 168.32 
L 267.68 168.32 
Q 269.68 168.32 269.68 166.32 
L 269.68 108.305937 
Q 269.68 106.305937 267.68 106.305937 
L 192.815938 106.305937 
Q 190.815938 106.305937 190.815938 108.305937 
L 190.815938 166.32 
Q 190.815938 168.32 192.815938 168.32 
z
" style="fill:#e5e5e5;opacity:0.8;stroke:#cccccc;stroke-linejoin:miter;stroke-width:0.5;"/>
    </g>
    <g id="line2d_25">
     <path d="M 194.815938 114.305937 
L 214.815938 114.305937 
" style="fill:none;stroke:#1c5aa5;stroke-linecap:square;stroke-width:1.5;"/>
    </g>
    <g id="line2d_26">
     <g>
      <use style="fill:#1c5aa5;stroke:#1c5aa5;" x="204.815938" xlink:href="#m478f0d4fc2" y="114.305937"/>
     </g>
    </g>
    <g id="text_13">
     <!-- CCSD -->
     <defs>
      <path d="M 60.546875 22.5625 
Q 59.234375 11.28125 52.21875 5.140625 
Q 45.21875 -0.984375 33.59375 -0.984375 
Q 21 -0.984375 13.40625 8.046875 
Q 5.8125 17.09375 5.8125 32.234375 
L 5.8125 39.0625 
Q 5.8125 48.96875 9.34375 56.484375 
Q 12.890625 64.015625 19.375 68.046875 
Q 25.875 72.078125 34.421875 72.078125 
Q 45.75 72.078125 52.578125 65.75 
Q 59.421875 59.421875 60.546875 48.25 
L 51.125 48.25 
Q 49.90625 56.734375 45.828125 60.546875 
Q 41.75 64.359375 34.421875 64.359375 
Q 25.4375 64.359375 20.328125 57.71875 
Q 15.234375 51.078125 15.234375 38.8125 
L 15.234375 31.9375 
Q 15.234375 20.359375 20.0625 13.515625 
Q 24.90625 6.6875 33.59375 6.6875 
Q 41.40625 6.6875 45.578125 10.21875 
Q 49.75 13.765625 51.125 22.5625 
z
" id="Roboto-Regular-43"/>
      <path d="M 29.203125 31.6875 
Q 17.140625 35.15625 11.640625 40.203125 
Q 6.15625 45.265625 6.15625 52.6875 
Q 6.15625 61.078125 12.859375 66.578125 
Q 19.578125 72.078125 30.328125 72.078125 
Q 37.640625 72.078125 43.375 69.234375 
Q 49.125 66.40625 52.265625 61.421875 
Q 55.421875 56.453125 55.421875 50.53125 
L 46 50.53125 
Q 46 56.984375 41.890625 60.671875 
Q 37.796875 64.359375 30.328125 64.359375 
Q 23.390625 64.359375 19.5 61.296875 
Q 15.625 58.25 15.625 52.828125 
Q 15.625 48.484375 19.3125 45.484375 
Q 23 42.484375 31.859375 39.984375 
Q 40.71875 37.5 45.71875 34.5 
Q 50.734375 31.5 53.140625 27.484375 
Q 55.5625 23.484375 55.5625 18.0625 
Q 55.5625 9.421875 48.828125 4.21875 
Q 42.09375 -0.984375 30.8125 -0.984375 
Q 23.484375 -0.984375 17.140625 1.828125 
Q 10.796875 4.640625 7.34375 9.515625 
Q 3.90625 14.40625 3.90625 20.609375 
L 13.328125 20.609375 
Q 13.328125 14.15625 18.09375 10.421875 
Q 22.859375 6.6875 30.8125 6.6875 
Q 38.234375 6.6875 42.1875 9.71875 
Q 46.140625 12.75 46.140625 17.96875 
Q 46.140625 23.1875 42.46875 26.046875 
Q 38.8125 28.90625 29.203125 31.6875 
" id="Roboto-Regular-53"/>
      <path d="M 8.25 0 
L 8.25 71.09375 
L 28.328125 71.09375 
Q 37.59375 71.09375 44.71875 66.984375 
Q 51.859375 62.890625 55.734375 55.3125 
Q 59.625 47.75 59.671875 37.9375 
L 59.671875 33.40625 
Q 59.671875 23.34375 55.78125 15.765625 
Q 51.90625 8.203125 44.703125 4.140625 
Q 37.5 0.09375 27.9375 0 
z
M 17.625 63.375 
L 17.625 7.671875 
L 27.484375 7.671875 
Q 38.328125 7.671875 44.359375 14.40625 
Q 50.390625 21.140625 50.390625 33.59375 
L 50.390625 37.75 
Q 50.390625 49.859375 44.703125 56.5625 
Q 39.015625 63.28125 28.5625 63.375 
z
" id="Roboto-Regular-44"/>
     </defs>
     <g transform="translate(222.815938 117.805937)scale(0.1 -0.1)">
      <use xlink:href="#Roboto-Regular-43"/>
      <use x="65.087891" xlink:href="#Roboto-Regular-43"/>
      <use x="130.175781" xlink:href="#Roboto-Regular-53"/>
      <use x="189.501953" xlink:href="#Roboto-Regular-44"/>
     </g>
    </g>
    <g id="line2d_27">
     <path d="M 194.815938 128.837187 
L 214.815938 128.837187 
" style="fill:none;stroke:#e0cc18;stroke-linecap:square;stroke-width:1.5;"/>
    </g>
    <g id="line2d_28">
     <g>
      <use style="fill:#e0cc18;stroke:#e0cc18;" x="204.815938" xlink:href="#m8059fedfb8" y="128.837187"/>
     </g>
    </g>
    <g id="text_14">
     <!-- HF only -->
     <defs>
      <path id="Roboto-Regular-20"/>
      <path d="M 4.4375 26.90625 
Q 4.4375 34.671875 7.484375 40.875 
Q 10.546875 47.078125 15.984375 50.4375 
Q 21.4375 53.8125 28.421875 53.8125 
Q 39.203125 53.8125 45.875 46.34375 
Q 52.546875 38.875 52.546875 26.46875 
L 52.546875 25.828125 
Q 52.546875 18.109375 49.578125 11.984375 
Q 46.625 5.859375 41.125 2.4375 
Q 35.640625 -0.984375 28.515625 -0.984375 
Q 17.78125 -0.984375 11.109375 6.484375 
Q 4.4375 13.96875 4.4375 26.265625 
z
M 13.53125 25.828125 
Q 13.53125 17.046875 17.609375 11.71875 
Q 21.6875 6.390625 28.515625 6.390625 
Q 35.40625 6.390625 39.453125 11.78125 
Q 43.5 17.1875 43.5 26.90625 
Q 43.5 35.59375 39.375 40.984375 
Q 35.25 46.390625 28.421875 46.390625 
Q 21.734375 46.390625 17.625 41.0625 
Q 13.53125 35.75 13.53125 25.828125 
" id="Roboto-Regular-6f"/>
      <path d="M 15.375 52.828125 
L 15.671875 46.1875 
Q 21.734375 53.8125 31.5 53.8125 
Q 48.25 53.8125 48.390625 34.90625 
L 48.390625 0 
L 39.359375 0 
L 39.359375 34.96875 
Q 39.3125 40.671875 36.75 43.40625 
Q 34.1875 46.140625 28.765625 46.140625 
Q 24.359375 46.140625 21.03125 43.796875 
Q 17.71875 41.453125 15.875 37.640625 
L 15.875 0 
L 6.84375 0 
L 6.84375 52.828125 
z
" id="Roboto-Regular-6e"/>
      <path d="M 16.65625 0 
L 7.625 0 
L 7.625 75 
L 16.65625 75 
z
" id="Roboto-Regular-6c"/>
      <path d="M 24.125 13.234375 
L 36.421875 52.828125 
L 46.09375 52.828125 
L 24.859375 -8.15625 
Q 19.921875 -21.34375 9.1875 -21.34375 
L 7.46875 -21.1875 
L 4.109375 -20.5625 
L 4.109375 -13.234375 
L 6.546875 -13.421875 
Q 11.140625 -13.421875 13.703125 -11.5625 
Q 16.265625 -9.71875 17.921875 -4.78125 
L 19.921875 0.59375 
L 1.078125 52.828125 
L 10.9375 52.828125 
z
" id="Roboto-Regular-79"/>
     </defs>
     <g transform="translate(222.815938 132.337187)scale(0.1 -0.1)">
      <use xlink:href="#Roboto-Regular-48"/>
      <use x="71.289062" xlink:href="#Roboto-Regular-46"/>
      <use x="126.5625" xlink:href="#Roboto-Regular-20"/>
      <use x="151.318359" xlink:href="#Roboto-Regular-6f"/>
      <use x="208.349609" xlink:href="#Roboto-Regular-6e"/>
      <use x="263.525391" xlink:href="#Roboto-Regular-6c"/>
      <use x="287.792969" xlink:href="#Roboto-Regular-79"/>
     </g>
    </g>
    <g id="line2d_29">
     <path d="M 194.815938 143.993437 
L 214.815938 143.993437 
" style="fill:none;stroke:#92e057;stroke-linecap:square;stroke-width:1.5;"/>
    </g>
    <g id="line2d_30">
     <g>
      <use style="fill:#92e057;stroke:#92e057;" x="204.815938" xlink:href="#m59fe79908b" y="143.993437"/>
     </g>
    </g>
    <g id="text_15">
     <!-- IMSRG(2) -->
     <defs>
      <path d="M 18.3125 0 
L 8.9375 0 
L 8.9375 71.09375 
L 18.3125 71.09375 
z
" id="Roboto-Regular-49"/>
      <path d="M 20.359375 71.09375 
L 43.609375 13.09375 
L 66.84375 71.09375 
L 79 71.09375 
L 79 0 
L 69.625 0 
L 69.625 27.6875 
L 70.515625 57.5625 
L 47.171875 0 
L 39.984375 0 
L 16.703125 57.421875 
L 17.625 27.6875 
L 17.625 0 
L 8.25 0 
L 8.25 71.09375 
z
" id="Roboto-Regular-4d"/>
      <path d="M 34.328125 28.765625 
L 17.625 28.765625 
L 17.625 0 
L 8.203125 0 
L 8.203125 71.09375 
L 31.734375 71.09375 
Q 43.75 71.09375 50.21875 65.625 
Q 56.6875 60.15625 56.6875 49.703125 
Q 56.6875 43.0625 53.09375 38.125 
Q 49.515625 33.203125 43.109375 30.765625 
L 59.8125 0.59375 
L 59.8125 0 
L 49.75 0 
z
M 17.625 36.421875 
L 32.03125 36.421875 
Q 39.015625 36.421875 43.140625 40.03125 
Q 47.265625 43.65625 47.265625 49.703125 
Q 47.265625 56.296875 43.328125 59.8125 
Q 39.40625 63.328125 31.984375 63.375 
L 17.625 63.375 
z
" id="Roboto-Regular-52"/>
      <path d="M 60.75 9.328125 
Q 57.125 4.15625 50.65625 1.578125 
Q 44.1875 -0.984375 35.59375 -0.984375 
Q 26.90625 -0.984375 20.15625 3.09375 
Q 13.421875 7.171875 9.734375 14.6875 
Q 6.0625 22.21875 5.953125 32.125 
L 5.953125 38.328125 
Q 5.953125 54.390625 13.453125 63.234375 
Q 20.953125 72.078125 34.515625 72.078125 
Q 45.65625 72.078125 52.4375 66.375 
Q 59.234375 60.6875 60.75 50.25 
L 51.375 50.25 
Q 48.734375 64.359375 34.578125 64.359375 
Q 25.140625 64.359375 20.28125 57.734375 
Q 15.4375 51.125 15.375 38.578125 
L 15.375 32.765625 
Q 15.375 20.796875 20.84375 13.734375 
Q 26.3125 6.6875 35.640625 6.6875 
Q 40.921875 6.6875 44.875 7.859375 
Q 48.828125 9.03125 51.421875 11.8125 
L 51.421875 27.78125 
L 34.96875 27.78125 
L 34.96875 35.40625 
L 60.75 35.40625 
z
" id="Roboto-Regular-47"/>
      <path d="M 6.5 28.859375 
Q 6.5 39.890625 9.453125 50.046875 
Q 12.40625 60.203125 18.265625 68.5 
Q 24.125 76.8125 30.421875 80.21875 
L 32.28125 74.265625 
Q 25.140625 68.796875 20.578125 57.5625 
Q 16.015625 46.34375 15.578125 32.421875 
L 15.53125 28.265625 
Q 15.53125 9.421875 22.40625 -4.4375 
Q 26.5625 -12.75 32.28125 -17.4375 
L 30.421875 -22.953125 
Q 23.921875 -19.34375 18.015625 -10.84375 
Q 6.5 5.765625 6.5 28.859375 
" id="Roboto-Regular-28"/>
      <path d="M 27.6875 28.375 
Q 27.6875 17.484375 24.828125 7.5 
Q 21.96875 -2.484375 16.078125 -10.9375 
Q 10.203125 -19.390625 3.765625 -22.953125 
L 1.859375 -17.4375 
Q 9.375 -11.671875 13.9375 0.453125 
Q 18.5 12.59375 18.609375 27.390625 
L 18.609375 28.953125 
Q 18.609375 39.203125 16.453125 48.015625 
Q 14.3125 56.84375 10.46875 63.8125 
Q 6.640625 70.796875 1.859375 74.703125 
L 3.765625 80.21875 
Q 10.203125 76.65625 16.03125 68.3125 
Q 21.875 59.96875 24.78125 49.90625 
Q 27.6875 39.84375 27.6875 28.375 
" id="Roboto-Regular-29"/>
     </defs>
     <g transform="translate(222.815938 147.493437)scale(0.1 -0.1)">
      <use xlink:href="#Roboto-Regular-49"/>
      <use x="27.197266" xlink:href="#Roboto-Regular-4d"/>
      <use x="114.501953" xlink:href="#Roboto-Regular-53"/>
      <use x="173.828125" xlink:href="#Roboto-Regular-52"/>
      <use x="235.400391" xlink:href="#Roboto-Regular-47"/>
      <use x="303.515625" xlink:href="#Roboto-Regular-28"/>
      <use x="337.695312" xlink:href="#Roboto-Regular-32"/>
      <use x="393.847656" xlink:href="#Roboto-Regular-29"/>
     </g>
    </g>
    <g id="line2d_31">
     <path d="M 194.815938 158.78875 
L 214.815938 158.78875 
" style="fill:none;stroke:#a81e4c;stroke-linecap:square;stroke-width:1.5;"/>
    </g>
    <g id="line2d_32">
     <g>
      <use style="fill:#a81e4c;stroke:#a81e4c;" x="204.815938" xlink:href="#me1d36d7786" y="158.78875"/>
     </g>
    </g>
    <g id="text_16">
     <!-- MP2 -->
     <defs>
      <path d="M 17.625 27.828125 
L 17.625 0 
L 8.25 0 
L 8.25 71.09375 
L 34.46875 71.09375 
Q 46.140625 71.09375 52.75 65.140625 
Q 59.375 59.1875 59.375 49.359375 
Q 59.375 39.015625 52.90625 33.421875 
Q 46.4375 27.828125 34.375 27.828125 
z
M 17.625 35.5 
L 34.46875 35.5 
Q 42 35.5 46 39.03125 
Q 50 42.578125 50 49.265625 
Q 50 55.609375 46 59.421875 
Q 42 63.234375 35.015625 63.375 
L 17.625 63.375 
z
" id="Roboto-Regular-50"/>
     </defs>
     <g transform="translate(222.815938 162.28875)scale(0.1 -0.1)">
      <use xlink:href="#Roboto-Regular-4d"/>
      <use x="87.304688" xlink:href="#Roboto-Regular-50"/>
      <use x="150.390625" xlink:href="#Roboto-Regular-32"/>
     </g>
    </g>
   </g>
  </g>
 </g>
 <defs>
  <clipPath id="pa9e88592d8">
   <rect height="160" width="221.8525" x="52.8275" y="13.32"/>
  </clipPath>
 </defs>
</svg>
