<?xml version="1.0" encoding="utf-8" standalone="no"?>
<!DOCTYPE svg PUBLIC "-//W3C//DTD SVG 1.1//EN"
  "http://www.w3.org/Graphics/SVG/1.1/DTD/svg11.dtd">
<!-- Created with matplotlib (http://matplotlib.org/) -->
<svg height="720pt" version="1.1" viewBox="0 0 576 720" width="576pt" xmlns="http://www.w3.org/2000/svg" xmlns:xlink="http://www.w3.org/1999/xlink">
 <defs>
  <style type="text/css">
*{stroke-linecap:butt;stroke-linejoin:round;}
  </style>
 </defs>
 <g id="figure_1">
  <g id="patch_1">
   <path d="M 0 720 
L 576 720 
L 576 0 
L 0 0 
z
" style="fill:#ffffff;"/>
  </g>
  <g id="axes_1">
   <g id="patch_2">
    <path d="M 72 338.4 
L 339.84 338.4 
L 339.84 86.4 
L 72 86.4 
z
" style="fill:#e5e5e5;"/>
   </g>
   <g id="matplotlib.axis_1">
    <g id="xtick_1">
     <g id="line2d_1">
      <path clip-path="url(#p497d6f0300)" d="M 252.418244 338.4 
L 252.418244 86.4 
" style="fill:none;stroke:#ffffff;stroke-linecap:square;stroke-width:0.8;"/>
     </g>
     <g id="line2d_2">
      <defs>
       <path d="M 0 0 
L 0 3.5 
" id="me62bcd8525" style="stroke:#555555;stroke-width:0.8;"/>
      </defs>
      <g>
       <use style="fill:#555555;stroke:#555555;stroke-width:0.8;" x="252.418244" xlink:href="#me62bcd8525" y="338.4"/>
      </g>
     </g>
     <g id="text_1">
      <!-- ${10^{1}}$ -->
      <defs>
       <path d="M 12.40625 8.296875 
L 28.515625 8.296875 
L 28.515625 63.921875 
L 10.984375 60.40625 
L 10.984375 69.390625 
L 28.421875 72.90625 
L 38.28125 72.90625 
L 38.28125 8.296875 
L 54.390625 8.296875 
L 54.390625 0 
L 12.40625 0 
z
" id="DejaVuSans-31"/>
       <path d="M 31.78125 66.40625 
Q 24.171875 66.40625 20.328125 58.90625 
Q 16.5 51.421875 16.5 36.375 
Q 16.5 21.390625 20.328125 13.890625 
Q 24.171875 6.390625 31.78125 6.390625 
Q 39.453125 6.390625 43.28125 13.890625 
Q 47.125 21.390625 47.125 36.375 
Q 47.125 51.421875 43.28125 58.90625 
Q 39.453125 66.40625 31.78125 66.40625 
M 31.78125 74.21875 
Q 44.046875 74.21875 50.515625 64.515625 
Q 56.984375 54.828125 56.984375 36.375 
Q 56.984375 17.96875 50.515625 8.265625 
Q 44.046875 -1.421875 31.78125 -1.421875 
Q 19.53125 -1.421875 13.0625 8.265625 
Q 6.59375 17.96875 6.59375 36.375 
Q 6.59375 54.828125 13.0625 64.515625 
Q 19.53125 74.21875 31.78125 74.21875 
" id="DejaVuSans-30"/>
      </defs>
      <g style="fill:#555555;" transform="translate(243.618244 352.998437)scale(0.1 -0.1)">
       <use transform="translate(0 0.684375)" xlink:href="#DejaVuSans-31"/>
       <use transform="translate(63.623047 0.684375)" xlink:href="#DejaVuSans-30"/>
       <use transform="translate(128.203125 38.965625)scale(0.7)" xlink:href="#DejaVuSans-31"/>
      </g>
     </g>
    </g>
    <g id="xtick_2">
     <g id="line2d_3">
      <defs>
       <path d="M 0 0 
L 0 2 
" id="m0e513c5755" style="stroke:#555555;stroke-width:0.6;"/>
      </defs>
      <g>
       <use style="fill:#555555;stroke:#555555;stroke-width:0.6;" x="107.352399" xlink:href="#m0e513c5755" y="338.4"/>
      </g>
     </g>
    </g>
    <g id="xtick_3">
     <g id="line2d_4">
      <g>
       <use style="fill:#555555;stroke:#555555;stroke-width:0.6;" x="145.509707" xlink:href="#m0e513c5755" y="338.4"/>
      </g>
     </g>
     <g id="text_2">
      <!-- ${6\times10^{0}}$ -->
      <defs>
       <path d="M 33.015625 40.375 
Q 26.375 40.375 22.484375 35.828125 
Q 18.609375 31.296875 18.609375 23.390625 
Q 18.609375 15.53125 22.484375 10.953125 
Q 26.375 6.390625 33.015625 6.390625 
Q 39.65625 6.390625 43.53125 10.953125 
Q 47.40625 15.53125 47.40625 23.390625 
Q 47.40625 31.296875 43.53125 35.828125 
Q 39.65625 40.375 33.015625 40.375 
M 52.59375 71.296875 
L 52.59375 62.3125 
Q 48.875 64.0625 45.09375 64.984375 
Q 41.3125 65.921875 37.59375 65.921875 
Q 27.828125 65.921875 22.671875 59.328125 
Q 17.53125 52.734375 16.796875 39.40625 
Q 19.671875 43.65625 24.015625 45.921875 
Q 28.375 48.1875 33.59375 48.1875 
Q 44.578125 48.1875 50.953125 41.515625 
Q 57.328125 34.859375 57.328125 23.390625 
Q 57.328125 12.15625 50.6875 5.359375 
Q 44.046875 -1.421875 33.015625 -1.421875 
Q 20.359375 -1.421875 13.671875 8.265625 
Q 6.984375 17.96875 6.984375 36.375 
Q 6.984375 53.65625 15.1875 63.9375 
Q 23.390625 74.21875 37.203125 74.21875 
Q 40.921875 74.21875 44.703125 73.484375 
Q 48.484375 72.75 52.59375 71.296875 
" id="DejaVuSans-36"/>
       <path d="M 70.125 53.71875 
L 47.796875 31.296875 
L 70.125 8.984375 
L 64.3125 3.078125 
L 41.890625 25.484375 
L 19.484375 3.078125 
L 13.71875 8.984375 
L 35.984375 31.296875 
L 13.71875 53.71875 
L 19.484375 59.625 
L 41.890625 37.203125 
L 64.3125 59.625 
z
" id="DejaVuSans-d7"/>
      </defs>
      <g style="fill:#555555;" transform="translate(127.409707 351.398437)scale(0.1 -0.1)">
       <use transform="translate(0 0.765625)" xlink:href="#DejaVuSans-36"/>
       <use transform="translate(83.105469 0.765625)" xlink:href="#DejaVuSans-d7"/>
       <use transform="translate(186.376953 0.765625)" xlink:href="#DejaVuSans-31"/>
       <use transform="translate(250 0.765625)" xlink:href="#DejaVuSans-30"/>
       <use transform="translate(314.580078 39.046875)scale(0.7)" xlink:href="#DejaVuSans-30"/>
      </g>
     </g>
    </g>
    <g id="xtick_4">
     <g id="line2d_5">
      <g>
       <use style="fill:#555555;stroke:#555555;stroke-width:0.6;" x="177.771251" xlink:href="#m0e513c5755" y="338.4"/>
      </g>
     </g>
    </g>
    <g id="xtick_5">
     <g id="line2d_6">
      <g>
       <use style="fill:#555555;stroke:#555555;stroke-width:0.6;" x="205.717472" xlink:href="#m0e513c5755" y="338.4"/>
      </g>
     </g>
    </g>
    <g id="xtick_6">
     <g id="line2d_7">
      <g>
       <use style="fill:#555555;stroke:#555555;stroke-width:0.6;" x="230.367786" xlink:href="#m0e513c5755" y="338.4"/>
      </g>
     </g>
    </g>
    <g id="text_3">
     <!-- K (number of shells) -->
     <defs>
      <path d="M 9.8125 72.90625 
L 19.671875 72.90625 
L 19.671875 42.09375 
L 52.390625 72.90625 
L 65.09375 72.90625 
L 28.90625 38.921875 
L 67.671875 0 
L 54.6875 0 
L 19.671875 35.109375 
L 19.671875 0 
L 9.8125 0 
z
" id="DejaVuSans-4b"/>
      <path id="DejaVuSans-20"/>
      <path d="M 31 75.875 
Q 24.46875 64.65625 21.28125 53.65625 
Q 18.109375 42.671875 18.109375 31.390625 
Q 18.109375 20.125 21.3125 9.0625 
Q 24.515625 -2 31 -13.1875 
L 23.1875 -13.1875 
Q 15.875 -1.703125 12.234375 9.375 
Q 8.59375 20.453125 8.59375 31.390625 
Q 8.59375 42.28125 12.203125 53.3125 
Q 15.828125 64.359375 23.1875 75.875 
z
" id="DejaVuSans-28"/>
      <path d="M 54.890625 33.015625 
L 54.890625 0 
L 45.90625 0 
L 45.90625 32.71875 
Q 45.90625 40.484375 42.875 44.328125 
Q 39.84375 48.1875 33.796875 48.1875 
Q 26.515625 48.1875 22.3125 43.546875 
Q 18.109375 38.921875 18.109375 30.90625 
L 18.109375 0 
L 9.078125 0 
L 9.078125 54.6875 
L 18.109375 54.6875 
L 18.109375 46.1875 
Q 21.34375 51.125 25.703125 53.5625 
Q 30.078125 56 35.796875 56 
Q 45.21875 56 50.046875 50.171875 
Q 54.890625 44.34375 54.890625 33.015625 
" id="DejaVuSans-6e"/>
      <path d="M 8.5 21.578125 
L 8.5 54.6875 
L 17.484375 54.6875 
L 17.484375 21.921875 
Q 17.484375 14.15625 20.5 10.265625 
Q 23.53125 6.390625 29.59375 6.390625 
Q 36.859375 6.390625 41.078125 11.03125 
Q 45.3125 15.671875 45.3125 23.6875 
L 45.3125 54.6875 
L 54.296875 54.6875 
L 54.296875 0 
L 45.3125 0 
L 45.3125 8.40625 
Q 42.046875 3.421875 37.71875 1 
Q 33.40625 -1.421875 27.6875 -1.421875 
Q 18.265625 -1.421875 13.375 4.4375 
Q 8.5 10.296875 8.5 21.578125 
M 31.109375 56 
z
" id="DejaVuSans-75"/>
      <path d="M 52 44.1875 
Q 55.375 50.25 60.0625 53.125 
Q 64.75 56 71.09375 56 
Q 79.640625 56 84.28125 50.015625 
Q 88.921875 44.046875 88.921875 33.015625 
L 88.921875 0 
L 79.890625 0 
L 79.890625 32.71875 
Q 79.890625 40.578125 77.09375 44.375 
Q 74.3125 48.1875 68.609375 48.1875 
Q 61.625 48.1875 57.5625 43.546875 
Q 53.515625 38.921875 53.515625 30.90625 
L 53.515625 0 
L 44.484375 0 
L 44.484375 32.71875 
Q 44.484375 40.625 41.703125 44.40625 
Q 38.921875 48.1875 33.109375 48.1875 
Q 26.21875 48.1875 22.15625 43.53125 
Q 18.109375 38.875 18.109375 30.90625 
L 18.109375 0 
L 9.078125 0 
L 9.078125 54.6875 
L 18.109375 54.6875 
L 18.109375 46.1875 
Q 21.1875 51.21875 25.484375 53.609375 
Q 29.78125 56 35.6875 56 
Q 41.65625 56 45.828125 52.96875 
Q 50 49.953125 52 44.1875 
" id="DejaVuSans-6d"/>
      <path d="M 48.6875 27.296875 
Q 48.6875 37.203125 44.609375 42.84375 
Q 40.53125 48.484375 33.40625 48.484375 
Q 26.265625 48.484375 22.1875 42.84375 
Q 18.109375 37.203125 18.109375 27.296875 
Q 18.109375 17.390625 22.1875 11.75 
Q 26.265625 6.109375 33.40625 6.109375 
Q 40.53125 6.109375 44.609375 11.75 
Q 48.6875 17.390625 48.6875 27.296875 
M 18.109375 46.390625 
Q 20.953125 51.265625 25.265625 53.625 
Q 29.59375 56 35.59375 56 
Q 45.5625 56 51.78125 48.09375 
Q 58.015625 40.1875 58.015625 27.296875 
Q 58.015625 14.40625 51.78125 6.484375 
Q 45.5625 -1.421875 35.59375 -1.421875 
Q 29.59375 -1.421875 25.265625 0.953125 
Q 20.953125 3.328125 18.109375 8.203125 
L 18.109375 0 
L 9.078125 0 
L 9.078125 75.984375 
L 18.109375 75.984375 
z
" id="DejaVuSans-62"/>
      <path d="M 56.203125 29.59375 
L 56.203125 25.203125 
L 14.890625 25.203125 
Q 15.484375 15.921875 20.484375 11.0625 
Q 25.484375 6.203125 34.421875 6.203125 
Q 39.59375 6.203125 44.453125 7.46875 
Q 49.3125 8.734375 54.109375 11.28125 
L 54.109375 2.78125 
Q 49.265625 0.734375 44.1875 -0.34375 
Q 39.109375 -1.421875 33.890625 -1.421875 
Q 20.796875 -1.421875 13.15625 6.1875 
Q 5.515625 13.8125 5.515625 26.8125 
Q 5.515625 40.234375 12.765625 48.109375 
Q 20.015625 56 32.328125 56 
Q 43.359375 56 49.78125 48.890625 
Q 56.203125 41.796875 56.203125 29.59375 
M 47.21875 32.234375 
Q 47.125 39.59375 43.09375 43.984375 
Q 39.0625 48.390625 32.421875 48.390625 
Q 24.90625 48.390625 20.390625 44.140625 
Q 15.875 39.890625 15.1875 32.171875 
z
" id="DejaVuSans-65"/>
      <path d="M 41.109375 46.296875 
Q 39.59375 47.171875 37.8125 47.578125 
Q 36.03125 48 33.890625 48 
Q 26.265625 48 22.1875 43.046875 
Q 18.109375 38.09375 18.109375 28.8125 
L 18.109375 0 
L 9.078125 0 
L 9.078125 54.6875 
L 18.109375 54.6875 
L 18.109375 46.1875 
Q 20.953125 51.171875 25.484375 53.578125 
Q 30.03125 56 36.53125 56 
Q 37.453125 56 38.578125 55.875 
Q 39.703125 55.765625 41.0625 55.515625 
z
" id="DejaVuSans-72"/>
      <path d="M 30.609375 48.390625 
Q 23.390625 48.390625 19.1875 42.75 
Q 14.984375 37.109375 14.984375 27.296875 
Q 14.984375 17.484375 19.15625 11.84375 
Q 23.34375 6.203125 30.609375 6.203125 
Q 37.796875 6.203125 41.984375 11.859375 
Q 46.1875 17.53125 46.1875 27.296875 
Q 46.1875 37.015625 41.984375 42.703125 
Q 37.796875 48.390625 30.609375 48.390625 
M 30.609375 56 
Q 42.328125 56 49.015625 48.375 
Q 55.71875 40.765625 55.71875 27.296875 
Q 55.71875 13.875 49.015625 6.21875 
Q 42.328125 -1.421875 30.609375 -1.421875 
Q 18.84375 -1.421875 12.171875 6.21875 
Q 5.515625 13.875 5.515625 27.296875 
Q 5.515625 40.765625 12.171875 48.375 
Q 18.84375 56 30.609375 56 
" id="DejaVuSans-6f"/>
      <path d="M 37.109375 75.984375 
L 37.109375 68.5 
L 28.515625 68.5 
Q 23.6875 68.5 21.796875 66.546875 
Q 19.921875 64.59375 19.921875 59.515625 
L 19.921875 54.6875 
L 34.71875 54.6875 
L 34.71875 47.703125 
L 19.921875 47.703125 
L 19.921875 0 
L 10.890625 0 
L 10.890625 47.703125 
L 2.296875 47.703125 
L 2.296875 54.6875 
L 10.890625 54.6875 
L 10.890625 58.5 
Q 10.890625 67.625 15.140625 71.796875 
Q 19.390625 75.984375 28.609375 75.984375 
z
" id="DejaVuSans-66"/>
      <path d="M 44.28125 53.078125 
L 44.28125 44.578125 
Q 40.484375 46.53125 36.375 47.5 
Q 32.28125 48.484375 27.875 48.484375 
Q 21.1875 48.484375 17.84375 46.4375 
Q 14.5 44.390625 14.5 40.28125 
Q 14.5 37.15625 16.890625 35.375 
Q 19.28125 33.59375 26.515625 31.984375 
L 29.59375 31.296875 
Q 39.15625 29.25 43.1875 25.515625 
Q 47.21875 21.78125 47.21875 15.09375 
Q 47.21875 7.46875 41.1875 3.015625 
Q 35.15625 -1.421875 24.609375 -1.421875 
Q 20.21875 -1.421875 15.453125 -0.5625 
Q 10.6875 0.296875 5.421875 2 
L 5.421875 11.28125 
Q 10.40625 8.6875 15.234375 7.390625 
Q 20.0625 6.109375 24.8125 6.109375 
Q 31.15625 6.109375 34.5625 8.28125 
Q 37.984375 10.453125 37.984375 14.40625 
Q 37.984375 18.0625 35.515625 20.015625 
Q 33.0625 21.96875 24.703125 23.78125 
L 21.578125 24.515625 
Q 13.234375 26.265625 9.515625 29.90625 
Q 5.8125 33.546875 5.8125 39.890625 
Q 5.8125 47.609375 11.28125 51.796875 
Q 16.75 56 26.8125 56 
Q 31.78125 56 36.171875 55.265625 
Q 40.578125 54.546875 44.28125 53.078125 
" id="DejaVuSans-73"/>
      <path d="M 54.890625 33.015625 
L 54.890625 0 
L 45.90625 0 
L 45.90625 32.71875 
Q 45.90625 40.484375 42.875 44.328125 
Q 39.84375 48.1875 33.796875 48.1875 
Q 26.515625 48.1875 22.3125 43.546875 
Q 18.109375 38.921875 18.109375 30.90625 
L 18.109375 0 
L 9.078125 0 
L 9.078125 75.984375 
L 18.109375 75.984375 
L 18.109375 46.1875 
Q 21.34375 51.125 25.703125 53.5625 
Q 30.078125 56 35.796875 56 
Q 45.21875 56 50.046875 50.171875 
Q 54.890625 44.34375 54.890625 33.015625 
" id="DejaVuSans-68"/>
      <path d="M 9.421875 75.984375 
L 18.40625 75.984375 
L 18.40625 0 
L 9.421875 0 
z
" id="DejaVuSans-6c"/>
      <path d="M 8.015625 75.875 
L 15.828125 75.875 
Q 23.140625 64.359375 26.78125 53.3125 
Q 30.421875 42.28125 30.421875 31.390625 
Q 30.421875 20.453125 26.78125 9.375 
Q 23.140625 -1.703125 15.828125 -13.1875 
L 8.015625 -13.1875 
Q 14.5 -2 17.703125 9.0625 
Q 20.90625 20.125 20.90625 31.390625 
Q 20.90625 42.671875 17.703125 53.65625 
Q 14.5 64.65625 8.015625 75.875 
" id="DejaVuSans-29"/>
     </defs>
     <g style="fill:#555555;" transform="translate(145.303125 368.19625)scale(0.12 -0.12)">
      <use xlink:href="#DejaVuSans-4b"/>
      <use x="65.576172" xlink:href="#DejaVuSans-20"/>
      <use x="97.363281" xlink:href="#DejaVuSans-28"/>
      <use x="136.376953" xlink:href="#DejaVuSans-6e"/>
      <use x="199.755859" xlink:href="#DejaVuSans-75"/>
      <use x="263.134766" xlink:href="#DejaVuSans-6d"/>
      <use x="360.546875" xlink:href="#DejaVuSans-62"/>
      <use x="424.023438" xlink:href="#DejaVuSans-65"/>
      <use x="485.546875" xlink:href="#DejaVuSans-72"/>
      <use x="526.660156" xlink:href="#DejaVuSans-20"/>
      <use x="558.447266" xlink:href="#DejaVuSans-6f"/>
      <use x="619.628906" xlink:href="#DejaVuSans-66"/>
      <use x="654.833984" xlink:href="#DejaVuSans-20"/>
      <use x="686.621094" xlink:href="#DejaVuSans-73"/>
      <use x="738.720703" xlink:href="#DejaVuSans-68"/>
      <use x="802.099609" xlink:href="#DejaVuSans-65"/>
      <use x="863.623047" xlink:href="#DejaVuSans-6c"/>
      <use x="891.40625" xlink:href="#DejaVuSans-6c"/>
      <use x="919.189453" xlink:href="#DejaVuSans-73"/>
      <use x="971.289062" xlink:href="#DejaVuSans-29"/>
     </g>
    </g>
   </g>
   <g id="matplotlib.axis_2">
    <g id="ytick_1">
     <g id="line2d_8">
      <path clip-path="url(#p497d6f0300)" d="M 72 315.541354 
L 339.84 315.541354 
" style="fill:none;stroke:#ffffff;stroke-linecap:square;stroke-width:0.8;"/>
     </g>
     <g id="line2d_9">
      <defs>
       <path d="M 0 0 
L -3.5 0 
" id="m0dbd7f223a" style="stroke:#555555;stroke-width:0.8;"/>
      </defs>
      <g>
       <use style="fill:#555555;stroke:#555555;stroke-width:0.8;" x="72" xlink:href="#m0dbd7f223a" y="315.541354"/>
      </g>
     </g>
     <g id="text_4">
      <!-- ${10^{-4}}$ -->
      <defs>
       <path d="M 10.59375 35.5 
L 73.1875 35.5 
L 73.1875 27.203125 
L 10.59375 27.203125 
z
" id="DejaVuSans-2212"/>
       <path d="M 37.796875 64.3125 
L 12.890625 25.390625 
L 37.796875 25.390625 
z
M 35.203125 72.90625 
L 47.609375 72.90625 
L 47.609375 25.390625 
L 58.015625 25.390625 
L 58.015625 17.1875 
L 47.609375 17.1875 
L 47.609375 0 
L 37.796875 0 
L 37.796875 17.1875 
L 4.890625 17.1875 
L 4.890625 26.703125 
z
" id="DejaVuSans-34"/>
      </defs>
      <g style="fill:#555555;" transform="translate(41.5 319.340572)scale(0.1 -0.1)">
       <use transform="translate(0 0.684375)" xlink:href="#DejaVuSans-31"/>
       <use transform="translate(63.623047 0.684375)" xlink:href="#DejaVuSans-30"/>
       <use transform="translate(128.203125 38.965625)scale(0.7)" xlink:href="#DejaVuSans-2212"/>
       <use transform="translate(186.855469 38.965625)scale(0.7)" xlink:href="#DejaVuSans-34"/>
      </g>
     </g>
    </g>
    <g id="ytick_2">
     <g id="line2d_10">
      <path clip-path="url(#p497d6f0300)" d="M 72 222.783512 
L 339.84 222.783512 
" style="fill:none;stroke:#ffffff;stroke-linecap:square;stroke-width:0.8;"/>
     </g>
     <g id="line2d_11">
      <g>
       <use style="fill:#555555;stroke:#555555;stroke-width:0.8;" x="72" xlink:href="#m0dbd7f223a" y="222.783512"/>
      </g>
     </g>
     <g id="text_5">
      <!-- ${10^{-3}}$ -->
      <defs>
       <path d="M 40.578125 39.3125 
Q 47.65625 37.796875 51.625 33 
Q 55.609375 28.21875 55.609375 21.1875 
Q 55.609375 10.40625 48.1875 4.484375 
Q 40.765625 -1.421875 27.09375 -1.421875 
Q 22.515625 -1.421875 17.65625 -0.515625 
Q 12.796875 0.390625 7.625 2.203125 
L 7.625 11.71875 
Q 11.71875 9.328125 16.59375 8.109375 
Q 21.484375 6.890625 26.8125 6.890625 
Q 36.078125 6.890625 40.9375 10.546875 
Q 45.796875 14.203125 45.796875 21.1875 
Q 45.796875 27.640625 41.28125 31.265625 
Q 36.765625 34.90625 28.71875 34.90625 
L 20.21875 34.90625 
L 20.21875 43.015625 
L 29.109375 43.015625 
Q 36.375 43.015625 40.234375 45.921875 
Q 44.09375 48.828125 44.09375 54.296875 
Q 44.09375 59.90625 40.109375 62.90625 
Q 36.140625 65.921875 28.71875 65.921875 
Q 24.65625 65.921875 20.015625 65.03125 
Q 15.375 64.15625 9.8125 62.3125 
L 9.8125 71.09375 
Q 15.4375 72.65625 20.34375 73.4375 
Q 25.25 74.21875 29.59375 74.21875 
Q 40.828125 74.21875 47.359375 69.109375 
Q 53.90625 64.015625 53.90625 55.328125 
Q 53.90625 49.265625 50.4375 45.09375 
Q 46.96875 40.921875 40.578125 39.3125 
" id="DejaVuSans-33"/>
      </defs>
      <g style="fill:#555555;" transform="translate(41.5 226.582731)scale(0.1 -0.1)">
       <use transform="translate(0 0.765625)" xlink:href="#DejaVuSans-31"/>
       <use transform="translate(63.623047 0.765625)" xlink:href="#DejaVuSans-30"/>
       <use transform="translate(128.203125 39.046875)scale(0.7)" xlink:href="#DejaVuSans-2212"/>
       <use transform="translate(186.855469 39.046875)scale(0.7)" xlink:href="#DejaVuSans-33"/>
      </g>
     </g>
    </g>
    <g id="ytick_3">
     <g id="line2d_12">
      <path clip-path="url(#p497d6f0300)" d="M 72 130.025671 
L 339.84 130.025671 
" style="fill:none;stroke:#ffffff;stroke-linecap:square;stroke-width:0.8;"/>
     </g>
     <g id="line2d_13">
      <g>
       <use style="fill:#555555;stroke:#555555;stroke-width:0.8;" x="72" xlink:href="#m0dbd7f223a" y="130.025671"/>
      </g>
     </g>
     <g id="text_6">
      <!-- ${10^{-2}}$ -->
      <defs>
       <path d="M 19.1875 8.296875 
L 53.609375 8.296875 
L 53.609375 0 
L 7.328125 0 
L 7.328125 8.296875 
Q 12.9375 14.109375 22.625 23.890625 
Q 32.328125 33.6875 34.8125 36.53125 
Q 39.546875 41.84375 41.421875 45.53125 
Q 43.3125 49.21875 43.3125 52.78125 
Q 43.3125 58.59375 39.234375 62.25 
Q 35.15625 65.921875 28.609375 65.921875 
Q 23.96875 65.921875 18.8125 64.3125 
Q 13.671875 62.703125 7.8125 59.421875 
L 7.8125 69.390625 
Q 13.765625 71.78125 18.9375 73 
Q 24.125 74.21875 28.421875 74.21875 
Q 39.75 74.21875 46.484375 68.546875 
Q 53.21875 62.890625 53.21875 53.421875 
Q 53.21875 48.921875 51.53125 44.890625 
Q 49.859375 40.875 45.40625 35.40625 
Q 44.1875 33.984375 37.640625 27.21875 
Q 31.109375 20.453125 19.1875 8.296875 
" id="DejaVuSans-32"/>
      </defs>
      <g style="fill:#555555;" transform="translate(41.5 133.824889)scale(0.1 -0.1)">
       <use transform="translate(0 0.765625)" xlink:href="#DejaVuSans-31"/>
       <use transform="translate(63.623047 0.765625)" xlink:href="#DejaVuSans-30"/>
       <use transform="translate(128.203125 39.046875)scale(0.7)" xlink:href="#DejaVuSans-2212"/>
       <use transform="translate(186.855469 39.046875)scale(0.7)" xlink:href="#DejaVuSans-32"/>
      </g>
     </g>
    </g>
    <g id="ytick_4">
     <g id="line2d_14">
      <defs>
       <path d="M 0 0 
L -2 0 
" id="me9bac415fe" style="stroke:#555555;stroke-width:0.6;"/>
      </defs>
      <g>
       <use style="fill:#555555;stroke:#555555;stroke-width:0.6;" x="72" xlink:href="#me9bac415fe" y="336.119565"/>
      </g>
     </g>
    </g>
    <g id="ytick_5">
     <g id="line2d_15">
      <g>
       <use style="fill:#555555;stroke:#555555;stroke-width:0.6;" x="72" xlink:href="#me9bac415fe" y="329.909725"/>
      </g>
     </g>
    </g>
    <g id="ytick_6">
     <g id="line2d_16">
      <g>
       <use style="fill:#555555;stroke:#555555;stroke-width:0.6;" x="72" xlink:href="#me9bac415fe" y="324.530517"/>
      </g>
     </g>
    </g>
    <g id="ytick_7">
     <g id="line2d_17">
      <g>
       <use style="fill:#555555;stroke:#555555;stroke-width:0.6;" x="72" xlink:href="#me9bac415fe" y="319.78572"/>
      </g>
     </g>
    </g>
    <g id="ytick_8">
     <g id="line2d_18">
      <g>
       <use style="fill:#555555;stroke:#555555;stroke-width:0.6;" x="72" xlink:href="#me9bac415fe" y="287.618461"/>
      </g>
     </g>
    </g>
    <g id="ytick_9">
     <g id="line2d_19">
      <g>
       <use style="fill:#555555;stroke:#555555;stroke-width:0.6;" x="72" xlink:href="#me9bac415fe" y="271.284616"/>
      </g>
     </g>
    </g>
    <g id="ytick_10">
     <g id="line2d_20">
      <g>
       <use style="fill:#555555;stroke:#555555;stroke-width:0.6;" x="72" xlink:href="#me9bac415fe" y="259.695568"/>
      </g>
     </g>
    </g>
    <g id="ytick_11">
     <g id="line2d_21">
      <g>
       <use style="fill:#555555;stroke:#555555;stroke-width:0.6;" x="72" xlink:href="#me9bac415fe" y="250.706405"/>
      </g>
     </g>
    </g>
    <g id="ytick_12">
     <g id="line2d_22">
      <g>
       <use style="fill:#555555;stroke:#555555;stroke-width:0.6;" x="72" xlink:href="#me9bac415fe" y="243.361723"/>
      </g>
     </g>
    </g>
    <g id="ytick_13">
     <g id="line2d_23">
      <g>
       <use style="fill:#555555;stroke:#555555;stroke-width:0.6;" x="72" xlink:href="#me9bac415fe" y="237.151884"/>
      </g>
     </g>
    </g>
    <g id="ytick_14">
     <g id="line2d_24">
      <g>
       <use style="fill:#555555;stroke:#555555;stroke-width:0.6;" x="72" xlink:href="#me9bac415fe" y="231.772676"/>
      </g>
     </g>
    </g>
    <g id="ytick_15">
     <g id="line2d_25">
      <g>
       <use style="fill:#555555;stroke:#555555;stroke-width:0.6;" x="72" xlink:href="#me9bac415fe" y="227.027878"/>
      </g>
     </g>
    </g>
    <g id="ytick_16">
     <g id="line2d_26">
      <g>
       <use style="fill:#555555;stroke:#555555;stroke-width:0.6;" x="72" xlink:href="#me9bac415fe" y="194.86062"/>
      </g>
     </g>
    </g>
    <g id="ytick_17">
     <g id="line2d_27">
      <g>
       <use style="fill:#555555;stroke:#555555;stroke-width:0.6;" x="72" xlink:href="#me9bac415fe" y="178.526774"/>
      </g>
     </g>
    </g>
    <g id="ytick_18">
     <g id="line2d_28">
      <g>
       <use style="fill:#555555;stroke:#555555;stroke-width:0.6;" x="72" xlink:href="#me9bac415fe" y="166.937727"/>
      </g>
     </g>
    </g>
    <g id="ytick_19">
     <g id="line2d_29">
      <g>
       <use style="fill:#555555;stroke:#555555;stroke-width:0.6;" x="72" xlink:href="#me9bac415fe" y="157.948563"/>
      </g>
     </g>
    </g>
    <g id="ytick_20">
     <g id="line2d_30">
      <g>
       <use style="fill:#555555;stroke:#555555;stroke-width:0.6;" x="72" xlink:href="#me9bac415fe" y="150.603882"/>
      </g>
     </g>
    </g>
    <g id="ytick_21">
     <g id="line2d_31">
      <g>
       <use style="fill:#555555;stroke:#555555;stroke-width:0.6;" x="72" xlink:href="#me9bac415fe" y="144.394042"/>
      </g>
     </g>
    </g>
    <g id="ytick_22">
     <g id="line2d_32">
      <g>
       <use style="fill:#555555;stroke:#555555;stroke-width:0.6;" x="72" xlink:href="#me9bac415fe" y="139.014834"/>
      </g>
     </g>
    </g>
    <g id="ytick_23">
     <g id="line2d_33">
      <g>
       <use style="fill:#555555;stroke:#555555;stroke-width:0.6;" x="72" xlink:href="#me9bac415fe" y="134.270037"/>
      </g>
     </g>
    </g>
    <g id="ytick_24">
     <g id="line2d_34">
      <g>
       <use style="fill:#555555;stroke:#555555;stroke-width:0.6;" x="72" xlink:href="#me9bac415fe" y="102.102778"/>
      </g>
     </g>
    </g>
    <g id="text_7">
     <!-- |∂(E/n)/∂K| -->
     <defs>
      <path d="M 21 76.421875 
L 21 -23.578125 
L 12.703125 -23.578125 
L 12.703125 76.421875 
z
" id="DejaVuSans-7c"/>
      <path d="M 21.34375 -1.421875 
Q 14.453125 -1.421875 9.96875 2.734375 
Q 4.640625 7.671875 4.640625 16.609375 
Q 4.640625 25.875 9.328125 33.109375 
Q 14.15625 40.53125 22.859375 40.53125 
Q 28.5625 40.53125 33.0625 36.96875 
Q 35.6875 34.859375 37.5 31.34375 
Q 38.140625 35.296875 38.140625 39.796875 
Q 38.140625 46.390625 36.578125 50.203125 
Q 33.109375 58.640625 23.921875 58.640625 
Q 20.453125 58.640625 15.09375 56.5 
L 15.09375 64.703125 
Q 20.75 66.21875 25.828125 66.21875 
Q 38.921875 66.21875 44.484375 54.203125 
Q 47.078125 48.53125 47.078125 40.09375 
Q 47.078125 34.578125 45.84375 28.171875 
Q 42.78125 12.15625 34.8125 4.546875 
Q 28.5625 -1.421875 21.34375 -1.421875 
M 12.984375 15.140625 
Q 12.984375 10.25 15.140625 7.625 
Q 17.4375 4.828125 20.953125 4.828125 
Q 24.078125 4.828125 26.5625 7.03125 
Q 30.078125 10.0625 32.671875 14.984375 
Q 34.8125 19.046875 35.890625 23.390625 
Q 31.546875 33.890625 24.03125 33.890625 
Q 17.578125 33.890625 14.75 25.390625 
Q 12.984375 20.125 12.984375 15.140625 
" id="DejaVuSans-2202"/>
      <path d="M 9.8125 72.90625 
L 55.90625 72.90625 
L 55.90625 64.59375 
L 19.671875 64.59375 
L 19.671875 43.015625 
L 54.390625 43.015625 
L 54.390625 34.71875 
L 19.671875 34.71875 
L 19.671875 8.296875 
L 56.78125 8.296875 
L 56.78125 0 
L 9.8125 0 
z
" id="DejaVuSans-45"/>
      <path d="M 25.390625 72.90625 
L 33.6875 72.90625 
L 8.296875 -9.28125 
L 0 -9.28125 
z
" id="DejaVuSans-2f"/>
     </defs>
     <g style="fill:#555555;" transform="translate(34.670625 242.899687)rotate(-90)scale(0.12 -0.12)">
      <use xlink:href="#DejaVuSans-7c"/>
      <use x="33.691406" xlink:href="#DejaVuSans-2202"/>
      <use x="85.400391" xlink:href="#DejaVuSans-28"/>
      <use x="124.414062" xlink:href="#DejaVuSans-45"/>
      <use x="187.597656" xlink:href="#DejaVuSans-2f"/>
      <use x="221.289062" xlink:href="#DejaVuSans-6e"/>
      <use x="284.667969" xlink:href="#DejaVuSans-29"/>
      <use x="323.681641" xlink:href="#DejaVuSans-2f"/>
      <use x="357.373047" xlink:href="#DejaVuSans-2202"/>
      <use x="409.082031" xlink:href="#DejaVuSans-4b"/>
      <use x="474.658203" xlink:href="#DejaVuSans-7c"/>
     </g>
    </g>
   </g>
   <g id="patch_3">
    <path clip-path="url(#p497d6f0300)" d="M 138.414595 338.4 
L 138.414595 86.4 
L 340.04836 86.4 
L 340.04836 338.4 
z
" style="fill:#d6a528;opacity:0.15;stroke:#d6a528;stroke-linejoin:miter;stroke-width:0.5;"/>
   </g>
   <g id="line2d_35">
    <defs>
     <path d="M -3 3 
L 3 -3 
M -3 -3 
L 3 3 
" id="mb91013c188" style="stroke:#1351c4;"/>
    </defs>
    <g clip-path="url(#p497d6f0300)">
     <use style="fill:#1351c4;stroke:#1351c4;" x="85.301942" xlink:href="#mb91013c188" y="82.845052"/>
     <use style="fill:#1351c4;stroke:#1351c4;" x="127.299464" xlink:href="#mb91013c188" y="132.272183"/>
     <use style="fill:#1351c4;stroke:#1351c4;" x="162.261507" xlink:href="#mb91013c188" y="227.001208"/>
     <use style="fill:#1351c4;stroke:#1351c4;" x="192.210478" xlink:href="#mb91013c188" y="247.519096"/>
     <use style="fill:#1351c4;stroke:#1351c4;" x="218.405343" xlink:href="#mb91013c188" y="262.3287"/>
     <use style="fill:#1351c4;stroke:#1351c4;" x="241.683287" xlink:href="#mb91013c188" y="275.860675"/>
     <use style="fill:#1351c4;stroke:#1351c4;" x="262.629331" xlink:href="#mb91013c188" y="288.951298"/>
     <use style="fill:#1351c4;stroke:#1351c4;" x="281.66843" xlink:href="#mb91013c188" y="300.020286"/>
     <use style="fill:#1351c4;stroke:#1351c4;" x="299.119015" xlink:href="#mb91013c188" y="310.308608"/>
     <use style="fill:#1351c4;stroke:#1351c4;" x="315.225866" xlink:href="#mb91013c188" y="319.401496"/>
     <use style="fill:#1351c4;stroke:#1351c4;" x="330.18121" xlink:href="#mb91013c188" y="327.72302"/>
    </g>
   </g>
   <g id="line2d_36">
    <path clip-path="url(#p497d6f0300)" d="M 60.651628 167.988131 
L 337.276323 332.815431 
L 337.276323 332.815431 
" style="fill:none;stroke:#1351c4;stroke-dasharray:2.2,2.2;stroke-dashoffset:0;stroke-width:1.5;"/>
   </g>
   <g id="line2d_37">
    <path clip-path="url(#p497d6f0300)" d="M 60.651628 164.774818 
L 337.276323 335.469178 
L 337.276323 335.469178 
" style="fill:none;stroke:#1351c4;stroke-dasharray:9.6,2.4,1.6,2.4;stroke-dashoffset:0;stroke-width:1.5;"/>
   </g>
   <g id="line2d_38">
    <path clip-path="url(#p497d6f0300)" d="M 60.651628 167.297253 
L 337.276323 334.003645 
L 337.276323 334.003645 
" style="fill:none;stroke:#1351c4;stroke-linecap:square;stroke-width:1.5;"/>
   </g>
   <g id="line2d_39">
    <defs>
     <path d="M -3 3 
L 3 -3 
M -3 -3 
L 3 3 
" id="mdb8e65e694" style="stroke:#39b237;"/>
    </defs>
    <g clip-path="url(#p497d6f0300)">
     <use style="fill:#39b237;stroke:#39b237;" x="85.301942" xlink:href="#mdb8e65e694" y="103.258071"/>
     <use style="fill:#39b237;stroke:#39b237;" x="127.299464" xlink:href="#mdb8e65e694" y="107.649772"/>
     <use style="fill:#39b237;stroke:#39b237;" x="162.261507" xlink:href="#mdb8e65e694" y="175.008418"/>
     <use style="fill:#39b237;stroke:#39b237;" x="192.210478" xlink:href="#mdb8e65e694" y="187.666889"/>
     <use style="fill:#39b237;stroke:#39b237;" x="218.405343" xlink:href="#mdb8e65e694" y="197.917426"/>
     <use style="fill:#39b237;stroke:#39b237;" x="241.683287" xlink:href="#mdb8e65e694" y="207.701564"/>
     <use style="fill:#39b237;stroke:#39b237;" x="262.629331" xlink:href="#mdb8e65e694" y="216.562739"/>
     <use style="fill:#39b237;stroke:#39b237;" x="281.66843" xlink:href="#mdb8e65e694" y="224.267032"/>
     <use style="fill:#39b237;stroke:#39b237;" x="299.119015" xlink:href="#mdb8e65e694" y="231.488874"/>
     <use style="fill:#39b237;stroke:#39b237;" x="315.225866" xlink:href="#mdb8e65e694" y="238.067408"/>
     <use style="fill:#39b237;stroke:#39b237;" x="330.18121" xlink:href="#mdb8e65e694" y="244.125203"/>
    </g>
   </g>
   <g id="line2d_40">
    <path clip-path="url(#p497d6f0300)" d="M 60.651628 133.243678 
L 337.276323 247.136604 
L 337.276323 247.136604 
" style="fill:none;stroke:#39b237;stroke-dasharray:2.2,2.2;stroke-dashoffset:0;stroke-width:1.5;"/>
   </g>
   <g id="line2d_41">
    <path clip-path="url(#p497d6f0300)" d="M 60.651628 133.214063 
L 337.276323 247.156435 
L 337.276323 247.156435 
" style="fill:none;stroke:#39b237;stroke-dasharray:9.6,2.4,1.6,2.4;stroke-dashoffset:0;stroke-width:1.5;"/>
   </g>
   <g id="line2d_42">
    <path clip-path="url(#p497d6f0300)" d="M 60.651628 133.61602 
L 337.276323 247.151373 
L 337.276323 247.151373 
" style="fill:none;stroke:#39b237;stroke-linecap:square;stroke-width:1.5;"/>
   </g>
   <g id="patch_4">
    <path d="M 72 338.4 
L 72 86.4 
" style="fill:none;stroke:#ffffff;stroke-linecap:square;stroke-linejoin:miter;"/>
   </g>
   <g id="patch_5">
    <path d="M 339.84 338.4 
L 339.84 86.4 
" style="fill:none;stroke:#ffffff;stroke-linecap:square;stroke-linejoin:miter;"/>
   </g>
   <g id="patch_6">
    <path d="M 72 338.4 
L 339.84 338.4 
" style="fill:none;stroke:#ffffff;stroke-linecap:square;stroke-linejoin:miter;"/>
   </g>
   <g id="patch_7">
    <path d="M 72 86.4 
L 339.84 86.4 
" style="fill:none;stroke:#ffffff;stroke-linecap:square;stroke-linejoin:miter;"/>
   </g>
   <g id="text_8">
    <!-- ground, n=6, ω=0.28 -->
    <defs>
     <path d="M 45.40625 27.984375 
Q 45.40625 37.75 41.375 43.109375 
Q 37.359375 48.484375 30.078125 48.484375 
Q 22.859375 48.484375 18.828125 43.109375 
Q 14.796875 37.75 14.796875 27.984375 
Q 14.796875 18.265625 18.828125 12.890625 
Q 22.859375 7.515625 30.078125 7.515625 
Q 37.359375 7.515625 41.375 12.890625 
Q 45.40625 18.265625 45.40625 27.984375 
M 54.390625 6.78125 
Q 54.390625 -7.171875 48.1875 -13.984375 
Q 42 -20.796875 29.203125 -20.796875 
Q 24.46875 -20.796875 20.265625 -20.09375 
Q 16.0625 -19.390625 12.109375 -17.921875 
L 12.109375 -9.1875 
Q 16.0625 -11.328125 19.921875 -12.34375 
Q 23.78125 -13.375 27.78125 -13.375 
Q 36.625 -13.375 41.015625 -8.765625 
Q 45.40625 -4.15625 45.40625 5.171875 
L 45.40625 9.625 
Q 42.625 4.78125 38.28125 2.390625 
Q 33.9375 0 27.875 0 
Q 17.828125 0 11.671875 7.65625 
Q 5.515625 15.328125 5.515625 27.984375 
Q 5.515625 40.671875 11.671875 48.328125 
Q 17.828125 56 27.875 56 
Q 33.9375 56 38.28125 53.609375 
Q 42.625 51.21875 45.40625 46.390625 
L 45.40625 54.6875 
L 54.390625 54.6875 
z
" id="DejaVuSans-67"/>
     <path d="M 45.40625 46.390625 
L 45.40625 75.984375 
L 54.390625 75.984375 
L 54.390625 0 
L 45.40625 0 
L 45.40625 8.203125 
Q 42.578125 3.328125 38.25 0.953125 
Q 33.9375 -1.421875 27.875 -1.421875 
Q 17.96875 -1.421875 11.734375 6.484375 
Q 5.515625 14.40625 5.515625 27.296875 
Q 5.515625 40.1875 11.734375 48.09375 
Q 17.96875 56 27.875 56 
Q 33.9375 56 38.25 53.625 
Q 42.578125 51.265625 45.40625 46.390625 
M 14.796875 27.296875 
Q 14.796875 17.390625 18.875 11.75 
Q 22.953125 6.109375 30.078125 6.109375 
Q 37.203125 6.109375 41.296875 11.75 
Q 45.40625 17.390625 45.40625 27.296875 
Q 45.40625 37.203125 41.296875 42.84375 
Q 37.203125 48.484375 30.078125 48.484375 
Q 22.953125 48.484375 18.875 42.84375 
Q 14.796875 37.203125 14.796875 27.296875 
" id="DejaVuSans-64"/>
     <path d="M 11.71875 12.40625 
L 22.015625 12.40625 
L 22.015625 4 
L 14.015625 -11.625 
L 7.71875 -11.625 
L 11.71875 4 
z
" id="DejaVuSans-2c"/>
     <path d="M 10.59375 45.40625 
L 73.1875 45.40625 
L 73.1875 37.203125 
L 10.59375 37.203125 
z
M 10.59375 25.484375 
L 73.1875 25.484375 
L 73.1875 17.1875 
L 10.59375 17.1875 
z
" id="DejaVuSans-3d"/>
     <path d="M 26.859375 -1.421875 
Q 6.59375 -1.421875 6.59375 27.59375 
Q 6.59375 39.0625 14.15625 54.6875 
L 23.828125 54.6875 
Q 16.84375 39.0625 16.84375 27.34375 
Q 16.84375 6.203125 27.6875 6.203125 
Q 37.59375 6.203125 37.59375 32.46875 
L 45.90625 32.46875 
Q 45.90625 6.203125 55.8125 6.203125 
Q 66.65625 6.203125 66.65625 27.34375 
Q 66.65625 39.0625 59.671875 54.6875 
L 69.34375 54.6875 
Q 76.90625 39.0625 76.90625 27.59375 
Q 76.90625 -1.421875 56.640625 -1.421875 
Q 43.359375 -1.421875 41.75 13.1875 
Q 39.75 -1.421875 26.859375 -1.421875 
" id="DejaVuSans-3c9"/>
     <path d="M 10.6875 12.40625 
L 21 12.40625 
L 21 0 
L 10.6875 0 
z
" id="DejaVuSans-2e"/>
     <path d="M 31.78125 34.625 
Q 24.75 34.625 20.71875 30.859375 
Q 16.703125 27.09375 16.703125 20.515625 
Q 16.703125 13.921875 20.71875 10.15625 
Q 24.75 6.390625 31.78125 6.390625 
Q 38.8125 6.390625 42.859375 10.171875 
Q 46.921875 13.96875 46.921875 20.515625 
Q 46.921875 27.09375 42.890625 30.859375 
Q 38.875 34.625 31.78125 34.625 
M 21.921875 38.8125 
Q 15.578125 40.375 12.03125 44.71875 
Q 8.5 49.078125 8.5 55.328125 
Q 8.5 64.0625 14.71875 69.140625 
Q 20.953125 74.21875 31.78125 74.21875 
Q 42.671875 74.21875 48.875 69.140625 
Q 55.078125 64.0625 55.078125 55.328125 
Q 55.078125 49.078125 51.53125 44.71875 
Q 48 40.375 41.703125 38.8125 
Q 48.828125 37.15625 52.796875 32.3125 
Q 56.78125 27.484375 56.78125 20.515625 
Q 56.78125 9.90625 50.3125 4.234375 
Q 43.84375 -1.421875 31.78125 -1.421875 
Q 19.734375 -1.421875 13.25 4.234375 
Q 6.78125 9.90625 6.78125 20.515625 
Q 6.78125 27.484375 10.78125 32.3125 
Q 14.796875 37.15625 21.921875 38.8125 
M 18.3125 54.390625 
Q 18.3125 48.734375 21.84375 45.5625 
Q 25.390625 42.390625 31.78125 42.390625 
Q 38.140625 42.390625 41.71875 45.5625 
Q 45.3125 48.734375 45.3125 54.390625 
Q 45.3125 60.0625 41.71875 63.234375 
Q 38.140625 66.40625 31.78125 66.40625 
Q 25.390625 66.40625 21.84375 63.234375 
Q 18.3125 60.0625 18.3125 54.390625 
" id="DejaVuSans-38"/>
    </defs>
    <g transform="translate(127.86525 80.4)scale(0.144 -0.144)">
     <use xlink:href="#DejaVuSans-67"/>
     <use x="63.476562" xlink:href="#DejaVuSans-72"/>
     <use x="104.558594" xlink:href="#DejaVuSans-6f"/>
     <use x="165.740234" xlink:href="#DejaVuSans-75"/>
     <use x="229.119141" xlink:href="#DejaVuSans-6e"/>
     <use x="292.498047" xlink:href="#DejaVuSans-64"/>
     <use x="355.974609" xlink:href="#DejaVuSans-2c"/>
     <use x="387.761719" xlink:href="#DejaVuSans-20"/>
     <use x="419.548828" xlink:href="#DejaVuSans-6e"/>
     <use x="482.927734" xlink:href="#DejaVuSans-3d"/>
     <use x="566.716797" xlink:href="#DejaVuSans-36"/>
     <use x="630.339844" xlink:href="#DejaVuSans-2c"/>
     <use x="662.126953" xlink:href="#DejaVuSans-20"/>
     <use x="693.914062" xlink:href="#DejaVuSans-3c9"/>
     <use x="777.654297" xlink:href="#DejaVuSans-3d"/>
     <use x="861.443359" xlink:href="#DejaVuSans-30"/>
     <use x="925.066406" xlink:href="#DejaVuSans-2e"/>
     <use x="956.853516" xlink:href="#DejaVuSans-32"/>
     <use x="1020.476562" xlink:href="#DejaVuSans-38"/>
    </g>
   </g>
   <g id="legend_1">
    <g id="patch_8">
     <path d="M 346.84 211.825 
L 538.129062 211.825 
Q 540.129062 211.825 540.129062 209.825 
L 540.129062 93.4 
Q 540.129062 91.4 538.129062 91.4 
L 346.84 91.4 
Q 344.84 91.4 344.84 93.4 
L 344.84 209.825 
Q 344.84 211.825 346.84 211.825 
z
" style="fill:#e5e5e5;opacity:0.8;stroke:#cccccc;stroke-linejoin:miter;stroke-width:0.5;"/>
    </g>
    <g id="line2d_43"/>
    <g id="line2d_44">
     <g>
      <use style="fill:#1351c4;stroke:#1351c4;" x="358.84" xlink:href="#mb91013c188" y="99.498437"/>
     </g>
    </g>
    <g id="text_9">
     <!-- imsrg -->
     <defs>
      <path d="M 9.421875 54.6875 
L 18.40625 54.6875 
L 18.40625 0 
L 9.421875 0 
z
M 9.421875 75.984375 
L 18.40625 75.984375 
L 18.40625 64.59375 
L 9.421875 64.59375 
z
" id="DejaVuSans-69"/>
     </defs>
     <g transform="translate(376.84 102.998437)scale(0.1 -0.1)">
      <use xlink:href="#DejaVuSans-69"/>
      <use x="27.783203" xlink:href="#DejaVuSans-6d"/>
      <use x="125.195312" xlink:href="#DejaVuSans-73"/>
      <use x="177.294922" xlink:href="#DejaVuSans-72"/>
      <use x="218.392578" xlink:href="#DejaVuSans-67"/>
     </g>
    </g>
    <g id="line2d_45">
     <path d="M 348.84 114.176562 
L 368.84 114.176562 
" style="fill:none;stroke:#1351c4;stroke-dasharray:2.2,2.2;stroke-dashoffset:0;stroke-width:1.5;"/>
    </g>
    <g id="line2d_46"/>
    <g id="text_10">
     <!-- imsrg logderiv fit (b=-2.1) -->
     <defs>
      <path d="M 2.984375 54.6875 
L 12.5 54.6875 
L 29.59375 8.796875 
L 46.6875 54.6875 
L 56.203125 54.6875 
L 35.6875 0 
L 23.484375 0 
z
" id="DejaVuSans-76"/>
      <path d="M 18.3125 70.21875 
L 18.3125 54.6875 
L 36.8125 54.6875 
L 36.8125 47.703125 
L 18.3125 47.703125 
L 18.3125 18.015625 
Q 18.3125 11.328125 20.140625 9.421875 
Q 21.96875 7.515625 27.59375 7.515625 
L 36.8125 7.515625 
L 36.8125 0 
L 27.59375 0 
Q 17.1875 0 13.234375 3.875 
Q 9.28125 7.765625 9.28125 18.015625 
L 9.28125 47.703125 
L 2.6875 47.703125 
L 2.6875 54.6875 
L 9.28125 54.6875 
L 9.28125 70.21875 
z
" id="DejaVuSans-74"/>
      <path d="M 4.890625 31.390625 
L 31.203125 31.390625 
L 31.203125 23.390625 
L 4.890625 23.390625 
z
" id="DejaVuSans-2d"/>
     </defs>
     <g transform="translate(376.84 117.676562)scale(0.1 -0.1)">
      <use xlink:href="#DejaVuSans-69"/>
      <use x="27.783203" xlink:href="#DejaVuSans-6d"/>
      <use x="125.195312" xlink:href="#DejaVuSans-73"/>
      <use x="177.294922" xlink:href="#DejaVuSans-72"/>
      <use x="218.392578" xlink:href="#DejaVuSans-67"/>
      <use x="281.869141" xlink:href="#DejaVuSans-20"/>
      <use x="313.65625" xlink:href="#DejaVuSans-6c"/>
      <use x="341.439453" xlink:href="#DejaVuSans-6f"/>
      <use x="402.621094" xlink:href="#DejaVuSans-67"/>
      <use x="466.097656" xlink:href="#DejaVuSans-64"/>
      <use x="529.574219" xlink:href="#DejaVuSans-65"/>
      <use x="591.097656" xlink:href="#DejaVuSans-72"/>
      <use x="632.210938" xlink:href="#DejaVuSans-69"/>
      <use x="659.994141" xlink:href="#DejaVuSans-76"/>
      <use x="719.173828" xlink:href="#DejaVuSans-20"/>
      <use x="750.960938" xlink:href="#DejaVuSans-66"/>
      <use x="786.166016" xlink:href="#DejaVuSans-69"/>
      <use x="813.949219" xlink:href="#DejaVuSans-74"/>
      <use x="853.158203" xlink:href="#DejaVuSans-20"/>
      <use x="884.945312" xlink:href="#DejaVuSans-28"/>
      <use x="923.958984" xlink:href="#DejaVuSans-62"/>
      <use x="987.435547" xlink:href="#DejaVuSans-3d"/>
      <use x="1071.224609" xlink:href="#DejaVuSans-2d"/>
      <use x="1107.308594" xlink:href="#DejaVuSans-32"/>
      <use x="1170.931641" xlink:href="#DejaVuSans-2e"/>
      <use x="1202.71875" xlink:href="#DejaVuSans-31"/>
      <use x="1266.341797" xlink:href="#DejaVuSans-29"/>
     </g>
    </g>
    <g id="line2d_47">
     <path d="M 348.84 128.854687 
L 368.84 128.854687 
" style="fill:none;stroke:#1351c4;stroke-dasharray:9.6,2.4,1.6,2.4;stroke-dashoffset:0;stroke-width:1.5;"/>
    </g>
    <g id="line2d_48"/>
    <g id="text_11">
     <!-- imsrg deriv fit (b=-2.21±0.052) -->
     <defs>
      <path d="M 46 62.703125 
L 46 43.796875 
L 73.1875 43.796875 
L 73.1875 35.5 
L 46 35.5 
L 46 16.609375 
L 37.796875 16.609375 
L 37.796875 35.5 
L 10.59375 35.5 
L 10.59375 43.796875 
L 37.796875 43.796875 
L 37.796875 62.703125 
z
M 10.59375 8.296875 
L 73.1875 8.296875 
L 73.1875 0 
L 10.59375 0 
z
" id="DejaVuSans-b1"/>
      <path d="M 10.796875 72.90625 
L 49.515625 72.90625 
L 49.515625 64.59375 
L 19.828125 64.59375 
L 19.828125 46.734375 
Q 21.96875 47.46875 24.109375 47.828125 
Q 26.265625 48.1875 28.421875 48.1875 
Q 40.625 48.1875 47.75 41.5 
Q 54.890625 34.8125 54.890625 23.390625 
Q 54.890625 11.625 47.5625 5.09375 
Q 40.234375 -1.421875 26.90625 -1.421875 
Q 22.3125 -1.421875 17.546875 -0.640625 
Q 12.796875 0.140625 7.71875 1.703125 
L 7.71875 11.625 
Q 12.109375 9.234375 16.796875 8.0625 
Q 21.484375 6.890625 26.703125 6.890625 
Q 35.15625 6.890625 40.078125 11.328125 
Q 45.015625 15.765625 45.015625 23.390625 
Q 45.015625 31 40.078125 35.4375 
Q 35.15625 39.890625 26.703125 39.890625 
Q 22.75 39.890625 18.8125 39.015625 
Q 14.890625 38.140625 10.796875 36.28125 
z
" id="DejaVuSans-35"/>
     </defs>
     <g transform="translate(376.84 132.354687)scale(0.1 -0.1)">
      <use xlink:href="#DejaVuSans-69"/>
      <use x="27.783203" xlink:href="#DejaVuSans-6d"/>
      <use x="125.195312" xlink:href="#DejaVuSans-73"/>
      <use x="177.294922" xlink:href="#DejaVuSans-72"/>
      <use x="218.392578" xlink:href="#DejaVuSans-67"/>
      <use x="281.869141" xlink:href="#DejaVuSans-20"/>
      <use x="313.65625" xlink:href="#DejaVuSans-64"/>
      <use x="377.132812" xlink:href="#DejaVuSans-65"/>
      <use x="438.65625" xlink:href="#DejaVuSans-72"/>
      <use x="479.769531" xlink:href="#DejaVuSans-69"/>
      <use x="507.552734" xlink:href="#DejaVuSans-76"/>
      <use x="566.732422" xlink:href="#DejaVuSans-20"/>
      <use x="598.519531" xlink:href="#DejaVuSans-66"/>
      <use x="633.724609" xlink:href="#DejaVuSans-69"/>
      <use x="661.507812" xlink:href="#DejaVuSans-74"/>
      <use x="700.716797" xlink:href="#DejaVuSans-20"/>
      <use x="732.503906" xlink:href="#DejaVuSans-28"/>
      <use x="771.517578" xlink:href="#DejaVuSans-62"/>
      <use x="834.994141" xlink:href="#DejaVuSans-3d"/>
      <use x="918.783203" xlink:href="#DejaVuSans-2d"/>
      <use x="954.867188" xlink:href="#DejaVuSans-32"/>
      <use x="1018.490234" xlink:href="#DejaVuSans-2e"/>
      <use x="1050.277344" xlink:href="#DejaVuSans-32"/>
      <use x="1113.900391" xlink:href="#DejaVuSans-31"/>
      <use x="1177.523438" xlink:href="#DejaVuSans-b1"/>
      <use x="1261.3125" xlink:href="#DejaVuSans-30"/>
      <use x="1324.935547" xlink:href="#DejaVuSans-2e"/>
      <use x="1356.722656" xlink:href="#DejaVuSans-30"/>
      <use x="1420.345703" xlink:href="#DejaVuSans-35"/>
      <use x="1483.96875" xlink:href="#DejaVuSans-32"/>
      <use x="1547.591797" xlink:href="#DejaVuSans-29"/>
     </g>
    </g>
    <g id="line2d_49">
     <path d="M 348.84 143.532812 
L 368.84 143.532812 
" style="fill:none;stroke:#1351c4;stroke-linecap:square;stroke-width:1.5;"/>
    </g>
    <g id="line2d_50"/>
    <g id="text_12">
     <!-- imsrg full fit (b=-2.13±0.024) -->
     <g transform="translate(376.84 147.032812)scale(0.1 -0.1)">
      <use xlink:href="#DejaVuSans-69"/>
      <use x="27.783203" xlink:href="#DejaVuSans-6d"/>
      <use x="125.195312" xlink:href="#DejaVuSans-73"/>
      <use x="177.294922" xlink:href="#DejaVuSans-72"/>
      <use x="218.392578" xlink:href="#DejaVuSans-67"/>
      <use x="281.869141" xlink:href="#DejaVuSans-20"/>
      <use x="313.65625" xlink:href="#DejaVuSans-66"/>
      <use x="348.861328" xlink:href="#DejaVuSans-75"/>
      <use x="412.240234" xlink:href="#DejaVuSans-6c"/>
      <use x="440.023438" xlink:href="#DejaVuSans-6c"/>
      <use x="467.806641" xlink:href="#DejaVuSans-20"/>
      <use x="499.59375" xlink:href="#DejaVuSans-66"/>
      <use x="534.798828" xlink:href="#DejaVuSans-69"/>
      <use x="562.582031" xlink:href="#DejaVuSans-74"/>
      <use x="601.791016" xlink:href="#DejaVuSans-20"/>
      <use x="633.578125" xlink:href="#DejaVuSans-28"/>
      <use x="672.591797" xlink:href="#DejaVuSans-62"/>
      <use x="736.068359" xlink:href="#DejaVuSans-3d"/>
      <use x="819.857422" xlink:href="#DejaVuSans-2d"/>
      <use x="855.941406" xlink:href="#DejaVuSans-32"/>
      <use x="919.564453" xlink:href="#DejaVuSans-2e"/>
      <use x="951.351562" xlink:href="#DejaVuSans-31"/>
      <use x="1014.974609" xlink:href="#DejaVuSans-33"/>
      <use x="1078.597656" xlink:href="#DejaVuSans-b1"/>
      <use x="1162.386719" xlink:href="#DejaVuSans-30"/>
      <use x="1226.009766" xlink:href="#DejaVuSans-2e"/>
      <use x="1257.796875" xlink:href="#DejaVuSans-30"/>
      <use x="1321.419922" xlink:href="#DejaVuSans-32"/>
      <use x="1385.042969" xlink:href="#DejaVuSans-34"/>
      <use x="1448.666016" xlink:href="#DejaVuSans-29"/>
     </g>
    </g>
    <g id="line2d_51"/>
    <g id="line2d_52">
     <g>
      <use style="fill:#39b237;stroke:#39b237;" x="358.84" xlink:href="#mdb8e65e694" y="158.210937"/>
     </g>
    </g>
    <g id="text_13">
     <!-- mp2 -->
     <defs>
      <path d="M 18.109375 8.203125 
L 18.109375 -20.796875 
L 9.078125 -20.796875 
L 9.078125 54.6875 
L 18.109375 54.6875 
L 18.109375 46.390625 
Q 20.953125 51.265625 25.265625 53.625 
Q 29.59375 56 35.59375 56 
Q 45.5625 56 51.78125 48.09375 
Q 58.015625 40.1875 58.015625 27.296875 
Q 58.015625 14.40625 51.78125 6.484375 
Q 45.5625 -1.421875 35.59375 -1.421875 
Q 29.59375 -1.421875 25.265625 0.953125 
Q 20.953125 3.328125 18.109375 8.203125 
M 48.6875 27.296875 
Q 48.6875 37.203125 44.609375 42.84375 
Q 40.53125 48.484375 33.40625 48.484375 
Q 26.265625 48.484375 22.1875 42.84375 
Q 18.109375 37.203125 18.109375 27.296875 
Q 18.109375 17.390625 22.1875 11.75 
Q 26.265625 6.109375 33.40625 6.109375 
Q 40.53125 6.109375 44.609375 11.75 
Q 48.6875 17.390625 48.6875 27.296875 
" id="DejaVuSans-70"/>
     </defs>
     <g transform="translate(376.84 161.710937)scale(0.1 -0.1)">
      <use xlink:href="#DejaVuSans-6d"/>
      <use x="97.412109" xlink:href="#DejaVuSans-70"/>
      <use x="160.888672" xlink:href="#DejaVuSans-32"/>
     </g>
    </g>
    <g id="line2d_53">
     <path d="M 348.84 172.889062 
L 368.84 172.889062 
" style="fill:none;stroke:#39b237;stroke-dasharray:2.2,2.2;stroke-dashoffset:0;stroke-width:1.5;"/>
    </g>
    <g id="line2d_54"/>
    <g id="text_14">
     <!-- mp2 logderiv fit (b=-1.14) -->
     <g transform="translate(376.84 176.389062)scale(0.1 -0.1)">
      <use xlink:href="#DejaVuSans-6d"/>
      <use x="97.412109" xlink:href="#DejaVuSans-70"/>
      <use x="160.888672" xlink:href="#DejaVuSans-32"/>
      <use x="224.511719" xlink:href="#DejaVuSans-20"/>
      <use x="256.298828" xlink:href="#DejaVuSans-6c"/>
      <use x="284.082031" xlink:href="#DejaVuSans-6f"/>
      <use x="345.263672" xlink:href="#DejaVuSans-67"/>
      <use x="408.740234" xlink:href="#DejaVuSans-64"/>
      <use x="472.216797" xlink:href="#DejaVuSans-65"/>
      <use x="533.740234" xlink:href="#DejaVuSans-72"/>
      <use x="574.853516" xlink:href="#DejaVuSans-69"/>
      <use x="602.636719" xlink:href="#DejaVuSans-76"/>
      <use x="661.816406" xlink:href="#DejaVuSans-20"/>
      <use x="693.603516" xlink:href="#DejaVuSans-66"/>
      <use x="728.808594" xlink:href="#DejaVuSans-69"/>
      <use x="756.591797" xlink:href="#DejaVuSans-74"/>
      <use x="795.800781" xlink:href="#DejaVuSans-20"/>
      <use x="827.587891" xlink:href="#DejaVuSans-28"/>
      <use x="866.601562" xlink:href="#DejaVuSans-62"/>
      <use x="930.078125" xlink:href="#DejaVuSans-3d"/>
      <use x="1013.867188" xlink:href="#DejaVuSans-2d"/>
      <use x="1049.951172" xlink:href="#DejaVuSans-31"/>
      <use x="1113.574219" xlink:href="#DejaVuSans-2e"/>
      <use x="1145.361328" xlink:href="#DejaVuSans-31"/>
      <use x="1208.984375" xlink:href="#DejaVuSans-34"/>
      <use x="1272.607422" xlink:href="#DejaVuSans-29"/>
     </g>
    </g>
    <g id="line2d_55">
     <path d="M 348.84 187.567187 
L 368.84 187.567187 
" style="fill:none;stroke:#39b237;stroke-dasharray:9.6,2.4,1.6,2.4;stroke-dashoffset:0;stroke-width:1.5;"/>
    </g>
    <g id="line2d_56"/>
    <g id="text_15">
     <!-- mp2 deriv fit (b=-1.14±0.0076) -->
     <defs>
      <path d="M 8.203125 72.90625 
L 55.078125 72.90625 
L 55.078125 68.703125 
L 28.609375 0 
L 18.3125 0 
L 43.21875 64.59375 
L 8.203125 64.59375 
z
" id="DejaVuSans-37"/>
     </defs>
     <g transform="translate(376.84 191.067187)scale(0.1 -0.1)">
      <use xlink:href="#DejaVuSans-6d"/>
      <use x="97.412109" xlink:href="#DejaVuSans-70"/>
      <use x="160.888672" xlink:href="#DejaVuSans-32"/>
      <use x="224.511719" xlink:href="#DejaVuSans-20"/>
      <use x="256.298828" xlink:href="#DejaVuSans-64"/>
      <use x="319.775391" xlink:href="#DejaVuSans-65"/>
      <use x="381.298828" xlink:href="#DejaVuSans-72"/>
      <use x="422.412109" xlink:href="#DejaVuSans-69"/>
      <use x="450.195312" xlink:href="#DejaVuSans-76"/>
      <use x="509.375" xlink:href="#DejaVuSans-20"/>
      <use x="541.162109" xlink:href="#DejaVuSans-66"/>
      <use x="576.367188" xlink:href="#DejaVuSans-69"/>
      <use x="604.150391" xlink:href="#DejaVuSans-74"/>
      <use x="643.359375" xlink:href="#DejaVuSans-20"/>
      <use x="675.146484" xlink:href="#DejaVuSans-28"/>
      <use x="714.160156" xlink:href="#DejaVuSans-62"/>
      <use x="777.636719" xlink:href="#DejaVuSans-3d"/>
      <use x="861.425781" xlink:href="#DejaVuSans-2d"/>
      <use x="897.509766" xlink:href="#DejaVuSans-31"/>
      <use x="961.132812" xlink:href="#DejaVuSans-2e"/>
      <use x="992.919922" xlink:href="#DejaVuSans-31"/>
      <use x="1056.542969" xlink:href="#DejaVuSans-34"/>
      <use x="1120.166016" xlink:href="#DejaVuSans-b1"/>
      <use x="1203.955078" xlink:href="#DejaVuSans-30"/>
      <use x="1267.578125" xlink:href="#DejaVuSans-2e"/>
      <use x="1299.365234" xlink:href="#DejaVuSans-30"/>
      <use x="1362.988281" xlink:href="#DejaVuSans-30"/>
      <use x="1426.611328" xlink:href="#DejaVuSans-37"/>
      <use x="1490.234375" xlink:href="#DejaVuSans-36"/>
      <use x="1553.857422" xlink:href="#DejaVuSans-29"/>
     </g>
    </g>
    <g id="line2d_57">
     <path d="M 348.84 202.245312 
L 368.84 202.245312 
" style="fill:none;stroke:#39b237;stroke-linecap:square;stroke-width:1.5;"/>
    </g>
    <g id="line2d_58"/>
    <g id="text_16">
     <!-- mp2 full fit (b=-1.13±0.003) -->
     <g transform="translate(376.84 205.745312)scale(0.1 -0.1)">
      <use xlink:href="#DejaVuSans-6d"/>
      <use x="97.412109" xlink:href="#DejaVuSans-70"/>
      <use x="160.888672" xlink:href="#DejaVuSans-32"/>
      <use x="224.511719" xlink:href="#DejaVuSans-20"/>
      <use x="256.298828" xlink:href="#DejaVuSans-66"/>
      <use x="291.503906" xlink:href="#DejaVuSans-75"/>
      <use x="354.882812" xlink:href="#DejaVuSans-6c"/>
      <use x="382.666016" xlink:href="#DejaVuSans-6c"/>
      <use x="410.449219" xlink:href="#DejaVuSans-20"/>
      <use x="442.236328" xlink:href="#DejaVuSans-66"/>
      <use x="477.441406" xlink:href="#DejaVuSans-69"/>
      <use x="505.224609" xlink:href="#DejaVuSans-74"/>
      <use x="544.433594" xlink:href="#DejaVuSans-20"/>
      <use x="576.220703" xlink:href="#DejaVuSans-28"/>
      <use x="615.234375" xlink:href="#DejaVuSans-62"/>
      <use x="678.710938" xlink:href="#DejaVuSans-3d"/>
      <use x="762.5" xlink:href="#DejaVuSans-2d"/>
      <use x="798.583984" xlink:href="#DejaVuSans-31"/>
      <use x="862.207031" xlink:href="#DejaVuSans-2e"/>
      <use x="893.994141" xlink:href="#DejaVuSans-31"/>
      <use x="957.617188" xlink:href="#DejaVuSans-33"/>
      <use x="1021.240234" xlink:href="#DejaVuSans-b1"/>
      <use x="1105.029297" xlink:href="#DejaVuSans-30"/>
      <use x="1168.652344" xlink:href="#DejaVuSans-2e"/>
      <use x="1200.439453" xlink:href="#DejaVuSans-30"/>
      <use x="1264.0625" xlink:href="#DejaVuSans-30"/>
      <use x="1327.685547" xlink:href="#DejaVuSans-33"/>
      <use x="1391.308594" xlink:href="#DejaVuSans-29"/>
     </g>
    </g>
   </g>
  </g>
  <g id="axes_2">
   <g id="patch_9">
    <path d="M 72 640.8 
L 339.84 640.8 
L 339.84 388.8 
L 72 388.8 
z
" style="fill:#e5e5e5;"/>
   </g>
   <g id="matplotlib.axis_3">
    <g id="xtick_7">
     <g id="line2d_59">
      <path clip-path="url(#p063671cc04)" d="M 75.778426 640.8 
L 75.778426 388.8 
" style="fill:none;stroke:#ffffff;stroke-linecap:square;stroke-width:0.8;"/>
     </g>
     <g id="line2d_60">
      <g>
       <use style="fill:#555555;stroke:#555555;stroke-width:0.8;" x="75.778426" xlink:href="#me62bcd8525" y="640.8"/>
      </g>
     </g>
     <g id="text_17">
      <!-- 4 -->
      <g style="fill:#555555;" transform="translate(72.597176 655.398438)scale(0.1 -0.1)">
       <use xlink:href="#DejaVuSans-34"/>
      </g>
     </g>
    </g>
    <g id="xtick_8">
     <g id="line2d_61">
      <path clip-path="url(#p063671cc04)" d="M 123.193779 640.8 
L 123.193779 388.8 
" style="fill:none;stroke:#ffffff;stroke-linecap:square;stroke-width:0.8;"/>
     </g>
     <g id="line2d_62">
      <g>
       <use style="fill:#555555;stroke:#555555;stroke-width:0.8;" x="123.193779" xlink:href="#me62bcd8525" y="640.8"/>
      </g>
     </g>
     <g id="text_18">
      <!-- 6 -->
      <g style="fill:#555555;" transform="translate(120.012529 655.398438)scale(0.1 -0.1)">
       <use xlink:href="#DejaVuSans-36"/>
      </g>
     </g>
    </g>
    <g id="xtick_9">
     <g id="line2d_63">
      <path clip-path="url(#p063671cc04)" d="M 170.609131 640.8 
L 170.609131 388.8 
" style="fill:none;stroke:#ffffff;stroke-linecap:square;stroke-width:0.8;"/>
     </g>
     <g id="line2d_64">
      <g>
       <use style="fill:#555555;stroke:#555555;stroke-width:0.8;" x="170.609131" xlink:href="#me62bcd8525" y="640.8"/>
      </g>
     </g>
     <g id="text_19">
      <!-- 8 -->
      <g style="fill:#555555;" transform="translate(167.427881 655.398438)scale(0.1 -0.1)">
       <use xlink:href="#DejaVuSans-38"/>
      </g>
     </g>
    </g>
    <g id="xtick_10">
     <g id="line2d_65">
      <path clip-path="url(#p063671cc04)" d="M 218.024483 640.8 
L 218.024483 388.8 
" style="fill:none;stroke:#ffffff;stroke-linecap:square;stroke-width:0.8;"/>
     </g>
     <g id="line2d_66">
      <g>
       <use style="fill:#555555;stroke:#555555;stroke-width:0.8;" x="218.024483" xlink:href="#me62bcd8525" y="640.8"/>
      </g>
     </g>
     <g id="text_20">
      <!-- 10 -->
      <g style="fill:#555555;" transform="translate(211.661983 655.398438)scale(0.1 -0.1)">
       <use xlink:href="#DejaVuSans-31"/>
       <use x="63.623047" xlink:href="#DejaVuSans-30"/>
      </g>
     </g>
    </g>
    <g id="xtick_11">
     <g id="line2d_67">
      <path clip-path="url(#p063671cc04)" d="M 265.439836 640.8 
L 265.439836 388.8 
" style="fill:none;stroke:#ffffff;stroke-linecap:square;stroke-width:0.8;"/>
     </g>
     <g id="line2d_68">
      <g>
       <use style="fill:#555555;stroke:#555555;stroke-width:0.8;" x="265.439836" xlink:href="#me62bcd8525" y="640.8"/>
      </g>
     </g>
     <g id="text_21">
      <!-- 12 -->
      <g style="fill:#555555;" transform="translate(259.077336 655.398438)scale(0.1 -0.1)">
       <use xlink:href="#DejaVuSans-31"/>
       <use x="63.623047" xlink:href="#DejaVuSans-32"/>
      </g>
     </g>
    </g>
    <g id="xtick_12">
     <g id="line2d_69">
      <path clip-path="url(#p063671cc04)" d="M 312.855188 640.8 
L 312.855188 388.8 
" style="fill:none;stroke:#ffffff;stroke-linecap:square;stroke-width:0.8;"/>
     </g>
     <g id="line2d_70">
      <g>
       <use style="fill:#555555;stroke:#555555;stroke-width:0.8;" x="312.855188" xlink:href="#me62bcd8525" y="640.8"/>
      </g>
     </g>
     <g id="text_22">
      <!-- 14 -->
      <g style="fill:#555555;" transform="translate(306.492688 655.398438)scale(0.1 -0.1)">
       <use xlink:href="#DejaVuSans-31"/>
       <use x="63.623047" xlink:href="#DejaVuSans-34"/>
      </g>
     </g>
    </g>
    <g id="text_23">
     <!-- K (number of shells) -->
     <g style="fill:#555555;" transform="translate(145.303125 670.59625)scale(0.12 -0.12)">
      <use xlink:href="#DejaVuSans-4b"/>
      <use x="65.576172" xlink:href="#DejaVuSans-20"/>
      <use x="97.363281" xlink:href="#DejaVuSans-28"/>
      <use x="136.376953" xlink:href="#DejaVuSans-6e"/>
      <use x="199.755859" xlink:href="#DejaVuSans-75"/>
      <use x="263.134766" xlink:href="#DejaVuSans-6d"/>
      <use x="360.546875" xlink:href="#DejaVuSans-62"/>
      <use x="424.023438" xlink:href="#DejaVuSans-65"/>
      <use x="485.546875" xlink:href="#DejaVuSans-72"/>
      <use x="526.660156" xlink:href="#DejaVuSans-20"/>
      <use x="558.447266" xlink:href="#DejaVuSans-6f"/>
      <use x="619.628906" xlink:href="#DejaVuSans-66"/>
      <use x="654.833984" xlink:href="#DejaVuSans-20"/>
      <use x="686.621094" xlink:href="#DejaVuSans-73"/>
      <use x="738.720703" xlink:href="#DejaVuSans-68"/>
      <use x="802.099609" xlink:href="#DejaVuSans-65"/>
      <use x="863.623047" xlink:href="#DejaVuSans-6c"/>
      <use x="891.40625" xlink:href="#DejaVuSans-6c"/>
      <use x="919.189453" xlink:href="#DejaVuSans-73"/>
      <use x="971.289062" xlink:href="#DejaVuSans-29"/>
     </g>
    </g>
   </g>
   <g id="matplotlib.axis_4">
    <g id="ytick_25">
     <g id="line2d_71">
      <path clip-path="url(#p063671cc04)" d="M 72 634.209571 
L 339.84 634.209571 
" style="fill:none;stroke:#ffffff;stroke-linecap:square;stroke-width:0.8;"/>
     </g>
     <g id="line2d_72">
      <g>
       <use style="fill:#555555;stroke:#555555;stroke-width:0.8;" x="72" xlink:href="#m0dbd7f223a" y="634.209571"/>
      </g>
     </g>
     <g id="text_24">
      <!-- 1.260 -->
      <g style="fill:#555555;" transform="translate(36.371875 638.008789)scale(0.1 -0.1)">
       <use xlink:href="#DejaVuSans-31"/>
       <use x="63.623047" xlink:href="#DejaVuSans-2e"/>
       <use x="95.410156" xlink:href="#DejaVuSans-32"/>
       <use x="159.033203" xlink:href="#DejaVuSans-36"/>
       <use x="222.65625" xlink:href="#DejaVuSans-30"/>
      </g>
     </g>
    </g>
    <g id="ytick_26">
     <g id="line2d_73">
      <path clip-path="url(#p063671cc04)" d="M 72 584.353101 
L 339.84 584.353101 
" style="fill:none;stroke:#ffffff;stroke-linecap:square;stroke-width:0.8;"/>
     </g>
     <g id="line2d_74">
      <g>
       <use style="fill:#555555;stroke:#555555;stroke-width:0.8;" x="72" xlink:href="#m0dbd7f223a" y="584.353101"/>
      </g>
     </g>
     <g id="text_25">
      <!-- 1.265 -->
      <g style="fill:#555555;" transform="translate(36.371875 588.152319)scale(0.1 -0.1)">
       <use xlink:href="#DejaVuSans-31"/>
       <use x="63.623047" xlink:href="#DejaVuSans-2e"/>
       <use x="95.410156" xlink:href="#DejaVuSans-32"/>
       <use x="159.033203" xlink:href="#DejaVuSans-36"/>
       <use x="222.65625" xlink:href="#DejaVuSans-35"/>
      </g>
     </g>
    </g>
    <g id="ytick_27">
     <g id="line2d_75">
      <path clip-path="url(#p063671cc04)" d="M 72 534.496631 
L 339.84 534.496631 
" style="fill:none;stroke:#ffffff;stroke-linecap:square;stroke-width:0.8;"/>
     </g>
     <g id="line2d_76">
      <g>
       <use style="fill:#555555;stroke:#555555;stroke-width:0.8;" x="72" xlink:href="#m0dbd7f223a" y="534.496631"/>
      </g>
     </g>
     <g id="text_26">
      <!-- 1.270 -->
      <g style="fill:#555555;" transform="translate(36.371875 538.295849)scale(0.1 -0.1)">
       <use xlink:href="#DejaVuSans-31"/>
       <use x="63.623047" xlink:href="#DejaVuSans-2e"/>
       <use x="95.410156" xlink:href="#DejaVuSans-32"/>
       <use x="159.033203" xlink:href="#DejaVuSans-37"/>
       <use x="222.65625" xlink:href="#DejaVuSans-30"/>
      </g>
     </g>
    </g>
    <g id="ytick_28">
     <g id="line2d_77">
      <path clip-path="url(#p063671cc04)" d="M 72 484.640161 
L 339.84 484.640161 
" style="fill:none;stroke:#ffffff;stroke-linecap:square;stroke-width:0.8;"/>
     </g>
     <g id="line2d_78">
      <g>
       <use style="fill:#555555;stroke:#555555;stroke-width:0.8;" x="72" xlink:href="#m0dbd7f223a" y="484.640161"/>
      </g>
     </g>
     <g id="text_27">
      <!-- 1.275 -->
      <g style="fill:#555555;" transform="translate(36.371875 488.439379)scale(0.1 -0.1)">
       <use xlink:href="#DejaVuSans-31"/>
       <use x="63.623047" xlink:href="#DejaVuSans-2e"/>
       <use x="95.410156" xlink:href="#DejaVuSans-32"/>
       <use x="159.033203" xlink:href="#DejaVuSans-37"/>
       <use x="222.65625" xlink:href="#DejaVuSans-35"/>
      </g>
     </g>
    </g>
    <g id="ytick_29">
     <g id="line2d_79">
      <path clip-path="url(#p063671cc04)" d="M 72 434.783691 
L 339.84 434.783691 
" style="fill:none;stroke:#ffffff;stroke-linecap:square;stroke-width:0.8;"/>
     </g>
     <g id="line2d_80">
      <g>
       <use style="fill:#555555;stroke:#555555;stroke-width:0.8;" x="72" xlink:href="#m0dbd7f223a" y="434.783691"/>
      </g>
     </g>
     <g id="text_28">
      <!-- 1.280 -->
      <g style="fill:#555555;" transform="translate(36.371875 438.582909)scale(0.1 -0.1)">
       <use xlink:href="#DejaVuSans-31"/>
       <use x="63.623047" xlink:href="#DejaVuSans-2e"/>
       <use x="95.410156" xlink:href="#DejaVuSans-32"/>
       <use x="159.033203" xlink:href="#DejaVuSans-38"/>
       <use x="222.65625" xlink:href="#DejaVuSans-30"/>
      </g>
     </g>
    </g>
    <g id="text_29">
     <!-- E/n (energy per particle) -->
     <defs>
      <path d="M 32.171875 -5.078125 
Q 28.375 -14.84375 24.75 -17.8125 
Q 21.140625 -20.796875 15.09375 -20.796875 
L 7.90625 -20.796875 
L 7.90625 -13.28125 
L 13.1875 -13.28125 
Q 16.890625 -13.28125 18.9375 -11.515625 
Q 21 -9.765625 23.484375 -3.21875 
L 25.09375 0.875 
L 2.984375 54.6875 
L 12.5 54.6875 
L 29.59375 11.921875 
L 46.6875 54.6875 
L 56.203125 54.6875 
z
" id="DejaVuSans-79"/>
      <path d="M 34.28125 27.484375 
Q 23.390625 27.484375 19.1875 25 
Q 14.984375 22.515625 14.984375 16.5 
Q 14.984375 11.71875 18.140625 8.90625 
Q 21.296875 6.109375 26.703125 6.109375 
Q 34.1875 6.109375 38.703125 11.40625 
Q 43.21875 16.703125 43.21875 25.484375 
L 43.21875 27.484375 
z
M 52.203125 31.203125 
L 52.203125 0 
L 43.21875 0 
L 43.21875 8.296875 
Q 40.140625 3.328125 35.546875 0.953125 
Q 30.953125 -1.421875 24.3125 -1.421875 
Q 15.921875 -1.421875 10.953125 3.296875 
Q 6 8.015625 6 15.921875 
Q 6 25.140625 12.171875 29.828125 
Q 18.359375 34.515625 30.609375 34.515625 
L 43.21875 34.515625 
L 43.21875 35.40625 
Q 43.21875 41.609375 39.140625 45 
Q 35.0625 48.390625 27.6875 48.390625 
Q 23 48.390625 18.546875 47.265625 
Q 14.109375 46.140625 10.015625 43.890625 
L 10.015625 52.203125 
Q 14.9375 54.109375 19.578125 55.046875 
Q 24.21875 56 28.609375 56 
Q 40.484375 56 46.34375 49.84375 
Q 52.203125 43.703125 52.203125 31.203125 
" id="DejaVuSans-61"/>
      <path d="M 48.78125 52.59375 
L 48.78125 44.1875 
Q 44.96875 46.296875 41.140625 47.34375 
Q 37.3125 48.390625 33.40625 48.390625 
Q 24.65625 48.390625 19.8125 42.84375 
Q 14.984375 37.3125 14.984375 27.296875 
Q 14.984375 17.28125 19.8125 11.734375 
Q 24.65625 6.203125 33.40625 6.203125 
Q 37.3125 6.203125 41.140625 7.25 
Q 44.96875 8.296875 48.78125 10.40625 
L 48.78125 2.09375 
Q 45.015625 0.34375 40.984375 -0.53125 
Q 36.96875 -1.421875 32.421875 -1.421875 
Q 20.0625 -1.421875 12.78125 6.34375 
Q 5.515625 14.109375 5.515625 27.296875 
Q 5.515625 40.671875 12.859375 48.328125 
Q 20.21875 56 33.015625 56 
Q 37.15625 56 41.109375 55.140625 
Q 45.0625 54.296875 48.78125 52.59375 
" id="DejaVuSans-63"/>
     </defs>
     <g style="fill:#555555;" transform="translate(29.87625 588.426563)rotate(-90)scale(0.12 -0.12)">
      <use xlink:href="#DejaVuSans-45"/>
      <use x="63.183594" xlink:href="#DejaVuSans-2f"/>
      <use x="96.875" xlink:href="#DejaVuSans-6e"/>
      <use x="160.253906" xlink:href="#DejaVuSans-20"/>
      <use x="192.041016" xlink:href="#DejaVuSans-28"/>
      <use x="231.054688" xlink:href="#DejaVuSans-65"/>
      <use x="292.578125" xlink:href="#DejaVuSans-6e"/>
      <use x="355.957031" xlink:href="#DejaVuSans-65"/>
      <use x="417.480469" xlink:href="#DejaVuSans-72"/>
      <use x="458.578125" xlink:href="#DejaVuSans-67"/>
      <use x="522.054688" xlink:href="#DejaVuSans-79"/>
      <use x="581.234375" xlink:href="#DejaVuSans-20"/>
      <use x="613.021484" xlink:href="#DejaVuSans-70"/>
      <use x="676.498047" xlink:href="#DejaVuSans-65"/>
      <use x="738.021484" xlink:href="#DejaVuSans-72"/>
      <use x="779.134766" xlink:href="#DejaVuSans-20"/>
      <use x="810.921875" xlink:href="#DejaVuSans-70"/>
      <use x="874.398438" xlink:href="#DejaVuSans-61"/>
      <use x="935.677734" xlink:href="#DejaVuSans-72"/>
      <use x="976.791016" xlink:href="#DejaVuSans-74"/>
      <use x="1016" xlink:href="#DejaVuSans-69"/>
      <use x="1043.783203" xlink:href="#DejaVuSans-63"/>
      <use x="1098.763672" xlink:href="#DejaVuSans-6c"/>
      <use x="1126.546875" xlink:href="#DejaVuSans-65"/>
      <use x="1188.070312" xlink:href="#DejaVuSans-29"/>
     </g>
    </g>
   </g>
   <g id="patch_10">
    <path clip-path="url(#p063671cc04)" d="M 72 567.568089 
L 72 567.235713 
L 339.84 567.235713 
L 339.84 567.568089 
z
" style="opacity:0.4;stroke:#000000;stroke-linejoin:miter;stroke-width:0.5;"/>
   </g>
   <g id="patch_11">
    <path clip-path="url(#p063671cc04)" d="M 118.452243 640.8 
L 118.452243 388.8 
L 341.304399 388.8 
L 341.304399 640.8 
z
" style="fill:#d6a528;opacity:0.15;stroke:#d6a528;stroke-linejoin:miter;stroke-width:0.5;"/>
   </g>
   <g id="line2d_81">
    <g clip-path="url(#p063671cc04)">
     <use style="fill:#1351c4;stroke:#1351c4;" x="75.778426" xlink:href="#mb91013c188" y="170.288736"/>
     <use style="fill:#1351c4;stroke:#1351c4;" x="99.486102" xlink:href="#mb91013c188" y="491.946789"/>
     <use style="fill:#1351c4;stroke:#1351c4;" x="123.193779" xlink:href="#mb91013c188" y="586.251288"/>
     <use style="fill:#1351c4;stroke:#1351c4;" x="146.901455" xlink:href="#mb91013c188" y="595.231396"/>
     <use style="fill:#1351c4;stroke:#1351c4;" x="170.609131" xlink:href="#mb91013c188" y="600.627535"/>
     <use style="fill:#1351c4;stroke:#1351c4;" x="194.316807" xlink:href="#mb91013c188" y="604.363685"/>
     <use style="fill:#1351c4;stroke:#1351c4;" x="218.024483" xlink:href="#mb91013c188" y="607.033858"/>
     <use style="fill:#1351c4;stroke:#1351c4;" x="241.732159" xlink:href="#mb91013c188" y="608.963215"/>
     <use style="fill:#1351c4;stroke:#1351c4;" x="265.439836" xlink:href="#mb91013c188" y="610.429034"/>
     <use style="fill:#1351c4;stroke:#1351c4;" x="289.147512" xlink:href="#mb91013c188" y="611.564475"/>
     <use style="fill:#1351c4;stroke:#1351c4;" x="312.855188" xlink:href="#mb91013c188" y="612.470492"/>
     <use style="fill:#1351c4;stroke:#1351c4;" x="336.562864" xlink:href="#mb91013c188" y="613.207418"/>
    </g>
   </g>
   <g id="line2d_82">
    <path clip-path="url(#p063671cc04)" d="M 75.778426 543.74927 
L 78.920407 548.646568 
L 82.062389 553.080846 
L 85.20437 557.108302 
L 88.346351 560.776891 
L 91.488332 564.127734 
L 94.630313 567.196248 
L 97.772295 570.01307 
L 101.961603 573.422798 
L 106.150911 576.485855 
L 110.340219 579.247387 
L 114.529527 581.745451 
L 118.718836 584.012307 
L 123.955471 586.56223 
L 129.192106 588.838743 
L 134.428742 590.87933 
L 140.712704 593.060315 
L 146.996666 594.991124 
L 153.280629 596.708364 
L 160.611918 598.481842 
L 168.990535 600.252746 
L 177.369151 601.795307 
L 186.795095 603.304006 
L 197.268365 604.747815 
L 208.788963 606.105124 
L 221.356888 607.362624 
L 236.019466 608.594607 
L 251.729372 609.692602 
L 270.581259 610.775089 
L 291.5278 611.74789 
L 315.616323 612.642463 
L 336.562864 613.273103 
L 336.562864 613.273103 
" style="fill:none;stroke:#1351c4;stroke-dasharray:5.6,2.4;stroke-dashoffset:0;stroke-width:1.5;"/>
   </g>
   <g id="line2d_83">
    <path clip-path="url(#p063671cc04)" d="M 72 617.921567 
L 339.84 617.921567 
" style="fill:none;stroke:#1351c4;stroke-dasharray:2.2,2.2;stroke-dashoffset:0;stroke-width:1.5;"/>
   </g>
   <g id="line2d_84">
    <path clip-path="url(#p063671cc04)" d="M 75.778426 543.387401 
L 78.920407 548.366581 
L 82.062389 552.869896 
L 85.20437 556.95557 
L 88.346351 560.67323 
L 91.488332 564.065388 
L 94.630313 567.16862 
L 97.772295 570.014534 
L 101.961603 573.45569 
L 106.150911 576.543203 
L 110.340219 579.323497 
L 114.529527 581.835657 
L 118.718836 584.112782 
L 123.955471 586.671183 
L 129.192106 588.952313 
L 134.428742 590.994488 
L 140.712704 593.174296 
L 146.996666 595.101383 
L 153.280629 596.813023 
L 160.611918 598.578266 
L 168.990535 600.338239 
L 177.369151 601.868866 
L 186.795095 603.363507 
L 197.268365 604.791432 
L 208.788963 606.131409 
L 221.356888 607.370542 
L 236.019466 608.582119 
L 252.776699 609.724655 
L 271.628586 610.77228 
L 292.575128 611.712204 
L 317.710977 612.608197 
L 336.562864 613.15446 
L 336.562864 613.15446 
" style="fill:none;stroke:#1351c4;stroke-linecap:square;stroke-width:1.5;"/>
   </g>
   <g id="line2d_85">
    <path clip-path="url(#p063671cc04)" d="M 72 617.593068 
L 339.84 617.593068 
" style="fill:none;stroke:#1351c4;stroke-dasharray:2.2,2.2;stroke-dashoffset:0;stroke-width:1.5;"/>
   </g>
   <g id="line2d_86">
    <g clip-path="url(#p063671cc04)">
     <use style="fill:#39b237;stroke:#39b237;" x="75.778426" xlink:href="#mdb8e65e694" y="60.941858"/>
     <use style="fill:#39b237;stroke:#39b237;" x="99.486102" xlink:href="#mdb8e65e694" y="254.729723"/>
     <use style="fill:#39b237;stroke:#39b237;" x="123.193779" xlink:href="#mdb8e65e694" y="428.502088"/>
     <use style="fill:#39b237;stroke:#39b237;" x="146.901455" xlink:href="#mdb8e65e694" y="461.146085"/>
     <use style="fill:#39b237;stroke:#39b237;" x="170.609131" xlink:href="#mdb8e65e694" y="484.987685"/>
     <use style="fill:#39b237;stroke:#39b237;" x="194.316807" xlink:href="#mdb8e65e694" y="503.472998"/>
     <use style="fill:#39b237;stroke:#39b237;" x="218.024483" xlink:href="#mdb8e65e694" y="517.972277"/>
     <use style="fill:#39b237;stroke:#39b237;" x="241.732159" xlink:href="#mdb8e65e694" y="529.608611"/>
     <use style="fill:#39b237;stroke:#39b237;" x="265.439836" xlink:href="#mdb8e65e694" y="539.219378"/>
     <use style="fill:#39b237;stroke:#39b237;" x="289.147512" xlink:href="#mdb8e65e694" y="547.25281"/>
     <use style="fill:#39b237;stroke:#39b237;" x="312.855188" xlink:href="#mdb8e65e694" y="554.075875"/>
     <use style="fill:#39b237;stroke:#39b237;" x="336.562864" xlink:href="#mdb8e65e694" y="559.946331"/>
    </g>
   </g>
   <g id="line2d_87">
    <path clip-path="url(#p063671cc04)" d="M 75.778426 308.534481 
L 78.920407 320.317034 
L 82.062389 331.318163 
L 85.20437 341.611632 
L 88.346351 351.262294 
L 91.488332 360.327385 
L 94.630313 368.857608 
L 97.772295 376.898033 
L 101.961603 386.925537 
L 106.150911 396.237058 
L 110.340219 404.905193 
L 114.529527 412.993139 
L 118.718836 420.556156 
L 122.908144 427.642766 
L 127.097452 434.295751 
L 131.28676 440.552964 
L 135.476069 446.44802 
L 139.665377 452.010869 
L 143.854685 457.26828 
L 149.09132 463.44684 
L 154.327956 469.227086 
L 159.564591 474.645598 
L 164.801226 479.734653 
L 170.037862 484.522835 
L 175.274497 489.035546 
L 180.511132 493.295433 
L 186.795095 498.101941 
L 193.079057 502.604527 
L 199.363019 506.830584 
L 205.646982 510.804338 
L 212.978271 515.150057 
L 220.30956 519.211684 
L 227.64085 523.015665 
L 234.972139 526.585293 
L 243.350756 530.404215 
L 251.729372 533.970931 
L 260.107989 537.30915 
L 269.533932 540.817396 
L 278.959876 544.088819 
L 289.433146 547.473545 
L 299.906417 550.621092 
L 311.427015 553.837547 
L 322.947612 556.822793 
L 335.515537 559.843377 
L 336.562864 560.084795 
L 336.562864 560.084795 
" style="fill:none;stroke:#39b237;stroke-dasharray:5.6,2.4;stroke-dashoffset:0;stroke-width:1.5;"/>
   </g>
   <g id="line2d_88">
    <path clip-path="url(#p063671cc04)" d="M 72 631.826987 
L 339.84 631.826987 
" style="fill:none;stroke:#39b237;stroke-dasharray:2.2,2.2;stroke-dashoffset:0;stroke-width:1.5;"/>
   </g>
   <g id="line2d_89">
    <path clip-path="url(#p063671cc04)" d="M 75.778426 309.874154 
L 78.920407 321.549574 
L 82.062389 332.453024 
L 85.20437 342.657228 
L 88.346351 352.226136 
L 91.488332 361.216201 
L 94.630313 369.67744 
L 98.819622 380.21263 
L 103.00893 389.978604 
L 107.198238 399.05513 
L 111.387546 407.511418 
L 115.576855 415.407793 
L 119.766163 422.797075 
L 123.955471 429.725702 
L 128.144779 436.234661 
L 132.334087 442.36026 
L 136.523396 448.134776 
L 140.712704 453.586994 
L 145.949339 459.988006 
L 151.185975 465.970041 
L 156.42261 471.572183 
L 161.659245 476.828846 
L 166.89588 481.770448 
L 172.132516 486.42397 
L 177.369151 490.813424 
L 183.653113 495.762229 
L 189.937076 500.394386 
L 196.221038 504.738789 
L 202.505 508.820954 
L 208.788963 512.663493 
L 216.120252 516.870299 
L 223.451542 520.806474 
L 230.782831 524.496845 
L 239.161448 528.441409 
L 247.540064 532.122188 
L 255.91868 535.564306 
L 265.344624 539.178779 
L 274.770568 542.546538 
L 284.196511 545.691553 
L 294.669782 548.950215 
L 305.143052 551.984892 
L 316.66365 555.090401 
L 329.231575 558.229006 
L 336.562864 559.95082 
L 336.562864 559.95082 
" style="fill:none;stroke:#39b237;stroke-linecap:square;stroke-width:1.5;"/>
   </g>
   <g id="line2d_90">
    <path clip-path="url(#p063671cc04)" d="M 72 632.092055 
L 339.84 632.092055 
" style="fill:none;stroke:#39b237;stroke-dasharray:2.2,2.2;stroke-dashoffset:0;stroke-width:1.5;"/>
   </g>
   <g id="line2d_91">
    <path clip-path="url(#p063671cc04)" d="M 72 567.401901 
L 339.84 567.401901 
" style="fill:none;opacity:0.4;stroke:#000000;stroke-linecap:square;stroke-width:1.5;"/>
   </g>
   <g id="patch_12">
    <path d="M 72 640.8 
L 72 388.8 
" style="fill:none;stroke:#ffffff;stroke-linecap:square;stroke-linejoin:miter;"/>
   </g>
   <g id="patch_13">
    <path d="M 339.84 640.8 
L 339.84 388.8 
" style="fill:none;stroke:#ffffff;stroke-linecap:square;stroke-linejoin:miter;"/>
   </g>
   <g id="patch_14">
    <path d="M 72 640.8 
L 339.84 640.8 
" style="fill:none;stroke:#ffffff;stroke-linecap:square;stroke-linejoin:miter;"/>
   </g>
   <g id="patch_15">
    <path d="M 72 388.8 
L 339.84 388.8 
" style="fill:none;stroke:#ffffff;stroke-linecap:square;stroke-linejoin:miter;"/>
   </g>
   <g id="legend_2">
    <g id="patch_16">
     <path d="M 346.84 499.546875 
L 527.605625 499.546875 
Q 529.605625 499.546875 529.605625 497.546875 
L 529.605625 395.8 
Q 529.605625 393.8 527.605625 393.8 
L 346.84 393.8 
Q 344.84 393.8 344.84 395.8 
L 344.84 497.546875 
Q 344.84 499.546875 346.84 499.546875 
z
" style="fill:#e5e5e5;opacity:0.8;stroke:#cccccc;stroke-linejoin:miter;stroke-width:0.5;"/>
    </g>
    <g id="line2d_92"/>
    <g id="line2d_93">
     <g>
      <use style="fill:#1351c4;stroke:#1351c4;" x="358.84" xlink:href="#mb91013c188" y="401.898438"/>
     </g>
    </g>
    <g id="text_30">
     <!-- imsrg -->
     <g transform="translate(376.84 405.398438)scale(0.1 -0.1)">
      <use xlink:href="#DejaVuSans-69"/>
      <use x="27.783203" xlink:href="#DejaVuSans-6d"/>
      <use x="125.195312" xlink:href="#DejaVuSans-73"/>
      <use x="177.294922" xlink:href="#DejaVuSans-72"/>
      <use x="218.392578" xlink:href="#DejaVuSans-67"/>
     </g>
    </g>
    <g id="line2d_94">
     <path d="M 348.84 416.576563 
L 368.84 416.576563 
" style="fill:none;stroke:#1351c4;stroke-dasharray:5.6,2.4;stroke-dashoffset:0;stroke-width:1.5;"/>
    </g>
    <g id="line2d_95"/>
    <g id="text_31">
     <!-- imsrg fixedab fit (b=-2.1) -->
     <defs>
      <path d="M 54.890625 54.6875 
L 35.109375 28.078125 
L 55.90625 0 
L 45.3125 0 
L 29.390625 21.484375 
L 13.484375 0 
L 2.875 0 
L 24.125 28.609375 
L 4.6875 54.6875 
L 15.28125 54.6875 
L 29.78125 35.203125 
L 44.28125 54.6875 
z
" id="DejaVuSans-78"/>
     </defs>
     <g transform="translate(376.84 420.076563)scale(0.1 -0.1)">
      <use xlink:href="#DejaVuSans-69"/>
      <use x="27.783203" xlink:href="#DejaVuSans-6d"/>
      <use x="125.195312" xlink:href="#DejaVuSans-73"/>
      <use x="177.294922" xlink:href="#DejaVuSans-72"/>
      <use x="218.392578" xlink:href="#DejaVuSans-67"/>
      <use x="281.869141" xlink:href="#DejaVuSans-20"/>
      <use x="313.65625" xlink:href="#DejaVuSans-66"/>
      <use x="348.861328" xlink:href="#DejaVuSans-69"/>
      <use x="376.644531" xlink:href="#DejaVuSans-78"/>
      <use x="435.777344" xlink:href="#DejaVuSans-65"/>
      <use x="497.300781" xlink:href="#DejaVuSans-64"/>
      <use x="560.777344" xlink:href="#DejaVuSans-61"/>
      <use x="622.056641" xlink:href="#DejaVuSans-62"/>
      <use x="685.533203" xlink:href="#DejaVuSans-20"/>
      <use x="717.320312" xlink:href="#DejaVuSans-66"/>
      <use x="752.525391" xlink:href="#DejaVuSans-69"/>
      <use x="780.308594" xlink:href="#DejaVuSans-74"/>
      <use x="819.517578" xlink:href="#DejaVuSans-20"/>
      <use x="851.304688" xlink:href="#DejaVuSans-28"/>
      <use x="890.318359" xlink:href="#DejaVuSans-62"/>
      <use x="953.794922" xlink:href="#DejaVuSans-3d"/>
      <use x="1037.583984" xlink:href="#DejaVuSans-2d"/>
      <use x="1073.667969" xlink:href="#DejaVuSans-32"/>
      <use x="1137.291016" xlink:href="#DejaVuSans-2e"/>
      <use x="1169.078125" xlink:href="#DejaVuSans-31"/>
      <use x="1232.701172" xlink:href="#DejaVuSans-29"/>
     </g>
    </g>
    <g id="line2d_96">
     <path d="M 348.84 431.254687 
L 368.84 431.254687 
" style="fill:none;stroke:#1351c4;stroke-linecap:square;stroke-width:1.5;"/>
    </g>
    <g id="line2d_97"/>
    <g id="text_32">
     <!-- imsrg full fit (b=-2.13±0.024) -->
     <g transform="translate(376.84 434.754687)scale(0.1 -0.1)">
      <use xlink:href="#DejaVuSans-69"/>
      <use x="27.783203" xlink:href="#DejaVuSans-6d"/>
      <use x="125.195312" xlink:href="#DejaVuSans-73"/>
      <use x="177.294922" xlink:href="#DejaVuSans-72"/>
      <use x="218.392578" xlink:href="#DejaVuSans-67"/>
      <use x="281.869141" xlink:href="#DejaVuSans-20"/>
      <use x="313.65625" xlink:href="#DejaVuSans-66"/>
      <use x="348.861328" xlink:href="#DejaVuSans-75"/>
      <use x="412.240234" xlink:href="#DejaVuSans-6c"/>
      <use x="440.023438" xlink:href="#DejaVuSans-6c"/>
      <use x="467.806641" xlink:href="#DejaVuSans-20"/>
      <use x="499.59375" xlink:href="#DejaVuSans-66"/>
      <use x="534.798828" xlink:href="#DejaVuSans-69"/>
      <use x="562.582031" xlink:href="#DejaVuSans-74"/>
      <use x="601.791016" xlink:href="#DejaVuSans-20"/>
      <use x="633.578125" xlink:href="#DejaVuSans-28"/>
      <use x="672.591797" xlink:href="#DejaVuSans-62"/>
      <use x="736.068359" xlink:href="#DejaVuSans-3d"/>
      <use x="819.857422" xlink:href="#DejaVuSans-2d"/>
      <use x="855.941406" xlink:href="#DejaVuSans-32"/>
      <use x="919.564453" xlink:href="#DejaVuSans-2e"/>
      <use x="951.351562" xlink:href="#DejaVuSans-31"/>
      <use x="1014.974609" xlink:href="#DejaVuSans-33"/>
      <use x="1078.597656" xlink:href="#DejaVuSans-b1"/>
      <use x="1162.386719" xlink:href="#DejaVuSans-30"/>
      <use x="1226.009766" xlink:href="#DejaVuSans-2e"/>
      <use x="1257.796875" xlink:href="#DejaVuSans-30"/>
      <use x="1321.419922" xlink:href="#DejaVuSans-32"/>
      <use x="1385.042969" xlink:href="#DejaVuSans-34"/>
      <use x="1448.666016" xlink:href="#DejaVuSans-29"/>
     </g>
    </g>
    <g id="line2d_98"/>
    <g id="line2d_99">
     <g>
      <use style="fill:#39b237;stroke:#39b237;" x="358.84" xlink:href="#mdb8e65e694" y="445.932813"/>
     </g>
    </g>
    <g id="text_33">
     <!-- mp2 -->
     <g transform="translate(376.84 449.432813)scale(0.1 -0.1)">
      <use xlink:href="#DejaVuSans-6d"/>
      <use x="97.412109" xlink:href="#DejaVuSans-70"/>
      <use x="160.888672" xlink:href="#DejaVuSans-32"/>
     </g>
    </g>
    <g id="line2d_100">
     <path d="M 348.84 460.610937 
L 368.84 460.610937 
" style="fill:none;stroke:#39b237;stroke-dasharray:5.6,2.4;stroke-dashoffset:0;stroke-width:1.5;"/>
    </g>
    <g id="line2d_101"/>
    <g id="text_34">
     <!-- mp2 fixedab fit (b=-1.14) -->
     <g transform="translate(376.84 464.110937)scale(0.1 -0.1)">
      <use xlink:href="#DejaVuSans-6d"/>
      <use x="97.412109" xlink:href="#DejaVuSans-70"/>
      <use x="160.888672" xlink:href="#DejaVuSans-32"/>
      <use x="224.511719" xlink:href="#DejaVuSans-20"/>
      <use x="256.298828" xlink:href="#DejaVuSans-66"/>
      <use x="291.503906" xlink:href="#DejaVuSans-69"/>
      <use x="319.287109" xlink:href="#DejaVuSans-78"/>
      <use x="378.419922" xlink:href="#DejaVuSans-65"/>
      <use x="439.943359" xlink:href="#DejaVuSans-64"/>
      <use x="503.419922" xlink:href="#DejaVuSans-61"/>
      <use x="564.699219" xlink:href="#DejaVuSans-62"/>
      <use x="628.175781" xlink:href="#DejaVuSans-20"/>
      <use x="659.962891" xlink:href="#DejaVuSans-66"/>
      <use x="695.167969" xlink:href="#DejaVuSans-69"/>
      <use x="722.951172" xlink:href="#DejaVuSans-74"/>
      <use x="762.160156" xlink:href="#DejaVuSans-20"/>
      <use x="793.947266" xlink:href="#DejaVuSans-28"/>
      <use x="832.960938" xlink:href="#DejaVuSans-62"/>
      <use x="896.4375" xlink:href="#DejaVuSans-3d"/>
      <use x="980.226562" xlink:href="#DejaVuSans-2d"/>
      <use x="1016.310547" xlink:href="#DejaVuSans-31"/>
      <use x="1079.933594" xlink:href="#DejaVuSans-2e"/>
      <use x="1111.720703" xlink:href="#DejaVuSans-31"/>
      <use x="1175.34375" xlink:href="#DejaVuSans-34"/>
      <use x="1238.966797" xlink:href="#DejaVuSans-29"/>
     </g>
    </g>
    <g id="line2d_102">
     <path d="M 348.84 475.289062 
L 368.84 475.289062 
" style="fill:none;stroke:#39b237;stroke-linecap:square;stroke-width:1.5;"/>
    </g>
    <g id="line2d_103"/>
    <g id="text_35">
     <!-- mp2 full fit (b=-1.13±0.003) -->
     <g transform="translate(376.84 478.789062)scale(0.1 -0.1)">
      <use xlink:href="#DejaVuSans-6d"/>
      <use x="97.412109" xlink:href="#DejaVuSans-70"/>
      <use x="160.888672" xlink:href="#DejaVuSans-32"/>
      <use x="224.511719" xlink:href="#DejaVuSans-20"/>
      <use x="256.298828" xlink:href="#DejaVuSans-66"/>
      <use x="291.503906" xlink:href="#DejaVuSans-75"/>
      <use x="354.882812" xlink:href="#DejaVuSans-6c"/>
      <use x="382.666016" xlink:href="#DejaVuSans-6c"/>
      <use x="410.449219" xlink:href="#DejaVuSans-20"/>
      <use x="442.236328" xlink:href="#DejaVuSans-66"/>
      <use x="477.441406" xlink:href="#DejaVuSans-69"/>
      <use x="505.224609" xlink:href="#DejaVuSans-74"/>
      <use x="544.433594" xlink:href="#DejaVuSans-20"/>
      <use x="576.220703" xlink:href="#DejaVuSans-28"/>
      <use x="615.234375" xlink:href="#DejaVuSans-62"/>
      <use x="678.710938" xlink:href="#DejaVuSans-3d"/>
      <use x="762.5" xlink:href="#DejaVuSans-2d"/>
      <use x="798.583984" xlink:href="#DejaVuSans-31"/>
      <use x="862.207031" xlink:href="#DejaVuSans-2e"/>
      <use x="893.994141" xlink:href="#DejaVuSans-31"/>
      <use x="957.617188" xlink:href="#DejaVuSans-33"/>
      <use x="1021.240234" xlink:href="#DejaVuSans-b1"/>
      <use x="1105.029297" xlink:href="#DejaVuSans-30"/>
      <use x="1168.652344" xlink:href="#DejaVuSans-2e"/>
      <use x="1200.439453" xlink:href="#DejaVuSans-30"/>
      <use x="1264.0625" xlink:href="#DejaVuSans-30"/>
      <use x="1327.685547" xlink:href="#DejaVuSans-33"/>
      <use x="1391.308594" xlink:href="#DejaVuSans-29"/>
     </g>
    </g>
    <g id="patch_17">
     <path d="M 348.84 493.467188 
L 368.84 493.467188 
L 368.84 486.467188 
L 348.84 486.467188 
z
" style="opacity:0.4;stroke:#000000;stroke-linejoin:miter;stroke-width:0.5;"/>
    </g>
    <g id="text_36">
     <!-- DMC/exact -->
     <defs>
      <path d="M 19.671875 64.796875 
L 19.671875 8.109375 
L 31.59375 8.109375 
Q 46.6875 8.109375 53.6875 14.9375 
Q 60.6875 21.78125 60.6875 36.53125 
Q 60.6875 51.171875 53.6875 57.984375 
Q 46.6875 64.796875 31.59375 64.796875 
z
M 9.8125 72.90625 
L 30.078125 72.90625 
Q 51.265625 72.90625 61.171875 64.09375 
Q 71.09375 55.28125 71.09375 36.53125 
Q 71.09375 17.671875 61.125 8.828125 
Q 51.171875 0 30.078125 0 
L 9.8125 0 
z
" id="DejaVuSans-44"/>
      <path d="M 9.8125 72.90625 
L 24.515625 72.90625 
L 43.109375 23.296875 
L 61.8125 72.90625 
L 76.515625 72.90625 
L 76.515625 0 
L 66.890625 0 
L 66.890625 64.015625 
L 48.09375 14.015625 
L 38.1875 14.015625 
L 19.390625 64.015625 
L 19.390625 0 
L 9.8125 0 
z
" id="DejaVuSans-4d"/>
      <path d="M 64.40625 67.28125 
L 64.40625 56.890625 
Q 59.421875 61.53125 53.78125 63.8125 
Q 48.140625 66.109375 41.796875 66.109375 
Q 29.296875 66.109375 22.65625 58.46875 
Q 16.015625 50.828125 16.015625 36.375 
Q 16.015625 21.96875 22.65625 14.328125 
Q 29.296875 6.6875 41.796875 6.6875 
Q 48.140625 6.6875 53.78125 8.984375 
Q 59.421875 11.28125 64.40625 15.921875 
L 64.40625 5.609375 
Q 59.234375 2.09375 53.4375 0.328125 
Q 47.65625 -1.421875 41.21875 -1.421875 
Q 24.65625 -1.421875 15.125 8.703125 
Q 5.609375 18.84375 5.609375 36.375 
Q 5.609375 53.953125 15.125 64.078125 
Q 24.65625 74.21875 41.21875 74.21875 
Q 47.75 74.21875 53.53125 72.484375 
Q 59.328125 70.75 64.40625 67.28125 
" id="DejaVuSans-43"/>
     </defs>
     <g transform="translate(376.84 493.467188)scale(0.1 -0.1)">
      <use xlink:href="#DejaVuSans-44"/>
      <use x="77.001953" xlink:href="#DejaVuSans-4d"/>
      <use x="163.28125" xlink:href="#DejaVuSans-43"/>
      <use x="233.105469" xlink:href="#DejaVuSans-2f"/>
      <use x="266.796875" xlink:href="#DejaVuSans-65"/>
      <use x="328.304688" xlink:href="#DejaVuSans-78"/>
      <use x="387.484375" xlink:href="#DejaVuSans-61"/>
      <use x="448.763672" xlink:href="#DejaVuSans-63"/>
      <use x="503.744141" xlink:href="#DejaVuSans-74"/>
     </g>
    </g>
   </g>
  </g>
 </g>
 <defs>
  <clipPath id="p497d6f0300">
   <rect height="252" width="267.84" x="72" y="86.4"/>
  </clipPath>
  <clipPath id="p063671cc04">
   <rect height="252" width="267.84" x="72" y="388.8"/>
  </clipPath>
 </defs>
</svg>
