<?xml version="1.0" encoding="utf-8" standalone="no"?>
<!DOCTYPE svg PUBLIC "-//W3C//DTD SVG 1.1//EN"
  "http://www.w3.org/Graphics/SVG/1.1/DTD/svg11.dtd">
<!-- Created with matplotlib (http://matplotlib.org/) -->
<svg height="194pt" version="1.1" viewBox="0 0 230 194" width="230pt" xmlns="http://www.w3.org/2000/svg" xmlns:xlink="http://www.w3.org/1999/xlink">
 <defs>
  <style type="text/css">
*{stroke-linecap:butt;stroke-linejoin:round;}
  </style>
 </defs>
 <g id="figure_1">
  <g id="patch_1">
   <path d="M 0 194.4 
L 230.4 194.4 
L 230.4 0 
L 0 0 
z
" style="fill:#ffffff;"/>
  </g>
  <g id="axes_1">
   <g id="patch_2">
    <path d="M 52.76 152.44 
L 217.08 152.44 
L 217.08 13.32 
L 52.76 13.32 
z
" style="fill:#ffffff;"/>
   </g>
   <g id="matplotlib.axis_1">
    <g id="xtick_1">
     <g id="line2d_1">
      <defs>
       <path d="M 0 0 
L 0 3.5 
" id="m952e0415a4" style="stroke:#000000;stroke-width:0.8;"/>
      </defs>
      <g>
       <use style="stroke:#000000;stroke-width:0.8;" x="60.229091" xlink:href="#m952e0415a4" y="152.44"/>
      </g>
     </g>
     <g id="text_1">
      <!-- 4 -->
      <defs>
       <path d="M 33.90625 24.09375 
L 33.90625 58.796875 
L 33.703125 58.796875 
L 10.09375 24.09375 
z
M 41.90625 24.09375 
L 51.5 24.09375 
L 51.5 16.59375 
L 41.90625 16.59375 
L 41.90625 0 
L 33.90625 0 
L 33.90625 16.59375 
L 2.796875 16.59375 
L 2.796875 24.796875 
L 35.09375 70.90625 
L 41.90625 70.90625 
z
" id="HelveticaNeue-34"/>
      </defs>
      <g transform="translate(57.449403 166.580625)scale(0.1 -0.1)">
       <use xlink:href="#HelveticaNeue-34"/>
      </g>
     </g>
    </g>
    <g id="xtick_2">
     <g id="line2d_2">
      <g>
       <use style="stroke:#000000;stroke-width:0.8;" x="87.389421" xlink:href="#m952e0415a4" y="152.44"/>
      </g>
     </g>
     <g id="text_2">
      <!-- 6 -->
      <defs>
       <path d="M 41.40625 52.796875 
C 41 56 39.703125 58.5 37.703125 60.5 
C 35.59375 62.40625 32.90625 63.40625 29.5 63.40625 
C 25.90625 63.40625 23 62.5 20.796875 60.703125 
C 18.59375 58.90625 16.796875 56.703125 15.59375 54 
C 14.40625 51.296875 13.5 48.40625 13.09375 45.296875 
C 12.59375 42.09375 12.296875 39.203125 12.296875 36.5 
L 12.5 36.296875 
C 14.5 39.5 16.90625 41.90625 19.90625 43.40625 
C 22.90625 44.796875 26.296875 45.59375 30.203125 45.59375 
C 33.59375 45.59375 36.59375 45 39.296875 43.796875 
C 42 42.59375 44.296875 41 46.09375 39 
C 47.90625 36.90625 49.40625 34.5 50.40625 31.703125 
C 51.40625 28.90625 51.90625 25.796875 51.90625 22.59375 
C 51.90625 20 51.5 17.296875 50.703125 14.5 
C 49.90625 11.703125 48.5 9.09375 46.703125 6.796875 
C 44.90625 4.5 42.40625 2.59375 39.40625 1.09375 
C 36.40625 -0.40625 32.59375 -1.09375 28.203125 -1.09375 
C 22.90625 -1.09375 18.703125 -0.09375 15.5 2.09375 
C 12.296875 4.203125 9.796875 6.90625 8.09375 10.296875 
C 6.296875 13.59375 5.203125 17.296875 4.59375 21.296875 
C 4 25.296875 3.796875 29.09375 3.796875 32.90625 
C 3.796875 37.703125 4.203125 42.40625 5 47 
C 5.796875 51.59375 7.296875 55.59375 9.296875 59.203125 
C 11.296875 62.703125 13.90625 65.5 17.296875 67.703125 
C 20.59375 69.796875 24.796875 70.90625 29.90625 70.90625 
C 35.703125 70.90625 40.40625 69.296875 43.90625 66.203125 
C 47.296875 63.09375 49.296875 58.59375 49.90625 52.796875 
z
M 28.59375 38.09375 
C 26.203125 38.09375 24.09375 37.59375 22.296875 36.796875 
C 20.5 36 18.90625 34.796875 17.703125 33.40625 
C 16.40625 32 15.40625 30.296875 14.796875 28.296875 
C 14.203125 26.296875 13.90625 24.296875 13.90625 22.09375 
C 13.90625 19.90625 14.203125 17.796875 14.90625 15.90625 
C 15.5 13.90625 16.5 12.296875 17.703125 10.90625 
C 18.90625 9.5 20.5 8.296875 22.296875 7.5 
C 24.09375 6.703125 26.203125 6.296875 28.59375 6.296875 
C 30.90625 6.296875 32.90625 6.703125 34.703125 7.5 
C 36.5 8.296875 38 9.5 39.203125 11 
C 40.40625 12.40625 41.296875 14.09375 41.90625 16 
C 42.5 17.90625 42.90625 19.90625 42.90625 22 
C 42.90625 24.203125 42.59375 26.203125 42 28.203125 
C 41.40625 30.203125 40.59375 31.90625 39.40625 33.296875 
C 38.203125 34.703125 36.703125 35.90625 34.90625 36.796875 
C 33.09375 37.59375 31 38.09375 28.59375 38.09375 
z
" id="HelveticaNeue-36"/>
      </defs>
      <g transform="translate(84.609734 166.580625)scale(0.1 -0.1)">
       <use xlink:href="#HelveticaNeue-36"/>
      </g>
     </g>
    </g>
    <g id="xtick_3">
     <g id="line2d_3">
      <g>
       <use style="stroke:#000000;stroke-width:0.8;" x="114.549752" xlink:href="#m952e0415a4" y="152.44"/>
      </g>
     </g>
     <g id="text_3">
      <!-- 8 -->
      <defs>
       <path d="M 15.5 52.5 
C 15.5 50.5 15.796875 48.796875 16.5 47.40625 
C 17.09375 46 18 44.796875 19.203125 43.90625 
C 20.296875 42.90625 21.59375 42.203125 23.203125 41.796875 
C 24.703125 41.296875 26.296875 41.09375 28.09375 41.09375 
C 31.5 41.09375 34.296875 42.09375 36.5 44.09375 
C 38.703125 46.09375 39.796875 48.90625 39.796875 52.5 
C 39.796875 56.09375 38.59375 58.796875 36.40625 60.59375 
C 34.203125 62.40625 31.296875 63.40625 27.90625 63.40625 
C 26.203125 63.40625 24.59375 63.09375 23.09375 62.703125 
C 21.5 62.203125 20.203125 61.5 19.09375 60.59375 
C 18 59.59375 17.09375 58.5 16.5 57.203125 
C 15.796875 55.796875 15.5 54.296875 15.5 52.5 
z
M 6.5 52.796875 
C 6.5 55.703125 7 58.296875 8.203125 60.5 
C 9.296875 62.703125 10.796875 64.59375 12.796875 66.203125 
C 14.703125 67.703125 16.90625 68.90625 19.40625 69.703125 
C 21.90625 70.5 24.5 70.90625 27.296875 70.90625 
C 31.09375 70.90625 34.40625 70.296875 37.203125 69.296875 
C 39.90625 68.296875 42.09375 66.90625 43.796875 65.203125 
C 45.5 63.5 46.796875 61.59375 47.59375 59.40625 
C 48.40625 57.203125 48.796875 55 48.796875 52.796875 
C 48.796875 49.59375 47.90625 46.59375 46.09375 44 
C 44.296875 41.40625 42 39.40625 39 38.09375 
C 43.203125 36.703125 46.40625 34.5 48.5 31.5 
C 50.5 28.5 51.59375 24.796875 51.59375 20.40625 
C 51.59375 16.90625 50.90625 13.796875 49.703125 11.203125 
C 48.5 8.5 46.796875 6.203125 44.703125 4.40625 
C 42.59375 2.59375 40.09375 1.203125 37.296875 0.296875 
C 34.40625 -0.703125 31.296875 -1.09375 28.09375 -1.09375 
C 24.703125 -1.09375 21.5 -0.703125 18.59375 0.203125 
C 15.59375 1 13.09375 2.40625 10.90625 4.203125 
C 8.703125 6 7 8.203125 5.796875 10.90625 
C 4.59375 13.59375 4 16.796875 4 20.40625 
C 4 24.59375 5 28.203125 7.203125 31.296875 
C 9.296875 34.40625 12.40625 36.703125 16.40625 38.09375 
C 13.40625 39.296875 11 41.203125 9.203125 43.90625 
C 7.40625 46.59375 6.5 49.59375 6.5 52.796875 
z
M 13 20 
C 13 15.703125 14.40625 12.296875 17.203125 9.90625 
C 20 7.5 23.703125 6.296875 28.09375 6.296875 
C 30.203125 6.296875 32.09375 6.59375 33.90625 7.296875 
C 35.703125 8 37.203125 9 38.5 10.203125 
C 39.796875 11.40625 40.796875 12.90625 41.5 14.59375 
C 42.203125 16.203125 42.59375 18.09375 42.59375 20.09375 
C 42.59375 22 42.203125 23.796875 41.40625 25.40625 
C 40.59375 27 39.59375 28.5 38.296875 29.703125 
C 36.90625 30.90625 35.40625 31.796875 33.59375 32.5 
C 31.796875 33.203125 30 33.59375 28 33.59375 
C 25.90625 33.59375 23.90625 33.203125 22.09375 32.59375 
C 20.296875 32 18.703125 31.09375 17.296875 29.90625 
C 15.90625 28.703125 14.90625 27.203125 14.09375 25.59375 
C 13.296875 23.90625 13 22 13 20 
z
" id="HelveticaNeue-38"/>
      </defs>
      <g transform="translate(111.770065 166.580625)scale(0.1 -0.1)">
       <use xlink:href="#HelveticaNeue-38"/>
      </g>
     </g>
    </g>
    <g id="xtick_4">
     <g id="line2d_4">
      <g>
       <use style="stroke:#000000;stroke-width:0.8;" x="141.710083" xlink:href="#m952e0415a4" y="152.44"/>
      </g>
     </g>
     <g id="text_4">
      <!-- 10 -->
      <defs>
       <path d="M 35.59375 0 
L 27.09375 0 
L 27.09375 50.796875 
L 8.703125 50.796875 
L 8.703125 57.59375 
C 11.09375 57.59375 13.40625 57.703125 15.703125 58.09375 
C 17.90625 58.5 20 59.203125 21.796875 60.203125 
C 23.59375 61.203125 25.203125 62.5 26.5 64.296875 
C 27.703125 66 28.59375 68.203125 29.09375 70.90625 
L 35.59375 70.90625 
z
" id="HelveticaNeue-31"/>
       <path d="M 13.203125 34.90625 
C 13.203125 32.203125 13.203125 29.203125 13.40625 25.90625 
C 13.59375 22.59375 14.09375 19.5 15 16.59375 
C 15.90625 13.703125 17.40625 11.296875 19.40625 9.296875 
C 21.40625 7.296875 24.203125 6.296875 27.796875 6.296875 
C 31.40625 6.296875 34.203125 7.296875 36.203125 9.296875 
C 38.203125 11.296875 39.59375 13.703125 40.5 16.59375 
C 41.40625 19.5 41.90625 22.59375 42.09375 25.90625 
C 42.296875 29.203125 42.40625 32.203125 42.40625 34.90625 
C 42.40625 36.59375 42.296875 38.5 42.296875 40.59375 
C 42.296875 42.703125 42.09375 44.796875 41.796875 46.90625 
C 41.5 49 41.09375 51.09375 40.5 53.09375 
C 39.90625 55.09375 39.09375 56.796875 38 58.296875 
C 36.90625 59.796875 35.5 61 33.90625 62 
C 32.203125 62.90625 30.203125 63.40625 27.796875 63.40625 
C 25.40625 63.40625 23.296875 62.90625 21.703125 62 
C 20 61 18.59375 59.796875 17.5 58.296875 
C 16.40625 56.796875 15.59375 55.09375 15 53.09375 
C 14.40625 51.09375 14 49 13.703125 46.90625 
C 13.40625 44.796875 13.203125 42.703125 13.203125 40.59375 
C 13.203125 38.5 13.203125 36.59375 13.203125 34.90625 
z
M 4.203125 34.796875 
C 4.203125 37.40625 4.203125 40.09375 4.40625 42.90625 
C 4.5 45.703125 4.796875 48.40625 5.40625 51.09375 
C 5.90625 53.703125 6.703125 56.296875 7.703125 58.703125 
C 8.703125 61.09375 10 63.203125 11.796875 65 
C 13.5 66.796875 15.703125 68.203125 18.296875 69.296875 
C 20.90625 70.296875 24.09375 70.90625 27.796875 70.90625 
C 31.40625 70.90625 34.59375 70.296875 37.203125 69.296875 
C 39.796875 68.203125 42 66.796875 43.796875 65 
C 45.5 63.203125 46.90625 61.09375 47.90625 58.703125 
C 48.90625 56.296875 49.59375 53.703125 50.203125 51.09375 
C 50.703125 48.40625 51 45.703125 51.203125 42.90625 
C 51.296875 40.09375 51.40625 37.40625 51.40625 34.796875 
C 51.40625 32.203125 51.296875 29.5 51.203125 26.703125 
C 51 23.90625 50.703125 21.09375 50.203125 18.5 
C 49.59375 15.796875 48.90625 13.296875 47.90625 10.90625 
C 46.90625 8.5 45.5 6.5 43.796875 4.703125 
C 42 2.90625 39.90625 1.40625 37.296875 0.40625 
C 34.703125 -0.59375 31.5 -1.09375 27.796875 -1.09375 
C 24.09375 -1.09375 20.90625 -0.59375 18.296875 0.40625 
C 15.703125 1.40625 13.5 2.90625 11.796875 4.703125 
C 10 6.5 8.703125 8.5 7.703125 10.90625 
C 6.703125 13.296875 5.90625 15.796875 5.40625 18.5 
C 4.796875 21.09375 4.5 23.90625 4.40625 26.703125 
C 4.203125 29.5 4.203125 32.203125 4.203125 34.796875 
z
" id="HelveticaNeue-30"/>
      </defs>
      <g transform="translate(136.150708 166.580625)scale(0.1 -0.1)">
       <use xlink:href="#HelveticaNeue-31"/>
       <use x="55.599991" xlink:href="#HelveticaNeue-30"/>
      </g>
     </g>
    </g>
    <g id="xtick_5">
     <g id="line2d_5">
      <g>
       <use style="stroke:#000000;stroke-width:0.8;" x="168.870413" xlink:href="#m952e0415a4" y="152.44"/>
      </g>
     </g>
     <g id="text_5">
      <!-- 12 -->
      <defs>
       <path d="M 4.40625 45.796875 
C 4.203125 49.40625 4.5 52.703125 5.5 55.796875 
C 6.40625 58.796875 7.796875 61.5 9.796875 63.703125 
C 11.796875 65.90625 14.203125 67.703125 17.203125 69 
C 20.09375 70.203125 23.40625 70.90625 27.203125 70.90625 
C 30.203125 70.90625 33.09375 70.40625 35.796875 69.5 
C 38.5 68.59375 40.90625 67.296875 42.90625 65.59375 
C 44.90625 63.90625 46.40625 61.796875 47.59375 59.296875 
C 48.796875 56.703125 49.40625 53.796875 49.40625 50.5 
C 49.40625 47.296875 48.90625 44.59375 47.90625 42.203125 
C 46.90625 39.796875 45.703125 37.59375 44.09375 35.703125 
C 42.5 33.796875 40.59375 32.09375 38.59375 30.59375 
C 36.5 29 34.40625 27.59375 32.203125 26.203125 
C 30 24.796875 27.796875 23.5 25.59375 22.203125 
C 23.40625 20.90625 21.296875 19.5 19.5 18.09375 
C 17.703125 16.59375 16.09375 15 14.796875 13.296875 
C 13.5 11.59375 12.703125 9.703125 12.296875 7.5 
L 48.703125 7.5 
L 48.703125 0 
L 2.40625 0 
C 2.703125 4.203125 3.40625 7.703125 4.59375 10.703125 
C 5.796875 13.703125 7.296875 16.296875 9.09375 18.5 
C 10.90625 20.703125 12.90625 22.59375 15.203125 24.296875 
C 17.40625 25.90625 19.796875 27.5 22.296875 29 
C 25.296875 30.796875 27.90625 32.5 30.203125 34.09375 
C 32.40625 35.703125 34.296875 37.296875 35.796875 38.90625 
C 37.296875 40.5 38.40625 42.203125 39.203125 44.09375 
C 40 45.90625 40.40625 48.09375 40.40625 50.59375 
C 40.40625 52.5 40 54.203125 39.296875 55.796875 
C 38.5 57.40625 37.5 58.703125 36.296875 59.90625 
C 35.09375 61 33.59375 61.90625 32 62.5 
C 30.296875 63.09375 28.5 63.40625 26.703125 63.40625 
C 24.203125 63.40625 22.09375 62.796875 20.296875 61.796875 
C 18.5 60.796875 17.09375 59.40625 16 57.796875 
C 14.796875 56.09375 14 54.203125 13.5 52.09375 
C 13 50 12.796875 47.90625 12.90625 45.796875 
z
" id="HelveticaNeue-32"/>
      </defs>
      <g transform="translate(163.311038 166.580625)scale(0.1 -0.1)">
       <use xlink:href="#HelveticaNeue-31"/>
       <use x="55.599991" xlink:href="#HelveticaNeue-32"/>
      </g>
     </g>
    </g>
    <g id="xtick_6">
     <g id="line2d_6">
      <g>
       <use style="stroke:#000000;stroke-width:0.8;" x="196.030744" xlink:href="#m952e0415a4" y="152.44"/>
      </g>
     </g>
     <g id="text_6">
      <!-- 14 -->
      <g transform="translate(190.471369 166.580625)scale(0.1 -0.1)">
       <use xlink:href="#HelveticaNeue-31"/>
       <use x="55.599991" xlink:href="#HelveticaNeue-34"/>
      </g>
     </g>
    </g>
    <g id="text_7">
     <!-- $K$ (number of shells) -->
     <defs>
      <path d="M 72.90625 66.203125 
L 72.40625 64.5 
L 34.59375 35.703125 
L 63 0 
L 51.09375 0 
L 27 30.203125 
L 22.796875 26.90625 
L 16.09375 0 
L 7.40625 0 
L 23.90625 66.203125 
L 32.59375 66.203125 
L 25.40625 37.5 
L 63.40625 66.203125 
z
" id="STIXGeneral-Italic-1d612"/>
      <path id="HelveticaNeue-20"/>
      <path d="M 20.40625 -19.703125 
C 18 -16 15.796875 -12.296875 13.90625 -8.59375 
C 11.90625 -4.90625 10.296875 -1.09375 8.90625 2.703125 
C 7.5 6.5 6.5 10.40625 5.796875 14.40625 
C 5 18.40625 4.703125 22.59375 4.703125 27 
C 4.703125 34.796875 6 42.796875 8.59375 50.796875 
C 11.203125 58.796875 15.203125 66.203125 20.40625 73.09375 
L 26.90625 73.09375 
C 22.09375 65.5 18.703125 57.90625 16.703125 50.5 
C 14.703125 43 13.703125 35.203125 13.703125 27 
C 13.703125 18.59375 14.703125 10.59375 16.703125 3.09375 
C 18.703125 -4.5 22.09375 -12.09375 26.90625 -19.703125 
z
" id="HelveticaNeue-28"/>
      <path d="M 6.40625 51.703125 
L 14.40625 51.703125 
L 14.40625 43.5 
L 14.59375 43.5 
C 18.09375 49.703125 23.703125 52.90625 31.40625 52.90625 
C 34.796875 52.90625 37.59375 52.40625 39.90625 51.5 
C 42.09375 50.5 44 49.203125 45.40625 47.59375 
C 46.796875 45.90625 47.703125 43.90625 48.296875 41.59375 
C 48.90625 39.296875 49.203125 36.796875 49.203125 34 
L 49.203125 0 
L 40.703125 0 
L 40.703125 35 
C 40.703125 38.203125 39.703125 40.703125 37.90625 42.59375 
C 36 44.40625 33.40625 45.40625 30.203125 45.40625 
C 27.59375 45.40625 25.296875 45 23.40625 44.203125 
C 21.5 43.40625 19.90625 42.203125 18.703125 40.796875 
C 17.40625 39.296875 16.40625 37.59375 15.796875 35.59375 
C 15.203125 33.59375 14.90625 31.5 14.90625 29.203125 
L 14.90625 0 
L 6.40625 0 
z
" id="HelveticaNeue-6e"/>
      <path d="M 49.203125 0 
L 41.203125 0 
L 41.203125 8.203125 
L 41 8.203125 
C 39.203125 5 36.90625 2.59375 34.09375 1.09375 
C 31.296875 -0.40625 28 -1.09375 24.203125 -1.09375 
C 20.796875 -1.09375 17.90625 -0.703125 15.703125 0.203125 
C 13.40625 1.09375 11.59375 2.40625 10.203125 4.09375 
C 8.796875 5.703125 7.796875 7.703125 7.203125 10 
C 6.59375 12.296875 6.40625 14.90625 6.40625 17.703125 
L 6.40625 51.703125 
L 14.90625 51.703125 
L 14.90625 16.703125 
C 14.90625 13.5 15.796875 10.90625 17.703125 9.09375 
C 19.5 7.203125 22.09375 6.296875 25.40625 6.296875 
C 28 6.296875 30.203125 6.703125 32.09375 7.5 
C 34 8.296875 35.59375 9.40625 36.90625 10.90625 
C 38.09375 12.296875 39.09375 14 39.703125 16 
C 40.296875 18 40.703125 20.09375 40.703125 22.5 
L 40.703125 51.703125 
L 49.203125 51.703125 
z
" id="HelveticaNeue-75"/>
      <path d="M 6.40625 51.703125 
L 14.40625 51.703125 
L 14.40625 44.09375 
L 14.59375 44.09375 
C 18.40625 49.90625 24 52.90625 31.296875 52.90625 
C 34.5 52.90625 37.40625 52.203125 40 50.90625 
C 42.59375 49.5 44.40625 47.296875 45.5 44.09375 
C 47.203125 46.90625 49.5 49 52.296875 50.59375 
C 55.09375 52.09375 58.296875 52.90625 61.703125 52.90625 
C 64.296875 52.90625 66.59375 52.59375 68.703125 52 
C 70.796875 51.40625 72.59375 50.59375 74.09375 49.40625 
C 75.59375 48.203125 76.796875 46.59375 77.59375 44.703125 
C 78.40625 42.796875 78.90625 40.5 78.90625 37.90625 
L 78.90625 0 
L 70.40625 0 
L 70.40625 33.90625 
C 70.40625 35.5 70.203125 37 70 38.40625 
C 69.703125 39.796875 69.203125 41 68.5 42 
C 67.703125 43 66.703125 43.90625 65.40625 44.5 
C 64.09375 45.09375 62.40625 45.40625 60.40625 45.40625 
C 56.203125 45.40625 52.90625 44.203125 50.5 41.796875 
C 48.09375 39.40625 46.90625 36.203125 46.90625 32.203125 
L 46.90625 0 
L 38.40625 0 
L 38.40625 33.90625 
C 38.40625 35.5 38.203125 37.09375 37.90625 38.5 
C 37.59375 39.90625 37.09375 41.09375 36.40625 42.09375 
C 35.59375 43.09375 34.59375 43.90625 33.40625 44.5 
C 32.203125 45.09375 30.59375 45.40625 28.703125 45.40625 
C 26.203125 45.40625 24.09375 44.90625 22.296875 43.90625 
C 20.5 42.90625 19.09375 41.703125 18 40.296875 
C 16.90625 38.90625 16.09375 37.40625 15.59375 35.90625 
C 15.09375 34.40625 14.90625 33.203125 14.90625 32.203125 
L 14.90625 0 
L 6.40625 0 
z
" id="HelveticaNeue-6d"/>
      <path d="M 6.703125 71.40625 
L 15.203125 71.40625 
L 15.203125 44.703125 
L 15.40625 44.703125 
C 16.796875 47.5 19 49.59375 22 50.90625 
C 25 52.203125 28.296875 52.90625 31.90625 52.90625 
C 35.90625 52.90625 39.296875 52.09375 42.296875 50.703125 
C 45.296875 49.203125 47.703125 47.203125 49.703125 44.703125 
C 51.703125 42.203125 53.203125 39.296875 54.203125 36.09375 
C 55.203125 32.796875 55.703125 29.296875 55.703125 25.703125 
C 55.703125 22 55.203125 18.5 54.203125 15.296875 
C 53.203125 12 51.796875 9.09375 49.796875 6.703125 
C 47.796875 4.296875 45.40625 2.40625 42.40625 1 
C 39.40625 -0.40625 36 -1.09375 32.09375 -1.09375 
C 30.796875 -1.09375 29.40625 -1 27.796875 -0.703125 
C 26.203125 -0.5 24.703125 0 23.203125 0.59375 
C 21.59375 1.203125 20.203125 2 18.796875 3 
C 17.40625 4 16.296875 5.296875 15.40625 6.90625 
L 15.203125 6.90625 
L 15.203125 0 
L 6.703125 0 
z
M 46.703125 26.296875 
C 46.703125 28.703125 46.296875 31 45.703125 33.296875 
C 45.09375 35.59375 44.09375 37.703125 42.796875 39.5 
C 41.5 41.296875 39.796875 42.703125 37.796875 43.796875 
C 35.796875 44.796875 33.40625 45.40625 30.703125 45.40625 
C 27.796875 45.40625 25.40625 44.796875 23.40625 43.703125 
C 21.40625 42.5 19.703125 41 18.5 39.203125 
C 17.203125 37.40625 16.296875 35.296875 15.703125 33 
C 15.09375 30.59375 14.90625 28.296875 14.90625 25.90625 
C 14.90625 23.296875 15.203125 20.90625 15.796875 18.5 
C 16.40625 16.09375 17.296875 14.09375 18.59375 12.296875 
C 19.90625 10.5 21.59375 9 23.703125 7.90625 
C 25.703125 6.796875 28.203125 6.296875 31.203125 6.296875 
C 34.09375 6.296875 36.5 6.796875 38.5 8 
C 40.5 9.09375 42.09375 10.59375 43.296875 12.5 
C 44.5 14.296875 45.296875 16.5 45.90625 18.90625 
C 46.40625 21.296875 46.703125 23.703125 46.703125 26.296875 
z
" id="HelveticaNeue-62"/>
      <path d="M 42.296875 30.796875 
C 42.09375 32.796875 41.703125 34.703125 40.90625 36.5 
C 40.09375 38.296875 39.09375 39.796875 37.796875 41.09375 
C 36.5 42.40625 35 43.40625 33.203125 44.203125 
C 31.40625 45 29.5 45.40625 27.40625 45.40625 
C 25.203125 45.40625 23.203125 45 21.40625 44.203125 
C 19.59375 43.40625 18.09375 42.40625 16.90625 41.09375 
C 15.59375 39.703125 14.59375 38.203125 13.90625 36.40625 
C 13.09375 34.59375 12.703125 32.796875 12.59375 30.796875 
z
M 50.5 16.40625 
C 49.296875 10.59375 46.796875 6.203125 43 3.296875 
C 39.09375 0.296875 34.203125 -1.09375 28.40625 -1.09375 
C 24.203125 -1.09375 20.59375 -0.5 17.59375 0.90625 
C 14.59375 2.203125 12 4.09375 10 6.5 
C 7.90625 8.90625 6.296875 11.703125 5.296875 15.09375 
C 4.296875 18.40625 3.703125 22 3.59375 26 
C 3.59375 29.90625 4.203125 33.5 5.40625 36.796875 
C 6.59375 40 8.203125 42.90625 10.40625 45.296875 
C 12.59375 47.703125 15.09375 49.5 18.09375 50.90625 
C 21.09375 52.203125 24.296875 52.90625 27.90625 52.90625 
C 32.5 52.90625 36.296875 51.90625 39.296875 50 
C 42.296875 48.09375 44.796875 45.703125 46.59375 42.796875 
C 48.40625 39.796875 49.703125 36.59375 50.40625 33.203125 
C 51.09375 29.703125 51.40625 26.40625 51.296875 23.296875 
L 12.59375 23.296875 
C 12.5 21 12.796875 18.796875 13.40625 16.796875 
C 14 14.796875 14.90625 13 16.296875 11.40625 
C 17.59375 9.796875 19.296875 8.59375 21.40625 7.703125 
C 23.40625 6.703125 25.90625 6.296875 28.703125 6.296875 
C 32.296875 6.296875 35.203125 7.09375 37.5 8.796875 
C 39.796875 10.40625 41.296875 13 42.09375 16.40625 
z
" id="HelveticaNeue-65"/>
      <path d="M 6.09375 51.703125 
L 14.09375 51.703125 
L 14.09375 40.796875 
L 14.296875 40.796875 
C 16.296875 45 18.90625 48.09375 21.90625 50.09375 
C 24.90625 52.09375 28.703125 53 33.296875 52.90625 
L 33.296875 43.90625 
C 29.90625 43.90625 27 43.40625 24.59375 42.5 
C 22.203125 41.5 20.203125 40.203125 18.796875 38.40625 
C 17.296875 36.59375 16.203125 34.40625 15.59375 31.796875 
C 14.90625 29.203125 14.59375 26.296875 14.59375 23 
L 14.59375 0 
L 6.09375 0 
z
" id="HelveticaNeue-72"/>
      <path d="M 12.59375 25.796875 
C 12.59375 22.59375 13 19.796875 13.796875 17.40625 
C 14.59375 15 15.796875 12.90625 17.296875 11.296875 
C 18.703125 9.703125 20.40625 8.40625 22.40625 7.59375 
C 24.40625 6.703125 26.5 6.296875 28.703125 6.296875 
C 30.90625 6.296875 32.90625 6.703125 34.90625 7.59375 
C 36.90625 8.40625 38.59375 9.703125 40.09375 11.296875 
C 41.5 12.90625 42.703125 15 43.5 17.40625 
C 44.296875 19.796875 44.796875 22.59375 44.796875 25.796875 
C 44.796875 28.90625 44.296875 31.703125 43.5 34.09375 
C 42.703125 36.5 41.5 38.59375 40.09375 40.296875 
C 38.59375 41.90625 36.90625 43.203125 34.90625 44.09375 
C 32.90625 44.90625 30.90625 45.40625 28.703125 45.40625 
C 26.5 45.40625 24.40625 44.90625 22.40625 44.09375 
C 20.40625 43.203125 18.703125 41.90625 17.296875 40.296875 
C 15.796875 38.59375 14.59375 36.5 13.796875 34.09375 
C 13 31.703125 12.59375 28.90625 12.59375 25.796875 
z
M 3.59375 25.796875 
C 3.59375 29.59375 4.09375 33.09375 5.203125 36.40625 
C 6.203125 39.703125 7.796875 42.59375 10 45 
C 12.09375 47.40625 14.703125 49.40625 17.90625 50.796875 
C 21 52.203125 24.59375 52.90625 28.703125 52.90625 
C 32.796875 52.90625 36.40625 52.203125 39.5 50.796875 
C 42.59375 49.40625 45.203125 47.40625 47.40625 45 
C 49.5 42.59375 51.09375 39.703125 52.203125 36.40625 
C 53.203125 33.09375 53.796875 29.59375 53.796875 25.796875 
C 53.796875 22 53.203125 18.40625 52.203125 15.203125 
C 51.09375 11.90625 49.5 9 47.40625 6.59375 
C 45.203125 4.203125 42.59375 2.296875 39.5 0.90625 
C 36.40625 -0.5 32.796875 -1.09375 28.703125 -1.09375 
C 24.59375 -1.09375 21 -0.5 17.90625 0.90625 
C 14.703125 2.296875 12.09375 4.203125 10 6.59375 
C 7.796875 9 6.203125 11.90625 5.203125 15.203125 
C 4.09375 18.40625 3.59375 22 3.59375 25.796875 
z
" id="HelveticaNeue-6f"/>
      <path d="M 9.90625 44.203125 
L 1.203125 44.203125 
L 1.203125 51.703125 
L 9.90625 51.703125 
L 9.90625 59.40625 
C 9.90625 63.59375 11.09375 66.703125 13.5 68.90625 
C 15.90625 71.09375 19.5 72.203125 24.203125 72.203125 
C 25 72.203125 25.90625 72.09375 26.90625 72 
C 27.90625 71.796875 28.90625 71.59375 29.703125 71.40625 
L 29.703125 64 
C 28.90625 64.203125 28.09375 64.40625 27.296875 64.5 
C 26.40625 64.59375 25.59375 64.703125 24.90625 64.703125 
C 22.796875 64.703125 21.203125 64.296875 20.09375 63.5 
C 18.90625 62.703125 18.40625 61.09375 18.40625 58.90625 
L 18.40625 51.703125 
L 28.40625 51.703125 
L 28.40625 44.203125 
L 18.40625 44.203125 
L 18.40625 0 
L 9.90625 0 
z
" id="HelveticaNeue-66"/>
      <path d="M 11.59375 16.296875 
C 11.59375 14.40625 12.09375 12.796875 12.90625 11.5 
C 13.703125 10.203125 14.703125 9.203125 16 8.40625 
C 17.296875 7.59375 18.796875 7.09375 20.40625 6.796875 
C 22 6.40625 23.703125 6.296875 25.5 6.296875 
C 26.796875 6.296875 28.203125 6.40625 29.703125 6.59375 
C 31.09375 6.796875 32.5 7.09375 33.703125 7.703125 
C 34.90625 8.203125 36 9 36.796875 10 
C 37.59375 11 38 12.40625 38 14 
C 38 16.203125 37.09375 17.796875 35.5 19 
C 33.796875 20.09375 31.703125 21 29.203125 21.703125 
C 26.703125 22.40625 24 23 21.09375 23.59375 
C 18.09375 24.203125 15.40625 25 12.90625 26 
C 10.40625 27 8.296875 28.5 6.703125 30.40625 
C 5 32.203125 4.203125 34.796875 4.203125 38.203125 
C 4.203125 40.796875 4.703125 43 5.90625 44.90625 
C 7.09375 46.703125 8.59375 48.203125 10.40625 49.40625 
C 12.203125 50.59375 14.296875 51.40625 16.59375 52 
C 18.90625 52.59375 21.203125 52.90625 23.5 52.90625 
C 26.40625 52.90625 29.09375 52.59375 31.59375 52.09375 
C 34 51.59375 36.203125 50.703125 38.09375 49.5 
C 40 48.296875 41.5 46.59375 42.703125 44.5 
C 43.796875 42.40625 44.5 39.796875 44.703125 36.703125 
L 36.203125 36.703125 
C 36 38.296875 35.59375 39.703125 34.90625 40.796875 
C 34.09375 41.90625 33.203125 42.796875 32.09375 43.5 
C 30.90625 44.09375 29.703125 44.59375 28.296875 44.90625 
C 26.90625 45.203125 25.59375 45.40625 24.203125 45.40625 
C 22.90625 45.40625 21.59375 45.296875 20.296875 45.09375 
C 19 44.90625 17.796875 44.5 16.796875 44 
C 15.703125 43.5 14.796875 42.796875 14.203125 42 
C 13.5 41.203125 13.203125 40.09375 13.203125 38.796875 
C 13.203125 37.296875 13.703125 36.09375 14.703125 35.09375 
C 15.703125 34.09375 17.09375 33.296875 18.703125 32.703125 
C 20.296875 32.09375 22.09375 31.5 24.09375 31.09375 
C 26.09375 30.703125 28.09375 30.203125 30.09375 29.796875 
C 32.203125 29.296875 34.296875 28.703125 36.296875 28.09375 
C 38.296875 27.40625 40.09375 26.5 41.703125 25.40625 
C 43.296875 24.296875 44.5 22.90625 45.5 21.296875 
C 46.5 19.59375 47 17.5 47 15.09375 
C 47 11.90625 46.296875 9.296875 45 7.296875 
C 43.703125 5.203125 42 3.5 39.90625 2.296875 
C 37.796875 1 35.40625 0.09375 32.796875 -0.40625 
C 30.203125 -0.90625 27.59375 -1.09375 25 -1.09375 
C 22.09375 -1.09375 19.40625 -0.796875 16.796875 -0.203125 
C 14.203125 0.40625 11.90625 1.296875 9.90625 2.703125 
C 7.90625 4.09375 6.296875 5.90625 5.09375 8.09375 
C 3.90625 10.296875 3.203125 13.09375 3.09375 16.296875 
z
" id="HelveticaNeue-73"/>
      <path d="M 6.40625 71.40625 
L 14.90625 71.40625 
L 14.90625 44.09375 
L 15.09375 44.09375 
C 15.703125 45.703125 16.703125 47 17.90625 48.09375 
C 19.09375 49.203125 20.40625 50.09375 21.90625 50.796875 
C 23.40625 51.5 25 52 26.59375 52.40625 
C 28.203125 52.703125 29.796875 52.90625 31.40625 52.90625 
C 34.796875 52.90625 37.59375 52.40625 39.90625 51.5 
C 42.09375 50.5 44 49.203125 45.40625 47.59375 
C 46.796875 45.90625 47.703125 43.90625 48.296875 41.59375 
C 48.90625 39.296875 49.203125 36.796875 49.203125 34 
L 49.203125 0 
L 40.703125 0 
L 40.703125 35 
C 40.703125 38.203125 39.703125 40.703125 37.90625 42.59375 
C 36 44.40625 33.40625 45.40625 30.203125 45.40625 
C 27.59375 45.40625 25.296875 45 23.40625 44.203125 
C 21.5 43.40625 19.90625 42.203125 18.703125 40.796875 
C 17.40625 39.296875 16.40625 37.59375 15.796875 35.59375 
C 15.203125 33.59375 14.90625 31.5 14.90625 29.203125 
L 14.90625 0 
L 6.40625 0 
z
" id="HelveticaNeue-68"/>
      <path d="M 6.90625 71.40625 
L 15.40625 71.40625 
L 15.40625 0 
L 6.90625 0 
z
" id="HelveticaNeue-6c"/>
      <path d="M -0.90625 -19.703125 
C 3.796875 -12.203125 7.203125 -4.703125 9.203125 2.796875 
C 11.203125 10.296875 12.203125 18.09375 12.203125 26.296875 
C 12.203125 34.703125 11.09375 42.59375 9.09375 50.203125 
C 7.09375 57.796875 3.703125 65.40625 -0.90625 73.09375 
L 5.5 73.09375 
C 7.90625 69.296875 10 65.59375 12 61.90625 
C 13.90625 58.203125 15.5 54.40625 16.90625 50.59375 
C 18.296875 46.796875 19.296875 42.90625 20.09375 38.90625 
C 20.796875 34.90625 21.203125 30.703125 21.203125 26.296875 
C 21.203125 18.40625 19.796875 10.5 17.203125 2.5 
C 14.59375 -5.5 10.703125 -12.90625 5.5 -19.703125 
z
" id="HelveticaNeue-29"/>
     </defs>
     <g transform="translate(90.77 179.950938)scale(0.1 -0.1)">
      <use transform="translate(0 0.90625)" xlink:href="#STIXGeneral-Italic-1d612"/>
      <use transform="translate(63.399994 0.90625)" xlink:href="#HelveticaNeue-20"/>
      <use transform="translate(91.199982 0.90625)" xlink:href="#HelveticaNeue-28"/>
      <use transform="translate(117.099976 0.90625)" xlink:href="#HelveticaNeue-6e"/>
      <use transform="translate(172.699966 0.90625)" xlink:href="#HelveticaNeue-75"/>
      <use transform="translate(228.299957 0.90625)" xlink:href="#HelveticaNeue-6d"/>
      <use transform="translate(313.599945 0.90625)" xlink:href="#HelveticaNeue-62"/>
      <use transform="translate(372.899933 0.90625)" xlink:href="#HelveticaNeue-65"/>
      <use transform="translate(426.59993 0.90625)" xlink:href="#HelveticaNeue-72"/>
      <use transform="translate(459.899918 0.90625)" xlink:href="#HelveticaNeue-20"/>
      <use transform="translate(487.699905 0.90625)" xlink:href="#HelveticaNeue-6f"/>
      <use transform="translate(545.099899 0.90625)" xlink:href="#HelveticaNeue-66"/>
      <use transform="translate(574.69989 0.90625)" xlink:href="#HelveticaNeue-20"/>
      <use transform="translate(602.499878 0.90625)" xlink:href="#HelveticaNeue-73"/>
      <use transform="translate(652.499863 0.90625)" xlink:href="#HelveticaNeue-68"/>
      <use transform="translate(708.099854 0.90625)" xlink:href="#HelveticaNeue-65"/>
      <use transform="translate(761.79985 0.90625)" xlink:href="#HelveticaNeue-6c"/>
      <use transform="translate(783.999847 0.90625)" xlink:href="#HelveticaNeue-6c"/>
      <use transform="translate(806.199844 0.90625)" xlink:href="#HelveticaNeue-73"/>
      <use transform="translate(856.199829 0.90625)" xlink:href="#HelveticaNeue-29"/>
     </g>
    </g>
   </g>
   <g id="matplotlib.axis_2">
    <g id="ytick_1">
     <g id="line2d_7">
      <defs>
       <path d="M 0 0 
L -3.5 0 
" id="m11f91c9850" style="stroke:#000000;stroke-width:0.8;"/>
      </defs>
      <g>
       <use style="stroke:#000000;stroke-width:0.8;" x="52.76" xlink:href="#m11f91c9850" y="138.909257"/>
      </g>
     </g>
     <g id="text_8">
      <!-- 20.2 -->
      <defs>
       <path d="M 8.296875 11.09375 
L 19.40625 11.09375 
L 19.40625 0 
L 8.296875 0 
z
" id="HelveticaNeue-2e"/>
      </defs>
      <g transform="translate(26.302187 142.479569)scale(0.1 -0.1)">
       <use xlink:href="#HelveticaNeue-32"/>
       <use x="55.599991" xlink:href="#HelveticaNeue-30"/>
       <use x="111.199982" xlink:href="#HelveticaNeue-2e"/>
       <use x="138.999969" xlink:href="#HelveticaNeue-32"/>
      </g>
     </g>
    </g>
    <g id="ytick_2">
     <g id="line2d_8">
      <g>
       <use style="stroke:#000000;stroke-width:0.8;" x="52.76" xlink:href="#m11f91c9850" y="96.834276"/>
      </g>
     </g>
     <g id="text_9">
      <!-- 20.4 -->
      <g transform="translate(26.302187 100.404589)scale(0.1 -0.1)">
       <use xlink:href="#HelveticaNeue-32"/>
       <use x="55.599991" xlink:href="#HelveticaNeue-30"/>
       <use x="111.199982" xlink:href="#HelveticaNeue-2e"/>
       <use x="138.999969" xlink:href="#HelveticaNeue-34"/>
      </g>
     </g>
    </g>
    <g id="ytick_3">
     <g id="line2d_9">
      <g>
       <use style="stroke:#000000;stroke-width:0.8;" x="52.76" xlink:href="#m11f91c9850" y="54.759295"/>
      </g>
     </g>
     <g id="text_10">
      <!-- 20.6 -->
      <g transform="translate(26.302187 58.329608)scale(0.1 -0.1)">
       <use xlink:href="#HelveticaNeue-32"/>
       <use x="55.599991" xlink:href="#HelveticaNeue-30"/>
       <use x="111.199982" xlink:href="#HelveticaNeue-2e"/>
       <use x="138.999969" xlink:href="#HelveticaNeue-36"/>
      </g>
     </g>
    </g>
    <g id="text_11">
     <!-- $E$ (energy) -->
     <defs>
      <path d="M 67.796875 66.203125 
L 65.90625 58.796875 
L 30.703125 58.796875 
L 25.703125 38.59375 
L 56.203125 38.59375 
L 54.296875 31.09375 
L 23.796875 31.09375 
L 17.90625 7.40625 
L 55.796875 7.40625 
L 52.296875 0 
L 7.40625 0 
L 23.90625 66.203125 
z
" id="STIXGeneral-Italic-1d60c"/>
      <path d="M 51 4.40625 
C 51 -4.09375 49 -10.40625 45.203125 -14.59375 
C 41.296875 -18.796875 35.203125 -20.90625 27 -20.90625 
C 24.59375 -20.90625 22.09375 -20.703125 19.59375 -20.09375 
C 17.09375 -19.59375 14.796875 -18.703125 12.796875 -17.5 
C 10.796875 -16.296875 9.09375 -14.796875 7.796875 -12.796875 
C 6.40625 -10.90625 5.703125 -8.5 5.59375 -5.703125 
L 14.09375 -5.703125 
C 14.09375 -7.296875 14.59375 -8.59375 15.5 -9.59375 
C 16.40625 -10.703125 17.5 -11.59375 18.796875 -12.203125 
C 20.09375 -12.90625 21.5 -13.40625 23.09375 -13.703125 
C 24.59375 -14 26.09375 -14.09375 27.5 -14.09375 
C 30.296875 -14.09375 32.59375 -13.703125 34.59375 -12.703125 
C 36.5 -11.703125 38.09375 -10.40625 39.40625 -8.703125 
C 40.59375 -7 41.5 -4.90625 42.09375 -2.5 
C 42.703125 -0.09375 43 2.5 43 5.40625 
L 43 8.796875 
L 42.796875 8.796875 
C 41.296875 5.59375 39.09375 3.203125 36.09375 1.703125 
C 33.09375 0.203125 30 -0.5 26.703125 -0.5 
C 22.796875 -0.5 19.40625 0.203125 16.59375 1.59375 
C 13.703125 3 11.296875 4.796875 9.40625 7.203125 
C 7.40625 9.59375 6 12.296875 5 15.5 
C 4 18.703125 3.59375 22 3.59375 25.59375 
C 3.59375 28.59375 4 31.796875 4.796875 35 
C 5.59375 38.203125 6.90625 41.203125 8.796875 43.796875 
C 10.59375 46.40625 13.09375 48.59375 16.203125 50.296875 
C 19.203125 52 23 52.90625 27.5 52.90625 
C 30.703125 52.90625 33.703125 52.09375 36.5 50.703125 
C 39.203125 49.296875 41.296875 47.09375 42.90625 44.296875 
L 43 44.296875 
L 43 51.703125 
L 51 51.703125 
z
M 27.203125 6.90625 
C 30 6.90625 32.296875 7.40625 34.296875 8.59375 
C 36.296875 9.796875 37.90625 11.296875 39.09375 13.203125 
C 40.296875 15.09375 41.09375 17.296875 41.703125 19.703125 
C 42.296875 22.09375 42.59375 24.5 42.59375 26.90625 
C 42.59375 29.09375 42.296875 31.40625 41.796875 33.59375 
C 41.203125 35.796875 40.40625 37.703125 39.203125 39.5 
C 38 41.296875 36.5 42.703125 34.703125 43.796875 
C 32.796875 44.796875 30.5 45.40625 27.90625 45.40625 
C 25.09375 45.40625 22.796875 44.796875 20.90625 43.796875 
C 18.90625 42.796875 17.296875 41.40625 16.09375 39.703125 
C 14.90625 37.90625 14 35.90625 13.40625 33.703125 
C 12.796875 31.40625 12.59375 29 12.59375 26.59375 
C 12.59375 24.203125 12.796875 21.90625 13.296875 19.59375 
C 13.703125 17.203125 14.5 15.09375 15.703125 13.203125 
C 16.796875 11.296875 18.296875 9.796875 20.203125 8.59375 
C 22 7.40625 24.40625 6.90625 27.203125 6.90625 
z
" id="HelveticaNeue-67"/>
      <path d="M 26.703125 -6.90625 
L 49.203125 51.703125 
L 40.203125 51.703125 
L 25.703125 9.40625 
L 25.5 9.40625 
L 10.40625 51.703125 
L 0.796875 51.703125 
L 21.296875 0.296875 
L 17.796875 -8.40625 
C 17.203125 -10 16.296875 -11.203125 15.09375 -12 
C 13.90625 -12.796875 12.5 -13.203125 10.796875 -13.203125 
C 10.09375 -13.203125 9.296875 -13.09375 8.296875 -12.90625 
C 7.296875 -12.703125 6.5 -12.40625 5.796875 -12 
L 5.796875 -19.796875 
C 6.703125 -20.203125 7.703125 -20.40625 8.703125 -20.5 
C 9.703125 -20.703125 10.703125 -20.703125 11.703125 -20.703125 
C 13.5 -20.703125 15.203125 -20.5 16.59375 -20 
C 18 -19.5 19.296875 -18.703125 20.5 -17.59375 
C 21.703125 -16.5 22.703125 -15.09375 23.703125 -13.296875 
C 24.703125 -11.59375 25.703125 -9.5 26.703125 -6.90625 
z
" id="HelveticaNeue-79"/>
     </defs>
     <g transform="translate(20.202187 104.98)rotate(-90)scale(0.1 -0.1)">
      <use transform="translate(0 0.90625)" xlink:href="#STIXGeneral-Italic-1d60c"/>
      <use transform="translate(58.299988 0.90625)" xlink:href="#HelveticaNeue-20"/>
      <use transform="translate(86.099976 0.90625)" xlink:href="#HelveticaNeue-28"/>
      <use transform="translate(111.999969 0.90625)" xlink:href="#HelveticaNeue-65"/>
      <use transform="translate(165.699966 0.90625)" xlink:href="#HelveticaNeue-6e"/>
      <use transform="translate(221.299957 0.90625)" xlink:href="#HelveticaNeue-65"/>
      <use transform="translate(274.999954 0.90625)" xlink:href="#HelveticaNeue-72"/>
      <use transform="translate(308.299942 0.90625)" xlink:href="#HelveticaNeue-67"/>
      <use transform="translate(365.699936 0.90625)" xlink:href="#HelveticaNeue-79"/>
      <use transform="translate(415.699921 0.90625)" xlink:href="#HelveticaNeue-29"/>
     </g>
    </g>
   </g>
   <g id="line2d_10">
    <path clip-path="url(#p7d16ccb373)" d="M 73.809256 111.268295 
L 87.389421 123.500003 
L 100.969587 128.587435 
L 114.549752 131.790323 
L 128.129917 133.962965 
L 141.710083 135.5163 
L 155.290248 136.684645 
L 168.870413 137.592837 
L 182.450579 138.318872 
L 196.030744 138.912217 
L 209.610909 139.405858 
" style="fill:none;stroke:#428ff4;stroke-linecap:square;stroke-width:1.5;"/>
    <defs>
     <path d="M 0 2.5 
C 0.663008 2.5 1.29895 2.236584 1.767767 1.767767 
C 2.236584 1.29895 2.5 0.663008 2.5 0 
C 2.5 -0.663008 2.236584 -1.29895 1.767767 -1.767767 
C 1.29895 -2.236584 0.663008 -2.5 0 -2.5 
C -0.663008 -2.5 -1.29895 -2.236584 -1.767767 -1.767767 
C -2.236584 -1.29895 -2.5 -0.663008 -2.5 0 
C -2.5 0.663008 -2.236584 1.29895 -1.767767 1.767767 
C -1.29895 2.236584 -0.663008 2.5 0 2.5 
z
" id="m2828653cc7" style="stroke:#428ff4;"/>
    </defs>
    <g clip-path="url(#p7d16ccb373)">
     <use style="fill:none;stroke:#428ff4;" x="73.809256" xlink:href="#m2828653cc7" y="111.268295"/>
     <use style="fill:none;stroke:#428ff4;" x="87.389421" xlink:href="#m2828653cc7" y="123.500003"/>
     <use style="fill:none;stroke:#428ff4;" x="100.969587" xlink:href="#m2828653cc7" y="128.587435"/>
     <use style="fill:none;stroke:#428ff4;" x="114.549752" xlink:href="#m2828653cc7" y="131.790323"/>
     <use style="fill:none;stroke:#428ff4;" x="128.129917" xlink:href="#m2828653cc7" y="133.962965"/>
     <use style="fill:none;stroke:#428ff4;" x="141.710083" xlink:href="#m2828653cc7" y="135.5163"/>
     <use style="fill:none;stroke:#428ff4;" x="155.290248" xlink:href="#m2828653cc7" y="136.684645"/>
     <use style="fill:none;stroke:#428ff4;" x="168.870413" xlink:href="#m2828653cc7" y="137.592837"/>
     <use style="fill:none;stroke:#428ff4;" x="182.450579" xlink:href="#m2828653cc7" y="138.318872"/>
     <use style="fill:none;stroke:#428ff4;" x="196.030744" xlink:href="#m2828653cc7" y="138.912217"/>
     <use style="fill:none;stroke:#428ff4;" x="209.610909" xlink:href="#m2828653cc7" y="139.405858"/>
    </g>
   </g>
   <g id="line2d_11">
    <path clip-path="url(#p7d16ccb373)" d="M 60.229091 93.50341 
L 73.809256 114.345462 
L 87.389421 126.876654 
L 100.969587 132.112675 
L 114.549752 135.453218 
" style="fill:none;stroke:#2e2360;stroke-linecap:square;stroke-width:1.5;"/>
    <defs>
     <path d="M -0 2.474874 
L 2.474874 0 
L 0 -2.474874 
L -2.474874 -0 
z
" id="m1bd0a12574" style="stroke:#2e2360;stroke-linejoin:miter;"/>
    </defs>
    <g clip-path="url(#p7d16ccb373)">
     <use style="fill:none;stroke:#2e2360;stroke-linejoin:miter;" x="60.229091" xlink:href="#m1bd0a12574" y="93.50341"/>
     <use style="fill:none;stroke:#2e2360;stroke-linejoin:miter;" x="73.809256" xlink:href="#m1bd0a12574" y="114.345462"/>
     <use style="fill:none;stroke:#2e2360;stroke-linejoin:miter;" x="87.389421" xlink:href="#m1bd0a12574" y="126.876654"/>
     <use style="fill:none;stroke:#2e2360;stroke-linejoin:miter;" x="100.969587" xlink:href="#m1bd0a12574" y="132.112675"/>
     <use style="fill:none;stroke:#2e2360;stroke-linejoin:miter;" x="114.549752" xlink:href="#m1bd0a12574" y="135.453218"/>
    </g>
   </g>
   <g id="line2d_12">
    <path clip-path="url(#p7d16ccb373)" d="M 60.229091 19.643636 
L 73.809256 23.539186 
L 87.389421 29.460225 
L 100.969587 29.486635 
L 114.549752 29.672416 
L 128.129917 29.672472 
L 141.710083 29.679019 
L 155.290248 29.679361 
L 168.870413 29.679362 
L 182.450579 29.679436 
L 196.030744 29.679501 
L 209.610909 29.679504 
" style="fill:none;stroke:#b7ac12;stroke-linecap:square;stroke-width:1.5;"/>
    <defs>
     <path d="M 0 -2.5 
L -2.5 2.5 
L 2.5 2.5 
z
" id="m31bb1f5e6f" style="stroke:#b7ac12;stroke-linejoin:miter;"/>
    </defs>
    <g clip-path="url(#p7d16ccb373)">
     <use style="fill:none;stroke:#b7ac12;stroke-linejoin:miter;" x="60.229091" xlink:href="#m31bb1f5e6f" y="19.643636"/>
     <use style="fill:none;stroke:#b7ac12;stroke-linejoin:miter;" x="73.809256" xlink:href="#m31bb1f5e6f" y="23.539186"/>
     <use style="fill:none;stroke:#b7ac12;stroke-linejoin:miter;" x="87.389421" xlink:href="#m31bb1f5e6f" y="29.460225"/>
     <use style="fill:none;stroke:#b7ac12;stroke-linejoin:miter;" x="100.969587" xlink:href="#m31bb1f5e6f" y="29.486635"/>
     <use style="fill:none;stroke:#b7ac12;stroke-linejoin:miter;" x="114.549752" xlink:href="#m31bb1f5e6f" y="29.672416"/>
     <use style="fill:none;stroke:#b7ac12;stroke-linejoin:miter;" x="128.129917" xlink:href="#m31bb1f5e6f" y="29.672472"/>
     <use style="fill:none;stroke:#b7ac12;stroke-linejoin:miter;" x="141.710083" xlink:href="#m31bb1f5e6f" y="29.679019"/>
     <use style="fill:none;stroke:#b7ac12;stroke-linejoin:miter;" x="155.290248" xlink:href="#m31bb1f5e6f" y="29.679361"/>
     <use style="fill:none;stroke:#b7ac12;stroke-linejoin:miter;" x="168.870413" xlink:href="#m31bb1f5e6f" y="29.679362"/>
     <use style="fill:none;stroke:#b7ac12;stroke-linejoin:miter;" x="182.450579" xlink:href="#m31bb1f5e6f" y="29.679436"/>
     <use style="fill:none;stroke:#b7ac12;stroke-linejoin:miter;" x="196.030744" xlink:href="#m31bb1f5e6f" y="29.679501"/>
     <use style="fill:none;stroke:#b7ac12;stroke-linejoin:miter;" x="209.610909" xlink:href="#m31bb1f5e6f" y="29.679504"/>
    </g>
   </g>
   <g id="line2d_13">
    <path clip-path="url(#p7d16ccb373)" d="M 60.229091 95.358857 
L 73.809256 117.673464 
L 87.389421 129.950138 
L 100.969587 135.244802 
L 114.549752 138.491888 
L 128.129917 140.700243 
L 141.710083 142.257511 
L 155.290248 143.424803 
L 168.870413 144.3266 
L 182.450579 145.045053 
L 196.030744 145.630474 
L 209.610909 146.116364 
" style="fill:none;stroke:#3ec61b;stroke-linecap:square;stroke-width:1.5;"/>
    <defs>
     <path d="M -2.5 2.5 
L 2.5 -2.5 
M -2.5 -2.5 
L 2.5 2.5 
" id="m94da3dd548" style="stroke:#3ec61b;"/>
    </defs>
    <g clip-path="url(#p7d16ccb373)">
     <use style="fill:none;stroke:#3ec61b;" x="60.229091" xlink:href="#m94da3dd548" y="95.358857"/>
     <use style="fill:none;stroke:#3ec61b;" x="73.809256" xlink:href="#m94da3dd548" y="117.673464"/>
     <use style="fill:none;stroke:#3ec61b;" x="87.389421" xlink:href="#m94da3dd548" y="129.950138"/>
     <use style="fill:none;stroke:#3ec61b;" x="100.969587" xlink:href="#m94da3dd548" y="135.244802"/>
     <use style="fill:none;stroke:#3ec61b;" x="114.549752" xlink:href="#m94da3dd548" y="138.491888"/>
     <use style="fill:none;stroke:#3ec61b;" x="128.129917" xlink:href="#m94da3dd548" y="140.700243"/>
     <use style="fill:none;stroke:#3ec61b;" x="141.710083" xlink:href="#m94da3dd548" y="142.257511"/>
     <use style="fill:none;stroke:#3ec61b;" x="155.290248" xlink:href="#m94da3dd548" y="143.424803"/>
     <use style="fill:none;stroke:#3ec61b;" x="168.870413" xlink:href="#m94da3dd548" y="144.3266"/>
     <use style="fill:none;stroke:#3ec61b;" x="182.450579" xlink:href="#m94da3dd548" y="145.045053"/>
     <use style="fill:none;stroke:#3ec61b;" x="196.030744" xlink:href="#m94da3dd548" y="145.630474"/>
     <use style="fill:none;stroke:#3ec61b;" x="209.610909" xlink:href="#m94da3dd548" y="146.116364"/>
    </g>
   </g>
   <g id="line2d_14">
    <path clip-path="url(#p7d16ccb373)" d="M 60.229091 85.583573 
L 73.809256 103.66375 
L 87.389421 117.332941 
L 100.969587 123.331498 
L 114.549752 127.920315 
L 128.129917 131.192869 
L 141.710083 133.793583 
L 155.290248 135.868321 
L 168.870413 137.571883 
L 182.450579 138.994893 
L 196.030744 140.199633 
L 209.610909 141.23253 
" style="fill:none;stroke:#a81e4c;stroke-linecap:square;stroke-width:1.5;"/>
    <defs>
     <path d="M 0 -2.5 
L -2.377641 -0.772542 
L -1.469463 2.022542 
L 1.469463 2.022542 
L 2.377641 -0.772542 
z
" id="m4e433e7a0b" style="stroke:#a81e4c;stroke-linejoin:miter;"/>
    </defs>
    <g clip-path="url(#p7d16ccb373)">
     <use style="fill:none;stroke:#a81e4c;stroke-linejoin:miter;" x="60.229091" xlink:href="#m4e433e7a0b" y="85.583573"/>
     <use style="fill:none;stroke:#a81e4c;stroke-linejoin:miter;" x="73.809256" xlink:href="#m4e433e7a0b" y="103.66375"/>
     <use style="fill:none;stroke:#a81e4c;stroke-linejoin:miter;" x="87.389421" xlink:href="#m4e433e7a0b" y="117.332941"/>
     <use style="fill:none;stroke:#a81e4c;stroke-linejoin:miter;" x="100.969587" xlink:href="#m4e433e7a0b" y="123.331498"/>
     <use style="fill:none;stroke:#a81e4c;stroke-linejoin:miter;" x="114.549752" xlink:href="#m4e433e7a0b" y="127.920315"/>
     <use style="fill:none;stroke:#a81e4c;stroke-linejoin:miter;" x="128.129917" xlink:href="#m4e433e7a0b" y="131.192869"/>
     <use style="fill:none;stroke:#a81e4c;stroke-linejoin:miter;" x="141.710083" xlink:href="#m4e433e7a0b" y="133.793583"/>
     <use style="fill:none;stroke:#a81e4c;stroke-linejoin:miter;" x="155.290248" xlink:href="#m4e433e7a0b" y="135.868321"/>
     <use style="fill:none;stroke:#a81e4c;stroke-linejoin:miter;" x="168.870413" xlink:href="#m4e433e7a0b" y="137.571883"/>
     <use style="fill:none;stroke:#a81e4c;stroke-linejoin:miter;" x="182.450579" xlink:href="#m4e433e7a0b" y="138.994893"/>
     <use style="fill:none;stroke:#a81e4c;stroke-linejoin:miter;" x="196.030744" xlink:href="#m4e433e7a0b" y="140.199633"/>
     <use style="fill:none;stroke:#a81e4c;stroke-linejoin:miter;" x="209.610909" xlink:href="#m4e433e7a0b" y="141.23253"/>
    </g>
   </g>
   <g id="line2d_15">
    <path clip-path="url(#p7d16ccb373)" d="M 52.76 147.467308 
L 217.08 147.467308 
" style="fill:none;stroke:#666666;stroke-dasharray:5.55,2.4;stroke-dashoffset:0;stroke-width:1.5;"/>
   </g>
   <g id="patch_3">
    <path d="M 52.76 152.44 
L 52.76 13.32 
" style="fill:none;stroke:#000000;stroke-linecap:square;stroke-linejoin:miter;stroke-width:0.8;"/>
   </g>
   <g id="patch_4">
    <path d="M 217.08 152.44 
L 217.08 13.32 
" style="fill:none;stroke:#000000;stroke-linecap:square;stroke-linejoin:miter;stroke-width:0.8;"/>
   </g>
   <g id="patch_5">
    <path d="M 52.76 152.44 
L 217.08 152.44 
" style="fill:none;stroke:#000000;stroke-linecap:square;stroke-linejoin:miter;stroke-width:0.8;"/>
   </g>
   <g id="patch_6">
    <path d="M 52.76 13.32 
L 217.08 13.32 
" style="fill:none;stroke:#000000;stroke-linecap:square;stroke-linejoin:miter;stroke-width:0.8;"/>
   </g>
   <g id="legend_1">
    <g id="line2d_16">
     <path d="M 133.228437 46.553438 
L 153.228437 46.553438 
" style="fill:none;stroke:#428ff4;stroke-linecap:square;stroke-width:1.5;"/>
    </g>
    <g id="line2d_17">
     <g>
      <use style="fill:none;stroke:#428ff4;" x="143.228437" xlink:href="#m2828653cc7" y="46.553438"/>
     </g>
    </g>
    <g id="text_12">
     <!-- CCSD -->
     <defs>
      <path d="M 58 49.90625 
C 56.90625 54.90625 54.5 58.703125 50.90625 61.296875 
C 47.296875 63.796875 43 65.09375 38 65.09375 
C 33.703125 65.09375 30 64.296875 27 62.703125 
C 24 61.09375 21.5 58.90625 19.5 56.203125 
C 17.5 53.5 16.09375 50.40625 15.203125 47 
C 14.203125 43.5 13.796875 39.90625 13.796875 36.203125 
C 13.796875 32.09375 14.203125 28.203125 15.203125 24.59375 
C 16.09375 21 17.5 17.796875 19.5 15.09375 
C 21.5 12.40625 24 10.296875 27.09375 8.703125 
C 30.09375 7.09375 33.796875 6.296875 38.09375 6.296875 
C 41.203125 6.296875 44 6.796875 46.40625 7.796875 
C 48.796875 8.796875 50.90625 10.296875 52.703125 12.09375 
C 54.5 13.90625 55.90625 16.09375 56.90625 18.703125 
C 57.90625 21.203125 58.5 23.90625 58.703125 26.90625 
L 68.203125 26.90625 
C 67.203125 17.90625 64.09375 10.90625 58.90625 5.90625 
C 53.59375 0.90625 46.40625 -1.59375 37.296875 -1.59375 
C 31.703125 -1.59375 26.90625 -0.703125 22.796875 1.203125 
C 18.59375 3.09375 15.203125 5.703125 12.5 9.09375 
C 9.703125 12.40625 7.703125 16.296875 6.296875 20.90625 
C 4.90625 25.40625 4.296875 30.296875 4.296875 35.5 
C 4.296875 40.703125 5 45.5 6.5 50.09375 
C 7.90625 54.703125 10.09375 58.703125 12.90625 62.09375 
C 15.703125 65.5 19.296875 68.09375 23.5 70.09375 
C 27.703125 72.09375 32.59375 73.09375 38.09375 73.09375 
C 41.796875 73.09375 45.296875 72.59375 48.703125 71.59375 
C 52 70.59375 55 69.09375 57.59375 67.203125 
C 60.203125 65.203125 62.296875 62.796875 64.09375 59.90625 
C 65.796875 57 66.90625 53.703125 67.5 49.90625 
z
" id="HelveticaNeue-43"/>
      <path d="M 49.09375 50.5 
C 48.5 55.59375 46.703125 59.296875 43.5 61.59375 
C 40.296875 63.90625 36.296875 65.09375 31.40625 65.09375 
C 29.40625 65.09375 27.40625 64.90625 25.5 64.5 
C 23.5 64.09375 21.796875 63.40625 20.296875 62.5 
C 18.796875 61.5 17.59375 60.296875 16.703125 58.703125 
C 15.796875 57.09375 15.40625 55.203125 15.40625 52.90625 
C 15.40625 50.703125 16 48.90625 17.296875 47.5 
C 18.59375 46.09375 20.296875 45 22.5 44.203125 
C 24.703125 43.296875 27.09375 42.59375 29.90625 42 
C 32.59375 41.40625 35.40625 40.796875 38.203125 40.203125 
C 41 39.5 43.796875 38.703125 46.59375 37.796875 
C 49.296875 36.90625 51.703125 35.703125 53.90625 34.203125 
C 56.09375 32.59375 57.796875 30.703125 59.09375 28.40625 
C 60.40625 26 61.09375 23.09375 61.09375 19.59375 
C 61.09375 15.796875 60.203125 12.5 58.5 9.796875 
C 56.796875 7.09375 54.59375 4.90625 52 3.203125 
C 49.296875 1.5 46.296875 0.296875 43 -0.5 
C 39.703125 -1.296875 36.40625 -1.59375 33.203125 -1.59375 
C 29.203125 -1.59375 25.40625 -1.09375 21.796875 -0.09375 
C 18.203125 0.90625 15.09375 2.40625 12.40625 4.40625 
C 9.703125 6.40625 7.59375 9 6 12.203125 
C 4.40625 15.40625 3.703125 19.09375 3.703125 23.5 
L 12.703125 23.5 
C 12.703125 20.5 13.203125 17.90625 14.40625 15.703125 
C 15.59375 13.5 17.09375 11.796875 19 10.40625 
C 20.90625 9 23.09375 7.90625 25.703125 7.296875 
C 28.203125 6.59375 30.796875 6.296875 33.5 6.296875 
C 35.59375 6.296875 37.703125 6.5 39.90625 6.90625 
C 42.09375 7.296875 44 7.90625 45.796875 8.90625 
C 47.5 9.90625 48.90625 11.203125 50 12.90625 
C 51 14.5 51.59375 16.703125 51.59375 19.296875 
C 51.59375 21.703125 50.90625 23.703125 49.59375 25.296875 
C 48.296875 26.796875 46.59375 28 44.40625 29 
C 42.203125 30 39.796875 30.796875 37.09375 31.40625 
C 34.296875 32 31.5 32.59375 28.703125 33.203125 
C 25.90625 33.796875 23.09375 34.59375 20.40625 35.40625 
C 17.59375 36.203125 15.203125 37.296875 13 38.703125 
C 10.796875 40.09375 9.09375 41.796875 7.796875 44 
C 6.5 46.203125 5.90625 48.90625 5.90625 52.203125 
C 5.90625 55.796875 6.59375 58.90625 8.09375 61.5 
C 9.5 64.09375 11.5 66.296875 13.90625 68 
C 16.296875 69.703125 19.09375 71 22.203125 71.796875 
C 25.296875 72.59375 28.5 73.09375 31.796875 73.09375 
C 35.40625 73.09375 38.796875 72.59375 42 71.796875 
C 45.09375 70.90625 47.796875 69.5 50.203125 67.703125 
C 52.59375 65.796875 54.40625 63.40625 55.796875 60.59375 
C 57.203125 57.796875 57.90625 54.40625 58.09375 50.5 
z
" id="HelveticaNeue-53"/>
      <path d="M 17.296875 8 
L 33.09375 8 
C 34.09375 8 35.5 8 37.09375 8.203125 
C 38.703125 8.40625 40.40625 8.796875 42.203125 9.40625 
C 44 10 45.703125 11 47.5 12.203125 
C 49.296875 13.40625 50.90625 15 52.296875 17.09375 
C 53.703125 19.09375 54.796875 21.703125 55.703125 24.796875 
C 56.59375 27.90625 57.09375 31.703125 57.09375 36.09375 
C 57.09375 40.296875 56.59375 44.09375 55.796875 47.5 
C 55 50.90625 53.59375 53.703125 51.703125 56.09375 
C 49.796875 58.5 47.40625 60.296875 44.40625 61.5 
C 41.40625 62.703125 37.703125 63.40625 33.296875 63.40625 
L 17.296875 63.40625 
z
M 7.796875 71.40625 
L 32.296875 71.40625 
C 43.296875 71.40625 51.703125 68.59375 57.703125 63 
C 63.59375 57.40625 66.59375 48.796875 66.59375 37.40625 
C 66.59375 31.40625 65.90625 26 64.59375 21.40625 
C 63.203125 16.796875 61.203125 12.90625 58.40625 9.703125 
C 55.59375 6.5 52 4.09375 47.703125 2.5 
C 43.296875 0.796875 38.203125 0 32.296875 0 
L 7.796875 0 
z
" id="HelveticaNeue-44"/>
     </defs>
     <g transform="translate(161.228437 50.053438)scale(0.1 -0.1)">
      <use xlink:href="#HelveticaNeue-43"/>
      <use x="72.199982" xlink:href="#HelveticaNeue-43"/>
      <use x="144.399963" xlink:href="#HelveticaNeue-53"/>
      <use x="209.199951" xlink:href="#HelveticaNeue-44"/>
     </g>
    </g>
    <g id="line2d_18">
     <path d="M 133.228437 60.664375 
L 153.228437 60.664375 
" style="fill:none;stroke:#2e2360;stroke-linecap:square;stroke-width:1.5;"/>
    </g>
    <g id="line2d_19">
     <g>
      <use style="fill:none;stroke:#2e2360;stroke-linejoin:miter;" x="143.228437" xlink:href="#m1bd0a12574" y="60.664375"/>
     </g>
    </g>
    <g id="text_13">
     <!-- FCI -->
     <defs>
      <path d="M 7.796875 71.40625 
L 54.703125 71.40625 
L 54.703125 63.40625 
L 17.296875 63.40625 
L 17.296875 40.703125 
L 50.09375 40.703125 
L 50.09375 32.703125 
L 17.296875 32.703125 
L 17.296875 0 
L 7.796875 0 
z
" id="HelveticaNeue-46"/>
      <path d="M 8.203125 71.40625 
L 17.703125 71.40625 
L 17.703125 0 
L 8.203125 0 
z
" id="HelveticaNeue-49"/>
     </defs>
     <g transform="translate(161.228437 64.164375)scale(0.1 -0.1)">
      <use xlink:href="#HelveticaNeue-46"/>
      <use x="57.399994" xlink:href="#HelveticaNeue-43"/>
      <use x="129.599976" xlink:href="#HelveticaNeue-49"/>
     </g>
    </g>
    <g id="line2d_20">
     <path d="M 133.228437 74.775312 
L 153.228437 74.775312 
" style="fill:none;stroke:#b7ac12;stroke-linecap:square;stroke-width:1.5;"/>
    </g>
    <g id="line2d_21">
     <g>
      <use style="fill:none;stroke:#b7ac12;stroke-linejoin:miter;" x="143.228437" xlink:href="#m31bb1f5e6f" y="74.775312"/>
     </g>
    </g>
    <g id="text_14">
     <!-- HF only -->
     <defs>
      <path d="M 7.796875 71.40625 
L 17.296875 71.40625 
L 17.296875 40.703125 
L 54.90625 40.703125 
L 54.90625 71.40625 
L 64.40625 71.40625 
L 64.40625 0 
L 54.90625 0 
L 54.90625 32.703125 
L 17.296875 32.703125 
L 17.296875 0 
L 7.796875 0 
z
" id="HelveticaNeue-48"/>
     </defs>
     <g transform="translate(161.228437 78.275312)scale(0.1 -0.1)">
      <use xlink:href="#HelveticaNeue-48"/>
      <use x="72.199982" xlink:href="#HelveticaNeue-46"/>
      <use x="129.599976" xlink:href="#HelveticaNeue-20"/>
      <use x="157.399963" xlink:href="#HelveticaNeue-6f"/>
      <use x="214.799957" xlink:href="#HelveticaNeue-6e"/>
      <use x="270.399948" xlink:href="#HelveticaNeue-6c"/>
      <use x="292.599945" xlink:href="#HelveticaNeue-79"/>
     </g>
    </g>
    <g id="line2d_22">
     <path d="M 133.228437 89.155 
L 153.228437 89.155 
" style="fill:none;stroke:#3ec61b;stroke-linecap:square;stroke-width:1.5;"/>
    </g>
    <g id="line2d_23">
     <g>
      <use style="fill:none;stroke:#3ec61b;" x="143.228437" xlink:href="#m94da3dd548" y="89.155"/>
     </g>
    </g>
    <g id="text_15">
     <!-- IM-SRG(2) -->
     <defs>
      <path d="M 8 71.40625 
L 21 71.40625 
L 43.5 11.40625 
L 66.09375 71.40625 
L 79.09375 71.40625 
L 79.09375 0 
L 70.09375 0 
L 70.09375 59.40625 
L 69.90625 59.40625 
L 47.59375 0 
L 39.5 0 
L 17.203125 59.40625 
L 17 59.40625 
L 17 0 
L 8 0 
z
" id="HelveticaNeue-4d"/>
      <path d="M 5 31.796875 
L 33.90625 31.796875 
L 33.90625 23.796875 
L 5 23.796875 
z
" id="HelveticaNeue-2d"/>
      <path d="M 7.796875 71.40625 
L 41.40625 71.40625 
C 48.203125 71.40625 53.5 69.703125 57.296875 66.40625 
C 61.09375 63 63.09375 58.5 63.09375 52.703125 
C 63.09375 48.296875 62.09375 44.5 60.09375 41.296875 
C 58.09375 38 55 35.796875 50.703125 34.59375 
L 50.703125 34.40625 
C 52.703125 34 54.40625 33.296875 55.703125 32.40625 
C 57 31.40625 58 30.296875 58.796875 29 
C 59.59375 27.703125 60.09375 26.296875 60.5 24.703125 
C 60.90625 23.09375 61.203125 21.40625 61.40625 19.703125 
C 61.5 17.90625 61.59375 16.203125 61.703125 14.40625 
C 61.703125 12.59375 61.90625 10.796875 62.203125 9.09375 
C 62.40625 7.296875 62.796875 5.703125 63.296875 4.09375 
C 63.796875 2.5 64.59375 1.203125 65.59375 0 
L 55 0 
C 54.296875 0.703125 53.796875 1.703125 53.59375 3 
C 53.40625 4.203125 53.203125 5.59375 53.203125 7.203125 
C 53.09375 8.796875 53 10.5 53 12.296875 
C 52.90625 14.09375 52.703125 15.796875 52.40625 17.59375 
C 52.09375 19.296875 51.796875 20.90625 51.40625 22.5 
C 51 24.09375 50.296875 25.40625 49.5 26.59375 
C 48.59375 27.796875 47.5 28.703125 46.09375 29.40625 
C 44.703125 30.09375 42.796875 30.5 40.5 30.5 
L 17.296875 30.5 
L 17.296875 0 
L 7.796875 0 
z
M 37.09375 38.5 
C 39.296875 38.5 41.40625 38.59375 43.40625 39 
C 45.40625 39.296875 47.09375 39.90625 48.59375 40.90625 
C 50.09375 41.90625 51.296875 43.203125 52.203125 44.796875 
C 53.09375 46.40625 53.59375 48.59375 53.59375 51.203125 
C 53.59375 54.796875 52.59375 57.703125 50.59375 60 
C 48.59375 62.203125 45.296875 63.40625 40.90625 63.40625 
L 17.296875 63.40625 
L 17.296875 38.5 
z
" id="HelveticaNeue-52"/>
      <path d="M 61.203125 8.90625 
C 58.40625 5.09375 54.90625 2.40625 50.796875 0.796875 
C 46.59375 -0.796875 42.5 -1.59375 38.296875 -1.59375 
C 32.90625 -1.59375 28.203125 -0.703125 24 1.296875 
C 19.796875 3.296875 16.203125 5.90625 13.296875 9.296875 
C 10.296875 12.59375 8.09375 16.40625 6.59375 20.796875 
C 5 25.09375 4.296875 29.59375 4.296875 34.296875 
C 4.296875 39.5 5 44.40625 6.40625 49.09375 
C 7.796875 53.796875 10 57.90625 12.796875 61.5 
C 15.59375 65 19.203125 67.796875 23.40625 69.90625 
C 27.59375 72 32.59375 73.09375 38.296875 73.09375 
C 42.09375 73.09375 45.796875 72.59375 49.203125 71.703125 
C 52.59375 70.796875 55.703125 69.40625 58.40625 67.5 
C 61.09375 65.5 63.40625 63.09375 65.203125 60.09375 
C 67 57.09375 68.296875 53.59375 69 49.40625 
L 59.5 49.40625 
C 59 52.09375 58.09375 54.40625 56.90625 56.40625 
C 55.59375 58.40625 54 60 52.203125 61.296875 
C 50.296875 62.5 48.203125 63.5 45.796875 64.09375 
C 43.40625 64.703125 40.90625 65.09375 38.296875 65.09375 
C 33.90625 65.09375 30.203125 64.203125 27.09375 62.5 
C 24 60.703125 21.5 58.40625 19.5 55.59375 
C 17.5 52.796875 16.09375 49.5 15.203125 45.90625 
C 14.203125 42.296875 13.796875 38.59375 13.796875 34.796875 
C 13.796875 31 14.296875 27.40625 15.40625 24 
C 16.40625 20.59375 18 17.5 20.09375 14.90625 
C 22.09375 12.296875 24.703125 10.203125 27.703125 8.59375 
C 30.703125 7 34.296875 6.296875 38.296875 6.296875 
C 42 6.296875 45.296875 6.90625 48.203125 8.09375 
C 51 9.296875 53.40625 10.90625 55.40625 13 
C 57.40625 15.09375 58.90625 17.59375 59.90625 20.40625 
C 60.90625 23.203125 61.296875 26.296875 61.203125 29.59375 
L 38.40625 29.59375 
L 38.40625 37.59375 
L 69.703125 37.59375 
L 69.703125 0 
L 63.703125 0 
z
" id="HelveticaNeue-47"/>
     </defs>
     <g transform="translate(161.228437 92.655)scale(0.1 -0.1)">
      <use xlink:href="#HelveticaNeue-49"/>
      <use x="25.899994" xlink:href="#HelveticaNeue-4d"/>
      <use x="112.999985" xlink:href="#HelveticaNeue-2d"/>
      <use x="151.899979" xlink:href="#HelveticaNeue-53"/>
      <use x="216.699966" xlink:href="#HelveticaNeue-52"/>
      <use x="285.199951" xlink:href="#HelveticaNeue-47"/>
      <use x="361.099945" xlink:href="#HelveticaNeue-28"/>
      <use x="386.999939" xlink:href="#HelveticaNeue-32"/>
      <use x="442.59993" xlink:href="#HelveticaNeue-29"/>
     </g>
    </g>
    <g id="line2d_24">
     <path d="M 133.228437 103.265938 
L 153.228437 103.265938 
" style="fill:none;stroke:#a81e4c;stroke-linecap:square;stroke-width:1.5;"/>
    </g>
    <g id="line2d_25">
     <g>
      <use style="fill:none;stroke:#a81e4c;stroke-linejoin:miter;" x="143.228437" xlink:href="#m4e433e7a0b" y="103.265938"/>
     </g>
    </g>
    <g id="text_16">
     <!-- MP2 -->
     <defs>
      <path d="M 17.296875 37.203125 
L 35.90625 37.203125 
C 41.296875 37.09375 45.203125 38.203125 47.703125 40.5 
C 50.203125 42.703125 51.5 46 51.5 50.296875 
C 51.5 54.5 50.203125 57.796875 47.703125 60 
C 45.203125 62.203125 41.296875 63.40625 35.90625 63.40625 
L 17.296875 63.40625 
z
M 7.796875 71.40625 
L 39.09375 71.40625 
C 46.296875 71.40625 51.703125 69.5 55.40625 65.796875 
C 59.09375 62.09375 61 56.90625 61 50.296875 
C 61 43.59375 59.09375 38.40625 55.40625 34.703125 
C 51.703125 30.90625 46.296875 29.09375 39.09375 29.203125 
L 17.296875 29.203125 
L 17.296875 0 
L 7.796875 0 
z
" id="HelveticaNeue-50"/>
     </defs>
     <g transform="translate(161.228437 106.765938)scale(0.1 -0.1)">
      <use xlink:href="#HelveticaNeue-4d"/>
      <use x="87.099991" xlink:href="#HelveticaNeue-50"/>
      <use x="151.899979" xlink:href="#HelveticaNeue-32"/>
     </g>
    </g>
    <g id="line2d_26">
     <path d="M 133.228437 117.376875 
L 153.228437 117.376875 
" style="fill:none;stroke:#666666;stroke-dasharray:5.55,2.4;stroke-dashoffset:0;stroke-width:1.5;"/>
    </g>
    <g id="line2d_27"/>
    <g id="text_17">
     <!-- DMC -->
     <g transform="translate(161.228437 120.876875)scale(0.1 -0.1)">
      <use xlink:href="#HelveticaNeue-44"/>
      <use x="70.399994" xlink:href="#HelveticaNeue-4d"/>
      <use x="157.499985" xlink:href="#HelveticaNeue-43"/>
     </g>
    </g>
   </g>
  </g>
 </g>
 <defs>
  <clipPath id="p7d16ccb373">
   <rect height="139.12" width="164.32" x="52.76" y="13.32"/>
  </clipPath>
 </defs>
</svg>
