<?xml version="1.0" encoding="utf-8" standalone="no"?>
<!DOCTYPE svg PUBLIC "-//W3C//DTD SVG 1.1//EN"
  "http://www.w3.org/Graphics/SVG/1.1/DTD/svg11.dtd">
<!-- Created with matplotlib (http://matplotlib.org/) -->
<svg height="408pt" version="1.1" viewBox="0 0 664 408" width="664pt" xmlns="http://www.w3.org/2000/svg" xmlns:xlink="http://www.w3.org/1999/xlink">
 <defs>
  <style type="text/css">
*{stroke-linecap:butt;stroke-linejoin:round;stroke-miterlimit:100000;}
  </style>
 </defs>
 <g id="figure_1">
  <g id="patch_1">
   <path d="M 0 408.16925 
L 664.1925 408.16925 
L 664.1925 0 
L 0 0 
L 0 408.16925 
z
" style="fill:none;"/>
  </g>
  <g id="axes_1">
   <g id="patch_2">
    <path d="M 54.5325 368.74175 
L 500.9325 368.74175 
L 500.9325 23.14175 
L 54.5325 23.14175 
L 54.5325 368.74175 
z
" style="fill:none;"/>
   </g>
   <g id="line2d_1">
    <path clip-path="url(#p6c030f267e)" d="M 54.5325 132.756807 
L 86.418214 196.271387 
L 118.303929 246.323479 
L 150.189643 246.826097 
L 182.075357 246.936099 
L 213.961071 247.002486 
L 245.846786 247.021748 
L 277.7325 247.020807 
L 309.618214 247.024521 
L 341.503929 247.022839 
L 373.389643 247.023376 
L 405.275357 247.023069 
L 437.161071 247.023119 
L 469.046786 247.023106 
" style="fill:none;opacity:0.8;stroke:#c62828;stroke-dasharray:1.000000,3.000000;stroke-dashoffset:0.0;stroke-width:2.0;"/>
    <defs>
     <path d="M 0 3 
C 0.795609 3 1.55874 2.683901 2.12132 2.12132 
C 2.683901 1.55874 3 0.795609 3 0 
C 3 -0.795609 2.683901 -1.55874 2.12132 -2.12132 
C 1.55874 -2.683901 0.795609 -3 0 -3 
C -0.795609 -3 -1.55874 -2.683901 -2.12132 -2.12132 
C -2.683901 -1.55874 -3 -0.795609 -3 0 
C -3 0.795609 -2.683901 1.55874 -2.12132 2.12132 
C -1.55874 2.683901 -0.795609 3 0 3 
z
" id="mbefd38478e"/>
    </defs>
    <g clip-path="url(#p6c030f267e)">
     <use style="fill:#c62828;fill-opacity:0.8;" x="54.5325" xlink:href="#mbefd38478e" y="132.756807432"/>
     <use style="fill:#c62828;fill-opacity:0.8;" x="86.4182142857" xlink:href="#mbefd38478e" y="196.271387169"/>
     <use style="fill:#c62828;fill-opacity:0.8;" x="118.303928571" xlink:href="#mbefd38478e" y="246.323478723"/>
     <use style="fill:#c62828;fill-opacity:0.8;" x="150.189642857" xlink:href="#mbefd38478e" y="246.826097213"/>
     <use style="fill:#c62828;fill-opacity:0.8;" x="182.075357143" xlink:href="#mbefd38478e" y="246.936098602"/>
     <use style="fill:#c62828;fill-opacity:0.8;" x="213.961071429" xlink:href="#mbefd38478e" y="247.002485907"/>
     <use style="fill:#c62828;fill-opacity:0.8;" x="245.846785714" xlink:href="#mbefd38478e" y="247.021748347"/>
     <use style="fill:#c62828;fill-opacity:0.8;" x="277.7325" xlink:href="#mbefd38478e" y="247.020806761"/>
     <use style="fill:#c62828;fill-opacity:0.8;" x="309.618214286" xlink:href="#mbefd38478e" y="247.024521023"/>
     <use style="fill:#c62828;fill-opacity:0.8;" x="341.503928571" xlink:href="#mbefd38478e" y="247.022839486"/>
     <use style="fill:#c62828;fill-opacity:0.8;" x="373.389642857" xlink:href="#mbefd38478e" y="247.023376083"/>
     <use style="fill:#c62828;fill-opacity:0.8;" x="405.275357143" xlink:href="#mbefd38478e" y="247.023068683"/>
     <use style="fill:#c62828;fill-opacity:0.8;" x="437.161071429" xlink:href="#mbefd38478e" y="247.023118762"/>
     <use style="fill:#c62828;fill-opacity:0.8;" x="469.046785714" xlink:href="#mbefd38478e" y="247.023105609"/>
    </g>
   </g>
   <g id="line2d_2">
    <path clip-path="url(#p6c030f267e)" d="M 54.5325 102.313234 
L 86.418214 232.307643 
L 118.303929 295.091911 
L 150.189643 303.317156 
L 182.075357 307.658642 
L 213.961071 310.849716 
L 245.846786 313.014714 
L 277.7325 314.713226 
L 309.618214 316.017973 
L 341.503929 317.072613 
L 373.389643 317.935674 
L 405.275357 318.654922 
L 437.161071 319.26372 
L 469.046786 319.784822 
" style="fill:none;opacity:0.8;stroke:#c62828;stroke-dasharray:6.000000,6.000000;stroke-dashoffset:0.0;stroke-width:2.0;"/>
    <g clip-path="url(#p6c030f267e)">
     <use style="fill:#c62828;fill-opacity:0.8;" x="54.5325" xlink:href="#mbefd38478e" y="102.313234254"/>
     <use style="fill:#c62828;fill-opacity:0.8;" x="86.4182142857" xlink:href="#mbefd38478e" y="232.307643028"/>
     <use style="fill:#c62828;fill-opacity:0.8;" x="118.303928571" xlink:href="#mbefd38478e" y="295.091910785"/>
     <use style="fill:#c62828;fill-opacity:0.8;" x="150.189642857" xlink:href="#mbefd38478e" y="303.317156338"/>
     <use style="fill:#c62828;fill-opacity:0.8;" x="182.075357143" xlink:href="#mbefd38478e" y="307.658641994"/>
     <use style="fill:#c62828;fill-opacity:0.8;" x="213.961071429" xlink:href="#mbefd38478e" y="310.849715694"/>
     <use style="fill:#c62828;fill-opacity:0.8;" x="245.846785714" xlink:href="#mbefd38478e" y="313.014713716"/>
     <use style="fill:#c62828;fill-opacity:0.8;" x="277.7325" xlink:href="#mbefd38478e" y="314.71322603"/>
     <use style="fill:#c62828;fill-opacity:0.8;" x="309.618214286" xlink:href="#mbefd38478e" y="316.017972638"/>
     <use style="fill:#c62828;fill-opacity:0.8;" x="341.503928571" xlink:href="#mbefd38478e" y="317.072612548"/>
     <use style="fill:#c62828;fill-opacity:0.8;" x="373.389642857" xlink:href="#mbefd38478e" y="317.935673648"/>
     <use style="fill:#c62828;fill-opacity:0.8;" x="405.275357143" xlink:href="#mbefd38478e" y="318.654922105"/>
     <use style="fill:#c62828;fill-opacity:0.8;" x="437.161071429" xlink:href="#mbefd38478e" y="319.263720097"/>
     <use style="fill:#c62828;fill-opacity:0.8;" x="469.046785714" xlink:href="#mbefd38478e" y="319.784821613"/>
    </g>
   </g>
   <g id="line2d_3">
    <path clip-path="url(#p6c030f267e)" d="M 54.5325 54.193245 
L 86.418214 212.877333 
L 118.303929 264.761806 
L 150.189643 266.518127 
L 182.075357 266.182763 
L 213.961071 265.306113 
L 245.846786 264.365487 
L 277.7325 263.468518 
L 309.618214 262.631018 
L 341.503929 261.889545 
L 373.389643 261.220594 
L 405.275357 260.625958 
L 437.161071 260.09262 
L 469.046786 259.613841 
" style="fill:none;opacity:0.8;stroke:#c62828;stroke-linecap:square;stroke-width:2.0;"/>
    <g clip-path="url(#p6c030f267e)">
     <use style="fill:#c62828;fill-opacity:0.8;" x="54.5325" xlink:href="#mbefd38478e" y="54.1932449303"/>
     <use style="fill:#c62828;fill-opacity:0.8;" x="86.4182142857" xlink:href="#mbefd38478e" y="212.877332558"/>
     <use style="fill:#c62828;fill-opacity:0.8;" x="118.303928571" xlink:href="#mbefd38478e" y="264.761805948"/>
     <use style="fill:#c62828;fill-opacity:0.8;" x="150.189642857" xlink:href="#mbefd38478e" y="266.51812694"/>
     <use style="fill:#c62828;fill-opacity:0.8;" x="182.075357143" xlink:href="#mbefd38478e" y="266.182763302"/>
     <use style="fill:#c62828;fill-opacity:0.8;" x="213.961071429" xlink:href="#mbefd38478e" y="265.306113174"/>
     <use style="fill:#c62828;fill-opacity:0.8;" x="245.846785714" xlink:href="#mbefd38478e" y="264.365486918"/>
     <use style="fill:#c62828;fill-opacity:0.8;" x="277.7325" xlink:href="#mbefd38478e" y="263.468517855"/>
     <use style="fill:#c62828;fill-opacity:0.8;" x="309.618214286" xlink:href="#mbefd38478e" y="262.631018328"/>
     <use style="fill:#c62828;fill-opacity:0.8;" x="341.503928571" xlink:href="#mbefd38478e" y="261.889545319"/>
     <use style="fill:#c62828;fill-opacity:0.8;" x="373.389642857" xlink:href="#mbefd38478e" y="261.220593978"/>
     <use style="fill:#c62828;fill-opacity:0.8;" x="405.275357143" xlink:href="#mbefd38478e" y="260.62595791"/>
     <use style="fill:#c62828;fill-opacity:0.8;" x="437.161071429" xlink:href="#mbefd38478e" y="260.092620252"/>
     <use style="fill:#c62828;fill-opacity:0.8;" x="469.046785714" xlink:href="#mbefd38478e" y="259.613841109"/>
    </g>
   </g>
   <g id="line2d_4">
    <path clip-path="url(#p6c030f267e)" d="M 54.5325 66.564049 
L 86.418214 141.552703 
L 118.303929 204.209013 
L 150.189643 200.640833 
L 182.075357 201.324673 
L 213.961071 201.169839 
L 245.846786 201.412979 
L 277.7325 201.539254 
L 309.618214 201.678319 
L 341.503929 201.785318 
L 373.389643 201.877303 
L 405.275357 201.954094 
L 437.161071 202.019764 
L 469.046786 202.076052 
" style="fill:none;opacity:0.8;stroke:#0288d1;stroke-dasharray:1.000000,3.000000;stroke-dashoffset:0.0;stroke-width:2.0;"/>
    <defs>
     <path d="M 0 3 
C 0.795609 3 1.55874 2.683901 2.12132 2.12132 
C 2.683901 1.55874 3 0.795609 3 0 
C 3 -0.795609 2.683901 -1.55874 2.12132 -2.12132 
C 1.55874 -2.683901 0.795609 -3 0 -3 
C -0.795609 -3 -1.55874 -2.683901 -2.12132 -2.12132 
C -2.683901 -1.55874 -3 -0.795609 -3 0 
C -3 0.795609 -2.683901 1.55874 -2.12132 2.12132 
C -1.55874 2.683901 -0.795609 3 0 3 
z
" id="m5a27eee097"/>
    </defs>
    <g clip-path="url(#p6c030f267e)">
     <use style="fill:#0288d1;fill-opacity:0.8;" x="54.5325" xlink:href="#m5a27eee097" y="66.5640492536"/>
     <use style="fill:#0288d1;fill-opacity:0.8;" x="86.4182142857" xlink:href="#m5a27eee097" y="141.552702523"/>
     <use style="fill:#0288d1;fill-opacity:0.8;" x="118.303928571" xlink:href="#m5a27eee097" y="204.209013046"/>
     <use style="fill:#0288d1;fill-opacity:0.8;" x="150.189642857" xlink:href="#m5a27eee097" y="200.640833357"/>
     <use style="fill:#0288d1;fill-opacity:0.8;" x="182.075357143" xlink:href="#m5a27eee097" y="201.324672689"/>
     <use style="fill:#0288d1;fill-opacity:0.8;" x="213.961071429" xlink:href="#m5a27eee097" y="201.169838642"/>
     <use style="fill:#0288d1;fill-opacity:0.8;" x="245.846785714" xlink:href="#m5a27eee097" y="201.412979096"/>
     <use style="fill:#0288d1;fill-opacity:0.8;" x="277.7325" xlink:href="#m5a27eee097" y="201.539253824"/>
     <use style="fill:#0288d1;fill-opacity:0.8;" x="309.618214286" xlink:href="#m5a27eee097" y="201.678318922"/>
     <use style="fill:#0288d1;fill-opacity:0.8;" x="341.503928571" xlink:href="#m5a27eee097" y="201.785317827"/>
     <use style="fill:#0288d1;fill-opacity:0.8;" x="373.389642857" xlink:href="#m5a27eee097" y="201.877303499"/>
     <use style="fill:#0288d1;fill-opacity:0.8;" x="405.275357143" xlink:href="#m5a27eee097" y="201.954094267"/>
     <use style="fill:#0288d1;fill-opacity:0.8;" x="437.161071429" xlink:href="#m5a27eee097" y="202.019764327"/>
     <use style="fill:#0288d1;fill-opacity:0.8;" x="469.046785714" xlink:href="#m5a27eee097" y="202.076052277"/>
    </g>
   </g>
   <g id="line2d_5">
    <path clip-path="url(#p6c030f267e)" d="M 54.5325 66.564049 
L 86.418214 210.903609 
L 118.303929 271.954941 
L 150.189643 276.549876 
L 182.075357 280.58222 
L 213.961071 283.184686 
L 245.846786 285.257872 
L 277.7325 286.814041 
L 309.618214 288.062563 
L 341.503929 289.067508 
L 373.389643 289.89812 
L 405.275357 290.592059 
L 437.161071 291.180848 
L 469.046786 291.685756 
" style="fill:none;opacity:0.8;stroke:#0288d1;stroke-dasharray:6.000000,6.000000;stroke-dashoffset:0.0;stroke-width:2.0;"/>
    <g clip-path="url(#p6c030f267e)">
     <use style="fill:#0288d1;fill-opacity:0.8;" x="54.5325" xlink:href="#m5a27eee097" y="66.5640491622"/>
     <use style="fill:#0288d1;fill-opacity:0.8;" x="86.4182142857" xlink:href="#m5a27eee097" y="210.903609482"/>
     <use style="fill:#0288d1;fill-opacity:0.8;" x="118.303928571" xlink:href="#m5a27eee097" y="271.954940968"/>
     <use style="fill:#0288d1;fill-opacity:0.8;" x="150.189642857" xlink:href="#m5a27eee097" y="276.54987589"/>
     <use style="fill:#0288d1;fill-opacity:0.8;" x="182.075357143" xlink:href="#m5a27eee097" y="280.582220164"/>
     <use style="fill:#0288d1;fill-opacity:0.8;" x="213.961071429" xlink:href="#m5a27eee097" y="283.184686329"/>
     <use style="fill:#0288d1;fill-opacity:0.8;" x="245.846785714" xlink:href="#m5a27eee097" y="285.257872048"/>
     <use style="fill:#0288d1;fill-opacity:0.8;" x="277.7325" xlink:href="#m5a27eee097" y="286.814040901"/>
     <use style="fill:#0288d1;fill-opacity:0.8;" x="309.618214286" xlink:href="#m5a27eee097" y="288.06256293"/>
     <use style="fill:#0288d1;fill-opacity:0.8;" x="341.503928571" xlink:href="#m5a27eee097" y="289.06750809"/>
     <use style="fill:#0288d1;fill-opacity:0.8;" x="373.389642857" xlink:href="#m5a27eee097" y="289.898120118"/>
     <use style="fill:#0288d1;fill-opacity:0.8;" x="405.275357143" xlink:href="#m5a27eee097" y="290.592059463"/>
     <use style="fill:#0288d1;fill-opacity:0.8;" x="437.161071429" xlink:href="#m5a27eee097" y="291.180848098"/>
     <use style="fill:#0288d1;fill-opacity:0.8;" x="469.046785714" xlink:href="#m5a27eee097" y="291.68575596"/>
    </g>
   </g>
   <g id="line2d_6">
    <path clip-path="url(#p6c030f267e)" d="M 54.5325 66.564049 
L 86.418214 236.789381 
L 118.303929 278.753479 
L 150.189643 278.269393 
L 182.075357 277.347435 
L 213.961071 276.309016 
L 245.846786 275.546457 
L 277.7325 274.77801 
L 309.618214 274.136074 
L 341.503929 273.560346 
L 373.389643 273.053897 
L 405.275357 272.604774 
L 437.161071 272.204404 
L 469.046786 271.845564 
" style="fill:none;opacity:0.8;stroke:#0288d1;stroke-linecap:square;stroke-width:2.0;"/>
    <g clip-path="url(#p6c030f267e)">
     <use style="fill:#0288d1;fill-opacity:0.8;" x="54.5325" xlink:href="#m5a27eee097" y="66.5640490485"/>
     <use style="fill:#0288d1;fill-opacity:0.8;" x="86.4182142857" xlink:href="#m5a27eee097" y="236.789380763"/>
     <use style="fill:#0288d1;fill-opacity:0.8;" x="118.303928571" xlink:href="#m5a27eee097" y="278.753478645"/>
     <use style="fill:#0288d1;fill-opacity:0.8;" x="150.189642857" xlink:href="#m5a27eee097" y="278.269392824"/>
     <use style="fill:#0288d1;fill-opacity:0.8;" x="182.075357143" xlink:href="#m5a27eee097" y="277.347434562"/>
     <use style="fill:#0288d1;fill-opacity:0.8;" x="213.961071429" xlink:href="#m5a27eee097" y="276.309015715"/>
     <use style="fill:#0288d1;fill-opacity:0.8;" x="245.846785714" xlink:href="#m5a27eee097" y="275.546456589"/>
     <use style="fill:#0288d1;fill-opacity:0.8;" x="277.7325" xlink:href="#m5a27eee097" y="274.778010238"/>
     <use style="fill:#0288d1;fill-opacity:0.8;" x="309.618214286" xlink:href="#m5a27eee097" y="274.136074127"/>
     <use style="fill:#0288d1;fill-opacity:0.8;" x="341.503928571" xlink:href="#m5a27eee097" y="273.560346328"/>
     <use style="fill:#0288d1;fill-opacity:0.8;" x="373.389642857" xlink:href="#m5a27eee097" y="273.053896589"/>
     <use style="fill:#0288d1;fill-opacity:0.8;" x="405.275357143" xlink:href="#m5a27eee097" y="272.604773538"/>
     <use style="fill:#0288d1;fill-opacity:0.8;" x="437.161071429" xlink:href="#m5a27eee097" y="272.204403958"/>
     <use style="fill:#0288d1;fill-opacity:0.8;" x="469.046785714" xlink:href="#m5a27eee097" y="271.845563752"/>
    </g>
   </g>
   <g id="line2d_7">
    <path clip-path="url(#p6c030f267e)" d="M 54.5325 307.22495 
L 500.9325 307.22495 
" style="fill:none;opacity:0.8;stroke:#808080;stroke-dasharray:6.000000,6.000000;stroke-dashoffset:0.0;stroke-width:2.0;"/>
   </g>
   <g id="patch_3">
    <path d="M 54.5325 368.74175 
L 500.9325 368.74175 
" style="fill:none;stroke:#000000;stroke-linecap:square;stroke-linejoin:miter;"/>
   </g>
   <g id="patch_4">
    <path d="M 54.5325 368.74175 
L 54.5325 23.14175 
" style="fill:none;stroke:#000000;stroke-linecap:square;stroke-linejoin:miter;"/>
   </g>
   <g id="patch_5">
    <path d="M 54.5325 23.14175 
L 500.9325 23.14175 
" style="fill:none;stroke:#000000;stroke-linecap:square;stroke-linejoin:miter;"/>
   </g>
   <g id="patch_6">
    <path d="M 500.9325 368.74175 
L 500.9325 23.14175 
" style="fill:none;stroke:#000000;stroke-linecap:square;stroke-linejoin:miter;"/>
   </g>
   <g id="matplotlib.axis_1">
    <g id="xtick_1">
     <g id="line2d_8">
      <defs>
       <path d="M 0 0 
L 0 -4 
" id="me3fe5ae2fe" style="stroke:#000000;stroke-width:0.5;"/>
      </defs>
      <g>
       <use style="stroke:#000000;stroke-width:0.5;" x="54.5325" xlink:href="#me3fe5ae2fe" y="368.74175"/>
      </g>
     </g>
     <g id="line2d_9">
      <defs>
       <path d="M 0 0 
L 0 4 
" id="m5a10e3ebcb" style="stroke:#000000;stroke-width:0.5;"/>
      </defs>
      <g>
       <use style="stroke:#000000;stroke-width:0.5;" x="54.5325" xlink:href="#m5a10e3ebcb" y="23.14175"/>
      </g>
     </g>
     <g id="text_1">
      <!-- 2 -->
      <defs>
       <path d="M 19.1875 8.296875 
L 53.609375 8.296875 
L 53.609375 0 
L 7.328125 0 
L 7.328125 8.296875 
Q 12.9375 14.109375 22.625 23.890625 
Q 32.328125 33.6875 34.8125 36.53125 
Q 39.546875 41.84375 41.421875 45.53125 
Q 43.3125 49.21875 43.3125 52.78125 
Q 43.3125 58.59375 39.234375 62.25 
Q 35.15625 65.921875 28.609375 65.921875 
Q 23.96875 65.921875 18.8125 64.3125 
Q 13.671875 62.703125 7.8125 59.421875 
L 7.8125 69.390625 
Q 13.765625 71.78125 18.9375 73 
Q 24.125 74.21875 28.421875 74.21875 
Q 39.75 74.21875 46.484375 68.546875 
Q 53.21875 62.890625 53.21875 53.421875 
Q 53.21875 48.921875 51.53125 44.890625 
Q 49.859375 40.875 45.40625 35.40625 
Q 44.1875 33.984375 37.640625 27.21875 
Q 31.109375 20.453125 19.1875 8.296875 
" id="BitstreamVeraSans-Roman-32"/>
      </defs>
      <g transform="translate(50.715 381.859875)scale(0.12 -0.12)">
       <use xlink:href="#BitstreamVeraSans-Roman-32"/>
      </g>
     </g>
    </g>
    <g id="xtick_2">
     <g id="line2d_10">
      <g>
       <use style="stroke:#000000;stroke-width:0.5;" x="118.303928571" xlink:href="#me3fe5ae2fe" y="368.74175"/>
      </g>
     </g>
     <g id="line2d_11">
      <g>
       <use style="stroke:#000000;stroke-width:0.5;" x="118.303928571" xlink:href="#m5a10e3ebcb" y="23.14175"/>
      </g>
     </g>
     <g id="text_2">
      <!-- 4 -->
      <defs>
       <path d="M 37.796875 64.3125 
L 12.890625 25.390625 
L 37.796875 25.390625 
z
M 35.203125 72.90625 
L 47.609375 72.90625 
L 47.609375 25.390625 
L 58.015625 25.390625 
L 58.015625 17.1875 
L 47.609375 17.1875 
L 47.609375 0 
L 37.796875 0 
L 37.796875 17.1875 
L 4.890625 17.1875 
L 4.890625 26.703125 
z
" id="BitstreamVeraSans-Roman-34"/>
      </defs>
      <g transform="translate(114.486428571 381.859875)scale(0.12 -0.12)">
       <use xlink:href="#BitstreamVeraSans-Roman-34"/>
      </g>
     </g>
    </g>
    <g id="xtick_3">
     <g id="line2d_12">
      <g>
       <use style="stroke:#000000;stroke-width:0.5;" x="182.075357143" xlink:href="#me3fe5ae2fe" y="368.74175"/>
      </g>
     </g>
     <g id="line2d_13">
      <g>
       <use style="stroke:#000000;stroke-width:0.5;" x="182.075357143" xlink:href="#m5a10e3ebcb" y="23.14175"/>
      </g>
     </g>
     <g id="text_3">
      <!-- 6 -->
      <defs>
       <path d="M 33.015625 40.375 
Q 26.375 40.375 22.484375 35.828125 
Q 18.609375 31.296875 18.609375 23.390625 
Q 18.609375 15.53125 22.484375 10.953125 
Q 26.375 6.390625 33.015625 6.390625 
Q 39.65625 6.390625 43.53125 10.953125 
Q 47.40625 15.53125 47.40625 23.390625 
Q 47.40625 31.296875 43.53125 35.828125 
Q 39.65625 40.375 33.015625 40.375 
M 52.59375 71.296875 
L 52.59375 62.3125 
Q 48.875 64.0625 45.09375 64.984375 
Q 41.3125 65.921875 37.59375 65.921875 
Q 27.828125 65.921875 22.671875 59.328125 
Q 17.53125 52.734375 16.796875 39.40625 
Q 19.671875 43.65625 24.015625 45.921875 
Q 28.375 48.1875 33.59375 48.1875 
Q 44.578125 48.1875 50.953125 41.515625 
Q 57.328125 34.859375 57.328125 23.390625 
Q 57.328125 12.15625 50.6875 5.359375 
Q 44.046875 -1.421875 33.015625 -1.421875 
Q 20.359375 -1.421875 13.671875 8.265625 
Q 6.984375 17.96875 6.984375 36.375 
Q 6.984375 53.65625 15.1875 63.9375 
Q 23.390625 74.21875 37.203125 74.21875 
Q 40.921875 74.21875 44.703125 73.484375 
Q 48.484375 72.75 52.59375 71.296875 
" id="BitstreamVeraSans-Roman-36"/>
      </defs>
      <g transform="translate(178.257857143 381.859875)scale(0.12 -0.12)">
       <use xlink:href="#BitstreamVeraSans-Roman-36"/>
      </g>
     </g>
    </g>
    <g id="xtick_4">
     <g id="line2d_14">
      <g>
       <use style="stroke:#000000;stroke-width:0.5;" x="245.846785714" xlink:href="#me3fe5ae2fe" y="368.74175"/>
      </g>
     </g>
     <g id="line2d_15">
      <g>
       <use style="stroke:#000000;stroke-width:0.5;" x="245.846785714" xlink:href="#m5a10e3ebcb" y="23.14175"/>
      </g>
     </g>
     <g id="text_4">
      <!-- 8 -->
      <defs>
       <path d="M 31.78125 34.625 
Q 24.75 34.625 20.71875 30.859375 
Q 16.703125 27.09375 16.703125 20.515625 
Q 16.703125 13.921875 20.71875 10.15625 
Q 24.75 6.390625 31.78125 6.390625 
Q 38.8125 6.390625 42.859375 10.171875 
Q 46.921875 13.96875 46.921875 20.515625 
Q 46.921875 27.09375 42.890625 30.859375 
Q 38.875 34.625 31.78125 34.625 
M 21.921875 38.8125 
Q 15.578125 40.375 12.03125 44.71875 
Q 8.5 49.078125 8.5 55.328125 
Q 8.5 64.0625 14.71875 69.140625 
Q 20.953125 74.21875 31.78125 74.21875 
Q 42.671875 74.21875 48.875 69.140625 
Q 55.078125 64.0625 55.078125 55.328125 
Q 55.078125 49.078125 51.53125 44.71875 
Q 48 40.375 41.703125 38.8125 
Q 48.828125 37.15625 52.796875 32.3125 
Q 56.78125 27.484375 56.78125 20.515625 
Q 56.78125 9.90625 50.3125 4.234375 
Q 43.84375 -1.421875 31.78125 -1.421875 
Q 19.734375 -1.421875 13.25 4.234375 
Q 6.78125 9.90625 6.78125 20.515625 
Q 6.78125 27.484375 10.78125 32.3125 
Q 14.796875 37.15625 21.921875 38.8125 
M 18.3125 54.390625 
Q 18.3125 48.734375 21.84375 45.5625 
Q 25.390625 42.390625 31.78125 42.390625 
Q 38.140625 42.390625 41.71875 45.5625 
Q 45.3125 48.734375 45.3125 54.390625 
Q 45.3125 60.0625 41.71875 63.234375 
Q 38.140625 66.40625 31.78125 66.40625 
Q 25.390625 66.40625 21.84375 63.234375 
Q 18.3125 60.0625 18.3125 54.390625 
" id="BitstreamVeraSans-Roman-38"/>
      </defs>
      <g transform="translate(242.029285714 381.859875)scale(0.12 -0.12)">
       <use xlink:href="#BitstreamVeraSans-Roman-38"/>
      </g>
     </g>
    </g>
    <g id="xtick_5">
     <g id="line2d_16">
      <g>
       <use style="stroke:#000000;stroke-width:0.5;" x="309.618214286" xlink:href="#me3fe5ae2fe" y="368.74175"/>
      </g>
     </g>
     <g id="line2d_17">
      <g>
       <use style="stroke:#000000;stroke-width:0.5;" x="309.618214286" xlink:href="#m5a10e3ebcb" y="23.14175"/>
      </g>
     </g>
     <g id="text_5">
      <!-- 10 -->
      <defs>
       <path d="M 31.78125 66.40625 
Q 24.171875 66.40625 20.328125 58.90625 
Q 16.5 51.421875 16.5 36.375 
Q 16.5 21.390625 20.328125 13.890625 
Q 24.171875 6.390625 31.78125 6.390625 
Q 39.453125 6.390625 43.28125 13.890625 
Q 47.125 21.390625 47.125 36.375 
Q 47.125 51.421875 43.28125 58.90625 
Q 39.453125 66.40625 31.78125 66.40625 
M 31.78125 74.21875 
Q 44.046875 74.21875 50.515625 64.515625 
Q 56.984375 54.828125 56.984375 36.375 
Q 56.984375 17.96875 50.515625 8.265625 
Q 44.046875 -1.421875 31.78125 -1.421875 
Q 19.53125 -1.421875 13.0625 8.265625 
Q 6.59375 17.96875 6.59375 36.375 
Q 6.59375 54.828125 13.0625 64.515625 
Q 19.53125 74.21875 31.78125 74.21875 
" id="BitstreamVeraSans-Roman-30"/>
       <path d="M 12.40625 8.296875 
L 28.515625 8.296875 
L 28.515625 63.921875 
L 10.984375 60.40625 
L 10.984375 69.390625 
L 28.421875 72.90625 
L 38.28125 72.90625 
L 38.28125 8.296875 
L 54.390625 8.296875 
L 54.390625 0 
L 12.40625 0 
z
" id="BitstreamVeraSans-Roman-31"/>
      </defs>
      <g transform="translate(301.983214286 381.859875)scale(0.12 -0.12)">
       <use xlink:href="#BitstreamVeraSans-Roman-31"/>
       <use x="63.623046875" xlink:href="#BitstreamVeraSans-Roman-30"/>
      </g>
     </g>
    </g>
    <g id="xtick_6">
     <g id="line2d_18">
      <g>
       <use style="stroke:#000000;stroke-width:0.5;" x="373.389642857" xlink:href="#me3fe5ae2fe" y="368.74175"/>
      </g>
     </g>
     <g id="line2d_19">
      <g>
       <use style="stroke:#000000;stroke-width:0.5;" x="373.389642857" xlink:href="#m5a10e3ebcb" y="23.14175"/>
      </g>
     </g>
     <g id="text_6">
      <!-- 12 -->
      <g transform="translate(365.754642857 381.859875)scale(0.12 -0.12)">
       <use xlink:href="#BitstreamVeraSans-Roman-31"/>
       <use x="63.623046875" xlink:href="#BitstreamVeraSans-Roman-32"/>
      </g>
     </g>
    </g>
    <g id="xtick_7">
     <g id="line2d_20">
      <g>
       <use style="stroke:#000000;stroke-width:0.5;" x="437.161071429" xlink:href="#me3fe5ae2fe" y="368.74175"/>
      </g>
     </g>
     <g id="line2d_21">
      <g>
       <use style="stroke:#000000;stroke-width:0.5;" x="437.161071429" xlink:href="#m5a10e3ebcb" y="23.14175"/>
      </g>
     </g>
     <g id="text_7">
      <!-- 14 -->
      <g transform="translate(429.526071429 381.859875)scale(0.12 -0.12)">
       <use xlink:href="#BitstreamVeraSans-Roman-31"/>
       <use x="63.623046875" xlink:href="#BitstreamVeraSans-Roman-34"/>
      </g>
     </g>
    </g>
    <g id="xtick_8">
     <g id="line2d_22">
      <g>
       <use style="stroke:#000000;stroke-width:0.5;" x="500.9325" xlink:href="#me3fe5ae2fe" y="368.74175"/>
      </g>
     </g>
     <g id="line2d_23">
      <g>
       <use style="stroke:#000000;stroke-width:0.5;" x="500.9325" xlink:href="#m5a10e3ebcb" y="23.14175"/>
      </g>
     </g>
     <g id="text_8">
      <!-- 16 -->
      <g transform="translate(493.2975 381.859875)scale(0.12 -0.12)">
       <use xlink:href="#BitstreamVeraSans-Roman-31"/>
       <use x="63.623046875" xlink:href="#BitstreamVeraSans-Roman-36"/>
      </g>
     </g>
    </g>
    <g id="text_9">
     <!-- number of shells in basis -->
     <defs>
      <path id="BitstreamVeraSans-Roman-20"/>
      <path d="M 54.890625 33.015625 
L 54.890625 0 
L 45.90625 0 
L 45.90625 32.71875 
Q 45.90625 40.484375 42.875 44.328125 
Q 39.84375 48.1875 33.796875 48.1875 
Q 26.515625 48.1875 22.3125 43.546875 
Q 18.109375 38.921875 18.109375 30.90625 
L 18.109375 0 
L 9.078125 0 
L 9.078125 75.984375 
L 18.109375 75.984375 
L 18.109375 46.1875 
Q 21.34375 51.125 25.703125 53.5625 
Q 30.078125 56 35.796875 56 
Q 45.21875 56 50.046875 50.171875 
Q 54.890625 44.34375 54.890625 33.015625 
" id="BitstreamVeraSans-Roman-68"/>
      <path d="M 44.28125 53.078125 
L 44.28125 44.578125 
Q 40.484375 46.53125 36.375 47.5 
Q 32.28125 48.484375 27.875 48.484375 
Q 21.1875 48.484375 17.84375 46.4375 
Q 14.5 44.390625 14.5 40.28125 
Q 14.5 37.15625 16.890625 35.375 
Q 19.28125 33.59375 26.515625 31.984375 
L 29.59375 31.296875 
Q 39.15625 29.25 43.1875 25.515625 
Q 47.21875 21.78125 47.21875 15.09375 
Q 47.21875 7.46875 41.1875 3.015625 
Q 35.15625 -1.421875 24.609375 -1.421875 
Q 20.21875 -1.421875 15.453125 -0.5625 
Q 10.6875 0.296875 5.421875 2 
L 5.421875 11.28125 
Q 10.40625 8.6875 15.234375 7.390625 
Q 20.0625 6.109375 24.8125 6.109375 
Q 31.15625 6.109375 34.5625 8.28125 
Q 37.984375 10.453125 37.984375 14.40625 
Q 37.984375 18.0625 35.515625 20.015625 
Q 33.0625 21.96875 24.703125 23.78125 
L 21.578125 24.515625 
Q 13.234375 26.265625 9.515625 29.90625 
Q 5.8125 33.546875 5.8125 39.890625 
Q 5.8125 47.609375 11.28125 51.796875 
Q 16.75 56 26.8125 56 
Q 31.78125 56 36.171875 55.265625 
Q 40.578125 54.546875 44.28125 53.078125 
" id="BitstreamVeraSans-Roman-73"/>
      <path d="M 56.203125 29.59375 
L 56.203125 25.203125 
L 14.890625 25.203125 
Q 15.484375 15.921875 20.484375 11.0625 
Q 25.484375 6.203125 34.421875 6.203125 
Q 39.59375 6.203125 44.453125 7.46875 
Q 49.3125 8.734375 54.109375 11.28125 
L 54.109375 2.78125 
Q 49.265625 0.734375 44.1875 -0.34375 
Q 39.109375 -1.421875 33.890625 -1.421875 
Q 20.796875 -1.421875 13.15625 6.1875 
Q 5.515625 13.8125 5.515625 26.8125 
Q 5.515625 40.234375 12.765625 48.109375 
Q 20.015625 56 32.328125 56 
Q 43.359375 56 49.78125 48.890625 
Q 56.203125 41.796875 56.203125 29.59375 
M 47.21875 32.234375 
Q 47.125 39.59375 43.09375 43.984375 
Q 39.0625 48.390625 32.421875 48.390625 
Q 24.90625 48.390625 20.390625 44.140625 
Q 15.875 39.890625 15.1875 32.171875 
z
" id="BitstreamVeraSans-Roman-65"/>
      <path d="M 41.109375 46.296875 
Q 39.59375 47.171875 37.8125 47.578125 
Q 36.03125 48 33.890625 48 
Q 26.265625 48 22.1875 43.046875 
Q 18.109375 38.09375 18.109375 28.8125 
L 18.109375 0 
L 9.078125 0 
L 9.078125 54.6875 
L 18.109375 54.6875 
L 18.109375 46.1875 
Q 20.953125 51.171875 25.484375 53.578125 
Q 30.03125 56 36.53125 56 
Q 37.453125 56 38.578125 55.875 
Q 39.703125 55.765625 41.0625 55.515625 
z
" id="BitstreamVeraSans-Roman-72"/>
      <path d="M 30.609375 48.390625 
Q 23.390625 48.390625 19.1875 42.75 
Q 14.984375 37.109375 14.984375 27.296875 
Q 14.984375 17.484375 19.15625 11.84375 
Q 23.34375 6.203125 30.609375 6.203125 
Q 37.796875 6.203125 41.984375 11.859375 
Q 46.1875 17.53125 46.1875 27.296875 
Q 46.1875 37.015625 41.984375 42.703125 
Q 37.796875 48.390625 30.609375 48.390625 
M 30.609375 56 
Q 42.328125 56 49.015625 48.375 
Q 55.71875 40.765625 55.71875 27.296875 
Q 55.71875 13.875 49.015625 6.21875 
Q 42.328125 -1.421875 30.609375 -1.421875 
Q 18.84375 -1.421875 12.171875 6.21875 
Q 5.515625 13.875 5.515625 27.296875 
Q 5.515625 40.765625 12.171875 48.375 
Q 18.84375 56 30.609375 56 
" id="BitstreamVeraSans-Roman-6f"/>
      <path d="M 37.109375 75.984375 
L 37.109375 68.5 
L 28.515625 68.5 
Q 23.6875 68.5 21.796875 66.546875 
Q 19.921875 64.59375 19.921875 59.515625 
L 19.921875 54.6875 
L 34.71875 54.6875 
L 34.71875 47.703125 
L 19.921875 47.703125 
L 19.921875 0 
L 10.890625 0 
L 10.890625 47.703125 
L 2.296875 47.703125 
L 2.296875 54.6875 
L 10.890625 54.6875 
L 10.890625 58.5 
Q 10.890625 67.625 15.140625 71.796875 
Q 19.390625 75.984375 28.609375 75.984375 
z
" id="BitstreamVeraSans-Roman-66"/>
      <path d="M 9.421875 75.984375 
L 18.40625 75.984375 
L 18.40625 0 
L 9.421875 0 
z
" id="BitstreamVeraSans-Roman-6c"/>
      <path d="M 48.6875 27.296875 
Q 48.6875 37.203125 44.609375 42.84375 
Q 40.53125 48.484375 33.40625 48.484375 
Q 26.265625 48.484375 22.1875 42.84375 
Q 18.109375 37.203125 18.109375 27.296875 
Q 18.109375 17.390625 22.1875 11.75 
Q 26.265625 6.109375 33.40625 6.109375 
Q 40.53125 6.109375 44.609375 11.75 
Q 48.6875 17.390625 48.6875 27.296875 
M 18.109375 46.390625 
Q 20.953125 51.265625 25.265625 53.625 
Q 29.59375 56 35.59375 56 
Q 45.5625 56 51.78125 48.09375 
Q 58.015625 40.1875 58.015625 27.296875 
Q 58.015625 14.40625 51.78125 6.484375 
Q 45.5625 -1.421875 35.59375 -1.421875 
Q 29.59375 -1.421875 25.265625 0.953125 
Q 20.953125 3.328125 18.109375 8.203125 
L 18.109375 0 
L 9.078125 0 
L 9.078125 75.984375 
L 18.109375 75.984375 
z
" id="BitstreamVeraSans-Roman-62"/>
      <path d="M 34.28125 27.484375 
Q 23.390625 27.484375 19.1875 25 
Q 14.984375 22.515625 14.984375 16.5 
Q 14.984375 11.71875 18.140625 8.90625 
Q 21.296875 6.109375 26.703125 6.109375 
Q 34.1875 6.109375 38.703125 11.40625 
Q 43.21875 16.703125 43.21875 25.484375 
L 43.21875 27.484375 
z
M 52.203125 31.203125 
L 52.203125 0 
L 43.21875 0 
L 43.21875 8.296875 
Q 40.140625 3.328125 35.546875 0.953125 
Q 30.953125 -1.421875 24.3125 -1.421875 
Q 15.921875 -1.421875 10.953125 3.296875 
Q 6 8.015625 6 15.921875 
Q 6 25.140625 12.171875 29.828125 
Q 18.359375 34.515625 30.609375 34.515625 
L 43.21875 34.515625 
L 43.21875 35.40625 
Q 43.21875 41.609375 39.140625 45 
Q 35.0625 48.390625 27.6875 48.390625 
Q 23 48.390625 18.546875 47.265625 
Q 14.109375 46.140625 10.015625 43.890625 
L 10.015625 52.203125 
Q 14.9375 54.109375 19.578125 55.046875 
Q 24.21875 56 28.609375 56 
Q 40.484375 56 46.34375 49.84375 
Q 52.203125 43.703125 52.203125 31.203125 
" id="BitstreamVeraSans-Roman-61"/>
      <path d="M 52 44.1875 
Q 55.375 50.25 60.0625 53.125 
Q 64.75 56 71.09375 56 
Q 79.640625 56 84.28125 50.015625 
Q 88.921875 44.046875 88.921875 33.015625 
L 88.921875 0 
L 79.890625 0 
L 79.890625 32.71875 
Q 79.890625 40.578125 77.09375 44.375 
Q 74.3125 48.1875 68.609375 48.1875 
Q 61.625 48.1875 57.5625 43.546875 
Q 53.515625 38.921875 53.515625 30.90625 
L 53.515625 0 
L 44.484375 0 
L 44.484375 32.71875 
Q 44.484375 40.625 41.703125 44.40625 
Q 38.921875 48.1875 33.109375 48.1875 
Q 26.21875 48.1875 22.15625 43.53125 
Q 18.109375 38.875 18.109375 30.90625 
L 18.109375 0 
L 9.078125 0 
L 9.078125 54.6875 
L 18.109375 54.6875 
L 18.109375 46.1875 
Q 21.1875 51.21875 25.484375 53.609375 
Q 29.78125 56 35.6875 56 
Q 41.65625 56 45.828125 52.96875 
Q 50 49.953125 52 44.1875 
" id="BitstreamVeraSans-Roman-6d"/>
      <path d="M 9.421875 54.6875 
L 18.40625 54.6875 
L 18.40625 0 
L 9.421875 0 
z
M 9.421875 75.984375 
L 18.40625 75.984375 
L 18.40625 64.59375 
L 9.421875 64.59375 
z
" id="BitstreamVeraSans-Roman-69"/>
      <path d="M 54.890625 33.015625 
L 54.890625 0 
L 45.90625 0 
L 45.90625 32.71875 
Q 45.90625 40.484375 42.875 44.328125 
Q 39.84375 48.1875 33.796875 48.1875 
Q 26.515625 48.1875 22.3125 43.546875 
Q 18.109375 38.921875 18.109375 30.90625 
L 18.109375 0 
L 9.078125 0 
L 9.078125 54.6875 
L 18.109375 54.6875 
L 18.109375 46.1875 
Q 21.34375 51.125 25.703125 53.5625 
Q 30.078125 56 35.796875 56 
Q 45.21875 56 50.046875 50.171875 
Q 54.890625 44.34375 54.890625 33.015625 
" id="BitstreamVeraSans-Roman-6e"/>
      <path d="M 8.5 21.578125 
L 8.5 54.6875 
L 17.484375 54.6875 
L 17.484375 21.921875 
Q 17.484375 14.15625 20.5 10.265625 
Q 23.53125 6.390625 29.59375 6.390625 
Q 36.859375 6.390625 41.078125 11.03125 
Q 45.3125 15.671875 45.3125 23.6875 
L 45.3125 54.6875 
L 54.296875 54.6875 
L 54.296875 0 
L 45.3125 0 
L 45.3125 8.40625 
Q 42.046875 3.421875 37.71875 1 
Q 33.40625 -1.421875 27.6875 -1.421875 
Q 18.265625 -1.421875 13.375 4.4375 
Q 8.5 10.296875 8.5 21.578125 
" id="BitstreamVeraSans-Roman-75"/>
     </defs>
     <g transform="translate(202.951875 398.473625)scale(0.12 -0.12)">
      <use xlink:href="#BitstreamVeraSans-Roman-6e"/>
      <use x="63.37890625" xlink:href="#BitstreamVeraSans-Roman-75"/>
      <use x="126.7578125" xlink:href="#BitstreamVeraSans-Roman-6d"/>
      <use x="224.169921875" xlink:href="#BitstreamVeraSans-Roman-62"/>
      <use x="287.646484375" xlink:href="#BitstreamVeraSans-Roman-65"/>
      <use x="349.169921875" xlink:href="#BitstreamVeraSans-Roman-72"/>
      <use x="390.283203125" xlink:href="#BitstreamVeraSans-Roman-20"/>
      <use x="422.0703125" xlink:href="#BitstreamVeraSans-Roman-6f"/>
      <use x="483.251953125" xlink:href="#BitstreamVeraSans-Roman-66"/>
      <use x="518.45703125" xlink:href="#BitstreamVeraSans-Roman-20"/>
      <use x="550.244140625" xlink:href="#BitstreamVeraSans-Roman-73"/>
      <use x="602.34375" xlink:href="#BitstreamVeraSans-Roman-68"/>
      <use x="665.72265625" xlink:href="#BitstreamVeraSans-Roman-65"/>
      <use x="727.24609375" xlink:href="#BitstreamVeraSans-Roman-6c"/>
      <use x="755.029296875" xlink:href="#BitstreamVeraSans-Roman-6c"/>
      <use x="782.8125" xlink:href="#BitstreamVeraSans-Roman-73"/>
      <use x="834.912109375" xlink:href="#BitstreamVeraSans-Roman-20"/>
      <use x="866.69921875" xlink:href="#BitstreamVeraSans-Roman-69"/>
      <use x="894.482421875" xlink:href="#BitstreamVeraSans-Roman-6e"/>
      <use x="957.861328125" xlink:href="#BitstreamVeraSans-Roman-20"/>
      <use x="989.6484375" xlink:href="#BitstreamVeraSans-Roman-62"/>
      <use x="1053.125" xlink:href="#BitstreamVeraSans-Roman-61"/>
      <use x="1114.404296875" xlink:href="#BitstreamVeraSans-Roman-73"/>
      <use x="1166.50390625" xlink:href="#BitstreamVeraSans-Roman-69"/>
      <use x="1194.287109375" xlink:href="#BitstreamVeraSans-Roman-73"/>
     </g>
    </g>
   </g>
   <g id="matplotlib.axis_2">
    <g id="ytick_1">
     <g id="line2d_24">
      <defs>
       <path d="M 0 0 
L 4 0 
" id="ma7b541f21f" style="stroke:#000000;stroke-width:0.5;"/>
      </defs>
      <g>
       <use style="stroke:#000000;stroke-width:0.5;" x="54.5325" xlink:href="#ma7b541f21f" y="368.74175"/>
      </g>
     </g>
     <g id="line2d_25">
      <defs>
       <path d="M 0 0 
L -4 0 
" id="m80485484b2" style="stroke:#000000;stroke-width:0.5;"/>
      </defs>
      <g>
       <use style="stroke:#000000;stroke-width:0.5;" x="500.9325" xlink:href="#m80485484b2" y="368.74175"/>
      </g>
     </g>
     <g id="text_10">
      <!-- 1.15 -->
      <defs>
       <path d="M 10.796875 72.90625 
L 49.515625 72.90625 
L 49.515625 64.59375 
L 19.828125 64.59375 
L 19.828125 46.734375 
Q 21.96875 47.46875 24.109375 47.828125 
Q 26.265625 48.1875 28.421875 48.1875 
Q 40.625 48.1875 47.75 41.5 
Q 54.890625 34.8125 54.890625 23.390625 
Q 54.890625 11.625 47.5625 5.09375 
Q 40.234375 -1.421875 26.90625 -1.421875 
Q 22.3125 -1.421875 17.546875 -0.640625 
Q 12.796875 0.140625 7.71875 1.703125 
L 7.71875 11.625 
Q 12.109375 9.234375 16.796875 8.0625 
Q 21.484375 6.890625 26.703125 6.890625 
Q 35.15625 6.890625 40.078125 11.328125 
Q 45.015625 15.765625 45.015625 23.390625 
Q 45.015625 31 40.078125 35.4375 
Q 35.15625 39.890625 26.703125 39.890625 
Q 22.75 39.890625 18.8125 39.015625 
Q 14.890625 38.140625 10.796875 36.28125 
z
" id="BitstreamVeraSans-Roman-35"/>
       <path d="M 10.6875 12.40625 
L 21 12.40625 
L 21 0 
L 10.6875 0 
z
" id="BitstreamVeraSans-Roman-2e"/>
      </defs>
      <g transform="translate(23.81375 372.053)scale(0.12 -0.12)">
       <use xlink:href="#BitstreamVeraSans-Roman-31"/>
       <use x="63.623046875" xlink:href="#BitstreamVeraSans-Roman-2e"/>
       <use x="95.41015625" xlink:href="#BitstreamVeraSans-Roman-31"/>
       <use x="159.033203125" xlink:href="#BitstreamVeraSans-Roman-35"/>
      </g>
     </g>
    </g>
    <g id="ytick_2">
     <g id="line2d_26">
      <g>
       <use style="stroke:#000000;stroke-width:0.5;" x="54.5325" xlink:href="#ma7b541f21f" y="319.370321429"/>
      </g>
     </g>
     <g id="line2d_27">
      <g>
       <use style="stroke:#000000;stroke-width:0.5;" x="500.9325" xlink:href="#m80485484b2" y="319.370321429"/>
      </g>
     </g>
     <g id="text_11">
      <!-- 1.20 -->
      <g transform="translate(23.81375 322.681571429)scale(0.12 -0.12)">
       <use xlink:href="#BitstreamVeraSans-Roman-31"/>
       <use x="63.623046875" xlink:href="#BitstreamVeraSans-Roman-2e"/>
       <use x="95.41015625" xlink:href="#BitstreamVeraSans-Roman-32"/>
       <use x="159.033203125" xlink:href="#BitstreamVeraSans-Roman-30"/>
      </g>
     </g>
    </g>
    <g id="ytick_3">
     <g id="line2d_28">
      <g>
       <use style="stroke:#000000;stroke-width:0.5;" x="54.5325" xlink:href="#ma7b541f21f" y="269.998892857"/>
      </g>
     </g>
     <g id="line2d_29">
      <g>
       <use style="stroke:#000000;stroke-width:0.5;" x="500.9325" xlink:href="#m80485484b2" y="269.998892857"/>
      </g>
     </g>
     <g id="text_12">
      <!-- 1.25 -->
      <g transform="translate(23.81375 273.310142857)scale(0.12 -0.12)">
       <use xlink:href="#BitstreamVeraSans-Roman-31"/>
       <use x="63.623046875" xlink:href="#BitstreamVeraSans-Roman-2e"/>
       <use x="95.41015625" xlink:href="#BitstreamVeraSans-Roman-32"/>
       <use x="159.033203125" xlink:href="#BitstreamVeraSans-Roman-35"/>
      </g>
     </g>
    </g>
    <g id="ytick_4">
     <g id="line2d_30">
      <g>
       <use style="stroke:#000000;stroke-width:0.5;" x="54.5325" xlink:href="#ma7b541f21f" y="220.627464286"/>
      </g>
     </g>
     <g id="line2d_31">
      <g>
       <use style="stroke:#000000;stroke-width:0.5;" x="500.9325" xlink:href="#m80485484b2" y="220.627464286"/>
      </g>
     </g>
     <g id="text_13">
      <!-- 1.30 -->
      <defs>
       <path d="M 40.578125 39.3125 
Q 47.65625 37.796875 51.625 33 
Q 55.609375 28.21875 55.609375 21.1875 
Q 55.609375 10.40625 48.1875 4.484375 
Q 40.765625 -1.421875 27.09375 -1.421875 
Q 22.515625 -1.421875 17.65625 -0.515625 
Q 12.796875 0.390625 7.625 2.203125 
L 7.625 11.71875 
Q 11.71875 9.328125 16.59375 8.109375 
Q 21.484375 6.890625 26.8125 6.890625 
Q 36.078125 6.890625 40.9375 10.546875 
Q 45.796875 14.203125 45.796875 21.1875 
Q 45.796875 27.640625 41.28125 31.265625 
Q 36.765625 34.90625 28.71875 34.90625 
L 20.21875 34.90625 
L 20.21875 43.015625 
L 29.109375 43.015625 
Q 36.375 43.015625 40.234375 45.921875 
Q 44.09375 48.828125 44.09375 54.296875 
Q 44.09375 59.90625 40.109375 62.90625 
Q 36.140625 65.921875 28.71875 65.921875 
Q 24.65625 65.921875 20.015625 65.03125 
Q 15.375 64.15625 9.8125 62.3125 
L 9.8125 71.09375 
Q 15.4375 72.65625 20.34375 73.4375 
Q 25.25 74.21875 29.59375 74.21875 
Q 40.828125 74.21875 47.359375 69.109375 
Q 53.90625 64.015625 53.90625 55.328125 
Q 53.90625 49.265625 50.4375 45.09375 
Q 46.96875 40.921875 40.578125 39.3125 
" id="BitstreamVeraSans-Roman-33"/>
      </defs>
      <g transform="translate(23.81375 223.938714286)scale(0.12 -0.12)">
       <use xlink:href="#BitstreamVeraSans-Roman-31"/>
       <use x="63.623046875" xlink:href="#BitstreamVeraSans-Roman-2e"/>
       <use x="95.41015625" xlink:href="#BitstreamVeraSans-Roman-33"/>
       <use x="159.033203125" xlink:href="#BitstreamVeraSans-Roman-30"/>
      </g>
     </g>
    </g>
    <g id="ytick_5">
     <g id="line2d_32">
      <g>
       <use style="stroke:#000000;stroke-width:0.5;" x="54.5325" xlink:href="#ma7b541f21f" y="171.256035714"/>
      </g>
     </g>
     <g id="line2d_33">
      <g>
       <use style="stroke:#000000;stroke-width:0.5;" x="500.9325" xlink:href="#m80485484b2" y="171.256035714"/>
      </g>
     </g>
     <g id="text_14">
      <!-- 1.35 -->
      <g transform="translate(23.81375 174.567285714)scale(0.12 -0.12)">
       <use xlink:href="#BitstreamVeraSans-Roman-31"/>
       <use x="63.623046875" xlink:href="#BitstreamVeraSans-Roman-2e"/>
       <use x="95.41015625" xlink:href="#BitstreamVeraSans-Roman-33"/>
       <use x="159.033203125" xlink:href="#BitstreamVeraSans-Roman-35"/>
      </g>
     </g>
    </g>
    <g id="ytick_6">
     <g id="line2d_34">
      <g>
       <use style="stroke:#000000;stroke-width:0.5;" x="54.5325" xlink:href="#ma7b541f21f" y="121.884607143"/>
      </g>
     </g>
     <g id="line2d_35">
      <g>
       <use style="stroke:#000000;stroke-width:0.5;" x="500.9325" xlink:href="#m80485484b2" y="121.884607143"/>
      </g>
     </g>
     <g id="text_15">
      <!-- 1.40 -->
      <g transform="translate(23.81375 125.195857143)scale(0.12 -0.12)">
       <use xlink:href="#BitstreamVeraSans-Roman-31"/>
       <use x="63.623046875" xlink:href="#BitstreamVeraSans-Roman-2e"/>
       <use x="95.41015625" xlink:href="#BitstreamVeraSans-Roman-34"/>
       <use x="159.033203125" xlink:href="#BitstreamVeraSans-Roman-30"/>
      </g>
     </g>
    </g>
    <g id="ytick_7">
     <g id="line2d_36">
      <g>
       <use style="stroke:#000000;stroke-width:0.5;" x="54.5325" xlink:href="#ma7b541f21f" y="72.5131785714"/>
      </g>
     </g>
     <g id="line2d_37">
      <g>
       <use style="stroke:#000000;stroke-width:0.5;" x="500.9325" xlink:href="#m80485484b2" y="72.5131785714"/>
      </g>
     </g>
     <g id="text_16">
      <!-- 1.45 -->
      <g transform="translate(23.81375 75.8244285714)scale(0.12 -0.12)">
       <use xlink:href="#BitstreamVeraSans-Roman-31"/>
       <use x="63.623046875" xlink:href="#BitstreamVeraSans-Roman-2e"/>
       <use x="95.41015625" xlink:href="#BitstreamVeraSans-Roman-34"/>
       <use x="159.033203125" xlink:href="#BitstreamVeraSans-Roman-35"/>
      </g>
     </g>
    </g>
    <g id="ytick_8">
     <g id="line2d_38">
      <g>
       <use style="stroke:#000000;stroke-width:0.5;" x="54.5325" xlink:href="#ma7b541f21f" y="23.14175"/>
      </g>
     </g>
     <g id="line2d_39">
      <g>
       <use style="stroke:#000000;stroke-width:0.5;" x="500.9325" xlink:href="#m80485484b2" y="23.14175"/>
      </g>
     </g>
     <g id="text_17">
      <!-- 1.50 -->
      <g transform="translate(23.81375 26.453)scale(0.12 -0.12)">
       <use xlink:href="#BitstreamVeraSans-Roman-31"/>
       <use x="63.623046875" xlink:href="#BitstreamVeraSans-Roman-2e"/>
       <use x="95.41015625" xlink:href="#BitstreamVeraSans-Roman-35"/>
       <use x="159.033203125" xlink:href="#BitstreamVeraSans-Roman-30"/>
      </g>
     </g>
    </g>
    <g id="text_18">
     <!-- energy -->
     <defs>
      <path d="M 45.40625 27.984375 
Q 45.40625 37.75 41.375 43.109375 
Q 37.359375 48.484375 30.078125 48.484375 
Q 22.859375 48.484375 18.828125 43.109375 
Q 14.796875 37.75 14.796875 27.984375 
Q 14.796875 18.265625 18.828125 12.890625 
Q 22.859375 7.515625 30.078125 7.515625 
Q 37.359375 7.515625 41.375 12.890625 
Q 45.40625 18.265625 45.40625 27.984375 
M 54.390625 6.78125 
Q 54.390625 -7.171875 48.1875 -13.984375 
Q 42 -20.796875 29.203125 -20.796875 
Q 24.46875 -20.796875 20.265625 -20.09375 
Q 16.0625 -19.390625 12.109375 -17.921875 
L 12.109375 -9.1875 
Q 16.0625 -11.328125 19.921875 -12.34375 
Q 23.78125 -13.375 27.78125 -13.375 
Q 36.625 -13.375 41.015625 -8.765625 
Q 45.40625 -4.15625 45.40625 5.171875 
L 45.40625 9.625 
Q 42.625 4.78125 38.28125 2.390625 
Q 33.9375 0 27.875 0 
Q 17.828125 0 11.671875 7.65625 
Q 5.515625 15.328125 5.515625 27.984375 
Q 5.515625 40.671875 11.671875 48.328125 
Q 17.828125 56 27.875 56 
Q 33.9375 56 38.28125 53.609375 
Q 42.625 51.21875 45.40625 46.390625 
L 45.40625 54.6875 
L 54.390625 54.6875 
z
" id="BitstreamVeraSans-Roman-67"/>
      <path d="M 32.171875 -5.078125 
Q 28.375 -14.84375 24.75 -17.8125 
Q 21.140625 -20.796875 15.09375 -20.796875 
L 7.90625 -20.796875 
L 7.90625 -13.28125 
L 13.1875 -13.28125 
Q 16.890625 -13.28125 18.9375 -11.515625 
Q 21 -9.765625 23.484375 -3.21875 
L 25.09375 0.875 
L 2.984375 54.6875 
L 12.5 54.6875 
L 29.59375 11.921875 
L 46.6875 54.6875 
L 56.203125 54.6875 
z
" id="BitstreamVeraSans-Roman-79"/>
     </defs>
     <g transform="translate(16.318125 216.9539375)rotate(-90.0)scale(0.12 -0.12)">
      <use xlink:href="#BitstreamVeraSans-Roman-65"/>
      <use x="61.5234375" xlink:href="#BitstreamVeraSans-Roman-6e"/>
      <use x="124.90234375" xlink:href="#BitstreamVeraSans-Roman-65"/>
      <use x="186.42578125" xlink:href="#BitstreamVeraSans-Roman-72"/>
      <use x="227.5234375" xlink:href="#BitstreamVeraSans-Roman-67"/>
      <use x="291.0" xlink:href="#BitstreamVeraSans-Roman-79"/>
     </g>
    </g>
   </g>
   <g id="text_19">
    <!-- addition energy (2 particles, frequency = 0.28) -->
    <defs>
     <path d="M 18.3125 70.21875 
L 18.3125 54.6875 
L 36.8125 54.6875 
L 36.8125 47.703125 
L 18.3125 47.703125 
L 18.3125 18.015625 
Q 18.3125 11.328125 20.140625 9.421875 
Q 21.96875 7.515625 27.59375 7.515625 
L 36.8125 7.515625 
L 36.8125 0 
L 27.59375 0 
Q 17.1875 0 13.234375 3.875 
Q 9.28125 7.765625 9.28125 18.015625 
L 9.28125 47.703125 
L 2.6875 47.703125 
L 2.6875 54.6875 
L 9.28125 54.6875 
L 9.28125 70.21875 
z
" id="BitstreamVeraSans-Roman-74"/>
     <path d="M 48.78125 52.59375 
L 48.78125 44.1875 
Q 44.96875 46.296875 41.140625 47.34375 
Q 37.3125 48.390625 33.40625 48.390625 
Q 24.65625 48.390625 19.8125 42.84375 
Q 14.984375 37.3125 14.984375 27.296875 
Q 14.984375 17.28125 19.8125 11.734375 
Q 24.65625 6.203125 33.40625 6.203125 
Q 37.3125 6.203125 41.140625 7.25 
Q 44.96875 8.296875 48.78125 10.40625 
L 48.78125 2.09375 
Q 45.015625 0.34375 40.984375 -0.53125 
Q 36.96875 -1.421875 32.421875 -1.421875 
Q 20.0625 -1.421875 12.78125 6.34375 
Q 5.515625 14.109375 5.515625 27.296875 
Q 5.515625 40.671875 12.859375 48.328125 
Q 20.21875 56 33.015625 56 
Q 37.15625 56 41.109375 55.140625 
Q 45.0625 54.296875 48.78125 52.59375 
" id="BitstreamVeraSans-Roman-63"/>
     <path d="M 11.71875 12.40625 
L 22.015625 12.40625 
L 22.015625 4 
L 14.015625 -11.625 
L 7.71875 -11.625 
L 11.71875 4 
z
" id="BitstreamVeraSans-Roman-2c"/>
     <path d="M 18.109375 8.203125 
L 18.109375 -20.796875 
L 9.078125 -20.796875 
L 9.078125 54.6875 
L 18.109375 54.6875 
L 18.109375 46.390625 
Q 20.953125 51.265625 25.265625 53.625 
Q 29.59375 56 35.59375 56 
Q 45.5625 56 51.78125 48.09375 
Q 58.015625 40.1875 58.015625 27.296875 
Q 58.015625 14.40625 51.78125 6.484375 
Q 45.5625 -1.421875 35.59375 -1.421875 
Q 29.59375 -1.421875 25.265625 0.953125 
Q 20.953125 3.328125 18.109375 8.203125 
M 48.6875 27.296875 
Q 48.6875 37.203125 44.609375 42.84375 
Q 40.53125 48.484375 33.40625 48.484375 
Q 26.265625 48.484375 22.1875 42.84375 
Q 18.109375 37.203125 18.109375 27.296875 
Q 18.109375 17.390625 22.1875 11.75 
Q 26.265625 6.109375 33.40625 6.109375 
Q 40.53125 6.109375 44.609375 11.75 
Q 48.6875 17.390625 48.6875 27.296875 
" id="BitstreamVeraSans-Roman-70"/>
     <path d="M 45.40625 46.390625 
L 45.40625 75.984375 
L 54.390625 75.984375 
L 54.390625 0 
L 45.40625 0 
L 45.40625 8.203125 
Q 42.578125 3.328125 38.25 0.953125 
Q 33.9375 -1.421875 27.875 -1.421875 
Q 17.96875 -1.421875 11.734375 6.484375 
Q 5.515625 14.40625 5.515625 27.296875 
Q 5.515625 40.1875 11.734375 48.09375 
Q 17.96875 56 27.875 56 
Q 33.9375 56 38.25 53.625 
Q 42.578125 51.265625 45.40625 46.390625 
M 14.796875 27.296875 
Q 14.796875 17.390625 18.875 11.75 
Q 22.953125 6.109375 30.078125 6.109375 
Q 37.203125 6.109375 41.296875 11.75 
Q 45.40625 17.390625 45.40625 27.296875 
Q 45.40625 37.203125 41.296875 42.84375 
Q 37.203125 48.484375 30.078125 48.484375 
Q 22.953125 48.484375 18.875 42.84375 
Q 14.796875 37.203125 14.796875 27.296875 
" id="BitstreamVeraSans-Roman-64"/>
     <path d="M 8.015625 75.875 
L 15.828125 75.875 
Q 23.140625 64.359375 26.78125 53.3125 
Q 30.421875 42.28125 30.421875 31.390625 
Q 30.421875 20.453125 26.78125 9.375 
Q 23.140625 -1.703125 15.828125 -13.1875 
L 8.015625 -13.1875 
Q 14.5 -2 17.703125 9.0625 
Q 20.90625 20.125 20.90625 31.390625 
Q 20.90625 42.671875 17.703125 53.65625 
Q 14.5 64.65625 8.015625 75.875 
" id="BitstreamVeraSans-Roman-29"/>
     <path d="M 14.796875 27.296875 
Q 14.796875 17.390625 18.875 11.75 
Q 22.953125 6.109375 30.078125 6.109375 
Q 37.203125 6.109375 41.296875 11.75 
Q 45.40625 17.390625 45.40625 27.296875 
Q 45.40625 37.203125 41.296875 42.84375 
Q 37.203125 48.484375 30.078125 48.484375 
Q 22.953125 48.484375 18.875 42.84375 
Q 14.796875 37.203125 14.796875 27.296875 
M 45.40625 8.203125 
Q 42.578125 3.328125 38.25 0.953125 
Q 33.9375 -1.421875 27.875 -1.421875 
Q 17.96875 -1.421875 11.734375 6.484375 
Q 5.515625 14.40625 5.515625 27.296875 
Q 5.515625 40.1875 11.734375 48.09375 
Q 17.96875 56 27.875 56 
Q 33.9375 56 38.25 53.625 
Q 42.578125 51.265625 45.40625 46.390625 
L 45.40625 54.6875 
L 54.390625 54.6875 
L 54.390625 -20.796875 
L 45.40625 -20.796875 
z
" id="BitstreamVeraSans-Roman-71"/>
     <path d="M 31 75.875 
Q 24.46875 64.65625 21.28125 53.65625 
Q 18.109375 42.671875 18.109375 31.390625 
Q 18.109375 20.125 21.3125 9.0625 
Q 24.515625 -2 31 -13.1875 
L 23.1875 -13.1875 
Q 15.875 -1.703125 12.234375 9.375 
Q 8.59375 20.453125 8.59375 31.390625 
Q 8.59375 42.28125 12.203125 53.3125 
Q 15.828125 64.359375 23.1875 75.875 
z
" id="BitstreamVeraSans-Roman-28"/>
     <path d="M 10.59375 45.40625 
L 73.1875 45.40625 
L 73.1875 37.203125 
L 10.59375 37.203125 
z
M 10.59375 25.484375 
L 73.1875 25.484375 
L 73.1875 17.1875 
L 10.59375 17.1875 
z
" id="BitstreamVeraSans-Roman-3d"/>
    </defs>
    <g transform="translate(107.714625 18.14175)scale(0.144 -0.144)">
     <use xlink:href="#BitstreamVeraSans-Roman-61"/>
     <use x="61.279296875" xlink:href="#BitstreamVeraSans-Roman-64"/>
     <use x="124.755859375" xlink:href="#BitstreamVeraSans-Roman-64"/>
     <use x="188.232421875" xlink:href="#BitstreamVeraSans-Roman-69"/>
     <use x="216.015625" xlink:href="#BitstreamVeraSans-Roman-74"/>
     <use x="255.224609375" xlink:href="#BitstreamVeraSans-Roman-69"/>
     <use x="283.0078125" xlink:href="#BitstreamVeraSans-Roman-6f"/>
     <use x="344.189453125" xlink:href="#BitstreamVeraSans-Roman-6e"/>
     <use x="407.568359375" xlink:href="#BitstreamVeraSans-Roman-20"/>
     <use x="439.35546875" xlink:href="#BitstreamVeraSans-Roman-65"/>
     <use x="500.87890625" xlink:href="#BitstreamVeraSans-Roman-6e"/>
     <use x="564.2578125" xlink:href="#BitstreamVeraSans-Roman-65"/>
     <use x="625.78125" xlink:href="#BitstreamVeraSans-Roman-72"/>
     <use x="666.87890625" xlink:href="#BitstreamVeraSans-Roman-67"/>
     <use x="730.35546875" xlink:href="#BitstreamVeraSans-Roman-79"/>
     <use x="789.53515625" xlink:href="#BitstreamVeraSans-Roman-20"/>
     <use x="821.322265625" xlink:href="#BitstreamVeraSans-Roman-28"/>
     <use x="860.3359375" xlink:href="#BitstreamVeraSans-Roman-32"/>
     <use x="923.958984375" xlink:href="#BitstreamVeraSans-Roman-20"/>
     <use x="955.74609375" xlink:href="#BitstreamVeraSans-Roman-70"/>
     <use x="1019.22265625" xlink:href="#BitstreamVeraSans-Roman-61"/>
     <use x="1080.501953125" xlink:href="#BitstreamVeraSans-Roman-72"/>
     <use x="1121.615234375" xlink:href="#BitstreamVeraSans-Roman-74"/>
     <use x="1160.82421875" xlink:href="#BitstreamVeraSans-Roman-69"/>
     <use x="1188.607421875" xlink:href="#BitstreamVeraSans-Roman-63"/>
     <use x="1243.587890625" xlink:href="#BitstreamVeraSans-Roman-6c"/>
     <use x="1271.37109375" xlink:href="#BitstreamVeraSans-Roman-65"/>
     <use x="1332.89453125" xlink:href="#BitstreamVeraSans-Roman-73"/>
     <use x="1384.994140625" xlink:href="#BitstreamVeraSans-Roman-2c"/>
     <use x="1416.78125" xlink:href="#BitstreamVeraSans-Roman-20"/>
     <use x="1448.568359375" xlink:href="#BitstreamVeraSans-Roman-66"/>
     <use x="1483.7734375" xlink:href="#BitstreamVeraSans-Roman-72"/>
     <use x="1524.85546875" xlink:href="#BitstreamVeraSans-Roman-65"/>
     <use x="1586.37890625" xlink:href="#BitstreamVeraSans-Roman-71"/>
     <use x="1649.85546875" xlink:href="#BitstreamVeraSans-Roman-75"/>
     <use x="1713.234375" xlink:href="#BitstreamVeraSans-Roman-65"/>
     <use x="1774.7578125" xlink:href="#BitstreamVeraSans-Roman-6e"/>
     <use x="1838.13671875" xlink:href="#BitstreamVeraSans-Roman-63"/>
     <use x="1893.1171875" xlink:href="#BitstreamVeraSans-Roman-79"/>
     <use x="1952.296875" xlink:href="#BitstreamVeraSans-Roman-20"/>
     <use x="1984.083984375" xlink:href="#BitstreamVeraSans-Roman-3d"/>
     <use x="2067.873046875" xlink:href="#BitstreamVeraSans-Roman-20"/>
     <use x="2099.66015625" xlink:href="#BitstreamVeraSans-Roman-30"/>
     <use x="2163.283203125" xlink:href="#BitstreamVeraSans-Roman-2e"/>
     <use x="2195.0703125" xlink:href="#BitstreamVeraSans-Roman-32"/>
     <use x="2258.693359375" xlink:href="#BitstreamVeraSans-Roman-38"/>
     <use x="2322.31640625" xlink:href="#BitstreamVeraSans-Roman-29"/>
    </g>
   </g>
   <g id="legend_1">
    <g id="patch_7">
     <path d="M 508.1325 261.51125 
L 656.9925 261.51125 
L 656.9925 130.37225 
L 508.1325 130.37225 
z
" style="fill:#ffffff;stroke:#000000;stroke-linejoin:miter;"/>
    </g>
    <g id="line2d_40">
     <path d="M 518.2125 142.034 
L 538.3725 142.034 
" style="fill:none;opacity:0.8;stroke:#c62828;stroke-dasharray:1.000000,3.000000;stroke-dashoffset:0.0;stroke-width:2.0;"/>
    </g>
    <g id="line2d_41">
     <g>
      <use style="fill:#c62828;fill-opacity:0.8;" x="518.2125" xlink:href="#mbefd38478e" y="142.034"/>
      <use style="fill:#c62828;fill-opacity:0.8;" x="538.3725" xlink:href="#mbefd38478e" y="142.034"/>
     </g>
    </g>
    <g id="text_20">
     <!-- HF -->
     <defs>
      <path d="M 9.8125 72.90625 
L 51.703125 72.90625 
L 51.703125 64.59375 
L 19.671875 64.59375 
L 19.671875 43.109375 
L 48.578125 43.109375 
L 48.578125 34.8125 
L 19.671875 34.8125 
L 19.671875 0 
L 9.8125 0 
z
" id="BitstreamVeraSans-Roman-46"/>
      <path d="M 9.8125 72.90625 
L 19.671875 72.90625 
L 19.671875 43.015625 
L 55.515625 43.015625 
L 55.515625 72.90625 
L 65.375 72.90625 
L 65.375 0 
L 55.515625 0 
L 55.515625 34.71875 
L 19.671875 34.71875 
L 19.671875 0 
L 9.8125 0 
z
" id="BitstreamVeraSans-Roman-48"/>
     </defs>
     <g transform="translate(554.2125 147.074)scale(0.144 -0.144)">
      <use xlink:href="#BitstreamVeraSans-Roman-48"/>
      <use x="75.1953125" xlink:href="#BitstreamVeraSans-Roman-46"/>
     </g>
    </g>
    <g id="line2d_42">
     <path d="M 518.2125 163.1705 
L 538.3725 163.1705 
" style="fill:none;opacity:0.8;stroke:#c62828;stroke-dasharray:6.000000,6.000000;stroke-dashoffset:0.0;stroke-width:2.0;"/>
    </g>
    <g id="line2d_43">
     <g>
      <use style="fill:#c62828;fill-opacity:0.8;" x="518.2125" xlink:href="#mbefd38478e" y="163.1705"/>
      <use style="fill:#c62828;fill-opacity:0.8;" x="538.3725" xlink:href="#mbefd38478e" y="163.1705"/>
     </g>
    </g>
    <g id="text_21">
     <!-- HF+QPT2 -->
     <defs>
      <path d="M 19.671875 64.796875 
L 19.671875 37.40625 
L 32.078125 37.40625 
Q 38.96875 37.40625 42.71875 40.96875 
Q 46.484375 44.53125 46.484375 51.125 
Q 46.484375 57.671875 42.71875 61.234375 
Q 38.96875 64.796875 32.078125 64.796875 
z
M 9.8125 72.90625 
L 32.078125 72.90625 
Q 44.34375 72.90625 50.609375 67.359375 
Q 56.890625 61.8125 56.890625 51.125 
Q 56.890625 40.328125 50.609375 34.8125 
Q 44.34375 29.296875 32.078125 29.296875 
L 19.671875 29.296875 
L 19.671875 0 
L 9.8125 0 
z
" id="BitstreamVeraSans-Roman-50"/>
      <path d="M 46 62.703125 
L 46 35.5 
L 73.1875 35.5 
L 73.1875 27.203125 
L 46 27.203125 
L 46 0 
L 37.796875 0 
L 37.796875 27.203125 
L 10.59375 27.203125 
L 10.59375 35.5 
L 37.796875 35.5 
L 37.796875 62.703125 
z
" id="BitstreamVeraSans-Roman-2b"/>
      <path d="M 39.40625 66.21875 
Q 28.65625 66.21875 22.328125 58.203125 
Q 16.015625 50.203125 16.015625 36.375 
Q 16.015625 22.609375 22.328125 14.59375 
Q 28.65625 6.59375 39.40625 6.59375 
Q 50.140625 6.59375 56.421875 14.59375 
Q 62.703125 22.609375 62.703125 36.375 
Q 62.703125 50.203125 56.421875 58.203125 
Q 50.140625 66.21875 39.40625 66.21875 
M 53.21875 1.3125 
L 66.21875 -12.890625 
L 54.296875 -12.890625 
L 43.5 -1.21875 
Q 41.890625 -1.3125 41.03125 -1.359375 
Q 40.1875 -1.421875 39.40625 -1.421875 
Q 24.03125 -1.421875 14.8125 8.859375 
Q 5.609375 19.140625 5.609375 36.375 
Q 5.609375 53.65625 14.8125 63.9375 
Q 24.03125 74.21875 39.40625 74.21875 
Q 54.734375 74.21875 63.90625 63.9375 
Q 73.09375 53.65625 73.09375 36.375 
Q 73.09375 23.6875 67.984375 14.640625 
Q 62.890625 5.609375 53.21875 1.3125 
" id="BitstreamVeraSans-Roman-51"/>
      <path d="M -0.296875 72.90625 
L 61.375 72.90625 
L 61.375 64.59375 
L 35.5 64.59375 
L 35.5 0 
L 25.59375 0 
L 25.59375 64.59375 
L -0.296875 64.59375 
z
" id="BitstreamVeraSans-Roman-54"/>
     </defs>
     <g transform="translate(554.2125 168.2105)scale(0.144 -0.144)">
      <use xlink:href="#BitstreamVeraSans-Roman-48"/>
      <use x="75.1953125" xlink:href="#BitstreamVeraSans-Roman-46"/>
      <use x="132.71484375" xlink:href="#BitstreamVeraSans-Roman-2b"/>
      <use x="216.50390625" xlink:href="#BitstreamVeraSans-Roman-51"/>
      <use x="295.21484375" xlink:href="#BitstreamVeraSans-Roman-50"/>
      <use x="355.517578125" xlink:href="#BitstreamVeraSans-Roman-54"/>
      <use x="416.6015625" xlink:href="#BitstreamVeraSans-Roman-32"/>
     </g>
    </g>
    <g id="line2d_44">
     <path d="M 518.2125 184.307 
L 538.3725 184.307 
" style="fill:none;opacity:0.8;stroke:#c62828;stroke-linecap:square;stroke-width:2.0;"/>
    </g>
    <g id="line2d_45">
     <g>
      <use style="fill:#c62828;fill-opacity:0.8;" x="518.2125" xlink:href="#mbefd38478e" y="184.307"/>
      <use style="fill:#c62828;fill-opacity:0.8;" x="538.3725" xlink:href="#mbefd38478e" y="184.307"/>
     </g>
    </g>
    <g id="text_22">
     <!-- HF+QPT3 -->
     <g transform="translate(554.2125 189.347)scale(0.144 -0.144)">
      <use xlink:href="#BitstreamVeraSans-Roman-48"/>
      <use x="75.1953125" xlink:href="#BitstreamVeraSans-Roman-46"/>
      <use x="132.71484375" xlink:href="#BitstreamVeraSans-Roman-2b"/>
      <use x="216.50390625" xlink:href="#BitstreamVeraSans-Roman-51"/>
      <use x="295.21484375" xlink:href="#BitstreamVeraSans-Roman-50"/>
      <use x="355.517578125" xlink:href="#BitstreamVeraSans-Roman-54"/>
      <use x="416.6015625" xlink:href="#BitstreamVeraSans-Roman-33"/>
     </g>
    </g>
    <g id="line2d_46">
     <path d="M 518.2125 205.4435 
L 538.3725 205.4435 
" style="fill:none;opacity:0.8;stroke:#0288d1;stroke-dasharray:1.000000,3.000000;stroke-dashoffset:0.0;stroke-width:2.0;"/>
    </g>
    <g id="line2d_47">
     <g>
      <use style="fill:#0288d1;fill-opacity:0.8;" x="518.2125" xlink:href="#m5a27eee097" y="205.4435"/>
      <use style="fill:#0288d1;fill-opacity:0.8;" x="538.3725" xlink:href="#m5a27eee097" y="205.4435"/>
     </g>
    </g>
    <g id="text_23">
     <!-- IMSRG -->
     <defs>
      <path d="M 59.515625 10.40625 
L 59.515625 29.984375 
L 43.40625 29.984375 
L 43.40625 38.09375 
L 69.28125 38.09375 
L 69.28125 6.78125 
Q 63.578125 2.734375 56.6875 0.65625 
Q 49.8125 -1.421875 42 -1.421875 
Q 24.90625 -1.421875 15.25 8.5625 
Q 5.609375 18.5625 5.609375 36.375 
Q 5.609375 54.25 15.25 64.234375 
Q 24.90625 74.21875 42 74.21875 
Q 49.125 74.21875 55.546875 72.453125 
Q 61.96875 70.703125 67.390625 67.28125 
L 67.390625 56.78125 
Q 61.921875 61.421875 55.765625 63.765625 
Q 49.609375 66.109375 42.828125 66.109375 
Q 29.4375 66.109375 22.71875 58.640625 
Q 16.015625 51.171875 16.015625 36.375 
Q 16.015625 21.625 22.71875 14.15625 
Q 29.4375 6.6875 42.828125 6.6875 
Q 48.046875 6.6875 52.140625 7.59375 
Q 56.25 8.5 59.515625 10.40625 
" id="BitstreamVeraSans-Roman-47"/>
      <path d="M 53.515625 70.515625 
L 53.515625 60.890625 
Q 47.90625 63.578125 42.921875 64.890625 
Q 37.9375 66.21875 33.296875 66.21875 
Q 25.25 66.21875 20.875 63.09375 
Q 16.5 59.96875 16.5 54.203125 
Q 16.5 49.359375 19.40625 46.890625 
Q 22.3125 44.4375 30.421875 42.921875 
L 36.375 41.703125 
Q 47.40625 39.59375 52.65625 34.296875 
Q 57.90625 29 57.90625 20.125 
Q 57.90625 9.515625 50.796875 4.046875 
Q 43.703125 -1.421875 29.984375 -1.421875 
Q 24.8125 -1.421875 18.96875 -0.25 
Q 13.140625 0.921875 6.890625 3.21875 
L 6.890625 13.375 
Q 12.890625 10.015625 18.65625 8.296875 
Q 24.421875 6.59375 29.984375 6.59375 
Q 38.421875 6.59375 43.015625 9.90625 
Q 47.609375 13.234375 47.609375 19.390625 
Q 47.609375 24.75 44.3125 27.78125 
Q 41.015625 30.8125 33.5 32.328125 
L 27.484375 33.5 
Q 16.453125 35.6875 11.515625 40.375 
Q 6.59375 45.0625 6.59375 53.421875 
Q 6.59375 63.09375 13.40625 68.65625 
Q 20.21875 74.21875 32.171875 74.21875 
Q 37.3125 74.21875 42.625 73.28125 
Q 47.953125 72.359375 53.515625 70.515625 
" id="BitstreamVeraSans-Roman-53"/>
      <path d="M 44.390625 34.1875 
Q 47.5625 33.109375 50.5625 29.59375 
Q 53.5625 26.078125 56.59375 19.921875 
L 66.609375 0 
L 56 0 
L 46.6875 18.703125 
Q 43.0625 26.03125 39.671875 28.421875 
Q 36.28125 30.8125 30.421875 30.8125 
L 19.671875 30.8125 
L 19.671875 0 
L 9.8125 0 
L 9.8125 72.90625 
L 32.078125 72.90625 
Q 44.578125 72.90625 50.734375 67.671875 
Q 56.890625 62.453125 56.890625 51.90625 
Q 56.890625 45.015625 53.6875 40.46875 
Q 50.484375 35.9375 44.390625 34.1875 
M 19.671875 64.796875 
L 19.671875 38.921875 
L 32.078125 38.921875 
Q 39.203125 38.921875 42.84375 42.21875 
Q 46.484375 45.515625 46.484375 51.90625 
Q 46.484375 58.296875 42.84375 61.546875 
Q 39.203125 64.796875 32.078125 64.796875 
z
" id="BitstreamVeraSans-Roman-52"/>
      <path d="M 9.8125 72.90625 
L 19.671875 72.90625 
L 19.671875 0 
L 9.8125 0 
z
" id="BitstreamVeraSans-Roman-49"/>
      <path d="M 9.8125 72.90625 
L 24.515625 72.90625 
L 43.109375 23.296875 
L 61.8125 72.90625 
L 76.515625 72.90625 
L 76.515625 0 
L 66.890625 0 
L 66.890625 64.015625 
L 48.09375 14.015625 
L 38.1875 14.015625 
L 19.390625 64.015625 
L 19.390625 0 
L 9.8125 0 
z
" id="BitstreamVeraSans-Roman-4d"/>
     </defs>
     <g transform="translate(554.2125 210.4835)scale(0.144 -0.144)">
      <use xlink:href="#BitstreamVeraSans-Roman-49"/>
      <use x="29.4921875" xlink:href="#BitstreamVeraSans-Roman-4d"/>
      <use x="115.771484375" xlink:href="#BitstreamVeraSans-Roman-53"/>
      <use x="179.248046875" xlink:href="#BitstreamVeraSans-Roman-52"/>
      <use x="248.73046875" xlink:href="#BitstreamVeraSans-Roman-47"/>
     </g>
    </g>
    <g id="line2d_48">
     <path d="M 518.2125 226.58 
L 538.3725 226.58 
" style="fill:none;opacity:0.8;stroke:#0288d1;stroke-dasharray:6.000000,6.000000;stroke-dashoffset:0.0;stroke-width:2.0;"/>
    </g>
    <g id="line2d_49">
     <g>
      <use style="fill:#0288d1;fill-opacity:0.8;" x="518.2125" xlink:href="#m5a27eee097" y="226.58"/>
      <use style="fill:#0288d1;fill-opacity:0.8;" x="538.3725" xlink:href="#m5a27eee097" y="226.58"/>
     </g>
    </g>
    <g id="text_24">
     <!-- IMSRG+QPT2 -->
     <g transform="translate(554.2125 231.62)scale(0.144 -0.144)">
      <use xlink:href="#BitstreamVeraSans-Roman-49"/>
      <use x="29.4921875" xlink:href="#BitstreamVeraSans-Roman-4d"/>
      <use x="115.771484375" xlink:href="#BitstreamVeraSans-Roman-53"/>
      <use x="179.248046875" xlink:href="#BitstreamVeraSans-Roman-52"/>
      <use x="248.73046875" xlink:href="#BitstreamVeraSans-Roman-47"/>
      <use x="326.220703125" xlink:href="#BitstreamVeraSans-Roman-2b"/>
      <use x="410.009765625" xlink:href="#BitstreamVeraSans-Roman-51"/>
      <use x="488.720703125" xlink:href="#BitstreamVeraSans-Roman-50"/>
      <use x="549.0234375" xlink:href="#BitstreamVeraSans-Roman-54"/>
      <use x="610.107421875" xlink:href="#BitstreamVeraSans-Roman-32"/>
     </g>
    </g>
    <g id="line2d_50">
     <path d="M 518.2125 247.7165 
L 538.3725 247.7165 
" style="fill:none;opacity:0.8;stroke:#0288d1;stroke-linecap:square;stroke-width:2.0;"/>
    </g>
    <g id="line2d_51">
     <g>
      <use style="fill:#0288d1;fill-opacity:0.8;" x="518.2125" xlink:href="#m5a27eee097" y="247.7165"/>
      <use style="fill:#0288d1;fill-opacity:0.8;" x="538.3725" xlink:href="#m5a27eee097" y="247.7165"/>
     </g>
    </g>
    <g id="text_25">
     <!-- IMSRG+QPT3 -->
     <g transform="translate(554.2125 252.7565)scale(0.144 -0.144)">
      <use xlink:href="#BitstreamVeraSans-Roman-49"/>
      <use x="29.4921875" xlink:href="#BitstreamVeraSans-Roman-4d"/>
      <use x="115.771484375" xlink:href="#BitstreamVeraSans-Roman-53"/>
      <use x="179.248046875" xlink:href="#BitstreamVeraSans-Roman-52"/>
      <use x="248.73046875" xlink:href="#BitstreamVeraSans-Roman-47"/>
      <use x="326.220703125" xlink:href="#BitstreamVeraSans-Roman-2b"/>
      <use x="410.009765625" xlink:href="#BitstreamVeraSans-Roman-51"/>
      <use x="488.720703125" xlink:href="#BitstreamVeraSans-Roman-50"/>
      <use x="549.0234375" xlink:href="#BitstreamVeraSans-Roman-54"/>
      <use x="610.107421875" xlink:href="#BitstreamVeraSans-Roman-33"/>
     </g>
    </g>
   </g>
  </g>
 </g>
 <defs>
  <clipPath id="p6c030f267e">
   <rect height="345.6" width="446.4" x="54.5325" y="23.14175"/>
  </clipPath>
 </defs>
</svg>
